<?xml version="1.0" encoding="utf-8" standalone="no"?>
<!DOCTYPE svg PUBLIC "-//W3C//DTD SVG 1.1//EN"
  "http://www.w3.org/Graphics/SVG/1.1/DTD/svg11.dtd">
<svg xmlns:xlink="http://www.w3.org/1999/xlink" width="604.8pt" height="763.2pt" viewBox="0 0 604.8 763.2" xmlns="http://www.w3.org/2000/svg" version="1.1">
 <metadata>
  <rdf:RDF xmlns:dc="http://purl.org/dc/elements/1.1/" xmlns:cc="http://creativecommons.org/ns#" xmlns:rdf="http://www.w3.org/1999/02/22-rdf-syntax-ns#">
   <cc:Work>
    <dc:type rdf:resource="http://purl.org/dc/dcmitype/StillImage"/>
    <dc:date>2026-03-26T00:00:00</dc:date>
    <dc:format>image/svg+xml</dc:format>
    <dc:creator>
     <cc:Agent>
      <dc:title>Matplotlib v3.7.5, https://matplotlib.org/</dc:title>
     </cc:Agent>
    </dc:creator>
   </cc:Work>
  </rdf:RDF>
 </metadata>
 <defs>
  <style type="text/css">*{stroke-linejoin: round; stroke-linecap: butt}</style>
 </defs>
 <g id="figure_1">
  <g id="patch_1">
   <path d="M 0 763.2 
L 604.8 763.2 
L 604.8 0 
L 0 0 
z
" style="fill: #13202d"/>
  </g>
  <g id="axes_1">
   <g id="patch_2">
    <path d="M 35.0336 752.228923 
L 569.7664 752.228923 
Q 593.6384 752.228923 593.6384 728.992 
L 593.6384 34.208 
Q 593.6384 10.971077 569.7664 10.971077 
L 35.0336 10.971077 
Q 11.1616 10.971077 11.1616 34.208 
L 11.1616 728.992 
Q 11.1616 752.228923 35.0336 752.228923 
z
" clip-path="url(#p8c5dde1456)" style="fill: #13202d; stroke: #d8c1a2; stroke-width: 1.6; stroke-linejoin: miter"/>
   </g>
   <g id="patch_3">
    <path d="M 15.936 15.618462 
L 588.864 15.618462 
L 588.864 329.316923 
L 290.464 247.987692 
z
" clip-path="url(#p8c5dde1456)" style="fill: #203244"/>
   </g>
   <g id="patch_4">
    <path d="M 15.936 747.581538 
L 15.936 352.553846 
L 254.656 410.646154 
L 588.864 515.212308 
L 588.864 747.581538 
z
" clip-path="url(#p8c5dde1456)" style="fill: #182734"/>
   </g>
   <g id="patch_5">
    <path d="M 499.344 155.04 
C 513.588589 155.04 527.251674 149.531125 537.324119 139.726641 
C 547.396565 129.922157 553.056 116.622557 553.056 102.756923 
C 553.056 88.891289 547.396565 75.591689 537.324119 65.787205 
C 527.251674 55.982721 513.588589 50.473846 499.344 50.473846 
C 485.099411 50.473846 471.436326 55.982721 461.363881 65.787205 
C 451.291435 75.591689 445.632 88.891289 445.632 102.756923 
C 445.632 116.622557 451.291435 129.922157 461.363881 139.726641 
C 471.436326 149.531125 485.099411 155.04 499.344 155.04 
z
" clip-path="url(#p8c5dde1456)" style="fill: #e9be76; opacity: 0.18"/>
   </g>
   <g id="patch_6">
    <path d="M 87.552 160.849231 
C 104.962053 160.849231 121.661379 154.116162 133.972146 142.132903 
C 146.282913 130.149645 153.2 113.894578 153.2 96.947692 
C 153.2 80.000806 146.282913 63.745739 133.972146 51.762481 
C 121.661379 39.779223 104.962053 33.046154 87.552 33.046154 
C 70.141947 33.046154 53.442621 39.779223 41.131854 51.762481 
C 28.821087 63.745739 21.904 80.000806 21.904 96.947692 
C 21.904 113.894578 28.821087 130.149645 41.131854 142.132903 
C 53.442621 154.116162 70.141947 160.849231 87.552 160.849231 
z
" clip-path="url(#p8c5dde1456)" style="fill: #b7d7ef; opacity: 0.08"/>
   </g>
   <g id="patch_7">
    <path d="M 73.2288 453.634462 
L 257.0432 453.634462 
Q 268.9792 453.634462 268.9792 442.016 
L 268.9792 251.473231 
Q 268.9792 239.854769 257.0432 239.854769 
L 73.2288 239.854769 
Q 61.2928 239.854769 61.2928 251.473231 
L 61.2928 442.016 
Q 61.2928 453.634462 73.2288 453.634462 
z
" clip-path="url(#p8c5dde1456)" style="fill: #0e1721; stroke: #d8c1a2; stroke-linejoin: miter"/>
   </g>
   <g id="patch_8">
    <path d="M 95.518865 416.455385 
Q 168.119913 416.455385 239.491124 416.455385 
" clip-path="url(#p8c5dde1456)" style="fill: none; stroke: #f6f1e6; stroke-width: 1.1; stroke-linecap: round"/>
    <path d="M 235.491124 414.455385 
L 239.491124 416.455385 
L 235.491124 418.455385 
z
" clip-path="url(#p8c5dde1456)" style="fill: #f6f1e6; stroke: #f6f1e6; stroke-width: 1.1; stroke-linecap: round"/>
   </g>
   <g id="patch_9">
    <path d="M 93.52 414.459525 
Q 93.52 340.935843 93.52 268.641999 
" clip-path="url(#p8c5dde1456)" style="fill: none; stroke: #f6f1e6; stroke-width: 1.1; stroke-linecap: round"/>
    <path d="M 91.52 272.641999 
L 93.52 268.641999 
L 95.52 272.641999 
z
" clip-path="url(#p8c5dde1456)" style="fill: #f6f1e6; stroke: #f6f1e6; stroke-width: 1.1; stroke-linecap: round"/>
   </g>
   <g id="patch_10">
    <path d="M 93.52 416.455385 
L 93.52 416.455385 
L 105.456 411.808 
L 117.392 407.160615 
L 129.328 402.513231 
L 141.264 397.865846 
L 153.2 393.218462 
L 153.2 416.455385 
z
" clip-path="url(#p8c5dde1456)" style="fill: #8eb6d9; opacity: 0.16"/>
   </g>
   <g id="patch_11">
    <path d="M 165.136 386.189292 
C 166.006503 386.189292 166.841469 385.852639 167.457007 385.253476 
C 168.072546 384.654313 168.4184 383.84156 168.4184 382.994215 
C 168.4184 382.146871 168.072546 381.334118 167.457007 380.734955 
C 166.841469 380.135792 166.006503 379.799138 165.136 379.799138 
C 164.265497 379.799138 163.430531 380.135792 162.814993 380.734955 
C 162.199454 381.334118 161.8536 382.146871 161.8536 382.994215 
C 161.8536 383.84156 162.199454 384.654313 162.814993 385.253476 
C 163.430531 385.852639 164.265497 386.189292 165.136 386.189292 
z
" clip-path="url(#p8c5dde1456)" style="fill: #f6f1e6"/>
   </g>
   <g id="patch_12">
    <path d="M 329.8528 453.634462 
L 525.6032 453.634462 
Q 537.5392 453.634462 537.5392 442.016 
L 537.5392 251.473231 
Q 537.5392 239.854769 525.6032 239.854769 
L 329.8528 239.854769 
Q 317.9168 239.854769 317.9168 251.473231 
L 317.9168 442.016 
Q 317.9168 453.634462 329.8528 453.634462 
z
" clip-path="url(#p8c5dde1456)" style="fill: #0e1721; stroke: #d8c1a2; stroke-linejoin: miter"/>
   </g>
   <g id="patch_13">
    <path d="M 347.966731 428.073846 
Q 428.624088 428.073846 508.163412 428.073846 
" clip-path="url(#p8c5dde1456)" style="fill: none; stroke: #f6f1e6; stroke-linecap: round"/>
    <path d="M 504.163412 426.073846 
L 508.163412 428.073846 
L 504.163412 430.073846 
z
" clip-path="url(#p8c5dde1456)" style="fill: #f6f1e6; stroke: #f6f1e6; stroke-linecap: round"/>
   </g>
   <g id="patch_14">
    <path d="M 345.9664 426.073377 
Q 345.9664 346.74212 345.9664 268.528896 
" clip-path="url(#p8c5dde1456)" style="fill: none; stroke: #f6f1e6; stroke-linecap: round"/>
    <path d="M 343.9664 272.528896 
L 345.9664 268.528896 
L 347.9664 272.528896 
z
" clip-path="url(#p8c5dde1456)" style="fill: #f6f1e6; stroke: #f6f1e6; stroke-linecap: round"/>
   </g>
   <g id="patch_15">
    <path d="M 411.6144 286.139815 
C 412.405766 286.139815 413.164826 285.833767 413.724407 285.289073 
C 414.283987 284.74438 414.5984 284.005513 414.5984 283.2352 
C 414.5984 282.464887 414.283987 281.72602 413.724407 281.181327 
C 413.164826 280.636633 412.405766 280.330585 411.6144 280.330585 
C 410.823034 280.330585 410.063974 280.636633 409.504393 281.181327 
C 408.944813 281.72602 408.6304 282.464887 408.6304 283.2352 
C 408.6304 284.005513 408.944813 284.74438 409.504393 285.289073 
C 410.063974 285.833767 410.823034 286.139815 411.6144 286.139815 
z
" clip-path="url(#p8c5dde1456)" style="fill: #f6f1e6"/>
   </g>
   <g id="patch_16">
    <path d="M 351.9344 369.981538 
L 358.7976 369.981538 
L 358.7976 369.981538 
L 351.9344 369.981538 
z
" clip-path="url(#p8c5dde1456)" style="fill: #8eb6d9; opacity: 0.18"/>
   </g>
   <g id="patch_17">
    <path d="M 361.1848 369.981538 
L 368.048 369.981538 
L 368.048 368.877785 
L 361.1848 368.877785 
z
" clip-path="url(#p8c5dde1456)" style="fill: #8eb6d9; opacity: 0.18"/>
   </g>
   <g id="patch_18">
    <path d="M 370.4352 369.981538 
L 377.2984 369.981538 
L 377.2984 367.425477 
L 370.4352 367.425477 
z
" clip-path="url(#p8c5dde1456)" style="fill: #8eb6d9; opacity: 0.18"/>
   </g>
   <g id="patch_19">
    <path d="M 379.6856 369.981538 
L 386.5488 369.981538 
L 386.5488 365.624615 
L 379.6856 365.624615 
z
" clip-path="url(#p8c5dde1456)" style="fill: #8eb6d9; opacity: 0.18"/>
   </g>
   <g id="patch_20">
    <path d="M 388.936 369.981538 
L 395.7992 369.981538 
L 395.7992 363.4752 
L 388.936 363.4752 
z
" clip-path="url(#p8c5dde1456)" style="fill: #8eb6d9; opacity: 0.18"/>
   </g>
   <g id="patch_21">
    <path d="M 398.1864 369.981538 
L 405.0496 369.981538 
L 405.0496 360.977231 
L 398.1864 360.977231 
z
" clip-path="url(#p8c5dde1456)" style="fill: #8eb6d9; opacity: 0.18"/>
   </g>
   <g id="patch_22">
    <path d="M 407.4368 369.981538 
L 414.3 369.981538 
L 414.3 358.130708 
L 407.4368 358.130708 
z
" clip-path="url(#p8c5dde1456)" style="fill: #8eb6d9; opacity: 0.18"/>
   </g>
   <g id="patch_23">
    <path d="M 416.6872 369.981538 
L 423.5504 369.981538 
L 423.5504 354.935631 
L 416.6872 354.935631 
z
" clip-path="url(#p8c5dde1456)" style="fill: #8eb6d9; opacity: 0.18"/>
   </g>
   <g id="patch_24">
    <path d="M 425.9376 369.981538 
L 432.8008 369.981538 
L 432.8008 351.392 
L 425.9376 351.392 
z
" clip-path="url(#p8c5dde1456)" style="fill: #8eb6d9; opacity: 0.18"/>
   </g>
   <g id="patch_25">
    <path d="M 435.188 369.981538 
L 442.0512 369.981538 
L 442.0512 347.499815 
L 435.188 347.499815 
z
" clip-path="url(#p8c5dde1456)" style="fill: #8eb6d9; opacity: 0.18"/>
   </g>
   <g id="patch_26">
    <path d="M 444.4384 369.981538 
L 451.3016 369.981538 
L 451.3016 343.259077 
L 444.4384 343.259077 
z
" clip-path="url(#p8c5dde1456)" style="fill: #8eb6d9; opacity: 0.18"/>
   </g>
   <g id="patch_27">
    <path d="M 453.6888 369.981538 
L 460.552 369.981538 
L 460.552 338.669785 
L 453.6888 338.669785 
z
" clip-path="url(#p8c5dde1456)" style="fill: #8eb6d9; opacity: 0.18"/>
   </g>
   <g id="patch_28">
    <path d="M 462.9392 369.981538 
L 469.8024 369.981538 
L 469.8024 333.731938 
L 462.9392 333.731938 
z
" clip-path="url(#p8c5dde1456)" style="fill: #8eb6d9; opacity: 0.18"/>
   </g>
   <g id="patch_29">
    <path d="M 472.1896 369.981538 
L 479.0528 369.981538 
L 479.0528 328.445538 
L 472.1896 328.445538 
z
" clip-path="url(#p8c5dde1456)" style="fill: #8eb6d9; opacity: 0.18"/>
   </g>
   <g id="patch_30">
    <path d="M 65.679775 648.824615 
Q 302.400561 648.824615 537.444295 648.824615 
" clip-path="url(#p8c5dde1456)" style="fill: none; stroke: #f6f1e6; stroke-width: 1.5; stroke-linecap: round"/>
    <path d="M 532.244295 646.224615 
L 537.444295 648.824615 
L 532.244295 651.424615 
z
" clip-path="url(#p8c5dde1456)" style="fill: #f6f1e6; stroke: #f6f1e6; stroke-width: 1.5; stroke-linecap: round"/>
   </g>
   <g id="patch_31">
    <path d="M 382.001184 629.991089 
L 437.646816 629.991089 
Q 443.614816 629.991089 443.614816 624.181858 
L 443.614816 614.724431 
Q 443.614816 608.9152 437.646816 608.9152 
L 382.001184 608.9152 
Q 376.033184 608.9152 376.033184 614.724431 
L 376.033184 624.181858 
Q 376.033184 629.991089 382.001184 629.991089 
z
" clip-path="url(#p8c5dde1456)" style="fill: #8eb6d9; stroke: #2a2926; stroke-width: 1.1; stroke-linejoin: miter"/>
   </g>
   <g id="patch_32">
    <path d="M 388.10048 609.786585 
L 402.375936 594.682585 
L 427.202816 594.682585 
L 437.133568 609.786585 
z
" clip-path="url(#p8c5dde1456)" style="fill: #8eb6d9; stroke: #2a2926; stroke-linejoin: miter"/>
   </g>
   <g id="patch_33">
    <path d="M 403.61728 598.307545 
L 422.23744 598.307545 
L 430.306176 607.974105 
L 408.582656 607.974105 
z
" clip-path="url(#p8c5dde1456)" style="fill: #dae9f3; opacity: 0.9"/>
   </g>
   <g id="patch_34">
    <path d="M 389.341824 638.484185 
C 391.399376 638.484185 393.372932 637.688458 394.827841 636.272255 
C 396.28275 634.856052 397.100224 632.934998 397.100224 630.932185 
C 397.100224 628.929371 396.28275 627.008317 394.827841 625.592114 
C 393.372932 624.175911 391.399376 623.380185 389.341824 623.380185 
C 387.284272 623.380185 385.310716 624.175911 383.855807 625.592114 
C 382.400898 627.008317 381.583424 628.929371 381.583424 630.932185 
C 381.583424 632.934998 382.400898 634.856052 383.855807 636.272255 
C 385.310716 637.688458 387.284272 638.484185 389.341824 638.484185 
z
" clip-path="url(#p8c5dde1456)" style="fill: #30363b; stroke: #2a2926; stroke-linejoin: miter"/>
   </g>
   <g id="patch_35">
    <path d="M 389.341824 634.255065 
C 390.247147 634.255065 391.115512 633.904945 391.755672 633.281816 
C 392.395831 632.658686 392.75552 631.813423 392.75552 630.932185 
C 392.75552 630.050947 392.395831 629.205683 391.755672 628.582554 
C 391.115512 627.959424 390.247147 627.609305 389.341824 627.609305 
C 388.436501 627.609305 387.568136 627.959424 386.927976 628.582554 
C 386.287817 629.205683 385.928128 630.050947 385.928128 630.932185 
C 385.928128 631.813423 386.287817 632.658686 386.927976 633.281816 
C 387.568136 633.904945 388.436501 634.255065 389.341824 634.255065 
z
" clip-path="url(#p8c5dde1456)" style="fill: #d8dade"/>
   </g>
   <g id="patch_36">
    <path d="M 429.685504 638.484185 
C 431.743056 638.484185 433.716612 637.688458 435.171521 636.272255 
C 436.62643 634.856052 437.443904 632.934998 437.443904 630.932185 
C 437.443904 628.929371 436.62643 627.008317 435.171521 625.592114 
C 433.716612 624.175911 431.743056 623.380185 429.685504 623.380185 
C 427.627952 623.380185 425.654396 624.175911 424.199487 625.592114 
C 422.744578 627.008317 421.927104 628.929371 421.927104 630.932185 
C 421.927104 632.934998 422.744578 634.856052 424.199487 636.272255 
C 425.654396 637.688458 427.627952 638.484185 429.685504 638.484185 
z
" clip-path="url(#p8c5dde1456)" style="fill: #30363b; stroke: #2a2926; stroke-linejoin: miter"/>
   </g>
   <g id="patch_37">
    <path d="M 429.685504 634.255065 
C 430.590827 634.255065 431.459192 633.904945 432.099352 633.281816 
C 432.739511 632.658686 433.0992 631.813423 433.0992 630.932185 
C 433.0992 630.050947 432.739511 629.205683 432.099352 628.582554 
C 431.459192 627.959424 430.590827 627.609305 429.685504 627.609305 
C 428.780181 627.609305 427.911816 627.959424 427.271656 628.582554 
C 426.631497 629.205683 426.271808 630.050947 426.271808 630.932185 
C 426.271808 631.813423 426.631497 632.658686 427.271656 633.281816 
C 427.911816 633.904945 428.780181 634.255065 429.685504 634.255065 
z
" clip-path="url(#p8c5dde1456)" style="fill: #d8dade"/>
   </g>
   <g id="patch_38">
    <path d="M 364.083054 567.495385 
Q 400.874792 567.495385 435.654069 567.495385 
" clip-path="url(#p8c5dde1456)" style="fill: none; stroke: #cc5a4e; stroke-width: 1.8; stroke-linecap: round"/>
    <path d="M 430.454069 564.895385 
L 435.654069 567.495385 
L 430.454069 570.095385 
z
" clip-path="url(#p8c5dde1456)" style="fill: #cc5a4e; stroke: #cc5a4e; stroke-width: 1.8; stroke-linecap: round"/>
   </g>
   <g id="patch_39">
    <path d="M 58.6072 731.025231 
L 188.1128 731.025231 
Q 197.0648 731.025231 197.0648 722.311385 
L 197.0648 674.675692 
Q 197.0648 665.961846 188.1128 665.961846 
L 58.6072 665.961846 
Q 49.6552 665.961846 49.6552 674.675692 
L 49.6552 722.311385 
Q 49.6552 731.025231 58.6072 731.025231 
z
" clip-path="url(#p8c5dde1456)" style="fill: #f7e7ca; opacity: 0.96"/>
   </g>
   <g id="line2d_1">
    <path d="M 57.712 654.633846 
L 547.088 654.633846 
" clip-path="url(#p8c5dde1456)" style="fill: none; stroke: #9fb7c8; stroke-opacity: 0.08; stroke-width: 0.35; stroke-linecap: square"/>
   </g>
   <g id="line2d_2">
    <path d="M 57.712 596.541538 
L 547.088 596.541538 
" clip-path="url(#p8c5dde1456)" style="fill: none; stroke: #9fb7c8; stroke-opacity: 0.08; stroke-width: 0.35; stroke-linecap: square"/>
   </g>
   <g id="line2d_3">
    <path d="M 57.712 538.449231 
L 547.088 538.449231 
" clip-path="url(#p8c5dde1456)" style="fill: none; stroke: #9fb7c8; stroke-opacity: 0.08; stroke-width: 0.35; stroke-linecap: square"/>
   </g>
   <g id="line2d_4">
    <path d="M 57.712 480.356923 
L 547.088 480.356923 
" clip-path="url(#p8c5dde1456)" style="fill: none; stroke: #9fb7c8; stroke-opacity: 0.08; stroke-width: 0.35; stroke-linecap: square"/>
   </g>
   <g id="line2d_5">
    <path d="M 57.712 422.264615 
L 547.088 422.264615 
" clip-path="url(#p8c5dde1456)" style="fill: none; stroke: #9fb7c8; stroke-opacity: 0.08; stroke-width: 0.35; stroke-linecap: square"/>
   </g>
   <g id="line2d_6">
    <path d="M 57.712 364.172308 
L 547.088 364.172308 
" clip-path="url(#p8c5dde1456)" style="fill: none; stroke: #9fb7c8; stroke-opacity: 0.08; stroke-width: 0.35; stroke-linecap: square"/>
   </g>
   <g id="line2d_7">
    <path d="M 57.712 306.08 
L 547.088 306.08 
" clip-path="url(#p8c5dde1456)" style="fill: none; stroke: #9fb7c8; stroke-opacity: 0.08; stroke-width: 0.35; stroke-linecap: square"/>
   </g>
   <g id="line2d_8">
    <path d="M 57.712 247.987692 
L 547.088 247.987692 
" clip-path="url(#p8c5dde1456)" style="fill: none; stroke: #9fb7c8; stroke-opacity: 0.08; stroke-width: 0.35; stroke-linecap: square"/>
   </g>
   <g id="line2d_9">
    <path d="M 57.712 189.895385 
L 547.088 189.895385 
" clip-path="url(#p8c5dde1456)" style="fill: none; stroke: #9fb7c8; stroke-opacity: 0.08; stroke-width: 0.35; stroke-linecap: square"/>
   </g>
   <g id="line2d_10">
    <path d="M 57.712 131.803077 
L 547.088 131.803077 
" clip-path="url(#p8c5dde1456)" style="fill: none; stroke: #9fb7c8; stroke-opacity: 0.08; stroke-width: 0.35; stroke-linecap: square"/>
   </g>
   <g id="line2d_11">
    <path d="M 75.616 666.252308 
L 75.616 62.092308 
" clip-path="url(#p8c5dde1456)" style="fill: none; stroke: #9fb7c8; stroke-opacity: 0.08; stroke-width: 0.35; stroke-linecap: square"/>
   </g>
   <g id="line2d_12">
    <path d="M 135.296 666.252308 
L 135.296 62.092308 
" clip-path="url(#p8c5dde1456)" style="fill: none; stroke: #9fb7c8; stroke-opacity: 0.08; stroke-width: 0.35; stroke-linecap: square"/>
   </g>
   <g id="line2d_13">
    <path d="M 194.976 666.252308 
L 194.976 62.092308 
" clip-path="url(#p8c5dde1456)" style="fill: none; stroke: #9fb7c8; stroke-opacity: 0.08; stroke-width: 0.35; stroke-linecap: square"/>
   </g>
   <g id="line2d_14">
    <path d="M 254.656 666.252308 
L 254.656 62.092308 
" clip-path="url(#p8c5dde1456)" style="fill: none; stroke: #9fb7c8; stroke-opacity: 0.08; stroke-width: 0.35; stroke-linecap: square"/>
   </g>
   <g id="line2d_15">
    <path d="M 314.336 666.252308 
L 314.336 62.092308 
" clip-path="url(#p8c5dde1456)" style="fill: none; stroke: #9fb7c8; stroke-opacity: 0.08; stroke-width: 0.35; stroke-linecap: square"/>
   </g>
   <g id="line2d_16">
    <path d="M 374.016 666.252308 
L 374.016 62.092308 
" clip-path="url(#p8c5dde1456)" style="fill: none; stroke: #9fb7c8; stroke-opacity: 0.08; stroke-width: 0.35; stroke-linecap: square"/>
   </g>
   <g id="line2d_17">
    <path d="M 433.696 666.252308 
L 433.696 62.092308 
" clip-path="url(#p8c5dde1456)" style="fill: none; stroke: #9fb7c8; stroke-opacity: 0.08; stroke-width: 0.35; stroke-linecap: square"/>
   </g>
   <g id="line2d_18">
    <path d="M 493.376 666.252308 
L 493.376 62.092308 
" clip-path="url(#p8c5dde1456)" style="fill: none; stroke: #9fb7c8; stroke-opacity: 0.08; stroke-width: 0.35; stroke-linecap: square"/>
   </g>
   <g id="line2d_19">
    <path d="M 81.584 416.455385 
L 248.688 416.455385 
" clip-path="url(#p8c5dde1456)" style="fill: none; stroke: #80a2bd; stroke-opacity: 0.15; stroke-width: 0.35; stroke-linecap: square"/>
   </g>
   <g id="line2d_20">
    <path d="M 81.584 381.6 
L 248.688 381.6 
" clip-path="url(#p8c5dde1456)" style="fill: none; stroke: #80a2bd; stroke-opacity: 0.15; stroke-width: 0.35; stroke-linecap: square"/>
   </g>
   <g id="line2d_21">
    <path d="M 81.584 346.744615 
L 248.688 346.744615 
" clip-path="url(#p8c5dde1456)" style="fill: none; stroke: #80a2bd; stroke-opacity: 0.15; stroke-width: 0.35; stroke-linecap: square"/>
   </g>
   <g id="line2d_22">
    <path d="M 81.584 311.889231 
L 248.688 311.889231 
" clip-path="url(#p8c5dde1456)" style="fill: none; stroke: #80a2bd; stroke-opacity: 0.15; stroke-width: 0.35; stroke-linecap: square"/>
   </g>
   <g id="line2d_23">
    <path d="M 81.584 277.033846 
L 248.688 277.033846 
" clip-path="url(#p8c5dde1456)" style="fill: none; stroke: #80a2bd; stroke-opacity: 0.15; stroke-width: 0.35; stroke-linecap: square"/>
   </g>
   <g id="line2d_24">
    <path d="M 97.498667 433.883077 
L 97.498667 259.606154 
" clip-path="url(#p8c5dde1456)" style="fill: none; stroke: #80a2bd; stroke-opacity: 0.15; stroke-width: 0.35; stroke-linecap: square"/>
   </g>
   <g id="line2d_25">
    <path d="M 131.317333 433.883077 
L 131.317333 259.606154 
" clip-path="url(#p8c5dde1456)" style="fill: none; stroke: #80a2bd; stroke-opacity: 0.15; stroke-width: 0.35; stroke-linecap: square"/>
   </g>
   <g id="line2d_26">
    <path d="M 165.136 433.883077 
L 165.136 259.606154 
" clip-path="url(#p8c5dde1456)" style="fill: none; stroke: #80a2bd; stroke-opacity: 0.15; stroke-width: 0.35; stroke-linecap: square"/>
   </g>
   <g id="line2d_27">
    <path d="M 198.954667 433.883077 
L 198.954667 259.606154 
" clip-path="url(#p8c5dde1456)" style="fill: none; stroke: #80a2bd; stroke-opacity: 0.15; stroke-width: 0.35; stroke-linecap: square"/>
   </g>
   <g id="line2d_28">
    <path d="M 232.773333 433.883077 
L 232.773333 259.606154 
" clip-path="url(#p8c5dde1456)" style="fill: none; stroke: #80a2bd; stroke-opacity: 0.15; stroke-width: 0.35; stroke-linecap: square"/>
   </g>
   <g id="line2d_29">
    <path d="M 93.52 416.455385 
L 105.456 411.808 
L 117.392 407.160615 
L 129.328 402.513231 
L 141.264 397.865846 
L 153.2 393.218462 
L 165.136 388.571077 
L 177.072 383.923692 
L 189.008 379.276308 
L 200.944 374.628923 
L 212.88 369.981538 
L 224.816 365.334154 
" clip-path="url(#p8c5dde1456)" style="fill: none; stroke: #8eb6d9; stroke-width: 2; stroke-linecap: square"/>
   </g>
   <g id="line2d_30">
    <path d="M 93.52 416.455385 
L 105.456 415.525908 
L 117.392 412.737477 
L 129.328 408.090092 
L 141.264 401.583754 
L 153.2 393.218462 
L 165.136 382.994215 
L 177.072 370.911015 
L 189.008 356.968862 
L 200.944 341.167754 
L 212.88 323.507692 
L 224.816 303.988677 
" clip-path="url(#p8c5dde1456)" style="fill: none; stroke: #d4a544; stroke-width: 2.2; stroke-linecap: square"/>
   </g>
   <g id="line2d_31">
    <path d="M 111.424 402.513231 
L 218.848 402.513231 
" clip-path="url(#p8c5dde1456)" style="fill: none; stroke: #cc5a4e; stroke-width: 1.7; stroke-linecap: square"/>
   </g>
   <g id="line2d_32">
    <path d="M 138.28 433.185969 
L 191.992 332.802462 
" clip-path="url(#p8c5dde1456)" style="fill: none; stroke: #f7f1e6; stroke-width: 1.25; stroke-linecap: square"/>
   </g>
   <g id="line2d_33">
    <path d="M 338.208 416.455385 
L 517.248 416.455385 
" clip-path="url(#p8c5dde1456)" style="fill: none; stroke: #80a2bd; stroke-opacity: 0.15; stroke-width: 0.35; stroke-linecap: square"/>
   </g>
   <g id="line2d_34">
    <path d="M 338.208 381.6 
L 517.248 381.6 
" clip-path="url(#p8c5dde1456)" style="fill: none; stroke: #80a2bd; stroke-opacity: 0.15; stroke-width: 0.35; stroke-linecap: square"/>
   </g>
   <g id="line2d_35">
    <path d="M 338.208 346.744615 
L 517.248 346.744615 
" clip-path="url(#p8c5dde1456)" style="fill: none; stroke: #80a2bd; stroke-opacity: 0.15; stroke-width: 0.35; stroke-linecap: square"/>
   </g>
   <g id="line2d_36">
    <path d="M 338.208 311.889231 
L 517.248 311.889231 
" clip-path="url(#p8c5dde1456)" style="fill: none; stroke: #80a2bd; stroke-opacity: 0.15; stroke-width: 0.35; stroke-linecap: square"/>
   </g>
   <g id="line2d_37">
    <path d="M 338.208 277.033846 
L 517.248 277.033846 
" clip-path="url(#p8c5dde1456)" style="fill: none; stroke: #80a2bd; stroke-opacity: 0.15; stroke-width: 0.35; stroke-linecap: square"/>
   </g>
   <g id="line2d_38">
    <path d="M 356.112 433.883077 
L 356.112 259.606154 
" clip-path="url(#p8c5dde1456)" style="fill: none; stroke: #80a2bd; stroke-opacity: 0.15; stroke-width: 0.35; stroke-linecap: square"/>
   </g>
   <g id="line2d_39">
    <path d="M 391.92 433.883077 
L 391.92 259.606154 
" clip-path="url(#p8c5dde1456)" style="fill: none; stroke: #80a2bd; stroke-opacity: 0.15; stroke-width: 0.35; stroke-linecap: square"/>
   </g>
   <g id="line2d_40">
    <path d="M 427.728 433.883077 
L 427.728 259.606154 
" clip-path="url(#p8c5dde1456)" style="fill: none; stroke: #80a2bd; stroke-opacity: 0.15; stroke-width: 0.35; stroke-linecap: square"/>
   </g>
   <g id="line2d_41">
    <path d="M 463.536 433.883077 
L 463.536 259.606154 
" clip-path="url(#p8c5dde1456)" style="fill: none; stroke: #80a2bd; stroke-opacity: 0.15; stroke-width: 0.35; stroke-linecap: square"/>
   </g>
   <g id="line2d_42">
    <path d="M 499.344 433.883077 
L 499.344 259.606154 
" clip-path="url(#p8c5dde1456)" style="fill: none; stroke: #80a2bd; stroke-opacity: 0.15; stroke-width: 0.35; stroke-linecap: square"/>
   </g>
   <g id="line2d_43">
    <path d="M 345.9664 306.08 
L 357.9024 305.3248 
L 369.8384 303.0592 
L 381.7744 299.2832 
L 393.7104 293.9968 
L 405.6464 287.2 
L 417.5824 278.8928 
L 429.5184 269.0752 
L 441.4544 257.7472 
L 453.3904 244.9088 
L 465.3264 230.56 
L 477.2624 214.7008 
" clip-path="url(#p8c5dde1456)" style="fill: none; stroke: #d4a544; stroke-width: 2; stroke-linecap: square"/>
   </g>
   <g id="line2d_44">
    <path d="M 386.5488 318.12544 
L 436.68 248.34496 
" clip-path="url(#p8c5dde1456)" style="fill: none; stroke: #f7f1e6; stroke-width: 1.2; stroke-linecap: square"/>
   </g>
   <g id="line2d_45">
    <path d="M 351.9344 369.981538 
L 361.1848 368.877785 
L 370.4352 367.425477 
L 379.6856 365.624615 
L 388.936 363.4752 
L 398.1864 360.977231 
L 407.4368 358.130708 
L 416.6872 354.935631 
L 425.9376 351.392 
L 435.188 347.499815 
L 444.4384 343.259077 
L 453.6888 338.669785 
L 462.9392 333.731938 
L 472.1896 328.445538 
L 481.44 322.810585 
" clip-path="url(#p8c5dde1456)" style="fill: none; stroke: #8eb6d9; stroke-width: 1.9; stroke-linecap: square"/>
   </g>
   <g id="line2d_46">
    <path d="M 357.9024 408.903385 
L 493.376 408.903385 
" clip-path="url(#p8c5dde1456)" style="fill: none; stroke: #ff8f82; stroke-width: 1.7; stroke-linecap: square"/>
   </g>
   <g id="line2d_47">
    <path d="M 75.616 655.795692 
L 75.616 641.853538 
" clip-path="url(#p8c5dde1456)" style="fill: none; stroke: #f6f1e6; stroke-linecap: square"/>
   </g>
   <g id="line2d_48">
    <path d="M 132.312 655.795692 
L 132.312 641.853538 
" clip-path="url(#p8c5dde1456)" style="fill: none; stroke: #f6f1e6; stroke-linecap: square"/>
   </g>
   <g id="line2d_49">
    <path d="M 189.008 655.795692 
L 189.008 641.853538 
" clip-path="url(#p8c5dde1456)" style="fill: none; stroke: #f6f1e6; stroke-linecap: square"/>
   </g>
   <g id="line2d_50">
    <path d="M 245.704 655.795692 
L 245.704 641.853538 
" clip-path="url(#p8c5dde1456)" style="fill: none; stroke: #f6f1e6; stroke-linecap: square"/>
   </g>
   <g id="line2d_51">
    <path d="M 302.4 655.795692 
L 302.4 641.853538 
" clip-path="url(#p8c5dde1456)" style="fill: none; stroke: #f6f1e6; stroke-linecap: square"/>
   </g>
   <g id="line2d_52">
    <path d="M 359.096 655.795692 
L 359.096 641.853538 
" clip-path="url(#p8c5dde1456)" style="fill: none; stroke: #f6f1e6; stroke-linecap: square"/>
   </g>
   <g id="line2d_53">
    <path d="M 415.792 655.795692 
L 415.792 641.853538 
" clip-path="url(#p8c5dde1456)" style="fill: none; stroke: #f6f1e6; stroke-linecap: square"/>
   </g>
   <g id="line2d_54">
    <path d="M 472.488 655.795692 
L 472.488 641.853538 
" clip-path="url(#p8c5dde1456)" style="fill: none; stroke: #f6f1e6; stroke-linecap: square"/>
   </g>
   <g id="line2d_55">
    <path d="M 529.184 655.795692 
L 529.184 641.853538 
" clip-path="url(#p8c5dde1456)" style="fill: none; stroke: #f6f1e6; stroke-linecap: square"/>
   </g>
   <g id="text_1">
    <!-- LIVRO-LABORATÓRIO DE CÁLCULO E CINEMÁTICA -->
    <g style="fill: #d9c6a7" transform="translate(181.56775 58.711327) scale(0.088 -0.088)">
     <defs>
      <path id="DejaVuSans-Bold-4c" d="M 588 4666 
L 1791 4666 
L 1791 909 
L 3903 909 
L 3903 0 
L 588 0 
L 588 4666 
z
" transform="scale(0.015625)"/>
      <path id="DejaVuSans-Bold-49" d="M 588 4666 
L 1791 4666 
L 1791 0 
L 588 0 
L 588 4666 
z
" transform="scale(0.015625)"/>
      <path id="DejaVuSans-Bold-56" d="M 31 4666 
L 1241 4666 
L 2478 1222 
L 3713 4666 
L 4922 4666 
L 3194 0 
L 1759 0 
L 31 4666 
z
" transform="scale(0.015625)"/>
      <path id="DejaVuSans-Bold-52" d="M 2297 2597 
Q 2675 2597 2839 2737 
Q 3003 2878 3003 3200 
Q 3003 3519 2839 3656 
Q 2675 3794 2297 3794 
L 1791 3794 
L 1791 2597 
L 2297 2597 
z
M 1791 1766 
L 1791 0 
L 588 0 
L 588 4666 
L 2425 4666 
Q 3347 4666 3776 4356 
Q 4206 4047 4206 3378 
Q 4206 2916 3982 2619 
Q 3759 2322 3309 2181 
Q 3556 2125 3751 1926 
Q 3947 1728 4147 1325 
L 4800 0 
L 3519 0 
L 2950 1159 
Q 2778 1509 2601 1637 
Q 2425 1766 2131 1766 
L 1791 1766 
z
" transform="scale(0.015625)"/>
      <path id="DejaVuSans-Bold-4f" d="M 2719 3878 
Q 2169 3878 1866 3472 
Q 1563 3066 1563 2328 
Q 1563 1594 1866 1187 
Q 2169 781 2719 781 
Q 3272 781 3575 1187 
Q 3878 1594 3878 2328 
Q 3878 3066 3575 3472 
Q 3272 3878 2719 3878 
z
M 2719 4750 
Q 3844 4750 4481 4106 
Q 5119 3463 5119 2328 
Q 5119 1197 4481 553 
Q 3844 -91 2719 -91 
Q 1597 -91 958 553 
Q 319 1197 319 2328 
Q 319 3463 958 4106 
Q 1597 4750 2719 4750 
z
" transform="scale(0.015625)"/>
      <path id="DejaVuSans-Bold-2d" d="M 347 2297 
L 2309 2297 
L 2309 1388 
L 347 1388 
L 347 2297 
z
" transform="scale(0.015625)"/>
      <path id="DejaVuSans-Bold-41" d="M 3419 850 
L 1538 850 
L 1241 0 
L 31 0 
L 1759 4666 
L 3194 4666 
L 4922 0 
L 3713 0 
L 3419 850 
z
M 1838 1716 
L 3116 1716 
L 2478 3572 
L 1838 1716 
z
" transform="scale(0.015625)"/>
      <path id="DejaVuSans-Bold-42" d="M 2456 2859 
Q 2741 2859 2887 2984 
Q 3034 3109 3034 3353 
Q 3034 3594 2887 3720 
Q 2741 3847 2456 3847 
L 1791 3847 
L 1791 2859 
L 2456 2859 
z
M 2497 819 
Q 2859 819 3042 972 
Q 3225 1125 3225 1434 
Q 3225 1738 3044 1889 
Q 2863 2041 2497 2041 
L 1791 2041 
L 1791 819 
L 2497 819 
z
M 3616 2497 
Q 4003 2384 4215 2081 
Q 4428 1778 4428 1338 
Q 4428 663 3972 331 
Q 3516 0 2584 0 
L 588 0 
L 588 4666 
L 2394 4666 
Q 3366 4666 3802 4372 
Q 4238 4078 4238 3431 
Q 4238 3091 4078 2852 
Q 3919 2613 3616 2497 
z
" transform="scale(0.015625)"/>
      <path id="DejaVuSans-Bold-54" d="M 31 4666 
L 4331 4666 
L 4331 3756 
L 2784 3756 
L 2784 0 
L 1581 0 
L 1581 3756 
L 31 3756 
L 31 4666 
z
" transform="scale(0.015625)"/>
      <path id="DejaVuSans-Bold-d3" d="M 2719 3878 
Q 2169 3878 1866 3472 
Q 1563 3066 1563 2328 
Q 1563 1594 1866 1187 
Q 2169 781 2719 781 
Q 3272 781 3575 1187 
Q 3878 1594 3878 2328 
Q 3878 3066 3575 3472 
Q 3272 3878 2719 3878 
z
M 2719 4750 
Q 3844 4750 4481 4106 
Q 5119 3463 5119 2328 
Q 5119 1197 4481 553 
Q 3844 -91 2719 -91 
Q 1597 -91 958 553 
Q 319 1197 319 2328 
Q 319 3463 958 4106 
Q 1597 4750 2719 4750 
z
M 2799 5921 
L 3684 5921 
L 2793 5096 
L 2181 5096 
L 2799 5921 
z
" transform="scale(0.015625)"/>
      <path id="DejaVuSans-Bold-20" transform="scale(0.015625)"/>
      <path id="DejaVuSans-Bold-44" d="M 1791 3756 
L 1791 909 
L 2222 909 
Q 2959 909 3348 1275 
Q 3738 1641 3738 2338 
Q 3738 3031 3350 3393 
Q 2963 3756 2222 3756 
L 1791 3756 
z
M 588 4666 
L 1856 4666 
Q 2919 4666 3439 4514 
Q 3959 4363 4331 4000 
Q 4659 3684 4818 3271 
Q 4978 2859 4978 2338 
Q 4978 1809 4818 1395 
Q 4659 981 4331 666 
Q 3956 303 3431 151 
Q 2906 0 1856 0 
L 588 0 
L 588 4666 
z
" transform="scale(0.015625)"/>
      <path id="DejaVuSans-Bold-45" d="M 588 4666 
L 3834 4666 
L 3834 3756 
L 1791 3756 
L 1791 2888 
L 3713 2888 
L 3713 1978 
L 1791 1978 
L 1791 909 
L 3903 909 
L 3903 0 
L 588 0 
L 588 4666 
z
" transform="scale(0.015625)"/>
      <path id="DejaVuSans-Bold-43" d="M 4288 256 
Q 3956 84 3597 -3 
Q 3238 -91 2847 -91 
Q 1681 -91 1000 561 
Q 319 1213 319 2328 
Q 319 3447 1000 4098 
Q 1681 4750 2847 4750 
Q 3238 4750 3597 4662 
Q 3956 4575 4288 4403 
L 4288 3438 
Q 3953 3666 3628 3772 
Q 3303 3878 2944 3878 
Q 2300 3878 1931 3465 
Q 1563 3053 1563 2328 
Q 1563 1606 1931 1193 
Q 2300 781 2944 781 
Q 3303 781 3628 887 
Q 3953 994 4288 1222 
L 4288 256 
z
" transform="scale(0.015625)"/>
      <path id="DejaVuSans-Bold-c1" d="M 3419 850 
L 1538 850 
L 1241 0 
L 31 0 
L 1759 4666 
L 3194 4666 
L 4922 0 
L 3713 0 
L 3419 850 
z
M 1838 1716 
L 3116 1716 
L 2478 3572 
L 1838 1716 
z
M 2559 5921 
L 3444 5921 
L 2553 5096 
L 1941 5096 
L 2559 5921 
z
" transform="scale(0.015625)"/>
      <path id="DejaVuSans-Bold-55" d="M 588 4666 
L 1791 4666 
L 1791 1869 
Q 1791 1291 1980 1042 
Q 2169 794 2597 794 
Q 3028 794 3217 1042 
Q 3406 1291 3406 1869 
L 3406 4666 
L 4609 4666 
L 4609 1869 
Q 4609 878 4112 393 
Q 3616 -91 2597 -91 
Q 1581 -91 1084 393 
Q 588 878 588 1869 
L 588 4666 
z
" transform="scale(0.015625)"/>
      <path id="DejaVuSans-Bold-4e" d="M 588 4666 
L 1931 4666 
L 3628 1466 
L 3628 4666 
L 4769 4666 
L 4769 0 
L 3425 0 
L 1728 3200 
L 1728 0 
L 588 0 
L 588 4666 
z
" transform="scale(0.015625)"/>
      <path id="DejaVuSans-Bold-4d" d="M 588 4666 
L 2119 4666 
L 3181 2169 
L 4250 4666 
L 5778 4666 
L 5778 0 
L 4641 0 
L 4641 3413 
L 3566 897 
L 2803 897 
L 1728 3413 
L 1728 0 
L 588 0 
L 588 4666 
z
" transform="scale(0.015625)"/>
     </defs>
     <use xlink:href="#DejaVuSans-Bold-4c"/>
     <use xlink:href="#DejaVuSans-Bold-49" x="63.720703"/>
     <use xlink:href="#DejaVuSans-Bold-56" x="100.927734"/>
     <use xlink:href="#DejaVuSans-Bold-52" x="178.320312"/>
     <use xlink:href="#DejaVuSans-Bold-4f" x="255.322266"/>
     <use xlink:href="#DejaVuSans-Bold-2d" x="342.207031"/>
     <use xlink:href="#DejaVuSans-Bold-4c" x="383.710938"/>
     <use xlink:href="#DejaVuSans-Bold-41" x="447.431641"/>
     <use xlink:href="#DejaVuSans-Bold-42" x="524.824219"/>
     <use xlink:href="#DejaVuSans-Bold-4f" x="601.044922"/>
     <use xlink:href="#DejaVuSans-Bold-52" x="686.054688"/>
     <use xlink:href="#DejaVuSans-Bold-41" x="763.056641"/>
     <use xlink:href="#DejaVuSans-Bold-54" x="832.699219"/>
     <use xlink:href="#DejaVuSans-Bold-d3" x="900.912109"/>
     <use xlink:href="#DejaVuSans-Bold-52" x="985.921875"/>
     <use xlink:href="#DejaVuSans-Bold-49" x="1062.923828"/>
     <use xlink:href="#DejaVuSans-Bold-4f" x="1100.130859"/>
     <use xlink:href="#DejaVuSans-Bold-20" x="1185.140625"/>
     <use xlink:href="#DejaVuSans-Bold-44" x="1219.955078"/>
     <use xlink:href="#DejaVuSans-Bold-45" x="1302.962891"/>
     <use xlink:href="#DejaVuSans-Bold-20" x="1371.273438"/>
     <use xlink:href="#DejaVuSans-Bold-43" x="1406.087891"/>
     <use xlink:href="#DejaVuSans-Bold-c1" x="1479.476562"/>
     <use xlink:href="#DejaVuSans-Bold-4c" x="1556.869141"/>
     <use xlink:href="#DejaVuSans-Bold-43" x="1620.589844"/>
     <use xlink:href="#DejaVuSans-Bold-55" x="1693.978516"/>
     <use xlink:href="#DejaVuSans-Bold-4c" x="1775.179688"/>
     <use xlink:href="#DejaVuSans-Bold-4f" x="1835.275391"/>
     <use xlink:href="#DejaVuSans-Bold-20" x="1920.285156"/>
     <use xlink:href="#DejaVuSans-Bold-45" x="1955.099609"/>
     <use xlink:href="#DejaVuSans-Bold-20" x="2023.410156"/>
     <use xlink:href="#DejaVuSans-Bold-43" x="2058.224609"/>
     <use xlink:href="#DejaVuSans-Bold-49" x="2131.613281"/>
     <use xlink:href="#DejaVuSans-Bold-4e" x="2168.820312"/>
     <use xlink:href="#DejaVuSans-Bold-45" x="2252.511719"/>
     <use xlink:href="#DejaVuSans-Bold-4d" x="2320.822266"/>
     <use xlink:href="#DejaVuSans-Bold-c1" x="2420.333984"/>
     <use xlink:href="#DejaVuSans-Bold-54" x="2489.976562"/>
     <use xlink:href="#DejaVuSans-Bold-49" x="2558.189453"/>
     <use xlink:href="#DejaVuSans-Bold-43" x="2595.396484"/>
     <use xlink:href="#DejaVuSans-Bold-41" x="2668.785156"/>
    </g>
   </g>
   <g id="text_2">
    <!-- Cálculo em Movimento -->
    <g style="fill: #f8f1e6" transform="translate(122.047187 139.529327) scale(0.28 -0.28)">
     <defs>
      <path id="DejaVuSerif-Bold-43" d="M 4769 1331 
Q 4584 609 4106 259 
Q 3628 -91 2822 -91 
Q 1641 -91 955 561 
Q 269 1213 269 2328 
Q 269 3447 955 4098 
Q 1641 4750 2822 4750 
Q 3238 4750 3688 4650 
Q 4138 4550 4641 4347 
L 4641 3200 
L 4244 3200 
Q 4122 3788 3800 4080 
Q 3478 4372 2950 4372 
Q 2269 4372 1937 3870 
Q 1606 3369 1606 2328 
Q 1606 1288 1937 788 
Q 2269 288 2956 288 
Q 3422 288 3717 547 
Q 4013 806 4147 1331 
L 4769 1331 
z
" transform="scale(0.015625)"/>
      <path id="DejaVuSerif-Bold-e1" d="M 3525 2041 
L 3525 378 
L 4000 378 
L 4000 0 
L 2419 0 
L 2419 422 
Q 2200 159 1931 34 
Q 1663 -91 1319 -91 
Q 809 -91 536 182 
Q 263 456 263 966 
Q 263 1525 655 1803 
Q 1047 2081 1838 2081 
L 2419 2081 
L 2419 2278 
Q 2419 2681 2228 2873 
Q 2038 3066 1638 3066 
Q 1306 3066 1126 2930 
Q 947 2794 872 2484 
L 519 2484 
L 519 3200 
Q 816 3306 1134 3359 
Q 1453 3413 1806 3413 
Q 2697 3413 3111 3081 
Q 3525 2750 3525 2041 
z
M 2419 1044 
L 2419 1709 
L 2003 1709 
Q 1694 1709 1528 1540 
Q 1363 1372 1363 1056 
Q 1363 741 1483 584 
Q 1603 428 1850 428 
Q 2106 428 2262 597 
Q 2419 766 2419 1044 
z
M 2160 5119 
L 3031 5119 
L 1866 3944 
L 1353 3944 
L 2160 5119 
z
" transform="scale(0.015625)"/>
      <path id="DejaVuSerif-Bold-6c" d="M 1797 378 
L 2272 378 
L 2272 0 
L 219 0 
L 219 378 
L 691 378 
L 691 4488 
L 219 4488 
L 219 4863 
L 1797 4863 
L 1797 378 
z
" transform="scale(0.015625)"/>
      <path id="DejaVuSerif-Bold-63" d="M 3609 1038 
Q 3491 469 3123 189 
Q 2756 -91 2125 -91 
Q 1238 -91 750 368 
Q 263 828 263 1663 
Q 263 2488 744 2950 
Q 1225 3413 2081 3413 
Q 2428 3413 2781 3347 
Q 3134 3281 3500 3150 
L 3500 2228 
L 3150 2228 
Q 3100 2650 2903 2854 
Q 2706 3059 2350 3059 
Q 1888 3059 1692 2746 
Q 1497 2434 1497 1663 
Q 1497 909 1687 586 
Q 1878 263 2309 263 
Q 2644 263 2845 463 
Q 3047 663 3091 1038 
L 3609 1038 
z
" transform="scale(0.015625)"/>
      <path id="DejaVuSerif-Bold-75" d="M 3963 3322 
L 3963 378 
L 4434 378 
L 4434 0 
L 2853 0 
L 2853 469 
Q 2656 172 2400 40 
Q 2144 -91 1753 -91 
Q 1194 -91 908 239 
Q 622 569 622 1209 
L 622 2944 
L 147 2944 
L 147 3322 
L 1728 3322 
L 1728 1381 
Q 1728 763 1831 595 
Q 1934 428 2209 428 
Q 2544 428 2698 675 
Q 2853 922 2853 1459 
L 2853 2944 
L 2450 2944 
L 2450 3322 
L 3963 3322 
z
" transform="scale(0.015625)"/>
      <path id="DejaVuSerif-Bold-6f" d="M 2138 263 
Q 2488 263 2630 563 
Q 2772 863 2772 1663 
Q 2772 2463 2631 2761 
Q 2491 3059 2138 3059 
Q 1784 3059 1640 2757 
Q 1497 2456 1497 1663 
Q 1497 869 1640 566 
Q 1784 263 2138 263 
z
M 2138 -91 
Q 1259 -91 761 376 
Q 263 844 263 1663 
Q 263 2484 761 2948 
Q 1259 3413 2138 3413 
Q 3019 3413 3516 2948 
Q 4013 2484 4013 1663 
Q 4013 844 3514 376 
Q 3016 -91 2138 -91 
z
" transform="scale(0.015625)"/>
      <path id="DejaVuSerif-Bold-20" transform="scale(0.015625)"/>
      <path id="DejaVuSerif-Bold-65" d="M 2566 1875 
Q 2566 2531 2444 2795 
Q 2322 3059 2028 3059 
Q 1744 3059 1620 2800 
Q 1497 2541 1497 1931 
L 1497 1875 
L 2566 1875 
z
M 3781 1503 
L 1497 1503 
L 1497 1478 
Q 1497 834 1690 548 
Q 1884 263 2316 263 
Q 2675 263 2897 453 
Q 3119 644 3181 1006 
L 3700 1006 
Q 3566 441 3166 175 
Q 2766 -91 2047 -91 
Q 1184 -91 723 364 
Q 263 819 263 1663 
Q 263 2488 734 2950 
Q 1206 3413 2047 3413 
Q 2872 3413 3312 2927 
Q 3753 2441 3781 1503 
z
" transform="scale(0.015625)"/>
      <path id="DejaVuSerif-Bold-6d" d="M 3884 2778 
Q 4116 3109 4384 3261 
Q 4653 3413 5013 3413 
Q 5584 3413 5867 3089 
Q 6150 2766 6150 2113 
L 6150 378 
L 6625 378 
L 6625 0 
L 4647 0 
L 4647 378 
L 5044 378 
L 5044 1947 
Q 5044 2569 4948 2731 
Q 4853 2894 4594 2894 
Q 4300 2894 4137 2667 
Q 3975 2441 3975 2022 
L 3975 378 
L 4372 378 
L 4372 0 
L 2472 0 
L 2472 378 
L 2869 378 
L 2869 1947 
Q 2869 2569 2772 2731 
Q 2675 2894 2419 2894 
Q 2122 2894 1959 2667 
Q 1797 2441 1797 2022 
L 1797 378 
L 2194 378 
L 2194 0 
L 219 0 
L 219 378 
L 691 378 
L 691 2944 
L 219 2944 
L 219 3322 
L 1797 3322 
L 1797 2853 
Q 1991 3144 2241 3278 
Q 2491 3413 2834 3413 
Q 3241 3413 3494 3258 
Q 3747 3103 3884 2778 
z
" transform="scale(0.015625)"/>
      <path id="DejaVuSerif-Bold-4d" d="M 269 0 
L 269 378 
L 863 378 
L 863 4288 
L 269 4288 
L 269 4666 
L 2194 4666 
L 3525 1672 
L 4863 4666 
L 6784 4666 
L 6784 4288 
L 6188 4288 
L 6188 378 
L 6784 378 
L 6784 0 
L 4384 0 
L 4384 378 
L 4978 378 
L 4978 3938 
L 3531 684 
L 2741 684 
L 1300 3938 
L 1300 378 
L 1894 378 
L 1894 0 
L 269 0 
z
" transform="scale(0.015625)"/>
      <path id="DejaVuSerif-Bold-76" d="M 1428 0 
L 250 2944 
L -116 2944 
L -116 3322 
L 1791 3322 
L 1791 2944 
L 1388 2944 
L 2228 844 
L 3066 2944 
L 2631 2944 
L 2631 3322 
L 3878 3322 
L 3878 2944 
L 3494 2944 
L 2316 0 
L 1428 0 
z
" transform="scale(0.015625)"/>
      <path id="DejaVuSerif-Bold-69" d="M 588 4263 
Q 588 4516 763 4689 
Q 938 4863 1191 4863 
Q 1438 4863 1611 4689 
Q 1784 4516 1784 4263 
Q 1784 4016 1611 3842 
Q 1438 3669 1191 3669 
Q 938 3669 763 3841 
Q 588 4013 588 4263 
z
M 1797 378 
L 2272 378 
L 2272 0 
L 219 0 
L 219 378 
L 691 378 
L 691 2944 
L 219 2944 
L 219 3322 
L 1797 3322 
L 1797 378 
z
" transform="scale(0.015625)"/>
      <path id="DejaVuSerif-Bold-6e" d="M 219 0 
L 219 378 
L 691 378 
L 691 2944 
L 219 2944 
L 219 3322 
L 1797 3322 
L 1797 2853 
Q 1997 3150 2253 3281 
Q 2509 3413 2900 3413 
Q 3459 3413 3745 3083 
Q 4031 2753 4031 2113 
L 4031 378 
L 4506 378 
L 4506 0 
L 2522 0 
L 2522 378 
L 2925 378 
L 2925 2144 
Q 2925 2566 2817 2730 
Q 2709 2894 2444 2894 
Q 2109 2894 1953 2648 
Q 1797 2403 1797 1869 
L 1797 378 
L 2203 378 
L 2203 0 
L 219 0 
z
" transform="scale(0.015625)"/>
      <path id="DejaVuSerif-Bold-74" d="M 634 2944 
L 153 2944 
L 153 3322 
L 634 3322 
L 634 4353 
L 1741 4353 
L 1741 3322 
L 2663 3322 
L 2663 2944 
L 1741 2944 
L 1741 909 
Q 1741 475 1809 369 
Q 1878 263 2059 263 
Q 2259 263 2356 397 
Q 2453 531 2459 813 
L 2925 813 
Q 2897 313 2651 111 
Q 2406 -91 1806 -91 
Q 1122 -91 878 123 
Q 634 338 634 909 
L 634 2944 
z
" transform="scale(0.015625)"/>
     </defs>
     <use xlink:href="#DejaVuSerif-Bold-43"/>
     <use xlink:href="#DejaVuSerif-Bold-e1" x="79.589844"/>
     <use xlink:href="#DejaVuSerif-Bold-6c" x="144.384766"/>
     <use xlink:href="#DejaVuSerif-Bold-63" x="182.373047"/>
     <use xlink:href="#DejaVuSerif-Bold-75" x="243.261719"/>
     <use xlink:href="#DejaVuSerif-Bold-6c" x="315.966797"/>
     <use xlink:href="#DejaVuSerif-Bold-6f" x="353.955078"/>
     <use xlink:href="#DejaVuSerif-Bold-20" x="420.654297"/>
     <use xlink:href="#DejaVuSerif-Bold-65" x="455.46875"/>
     <use xlink:href="#DejaVuSerif-Bold-6d" x="519.091797"/>
     <use xlink:href="#DejaVuSerif-Bold-20" x="624.902344"/>
     <use xlink:href="#DejaVuSerif-Bold-4d" x="659.716797"/>
     <use xlink:href="#DejaVuSerif-Bold-6f" x="770.410156"/>
     <use xlink:href="#DejaVuSerif-Bold-76" x="837.109375"/>
     <use xlink:href="#DejaVuSerif-Bold-69" x="895.214844"/>
     <use xlink:href="#DejaVuSerif-Bold-6d" x="933.203125"/>
     <use xlink:href="#DejaVuSerif-Bold-65" x="1039.013672"/>
     <use xlink:href="#DejaVuSerif-Bold-6e" x="1102.636719"/>
     <use xlink:href="#DejaVuSerif-Bold-74" x="1175.341797"/>
     <use xlink:href="#DejaVuSerif-Bold-6f" x="1221.533203"/>
    </g>
   </g>
   <g id="text_3">
    <!-- Limites, derivadas e integrais para entender a cinemática -->
    <g style="fill: #f0dfc3" transform="translate(145.834594 187.282279) scale(0.108 -0.108)">
     <defs>
      <path id="DejaVuSans-4c" d="M 628 4666 
L 1259 4666 
L 1259 531 
L 3531 531 
L 3531 0 
L 628 0 
L 628 4666 
z
" transform="scale(0.015625)"/>
      <path id="DejaVuSans-69" d="M 603 3500 
L 1178 3500 
L 1178 0 
L 603 0 
L 603 3500 
z
M 603 4863 
L 1178 4863 
L 1178 4134 
L 603 4134 
L 603 4863 
z
" transform="scale(0.015625)"/>
      <path id="DejaVuSans-6d" d="M 3328 2828 
Q 3544 3216 3844 3400 
Q 4144 3584 4550 3584 
Q 5097 3584 5394 3201 
Q 5691 2819 5691 2113 
L 5691 0 
L 5113 0 
L 5113 2094 
Q 5113 2597 4934 2840 
Q 4756 3084 4391 3084 
Q 3944 3084 3684 2787 
Q 3425 2491 3425 1978 
L 3425 0 
L 2847 0 
L 2847 2094 
Q 2847 2600 2669 2842 
Q 2491 3084 2119 3084 
Q 1678 3084 1418 2786 
Q 1159 2488 1159 1978 
L 1159 0 
L 581 0 
L 581 3500 
L 1159 3500 
L 1159 2956 
Q 1356 3278 1631 3431 
Q 1906 3584 2284 3584 
Q 2666 3584 2933 3390 
Q 3200 3197 3328 2828 
z
" transform="scale(0.015625)"/>
      <path id="DejaVuSans-74" d="M 1172 4494 
L 1172 3500 
L 2356 3500 
L 2356 3053 
L 1172 3053 
L 1172 1153 
Q 1172 725 1289 603 
Q 1406 481 1766 481 
L 2356 481 
L 2356 0 
L 1766 0 
Q 1100 0 847 248 
Q 594 497 594 1153 
L 594 3053 
L 172 3053 
L 172 3500 
L 594 3500 
L 594 4494 
L 1172 4494 
z
" transform="scale(0.015625)"/>
      <path id="DejaVuSans-65" d="M 3597 1894 
L 3597 1613 
L 953 1613 
Q 991 1019 1311 708 
Q 1631 397 2203 397 
Q 2534 397 2845 478 
Q 3156 559 3463 722 
L 3463 178 
Q 3153 47 2828 -22 
Q 2503 -91 2169 -91 
Q 1331 -91 842 396 
Q 353 884 353 1716 
Q 353 2575 817 3079 
Q 1281 3584 2069 3584 
Q 2775 3584 3186 3129 
Q 3597 2675 3597 1894 
z
M 3022 2063 
Q 3016 2534 2758 2815 
Q 2500 3097 2075 3097 
Q 1594 3097 1305 2825 
Q 1016 2553 972 2059 
L 3022 2063 
z
" transform="scale(0.015625)"/>
      <path id="DejaVuSans-73" d="M 2834 3397 
L 2834 2853 
Q 2591 2978 2328 3040 
Q 2066 3103 1784 3103 
Q 1356 3103 1142 2972 
Q 928 2841 928 2578 
Q 928 2378 1081 2264 
Q 1234 2150 1697 2047 
L 1894 2003 
Q 2506 1872 2764 1633 
Q 3022 1394 3022 966 
Q 3022 478 2636 193 
Q 2250 -91 1575 -91 
Q 1294 -91 989 -36 
Q 684 19 347 128 
L 347 722 
Q 666 556 975 473 
Q 1284 391 1588 391 
Q 1994 391 2212 530 
Q 2431 669 2431 922 
Q 2431 1156 2273 1281 
Q 2116 1406 1581 1522 
L 1381 1569 
Q 847 1681 609 1914 
Q 372 2147 372 2553 
Q 372 3047 722 3315 
Q 1072 3584 1716 3584 
Q 2034 3584 2315 3537 
Q 2597 3491 2834 3397 
z
" transform="scale(0.015625)"/>
      <path id="DejaVuSans-2c" d="M 750 794 
L 1409 794 
L 1409 256 
L 897 -744 
L 494 -744 
L 750 256 
L 750 794 
z
" transform="scale(0.015625)"/>
      <path id="DejaVuSans-20" transform="scale(0.015625)"/>
      <path id="DejaVuSans-64" d="M 2906 2969 
L 2906 4863 
L 3481 4863 
L 3481 0 
L 2906 0 
L 2906 525 
Q 2725 213 2448 61 
Q 2172 -91 1784 -91 
Q 1150 -91 751 415 
Q 353 922 353 1747 
Q 353 2572 751 3078 
Q 1150 3584 1784 3584 
Q 2172 3584 2448 3432 
Q 2725 3281 2906 2969 
z
M 947 1747 
Q 947 1113 1208 752 
Q 1469 391 1925 391 
Q 2381 391 2643 752 
Q 2906 1113 2906 1747 
Q 2906 2381 2643 2742 
Q 2381 3103 1925 3103 
Q 1469 3103 1208 2742 
Q 947 2381 947 1747 
z
" transform="scale(0.015625)"/>
      <path id="DejaVuSans-72" d="M 2631 2963 
Q 2534 3019 2420 3045 
Q 2306 3072 2169 3072 
Q 1681 3072 1420 2755 
Q 1159 2438 1159 1844 
L 1159 0 
L 581 0 
L 581 3500 
L 1159 3500 
L 1159 2956 
Q 1341 3275 1631 3429 
Q 1922 3584 2338 3584 
Q 2397 3584 2469 3576 
Q 2541 3569 2628 3553 
L 2631 2963 
z
" transform="scale(0.015625)"/>
      <path id="DejaVuSans-76" d="M 191 3500 
L 800 3500 
L 1894 563 
L 2988 3500 
L 3597 3500 
L 2284 0 
L 1503 0 
L 191 3500 
z
" transform="scale(0.015625)"/>
      <path id="DejaVuSans-61" d="M 2194 1759 
Q 1497 1759 1228 1600 
Q 959 1441 959 1056 
Q 959 750 1161 570 
Q 1363 391 1709 391 
Q 2188 391 2477 730 
Q 2766 1069 2766 1631 
L 2766 1759 
L 2194 1759 
z
M 3341 1997 
L 3341 0 
L 2766 0 
L 2766 531 
Q 2569 213 2275 61 
Q 1981 -91 1556 -91 
Q 1019 -91 701 211 
Q 384 513 384 1019 
Q 384 1609 779 1909 
Q 1175 2209 1959 2209 
L 2766 2209 
L 2766 2266 
Q 2766 2663 2505 2880 
Q 2244 3097 1772 3097 
Q 1472 3097 1187 3025 
Q 903 2953 641 2809 
L 641 3341 
Q 956 3463 1253 3523 
Q 1550 3584 1831 3584 
Q 2591 3584 2966 3190 
Q 3341 2797 3341 1997 
z
" transform="scale(0.015625)"/>
      <path id="DejaVuSans-6e" d="M 3513 2113 
L 3513 0 
L 2938 0 
L 2938 2094 
Q 2938 2591 2744 2837 
Q 2550 3084 2163 3084 
Q 1697 3084 1428 2787 
Q 1159 2491 1159 1978 
L 1159 0 
L 581 0 
L 581 3500 
L 1159 3500 
L 1159 2956 
Q 1366 3272 1645 3428 
Q 1925 3584 2291 3584 
Q 2894 3584 3203 3211 
Q 3513 2838 3513 2113 
z
" transform="scale(0.015625)"/>
      <path id="DejaVuSans-67" d="M 2906 1791 
Q 2906 2416 2648 2759 
Q 2391 3103 1925 3103 
Q 1463 3103 1205 2759 
Q 947 2416 947 1791 
Q 947 1169 1205 825 
Q 1463 481 1925 481 
Q 2391 481 2648 825 
Q 2906 1169 2906 1791 
z
M 3481 434 
Q 3481 -459 3084 -895 
Q 2688 -1331 1869 -1331 
Q 1566 -1331 1297 -1286 
Q 1028 -1241 775 -1147 
L 775 -588 
Q 1028 -725 1275 -790 
Q 1522 -856 1778 -856 
Q 2344 -856 2625 -561 
Q 2906 -266 2906 331 
L 2906 616 
Q 2728 306 2450 153 
Q 2172 0 1784 0 
Q 1141 0 747 490 
Q 353 981 353 1791 
Q 353 2603 747 3093 
Q 1141 3584 1784 3584 
Q 2172 3584 2450 3431 
Q 2728 3278 2906 2969 
L 2906 3500 
L 3481 3500 
L 3481 434 
z
" transform="scale(0.015625)"/>
      <path id="DejaVuSans-70" d="M 1159 525 
L 1159 -1331 
L 581 -1331 
L 581 3500 
L 1159 3500 
L 1159 2969 
Q 1341 3281 1617 3432 
Q 1894 3584 2278 3584 
Q 2916 3584 3314 3078 
Q 3713 2572 3713 1747 
Q 3713 922 3314 415 
Q 2916 -91 2278 -91 
Q 1894 -91 1617 61 
Q 1341 213 1159 525 
z
M 3116 1747 
Q 3116 2381 2855 2742 
Q 2594 3103 2138 3103 
Q 1681 3103 1420 2742 
Q 1159 2381 1159 1747 
Q 1159 1113 1420 752 
Q 1681 391 2138 391 
Q 2594 391 2855 752 
Q 3116 1113 3116 1747 
z
" transform="scale(0.015625)"/>
      <path id="DejaVuSans-63" d="M 3122 3366 
L 3122 2828 
Q 2878 2963 2633 3030 
Q 2388 3097 2138 3097 
Q 1578 3097 1268 2742 
Q 959 2388 959 1747 
Q 959 1106 1268 751 
Q 1578 397 2138 397 
Q 2388 397 2633 464 
Q 2878 531 3122 666 
L 3122 134 
Q 2881 22 2623 -34 
Q 2366 -91 2075 -91 
Q 1284 -91 818 406 
Q 353 903 353 1747 
Q 353 2603 823 3093 
Q 1294 3584 2113 3584 
Q 2378 3584 2631 3529 
Q 2884 3475 3122 3366 
z
" transform="scale(0.015625)"/>
      <path id="DejaVuSans-e1" d="M 2194 1759 
Q 1497 1759 1228 1600 
Q 959 1441 959 1056 
Q 959 750 1161 570 
Q 1363 391 1709 391 
Q 2188 391 2477 730 
Q 2766 1069 2766 1631 
L 2766 1759 
L 2194 1759 
z
M 3341 1997 
L 3341 0 
L 2766 0 
L 2766 531 
Q 2569 213 2275 61 
Q 1981 -91 1556 -91 
Q 1019 -91 701 211 
Q 384 513 384 1019 
Q 384 1609 779 1909 
Q 1175 2209 1959 2209 
L 2766 2209 
L 2766 2266 
Q 2766 2663 2505 2880 
Q 2244 3097 1772 3097 
Q 1472 3097 1187 3025 
Q 903 2953 641 2809 
L 641 3341 
Q 956 3463 1253 3523 
Q 1550 3584 1831 3584 
Q 2591 3584 2966 3190 
Q 3341 2797 3341 1997 
z
M 2290 5119 
L 2912 5119 
L 1894 3944 
L 1415 3944 
L 2290 5119 
z
" transform="scale(0.015625)"/>
     </defs>
     <use xlink:href="#DejaVuSans-4c"/>
     <use xlink:href="#DejaVuSans-69" x="55.712891"/>
     <use xlink:href="#DejaVuSans-6d" x="83.496094"/>
     <use xlink:href="#DejaVuSans-69" x="180.908203"/>
     <use xlink:href="#DejaVuSans-74" x="208.691406"/>
     <use xlink:href="#DejaVuSans-65" x="247.900391"/>
     <use xlink:href="#DejaVuSans-73" x="309.423828"/>
     <use xlink:href="#DejaVuSans-2c" x="361.523438"/>
     <use xlink:href="#DejaVuSans-20" x="393.310547"/>
     <use xlink:href="#DejaVuSans-64" x="425.097656"/>
     <use xlink:href="#DejaVuSans-65" x="488.574219"/>
     <use xlink:href="#DejaVuSans-72" x="550.097656"/>
     <use xlink:href="#DejaVuSans-69" x="591.210938"/>
     <use xlink:href="#DejaVuSans-76" x="618.994141"/>
     <use xlink:href="#DejaVuSans-61" x="678.173828"/>
     <use xlink:href="#DejaVuSans-64" x="739.453125"/>
     <use xlink:href="#DejaVuSans-61" x="802.929688"/>
     <use xlink:href="#DejaVuSans-73" x="864.208984"/>
     <use xlink:href="#DejaVuSans-20" x="916.308594"/>
     <use xlink:href="#DejaVuSans-65" x="948.095703"/>
     <use xlink:href="#DejaVuSans-20" x="1009.619141"/>
     <use xlink:href="#DejaVuSans-69" x="1041.40625"/>
     <use xlink:href="#DejaVuSans-6e" x="1069.189453"/>
     <use xlink:href="#DejaVuSans-74" x="1132.568359"/>
     <use xlink:href="#DejaVuSans-65" x="1171.777344"/>
     <use xlink:href="#DejaVuSans-67" x="1233.300781"/>
     <use xlink:href="#DejaVuSans-72" x="1296.777344"/>
     <use xlink:href="#DejaVuSans-61" x="1337.890625"/>
     <use xlink:href="#DejaVuSans-69" x="1399.169922"/>
     <use xlink:href="#DejaVuSans-73" x="1426.953125"/>
     <use xlink:href="#DejaVuSans-20" x="1479.052734"/>
     <use xlink:href="#DejaVuSans-70" x="1510.839844"/>
     <use xlink:href="#DejaVuSans-61" x="1574.316406"/>
     <use xlink:href="#DejaVuSans-72" x="1635.595703"/>
     <use xlink:href="#DejaVuSans-61" x="1676.708984"/>
     <use xlink:href="#DejaVuSans-20" x="1737.988281"/>
     <use xlink:href="#DejaVuSans-65" x="1769.775391"/>
     <use xlink:href="#DejaVuSans-6e" x="1831.298828"/>
     <use xlink:href="#DejaVuSans-74" x="1894.677734"/>
     <use xlink:href="#DejaVuSans-65" x="1933.886719"/>
     <use xlink:href="#DejaVuSans-6e" x="1995.410156"/>
     <use xlink:href="#DejaVuSans-64" x="2058.789062"/>
     <use xlink:href="#DejaVuSans-65" x="2122.265625"/>
     <use xlink:href="#DejaVuSans-72" x="2183.789062"/>
     <use xlink:href="#DejaVuSans-20" x="2224.902344"/>
     <use xlink:href="#DejaVuSans-61" x="2256.689453"/>
     <use xlink:href="#DejaVuSans-20" x="2317.96875"/>
     <use xlink:href="#DejaVuSans-63" x="2349.755859"/>
     <use xlink:href="#DejaVuSans-69" x="2404.736328"/>
     <use xlink:href="#DejaVuSans-6e" x="2432.519531"/>
     <use xlink:href="#DejaVuSans-65" x="2495.898438"/>
     <use xlink:href="#DejaVuSans-6d" x="2557.421875"/>
     <use xlink:href="#DejaVuSans-e1" x="2654.833984"/>
     <use xlink:href="#DejaVuSans-74" x="2716.113281"/>
     <use xlink:href="#DejaVuSans-69" x="2755.322266"/>
     <use xlink:href="#DejaVuSans-63" x="2783.105469"/>
     <use xlink:href="#DejaVuSans-61" x="2838.085938"/>
    </g>
   </g>
   <g id="text_4">
    <!-- por Willams Sousa -->
    <g style="fill: #c7dced" transform="translate(248.684625 219.182611) scale(0.114 -0.114)">
     <defs>
      <path id="DejaVuSerif-Italic-70" d="M 1466 1825 
L 1400 1497 
Q 1353 1250 1353 1053 
Q 1353 769 1453 581 
Q 1622 269 2059 269 
Q 2500 269 2795 622 
Q 3091 975 3225 1663 
Q 3284 1978 3284 2225 
Q 3284 2513 3200 2703 
Q 3041 3053 2600 3053 
Q 2163 3053 1872 2737 
Q 1581 2422 1466 1825 
z
M 1116 2988 
L 563 2988 
L 628 3322 
L 1756 3322 
L 1656 2803 
Q 1884 3116 2175 3264 
Q 2466 3413 2850 3413 
Q 3463 3413 3753 2928 
Q 3947 2609 3947 2163 
Q 3947 1928 3897 1663 
Q 3744 881 3262 395 
Q 2781 -91 2169 -91 
Q 1784 -91 1551 57 
Q 1319 206 1213 519 
L 850 -1331 
L 275 -1331 
L 1116 2988 
z
" transform="scale(0.015625)"/>
      <path id="DejaVuSerif-Italic-6f" d="M 1644 219 
Q 2106 219 2414 584 
Q 2722 950 2859 1663 
Q 2922 1988 2922 2241 
Q 2922 2541 2834 2738 
Q 2669 3103 2206 3103 
Q 1744 3103 1436 2739 
Q 1128 2375 991 1663 
Q 928 1338 928 1088 
Q 928 784 1019 584 
Q 1184 219 1644 219 
z
M 1584 -91 
Q 859 -91 513 388 
Q 272 722 272 1203 
Q 272 1419 319 1663 
Q 472 2456 1005 2934 
Q 1538 3413 2266 3413 
Q 2994 3413 3341 2934 
Q 3578 2603 3578 2122 
Q 3578 1906 3531 1663 
Q 3378 869 2845 389 
Q 2313 -91 1584 -91 
z
" transform="scale(0.015625)"/>
      <path id="DejaVuSerif-Italic-72" d="M 3375 3328 
L 3213 2497 
L 2881 2497 
Q 2891 2559 2891 2613 
Q 2891 2775 2816 2866 
Q 2719 2988 2484 2988 
Q 2059 2988 1775 2694 
Q 1491 2400 1384 1850 
L 1025 0 
L 450 0 
L 1031 2994 
L 481 2994 
L 544 3322 
L 1669 3322 
L 1556 2731 
Q 1791 3078 2089 3245 
Q 2388 3413 2769 3413 
Q 2909 3413 3059 3391 
Q 3209 3369 3375 3328 
z
" transform="scale(0.015625)"/>
      <path id="DejaVuSerif-Italic-20" transform="scale(0.015625)"/>
      <path id="DejaVuSerif-Italic-57" d="M 4425 0 
L 3913 0 
L 3581 3794 
L 1775 0 
L 1263 0 
L 881 4331 
L 419 4331 
L 484 4666 
L 2188 4666 
L 2122 4331 
L 1541 4331 
L 1844 884 
L 3641 4666 
L 4147 4666 
L 4484 844 
L 6141 4331 
L 5603 4331 
L 5669 4666 
L 7013 4666 
L 6947 4331 
L 6488 4331 
L 4425 0 
z
" transform="scale(0.015625)"/>
      <path id="DejaVuSerif-Italic-69" d="M 1009 4353 
Q 1038 4497 1163 4603 
Q 1288 4709 1434 4709 
Q 1578 4709 1663 4603 
Q 1728 4522 1728 4422 
Q 1728 4388 1719 4353 
Q 1691 4206 1567 4103 
Q 1444 4000 1297 4000 
Q 1150 4000 1066 4103 
Q 1003 4181 1003 4281 
Q 1003 4316 1009 4353 
z
M 963 331 
L 1506 331 
L 1444 0 
L 325 0 
L 903 2988 
L 353 2988 
L 419 3322 
L 1544 3322 
L 963 331 
z
" transform="scale(0.015625)"/>
      <path id="DejaVuSerif-Italic-6c" d="M 903 331 
L 1447 331 
L 1384 0 
L 266 0 
L 1147 4531 
L 594 4531 
L 656 4863 
L 1784 4863 
L 903 331 
z
" transform="scale(0.015625)"/>
      <path id="DejaVuSerif-Italic-61" d="M 2325 519 
Q 1909 -91 1238 -91 
Q 688 -91 409 281 
Q 216 544 216 919 
Q 216 1078 250 1256 
Q 463 2359 1231 2928 
Q 1884 3413 2675 3413 
Q 3206 3413 3388 3322 
L 2806 331 
L 3300 331 
L 3238 0 
L 2225 0 
L 2325 519 
z
M 822 938 
Q 822 269 1469 269 
Q 1863 269 2130 583 
Q 2397 897 2516 1497 
L 2806 3003 
L 2806 3003 
Q 2806 3094 2556 3094 
Q 1956 3094 1491 2625 
Q 1028 2153 863 1297 
Q 822 1097 822 938 
z
" transform="scale(0.015625)"/>
      <path id="DejaVuSerif-Italic-6d" d="M 3503 2675 
Q 3741 3041 4034 3227 
Q 4328 3413 4672 3413 
Q 5194 3413 5388 3088 
Q 5503 2894 5503 2578 
Q 5503 2372 5453 2113 
L 5106 331 
L 5625 331 
L 5563 0 
L 4469 0 
L 4866 2047 
Q 4913 2291 4913 2466 
Q 4913 2659 4856 2772 
Q 4750 2988 4403 2988 
Q 4019 2988 3761 2697 
Q 3503 2406 3394 1850 
L 3034 0 
L 2459 0 
L 2863 2069 
Q 2906 2303 2906 2472 
Q 2906 2666 2850 2775 
Q 2741 2988 2394 2988 
Q 2009 2988 1751 2697 
Q 1494 2406 1384 1850 
L 1025 0 
L 450 0 
L 1031 2994 
L 481 2994 
L 544 3322 
L 1669 3322 
L 1556 2731 
Q 1778 3063 2059 3238 
Q 2341 3413 2653 3413 
Q 3041 3413 3262 3220 
Q 3484 3028 3503 2675 
z
" transform="scale(0.015625)"/>
      <path id="DejaVuSerif-Italic-73" d="M 222 959 
L 553 959 
Q 541 869 541 788 
Q 541 219 1313 219 
Q 2088 219 2200 788 
Q 2209 844 2209 944 
Q 2209 1041 2103 1158 
Q 1997 1275 1550 1428 
L 1159 1569 
Q 759 1706 629 1882 
Q 500 2059 500 2263 
Q 500 2344 516 2438 
Q 606 2894 990 3153 
Q 1375 3413 1931 3413 
Q 2484 3413 3066 3144 
L 2925 2419 
L 2594 2419 
Q 2606 2491 2606 2553 
Q 2606 2781 2448 2942 
Q 2291 3103 1925 3103 
Q 1191 3103 1091 2591 
Q 1078 2538 1078 2444 
Q 1078 2347 1179 2237 
Q 1281 2128 1678 1997 
L 2106 1856 
Q 2550 1709 2716 1488 
Q 2831 1331 2831 1178 
Q 2831 522 2306 181 
Q 1894 -91 1262 -91 
Q 631 -91 72 184 
L 222 959 
z
" transform="scale(0.015625)"/>
      <path id="DejaVuSerif-Italic-53" d="M 184 225 
L 391 1288 
L 750 1284 
Q 663 753 905 498 
Q 1147 244 1744 244 
Q 2300 244 2636 464 
Q 2972 684 3053 1106 
Q 3119 1444 2976 1625 
Q 2834 1806 2300 1978 
L 1722 2163 
Q 1091 2366 877 2669 
Q 663 2972 766 3500 
Q 881 4094 1367 4422 
Q 1853 4750 2616 4750 
Q 2941 4750 3314 4679 
Q 3688 4609 4097 4475 
L 3906 3481 
L 3553 3481 
Q 3594 3975 3361 4195 
Q 3128 4416 2563 4416 
Q 2069 4416 1772 4214 
Q 1475 4013 1400 3628 
Q 1334 3294 1490 3103 
Q 1647 2913 2241 2725 
L 2784 2553 
Q 3381 2363 3593 2067 
Q 3806 1772 3709 1275 
Q 3578 597 3076 253 
Q 2575 -91 1716 -91 
Q 1331 -91 948 -12 
Q 566 66 184 225 
z
" transform="scale(0.015625)"/>
      <path id="DejaVuSerif-Italic-75" d="M 3097 3322 
L 3672 3322 
L 3091 331 
L 3634 331 
L 3572 0 
L 2453 0 
L 2566 588 
Q 2341 256 2055 82 
Q 1769 -91 1434 -91 
Q 881 -91 681 225 
Q 559 413 559 734 
Q 559 944 613 1209 
L 956 2988 
L 438 2988 
L 503 3322 
L 1600 3322 
L 1225 1388 
Q 1163 1066 1163 853 
Q 1163 663 1213 556 
Q 1316 331 1697 331 
Q 2097 331 2364 625 
Q 2631 919 2738 1478 
L 3097 3322 
z
" transform="scale(0.015625)"/>
     </defs>
     <use xlink:href="#DejaVuSerif-Italic-70"/>
     <use xlink:href="#DejaVuSerif-Italic-6f" x="64.013672"/>
     <use xlink:href="#DejaVuSerif-Italic-72" x="124.21875"/>
     <use xlink:href="#DejaVuSerif-Italic-20" x="172.021484"/>
     <use xlink:href="#DejaVuSerif-Italic-57" x="203.808594"/>
     <use xlink:href="#DejaVuSerif-Italic-69" x="304.841797"/>
     <use xlink:href="#DejaVuSerif-Italic-6c" x="336.824219"/>
     <use xlink:href="#DejaVuSerif-Italic-6c" x="368.806641"/>
     <use xlink:href="#DejaVuSerif-Italic-61" x="400.789062"/>
     <use xlink:href="#DejaVuSerif-Italic-6d" x="460.408203"/>
     <use xlink:href="#DejaVuSerif-Italic-73" x="555.232422"/>
     <use xlink:href="#DejaVuSerif-Italic-20" x="606.550781"/>
     <use xlink:href="#DejaVuSerif-Italic-53" x="638.337891"/>
     <use xlink:href="#DejaVuSerif-Italic-6f" x="706.84375"/>
     <use xlink:href="#DejaVuSerif-Italic-75" x="767.048828"/>
     <use xlink:href="#DejaVuSerif-Italic-73" x="831.453125"/>
     <use xlink:href="#DejaVuSerif-Italic-61" x="882.771484"/>
    </g>
   </g>
   <g id="text_5">
    <!-- ∫ -->
    <g style="fill: #8eb6d9" transform="translate(109.6336 363.010462) scale(0.16 -0.16)">
     <defs>
      <path id="DejaVuSans-Bold-222b" d="M 2034 -531 
Q 2000 -1013 1659 -1284 
Q 1447 -1453 1050 -1453 
Q 553 -1453 319 -1209 
Q 150 -1034 94 -594 
L 788 -525 
Q 844 -703 1031 -703 
Q 1234 -703 1256 -416 
Q 1256 -416 1566 3903 
Q 1600 4384 1941 4656 
Q 2153 4825 2550 4825 
Q 3047 4825 3281 4581 
Q 3450 4406 3506 3966 
L 2813 3897 
Q 2756 4075 2569 4075 
Q 2366 4075 2344 3788 
Q 2344 3788 2034 -531 
z
" transform="scale(0.015625)"/>
     </defs>
     <use xlink:href="#DejaVuSans-Bold-222b"/>
    </g>
   </g>
   <g id="text_6">
    <!-- d/dt -->
    <g style="fill: #f7f1e6" transform="translate(185.4272 353.948062) scale(0.078 -0.078)">
     <defs>
      <path id="DejaVuSans-Bold-64" d="M 2919 2988 
L 2919 4863 
L 4044 4863 
L 4044 0 
L 2919 0 
L 2919 506 
Q 2688 197 2409 53 
Q 2131 -91 1766 -91 
Q 1119 -91 703 423 
Q 288 938 288 1747 
Q 288 2556 703 3070 
Q 1119 3584 1766 3584 
Q 2128 3584 2408 3439 
Q 2688 3294 2919 2988 
z
M 2181 722 
Q 2541 722 2730 984 
Q 2919 1247 2919 1747 
Q 2919 2247 2730 2509 
Q 2541 2772 2181 2772 
Q 1825 2772 1636 2509 
Q 1447 2247 1447 1747 
Q 1447 1247 1636 984 
Q 1825 722 2181 722 
z
" transform="scale(0.015625)"/>
      <path id="DejaVuSans-Bold-2f" d="M 1644 4666 
L 2338 4666 
L 691 -594 
L 0 -594 
L 1644 4666 
z
" transform="scale(0.015625)"/>
      <path id="DejaVuSans-Bold-74" d="M 1759 4494 
L 1759 3500 
L 2913 3500 
L 2913 2700 
L 1759 2700 
L 1759 1216 
Q 1759 972 1856 886 
Q 1953 800 2241 800 
L 2816 800 
L 2816 0 
L 1856 0 
Q 1194 0 917 276 
Q 641 553 641 1216 
L 641 2700 
L 84 2700 
L 84 3500 
L 641 3500 
L 641 4494 
L 1759 4494 
z
" transform="scale(0.015625)"/>
     </defs>
     <use xlink:href="#DejaVuSans-Bold-64"/>
     <use xlink:href="#DejaVuSans-Bold-2f" x="71.582031"/>
     <use xlink:href="#DejaVuSans-Bold-64" x="108.105469"/>
     <use xlink:href="#DejaVuSans-Bold-74" x="179.6875"/>
    </g>
   </g>
   <g id="text_7">
    <!-- x(t) -->
    <g style="fill: #d4a544" transform="translate(221.832 279.357538) scale(0.08 -0.08)">
     <defs>
      <path id="DejaVuSans-Bold-78" d="M 1422 1791 
L 159 3500 
L 1344 3500 
L 2059 2463 
L 2784 3500 
L 3969 3500 
L 2706 1797 
L 4031 0 
L 2847 0 
L 2059 1106 
L 1281 0 
L 97 0 
L 1422 1791 
z
" transform="scale(0.015625)"/>
      <path id="DejaVuSans-Bold-28" d="M 2413 -844 
L 1484 -844 
Q 1006 -72 778 623 
Q 550 1319 550 2003 
Q 550 2688 779 3389 
Q 1009 4091 1484 4856 
L 2413 4856 
Q 2013 4116 1813 3408 
Q 1613 2700 1613 2009 
Q 1613 1319 1811 609 
Q 2009 -100 2413 -844 
z
" transform="scale(0.015625)"/>
      <path id="DejaVuSans-Bold-29" d="M 513 -844 
Q 913 -100 1113 609 
Q 1313 1319 1313 2009 
Q 1313 2700 1113 3408 
Q 913 4116 513 4856 
L 1441 4856 
Q 1916 4091 2145 3389 
Q 2375 2688 2375 2003 
Q 2375 1319 2147 623 
Q 1919 -72 1441 -844 
L 513 -844 
z
" transform="scale(0.015625)"/>
     </defs>
     <use xlink:href="#DejaVuSans-Bold-78"/>
     <use xlink:href="#DejaVuSans-Bold-28" x="64.501953"/>
     <use xlink:href="#DejaVuSans-Bold-74" x="110.205078"/>
     <use xlink:href="#DejaVuSans-Bold-29" x="158.007812"/>
    </g>
   </g>
   <g id="text_8">
    <!-- v(t) -->
    <g style="fill: #8eb6d9" transform="translate(221.832 310.727385) scale(0.08 -0.08)">
     <defs>
      <path id="DejaVuSans-Bold-76" d="M 97 3500 
L 1216 3500 
L 2088 1081 
L 2956 3500 
L 4078 3500 
L 2700 0 
L 1472 0 
L 97 3500 
z
" transform="scale(0.015625)"/>
     </defs>
     <use xlink:href="#DejaVuSans-Bold-76"/>
     <use xlink:href="#DejaVuSans-Bold-28" x="65.185547"/>
     <use xlink:href="#DejaVuSans-Bold-74" x="110.888672"/>
     <use xlink:href="#DejaVuSans-Bold-29" x="158.691406"/>
    </g>
   </g>
   <g id="text_9">
    <!-- a(t) -->
    <g style="fill: #ff8f82" transform="translate(221.832 342.097231) scale(0.08 -0.08)">
     <defs>
      <path id="DejaVuSans-Bold-61" d="M 2106 1575 
Q 1756 1575 1579 1456 
Q 1403 1338 1403 1106 
Q 1403 894 1545 773 
Q 1688 653 1941 653 
Q 2256 653 2472 879 
Q 2688 1106 2688 1447 
L 2688 1575 
L 2106 1575 
z
M 3816 1997 
L 3816 0 
L 2688 0 
L 2688 519 
Q 2463 200 2181 54 
Q 1900 -91 1497 -91 
Q 953 -91 614 226 
Q 275 544 275 1050 
Q 275 1666 698 1953 
Q 1122 2241 2028 2241 
L 2688 2241 
L 2688 2328 
Q 2688 2594 2478 2717 
Q 2269 2841 1825 2841 
Q 1466 2841 1156 2769 
Q 847 2697 581 2553 
L 581 3406 
Q 941 3494 1303 3539 
Q 1666 3584 2028 3584 
Q 2975 3584 3395 3211 
Q 3816 2838 3816 1997 
z
" transform="scale(0.015625)"/>
     </defs>
     <use xlink:href="#DejaVuSans-Bold-61"/>
     <use xlink:href="#DejaVuSans-Bold-28" x="67.480469"/>
     <use xlink:href="#DejaVuSans-Bold-74" x="113.183594"/>
     <use xlink:href="#DejaVuSans-Bold-29" x="160.986328"/>
    </g>
   </g>
   <g id="text_10">
    <!-- dx/dt -->
    <g style="fill: #f6f1e6" transform="translate(427.728 259.417354) scale(0.073 -0.073)">
     <use xlink:href="#DejaVuSans-Bold-64"/>
     <use xlink:href="#DejaVuSans-Bold-78" x="71.582031"/>
     <use xlink:href="#DejaVuSans-Bold-2f" x="136.083984"/>
     <use xlink:href="#DejaVuSans-Bold-64" x="172.607422"/>
     <use xlink:href="#DejaVuSans-Bold-74" x="244.189453"/>
    </g>
   </g>
   <g id="text_11">
    <!-- ∫ v(t) dt -->
    <g style="fill: #8eb6d9" transform="translate(357.9024 340.935385) scale(0.086 -0.086)">
     <use xlink:href="#DejaVuSans-Bold-222b"/>
     <use xlink:href="#DejaVuSans-Bold-20" x="60.986328"/>
     <use xlink:href="#DejaVuSans-Bold-76" x="95.800781"/>
     <use xlink:href="#DejaVuSans-Bold-28" x="160.986328"/>
     <use xlink:href="#DejaVuSans-Bold-74" x="206.689453"/>
     <use xlink:href="#DejaVuSans-Bold-29" x="254.492188"/>
     <use xlink:href="#DejaVuSans-Bold-20" x="300.195312"/>
     <use xlink:href="#DejaVuSans-Bold-64" x="335.009766"/>
     <use xlink:href="#DejaVuSans-Bold-74" x="406.591797"/>
    </g>
   </g>
   <g id="text_12">
    <!-- dv/dt -->
    <g style="fill: #ffb1a9" transform="translate(424.744 400.770462) scale(0.073 -0.073)">
     <use xlink:href="#DejaVuSans-Bold-64"/>
     <use xlink:href="#DejaVuSans-Bold-76" x="71.582031"/>
     <use xlink:href="#DejaVuSans-Bold-2f" x="136.767578"/>
     <use xlink:href="#DejaVuSans-Bold-64" x="173.291016"/>
     <use xlink:href="#DejaVuSans-Bold-74" x="244.873047"/>
    </g>
   </g>
   <g id="text_13">
    <!-- x(t) -->
    <g style="fill: #d4a544" transform="translate(487.408 277.033846) scale(0.08 -0.08)">
     <use xlink:href="#DejaVuSans-Bold-78"/>
     <use xlink:href="#DejaVuSans-Bold-28" x="64.501953"/>
     <use xlink:href="#DejaVuSans-Bold-74" x="110.205078"/>
     <use xlink:href="#DejaVuSans-Bold-29" x="158.007812"/>
    </g>
   </g>
   <g id="text_14">
    <!-- v(t) -->
    <g style="fill: #8eb6d9" transform="translate(487.408 308.403692) scale(0.08 -0.08)">
     <use xlink:href="#DejaVuSans-Bold-76"/>
     <use xlink:href="#DejaVuSans-Bold-28" x="65.185547"/>
     <use xlink:href="#DejaVuSans-Bold-74" x="110.888672"/>
     <use xlink:href="#DejaVuSans-Bold-29" x="158.691406"/>
    </g>
   </g>
   <g id="text_15">
    <!-- a(t) -->
    <g style="fill: #ff8f82" transform="translate(487.408 339.773538) scale(0.08 -0.08)">
     <use xlink:href="#DejaVuSans-Bold-61"/>
     <use xlink:href="#DejaVuSans-Bold-28" x="67.480469"/>
     <use xlink:href="#DejaVuSans-Bold-74" x="113.183594"/>
     <use xlink:href="#DejaVuSans-Bold-29" x="160.986328"/>
    </g>
   </g>
   <g id="text_16">
    <!-- 0 -->
    <g style="fill: #d7e3ed" transform="translate(73.071 669.737846) scale(0.08 -0.08)">
     <defs>
      <path id="DejaVuSans-30" d="M 2034 4250 
Q 1547 4250 1301 3770 
Q 1056 3291 1056 2328 
Q 1056 1369 1301 889 
Q 1547 409 2034 409 
Q 2525 409 2770 889 
Q 3016 1369 3016 2328 
Q 3016 3291 2770 3770 
Q 2525 4250 2034 4250 
z
M 2034 4750 
Q 2819 4750 3233 4129 
Q 3647 3509 3647 2328 
Q 3647 1150 3233 529 
Q 2819 -91 2034 -91 
Q 1250 -91 836 529 
Q 422 1150 422 2328 
Q 422 3509 836 4129 
Q 1250 4750 2034 4750 
z
" transform="scale(0.015625)"/>
     </defs>
     <use xlink:href="#DejaVuSans-30"/>
    </g>
   </g>
   <g id="text_17">
    <!-- 10 -->
    <g style="fill: #d7e3ed" transform="translate(127.222 669.737846) scale(0.08 -0.08)">
     <defs>
      <path id="DejaVuSans-31" d="M 794 531 
L 1825 531 
L 1825 4091 
L 703 3866 
L 703 4441 
L 1819 4666 
L 2450 4666 
L 2450 531 
L 3481 531 
L 3481 0 
L 794 0 
L 794 531 
z
" transform="scale(0.015625)"/>
     </defs>
     <use xlink:href="#DejaVuSans-31"/>
     <use xlink:href="#DejaVuSans-30" x="63.623047"/>
    </g>
   </g>
   <g id="text_18">
    <!-- 20 -->
    <g style="fill: #d7e3ed" transform="translate(183.918 669.737846) scale(0.08 -0.08)">
     <defs>
      <path id="DejaVuSans-32" d="M 1228 531 
L 3431 531 
L 3431 0 
L 469 0 
L 469 531 
Q 828 903 1448 1529 
Q 2069 2156 2228 2338 
Q 2531 2678 2651 2914 
Q 2772 3150 2772 3378 
Q 2772 3750 2511 3984 
Q 2250 4219 1831 4219 
Q 1534 4219 1204 4116 
Q 875 4013 500 3803 
L 500 4441 
Q 881 4594 1212 4672 
Q 1544 4750 1819 4750 
Q 2544 4750 2975 4387 
Q 3406 4025 3406 3419 
Q 3406 3131 3298 2873 
Q 3191 2616 2906 2266 
Q 2828 2175 2409 1742 
Q 1991 1309 1228 531 
z
" transform="scale(0.015625)"/>
     </defs>
     <use xlink:href="#DejaVuSans-32"/>
     <use xlink:href="#DejaVuSans-30" x="63.623047"/>
    </g>
   </g>
   <g id="text_19">
    <!-- 30 -->
    <g style="fill: #d7e3ed" transform="translate(240.614 669.737846) scale(0.08 -0.08)">
     <defs>
      <path id="DejaVuSans-33" d="M 2597 2516 
Q 3050 2419 3304 2112 
Q 3559 1806 3559 1356 
Q 3559 666 3084 287 
Q 2609 -91 1734 -91 
Q 1441 -91 1130 -33 
Q 819 25 488 141 
L 488 750 
Q 750 597 1062 519 
Q 1375 441 1716 441 
Q 2309 441 2620 675 
Q 2931 909 2931 1356 
Q 2931 1769 2642 2001 
Q 2353 2234 1838 2234 
L 1294 2234 
L 1294 2753 
L 1863 2753 
Q 2328 2753 2575 2939 
Q 2822 3125 2822 3475 
Q 2822 3834 2567 4026 
Q 2313 4219 1838 4219 
Q 1578 4219 1281 4162 
Q 984 4106 628 3988 
L 628 4550 
Q 988 4650 1302 4700 
Q 1616 4750 1894 4750 
Q 2613 4750 3031 4423 
Q 3450 4097 3450 3541 
Q 3450 3153 3228 2886 
Q 3006 2619 2597 2516 
z
" transform="scale(0.015625)"/>
     </defs>
     <use xlink:href="#DejaVuSans-33"/>
     <use xlink:href="#DejaVuSans-30" x="63.623047"/>
    </g>
   </g>
   <g id="text_20">
    <!-- 40 -->
    <g style="fill: #d7e3ed" transform="translate(297.31 669.737846) scale(0.08 -0.08)">
     <defs>
      <path id="DejaVuSans-34" d="M 2419 4116 
L 825 1625 
L 2419 1625 
L 2419 4116 
z
M 2253 4666 
L 3047 4666 
L 3047 1625 
L 3713 1625 
L 3713 1100 
L 3047 1100 
L 3047 0 
L 2419 0 
L 2419 1100 
L 313 1100 
L 313 1709 
L 2253 4666 
z
" transform="scale(0.015625)"/>
     </defs>
     <use xlink:href="#DejaVuSans-34"/>
     <use xlink:href="#DejaVuSans-30" x="63.623047"/>
    </g>
   </g>
   <g id="text_21">
    <!-- 50 -->
    <g style="fill: #d7e3ed" transform="translate(354.006 669.737846) scale(0.08 -0.08)">
     <defs>
      <path id="DejaVuSans-35" d="M 691 4666 
L 3169 4666 
L 3169 4134 
L 1269 4134 
L 1269 2991 
Q 1406 3038 1543 3061 
Q 1681 3084 1819 3084 
Q 2600 3084 3056 2656 
Q 3513 2228 3513 1497 
Q 3513 744 3044 326 
Q 2575 -91 1722 -91 
Q 1428 -91 1123 -41 
Q 819 9 494 109 
L 494 744 
Q 775 591 1075 516 
Q 1375 441 1709 441 
Q 2250 441 2565 725 
Q 2881 1009 2881 1497 
Q 2881 1984 2565 2268 
Q 2250 2553 1709 2553 
Q 1456 2553 1204 2497 
Q 953 2441 691 2322 
L 691 4666 
z
" transform="scale(0.015625)"/>
     </defs>
     <use xlink:href="#DejaVuSans-35"/>
     <use xlink:href="#DejaVuSans-30" x="63.623047"/>
    </g>
   </g>
   <g id="text_22">
    <!-- 60 -->
    <g style="fill: #d7e3ed" transform="translate(410.702 669.737846) scale(0.08 -0.08)">
     <defs>
      <path id="DejaVuSans-36" d="M 2113 2584 
Q 1688 2584 1439 2293 
Q 1191 2003 1191 1497 
Q 1191 994 1439 701 
Q 1688 409 2113 409 
Q 2538 409 2786 701 
Q 3034 994 3034 1497 
Q 3034 2003 2786 2293 
Q 2538 2584 2113 2584 
z
M 3366 4563 
L 3366 3988 
Q 3128 4100 2886 4159 
Q 2644 4219 2406 4219 
Q 1781 4219 1451 3797 
Q 1122 3375 1075 2522 
Q 1259 2794 1537 2939 
Q 1816 3084 2150 3084 
Q 2853 3084 3261 2657 
Q 3669 2231 3669 1497 
Q 3669 778 3244 343 
Q 2819 -91 2113 -91 
Q 1303 -91 875 529 
Q 447 1150 447 2328 
Q 447 3434 972 4092 
Q 1497 4750 2381 4750 
Q 2619 4750 2861 4703 
Q 3103 4656 3366 4563 
z
" transform="scale(0.015625)"/>
     </defs>
     <use xlink:href="#DejaVuSans-36"/>
     <use xlink:href="#DejaVuSans-30" x="63.623047"/>
    </g>
   </g>
   <g id="text_23">
    <!-- 70 -->
    <g style="fill: #d7e3ed" transform="translate(467.398 669.737846) scale(0.08 -0.08)">
     <defs>
      <path id="DejaVuSans-37" d="M 525 4666 
L 3525 4666 
L 3525 4397 
L 1831 0 
L 1172 0 
L 2766 4134 
L 525 4134 
L 525 4666 
z
" transform="scale(0.015625)"/>
     </defs>
     <use xlink:href="#DejaVuSans-37"/>
     <use xlink:href="#DejaVuSans-30" x="63.623047"/>
    </g>
   </g>
   <g id="text_24">
    <!-- 80 -->
    <g style="fill: #d7e3ed" transform="translate(524.094 669.737846) scale(0.08 -0.08)">
     <defs>
      <path id="DejaVuSans-38" d="M 2034 2216 
Q 1584 2216 1326 1975 
Q 1069 1734 1069 1313 
Q 1069 891 1326 650 
Q 1584 409 2034 409 
Q 2484 409 2743 651 
Q 3003 894 3003 1313 
Q 3003 1734 2745 1975 
Q 2488 2216 2034 2216 
z
M 1403 2484 
Q 997 2584 770 2862 
Q 544 3141 544 3541 
Q 544 4100 942 4425 
Q 1341 4750 2034 4750 
Q 2731 4750 3128 4425 
Q 3525 4100 3525 3541 
Q 3525 3141 3298 2862 
Q 3072 2584 2669 2484 
Q 3125 2378 3379 2068 
Q 3634 1759 3634 1313 
Q 3634 634 3220 271 
Q 2806 -91 2034 -91 
Q 1263 -91 848 271 
Q 434 634 434 1313 
Q 434 1759 690 2068 
Q 947 2378 1403 2484 
z
M 1172 3481 
Q 1172 3119 1398 2916 
Q 1625 2713 2034 2713 
Q 2441 2713 2670 2916 
Q 2900 3119 2900 3481 
Q 2900 3844 2670 4047 
Q 2441 4250 2034 4250 
Q 1625 4250 1398 4047 
Q 1172 3844 1172 3481 
z
" transform="scale(0.015625)"/>
     </defs>
     <use xlink:href="#DejaVuSans-38"/>
     <use xlink:href="#DejaVuSans-30" x="63.623047"/>
    </g>
   </g>
   <g id="text_25">
    <!-- eixo S -->
    <g style="fill: #f6f1e6" transform="translate(517.248 623.844923) scale(0.09 -0.09)">
     <defs>
      <path id="DejaVuSans-Bold-65" d="M 4031 1759 
L 4031 1441 
L 1416 1441 
Q 1456 1047 1700 850 
Q 1944 653 2381 653 
Q 2734 653 3104 758 
Q 3475 863 3866 1075 
L 3866 213 
Q 3469 63 3072 -14 
Q 2675 -91 2278 -91 
Q 1328 -91 801 392 
Q 275 875 275 1747 
Q 275 2603 792 3093 
Q 1309 3584 2216 3584 
Q 3041 3584 3536 3087 
Q 4031 2591 4031 1759 
z
M 2881 2131 
Q 2881 2450 2695 2645 
Q 2509 2841 2209 2841 
Q 1884 2841 1681 2658 
Q 1478 2475 1428 2131 
L 2881 2131 
z
" transform="scale(0.015625)"/>
      <path id="DejaVuSans-Bold-69" d="M 538 3500 
L 1656 3500 
L 1656 0 
L 538 0 
L 538 3500 
z
M 538 4863 
L 1656 4863 
L 1656 3950 
L 538 3950 
L 538 4863 
z
" transform="scale(0.015625)"/>
      <path id="DejaVuSans-Bold-6f" d="M 2203 2784 
Q 1831 2784 1636 2517 
Q 1441 2250 1441 1747 
Q 1441 1244 1636 976 
Q 1831 709 2203 709 
Q 2569 709 2762 976 
Q 2956 1244 2956 1747 
Q 2956 2250 2762 2517 
Q 2569 2784 2203 2784 
z
M 2203 3584 
Q 3106 3584 3614 3096 
Q 4122 2609 4122 1747 
Q 4122 884 3614 396 
Q 3106 -91 2203 -91 
Q 1297 -91 786 396 
Q 275 884 275 1747 
Q 275 2609 786 3096 
Q 1297 3584 2203 3584 
z
" transform="scale(0.015625)"/>
      <path id="DejaVuSans-Bold-53" d="M 3834 4519 
L 3834 3531 
Q 3450 3703 3084 3790 
Q 2719 3878 2394 3878 
Q 1963 3878 1756 3759 
Q 1550 3641 1550 3391 
Q 1550 3203 1689 3098 
Q 1828 2994 2194 2919 
L 2706 2816 
Q 3484 2659 3812 2340 
Q 4141 2022 4141 1434 
Q 4141 663 3683 286 
Q 3225 -91 2284 -91 
Q 1841 -91 1394 -6 
Q 947 78 500 244 
L 500 1259 
Q 947 1022 1364 901 
Q 1781 781 2169 781 
Q 2563 781 2772 912 
Q 2981 1044 2981 1288 
Q 2981 1506 2839 1625 
Q 2697 1744 2272 1838 
L 1806 1941 
Q 1106 2091 782 2419 
Q 459 2747 459 3303 
Q 459 4000 909 4375 
Q 1359 4750 2203 4750 
Q 2588 4750 2994 4692 
Q 3400 4634 3834 4519 
z
" transform="scale(0.015625)"/>
     </defs>
     <use xlink:href="#DejaVuSans-Bold-65"/>
     <use xlink:href="#DejaVuSans-Bold-69" x="67.822266"/>
     <use xlink:href="#DejaVuSans-Bold-78" x="102.099609"/>
     <use xlink:href="#DejaVuSans-Bold-6f" x="166.601562"/>
     <use xlink:href="#DejaVuSans-Bold-20" x="235.302734"/>
     <use xlink:href="#DejaVuSans-Bold-53" x="270.117188"/>
    </g>
   </g>
   <g id="text_26">
    <!-- v -->
    <g style="fill: #cc5a4e" transform="translate(397.612625 552.391385) scale(0.1 -0.1)">
     <use xlink:href="#DejaVuSans-Bold-76"/>
    </g>
   </g>
   <g id="text_27">
    <!-- retas, areas, -->
    <g style="fill: #2a2926" transform="translate(69.648 688.908308) scale(0.1 -0.1)">
     <defs>
      <path id="DejaVuSans-Bold-72" d="M 3138 2547 
Q 2991 2616 2845 2648 
Q 2700 2681 2553 2681 
Q 2122 2681 1889 2404 
Q 1656 2128 1656 1613 
L 1656 0 
L 538 0 
L 538 3500 
L 1656 3500 
L 1656 2925 
Q 1872 3269 2151 3426 
Q 2431 3584 2822 3584 
Q 2878 3584 2943 3579 
Q 3009 3575 3134 3559 
L 3138 2547 
z
" transform="scale(0.015625)"/>
      <path id="DejaVuSans-Bold-73" d="M 3272 3391 
L 3272 2541 
Q 2913 2691 2578 2766 
Q 2244 2841 1947 2841 
Q 1628 2841 1473 2761 
Q 1319 2681 1319 2516 
Q 1319 2381 1436 2309 
Q 1553 2238 1856 2203 
L 2053 2175 
Q 2913 2066 3209 1816 
Q 3506 1566 3506 1031 
Q 3506 472 3093 190 
Q 2681 -91 1863 -91 
Q 1516 -91 1145 -36 
Q 775 19 384 128 
L 384 978 
Q 719 816 1070 734 
Q 1422 653 1784 653 
Q 2113 653 2278 743 
Q 2444 834 2444 1013 
Q 2444 1163 2330 1236 
Q 2216 1309 1875 1350 
L 1678 1375 
Q 931 1469 631 1722 
Q 331 1975 331 2491 
Q 331 3047 712 3315 
Q 1094 3584 1881 3584 
Q 2191 3584 2531 3537 
Q 2872 3491 3272 3391 
z
" transform="scale(0.015625)"/>
      <path id="DejaVuSans-Bold-2c" d="M 653 1209 
L 1778 1209 
L 1778 256 
L 1006 -909 
L 341 -909 
L 653 256 
L 653 1209 
z
" transform="scale(0.015625)"/>
     </defs>
     <use xlink:href="#DejaVuSans-Bold-72"/>
     <use xlink:href="#DejaVuSans-Bold-65" x="49.316406"/>
     <use xlink:href="#DejaVuSans-Bold-74" x="117.138672"/>
     <use xlink:href="#DejaVuSans-Bold-61" x="164.941406"/>
     <use xlink:href="#DejaVuSans-Bold-73" x="232.421875"/>
     <use xlink:href="#DejaVuSans-Bold-2c" x="291.943359"/>
     <use xlink:href="#DejaVuSans-Bold-20" x="329.931641"/>
     <use xlink:href="#DejaVuSans-Bold-61" x="364.746094"/>
     <use xlink:href="#DejaVuSans-Bold-72" x="432.226562"/>
     <use xlink:href="#DejaVuSans-Bold-65" x="481.542969"/>
     <use xlink:href="#DejaVuSans-Bold-61" x="549.365234"/>
     <use xlink:href="#DejaVuSans-Bold-73" x="616.845703"/>
     <use xlink:href="#DejaVuSans-Bold-2c" x="676.367188"/>
    </g>
   </g>
   <g id="text_28">
    <!-- curvas e movimento -->
    <g style="fill: #2a2926" transform="translate(69.648 709.821538) scale(0.1 -0.1)">
     <defs>
      <path id="DejaVuSans-Bold-63" d="M 3366 3391 
L 3366 2478 
Q 3138 2634 2908 2709 
Q 2678 2784 2431 2784 
Q 1963 2784 1702 2511 
Q 1441 2238 1441 1747 
Q 1441 1256 1702 982 
Q 1963 709 2431 709 
Q 2694 709 2930 787 
Q 3166 866 3366 1019 
L 3366 103 
Q 3103 6 2833 -42 
Q 2563 -91 2291 -91 
Q 1344 -91 809 395 
Q 275 881 275 1747 
Q 275 2613 809 3098 
Q 1344 3584 2291 3584 
Q 2566 3584 2833 3536 
Q 3100 3488 3366 3391 
z
" transform="scale(0.015625)"/>
      <path id="DejaVuSans-Bold-75" d="M 500 1363 
L 500 3500 
L 1625 3500 
L 1625 3150 
Q 1625 2866 1622 2436 
Q 1619 2006 1619 1863 
Q 1619 1441 1641 1255 
Q 1663 1069 1716 984 
Q 1784 875 1895 815 
Q 2006 756 2150 756 
Q 2500 756 2700 1025 
Q 2900 1294 2900 1772 
L 2900 3500 
L 4019 3500 
L 4019 0 
L 2900 0 
L 2900 506 
Q 2647 200 2364 54 
Q 2081 -91 1741 -91 
Q 1134 -91 817 281 
Q 500 653 500 1363 
z
" transform="scale(0.015625)"/>
      <path id="DejaVuSans-Bold-6d" d="M 3781 2919 
Q 3994 3244 4286 3414 
Q 4578 3584 4928 3584 
Q 5531 3584 5847 3212 
Q 6163 2841 6163 2131 
L 6163 0 
L 5038 0 
L 5038 1825 
Q 5041 1866 5042 1909 
Q 5044 1953 5044 2034 
Q 5044 2406 4934 2573 
Q 4825 2741 4581 2741 
Q 4263 2741 4089 2478 
Q 3916 2216 3909 1719 
L 3909 0 
L 2784 0 
L 2784 1825 
Q 2784 2406 2684 2573 
Q 2584 2741 2328 2741 
Q 2006 2741 1831 2477 
Q 1656 2213 1656 1722 
L 1656 0 
L 531 0 
L 531 3500 
L 1656 3500 
L 1656 2988 
Q 1863 3284 2130 3434 
Q 2397 3584 2719 3584 
Q 3081 3584 3359 3409 
Q 3638 3234 3781 2919 
z
" transform="scale(0.015625)"/>
      <path id="DejaVuSans-Bold-6e" d="M 4056 2131 
L 4056 0 
L 2931 0 
L 2931 347 
L 2931 1631 
Q 2931 2084 2911 2256 
Q 2891 2428 2841 2509 
Q 2775 2619 2662 2680 
Q 2550 2741 2406 2741 
Q 2056 2741 1856 2470 
Q 1656 2200 1656 1722 
L 1656 0 
L 538 0 
L 538 3500 
L 1656 3500 
L 1656 2988 
Q 1909 3294 2193 3439 
Q 2478 3584 2822 3584 
Q 3428 3584 3742 3212 
Q 4056 2841 4056 2131 
z
" transform="scale(0.015625)"/>
     </defs>
     <use xlink:href="#DejaVuSans-Bold-63"/>
     <use xlink:href="#DejaVuSans-Bold-75" x="59.277344"/>
     <use xlink:href="#DejaVuSans-Bold-72" x="130.46875"/>
     <use xlink:href="#DejaVuSans-Bold-76" x="179.785156"/>
     <use xlink:href="#DejaVuSans-Bold-61" x="244.970703"/>
     <use xlink:href="#DejaVuSans-Bold-73" x="312.451172"/>
     <use xlink:href="#DejaVuSans-Bold-20" x="371.972656"/>
     <use xlink:href="#DejaVuSans-Bold-65" x="406.787109"/>
     <use xlink:href="#DejaVuSans-Bold-20" x="474.609375"/>
     <use xlink:href="#DejaVuSans-Bold-6d" x="509.423828"/>
     <use xlink:href="#DejaVuSans-Bold-6f" x="613.623047"/>
     <use xlink:href="#DejaVuSans-Bold-76" x="682.324219"/>
     <use xlink:href="#DejaVuSans-Bold-69" x="747.509766"/>
     <use xlink:href="#DejaVuSans-Bold-6d" x="781.787109"/>
     <use xlink:href="#DejaVuSans-Bold-65" x="885.986328"/>
     <use xlink:href="#DejaVuSans-Bold-6e" x="953.808594"/>
     <use xlink:href="#DejaVuSans-Bold-74" x="1025"/>
     <use xlink:href="#DejaVuSans-Bold-6f" x="1072.802734"/>
    </g>
   </g>
  </g>
 </g>
 <defs>
  <clipPath id="p8c5dde1456">
   <rect x="4" y="4" width="596.8" height="755.2"/>
  </clipPath>
 </defs>
</svg>
