<?xml version="1.0" encoding="utf-8" standalone="no"?>
<!DOCTYPE svg PUBLIC "-//W3C//DTD SVG 1.1//EN"
  "http://www.w3.org/Graphics/SVG/1.1/DTD/svg11.dtd">
<svg xmlns:xlink="http://www.w3.org/1999/xlink" width="504pt" height="302.4pt" viewBox="0 0 504 302.4" xmlns="http://www.w3.org/2000/svg" version="1.1">
 <metadata>
  <rdf:RDF xmlns:dc="http://purl.org/dc/elements/1.1/" xmlns:cc="http://creativecommons.org/ns#" xmlns:rdf="http://www.w3.org/1999/02/22-rdf-syntax-ns#">
   <cc:Work>
    <dc:type rdf:resource="http://purl.org/dc/dcmitype/StillImage"/>
    <dc:date>2026-03-26T08:59:13.485022</dc:date>
    <dc:format>image/svg+xml</dc:format>
    <dc:creator>
     <cc:Agent>
      <dc:title>Matplotlib v3.10.8, https://matplotlib.org/</dc:title>
     </cc:Agent>
    </dc:creator>
   </cc:Work>
  </rdf:RDF>
 </metadata>
 <defs>
  <style type="text/css">*{stroke-linejoin: round; stroke-linecap: butt}</style>
 </defs>
 <g id="figure_1">
  <g id="patch_1">
   <path d="M 0 302.4 
L 504 302.4 
L 504 0 
L 0 0 
z
" style="fill: #ffffff"/>
  </g>
  <g id="axes_1">
   <g id="patch_2">
    <path d="M 38.27 260.44 
L 490.005 260.44 
L 490.005 27.24 
L 38.27 27.24 
z
" style="fill: #ffffff"/>
   </g>
   <g id="FillBetweenPolyCollection_1">
    <path d="M 38.27 90.84 
L 38.27 260.44 
L 40.540025 260.44 
L 42.81005 260.44 
L 45.080075 260.44 
L 47.350101 260.44 
L 49.620126 260.44 
L 51.890151 260.44 
L 54.160176 260.44 
L 56.430201 260.44 
L 58.700226 260.44 
L 60.970251 260.44 
L 63.240276 260.44 
L 65.510302 260.44 
L 67.780327 260.44 
L 70.050352 260.44 
L 72.320377 260.44 
L 74.590402 260.44 
L 76.860427 260.44 
L 79.130452 260.44 
L 81.400477 260.44 
L 83.670503 260.44 
L 85.940528 260.44 
L 88.210553 260.44 
L 90.480578 260.44 
L 92.750603 260.44 
L 95.020628 260.44 
L 97.290653 260.44 
L 99.560678 260.44 
L 101.830704 260.44 
L 104.100729 260.44 
L 106.370754 260.44 
L 108.640779 260.44 
L 110.910804 260.44 
L 113.180829 260.44 
L 115.450854 260.44 
L 117.720879 260.44 
L 119.990905 260.44 
L 122.26093 260.44 
L 124.530955 260.44 
L 126.80098 260.44 
L 129.071005 260.44 
L 131.34103 260.44 
L 133.611055 260.44 
L 135.88108 260.44 
L 138.151106 260.44 
L 140.421131 260.44 
L 142.691156 260.44 
L 144.961181 260.44 
L 147.231206 260.44 
L 149.501231 260.44 
L 151.771256 260.44 
L 154.041281 260.44 
L 156.311307 260.44 
L 158.581332 260.44 
L 160.851357 260.44 
L 163.121382 260.44 
L 165.391407 260.44 
L 167.661432 260.44 
L 169.931457 260.44 
L 172.201482 260.44 
L 174.471508 260.44 
L 176.741533 260.44 
L 179.011558 260.44 
L 181.281583 260.44 
L 183.551608 260.44 
L 185.821633 260.44 
L 188.091658 260.44 
L 190.361683 260.44 
L 192.631709 260.44 
L 194.901734 260.44 
L 197.171759 260.44 
L 199.441784 260.44 
L 201.711809 260.44 
L 203.981834 260.44 
L 206.251859 260.44 
L 208.521884 260.44 
L 210.79191 260.44 
L 213.061935 260.44 
L 215.33196 260.44 
L 217.601985 260.44 
L 219.87201 260.44 
L 222.142035 260.44 
L 224.41206 260.44 
L 226.682085 260.44 
L 228.952111 260.44 
L 231.222136 260.44 
L 233.492161 260.44 
L 235.762186 260.44 
L 238.032211 260.44 
L 240.302236 260.44 
L 242.572261 260.44 
L 244.842286 260.44 
L 247.112312 260.44 
L 249.382337 260.44 
L 251.652362 260.44 
L 253.922387 260.44 
L 256.192412 260.44 
L 258.462437 260.44 
L 260.732462 260.44 
L 263.002487 260.44 
L 265.272513 260.44 
L 267.542538 260.44 
L 269.812563 260.44 
L 272.082588 260.44 
L 274.352613 260.44 
L 276.622638 260.44 
L 278.892663 260.44 
L 281.162688 260.44 
L 283.432714 260.44 
L 285.702739 260.44 
L 287.972764 260.44 
L 290.242789 260.44 
L 292.512814 260.44 
L 294.782839 260.44 
L 297.052864 260.44 
L 299.322889 260.44 
L 301.592915 260.44 
L 303.86294 260.44 
L 306.132965 260.44 
L 308.40299 260.44 
L 310.673015 260.44 
L 312.94304 260.44 
L 315.213065 260.44 
L 317.48309 260.44 
L 319.753116 260.44 
L 322.023141 260.44 
L 324.293166 260.44 
L 326.563191 260.44 
L 328.833216 260.44 
L 331.103241 260.44 
L 333.373266 260.44 
L 335.643291 260.44 
L 337.913317 260.44 
L 340.183342 260.44 
L 342.453367 260.44 
L 344.723392 260.44 
L 346.993417 260.44 
L 349.263442 260.44 
L 351.533467 260.44 
L 353.803492 260.44 
L 356.073518 260.44 
L 358.343543 260.44 
L 360.613568 260.44 
L 362.883593 260.44 
L 365.153618 260.44 
L 367.423643 260.44 
L 369.693668 260.44 
L 371.963693 260.44 
L 374.233719 260.44 
L 376.503744 260.44 
L 378.773769 260.44 
L 381.043794 260.44 
L 383.313819 260.44 
L 385.583844 260.44 
L 387.853869 260.44 
L 390.123894 260.44 
L 392.39392 260.44 
L 394.663945 260.44 
L 396.93397 260.44 
L 399.203995 260.44 
L 401.47402 260.44 
L 403.744045 260.44 
L 406.01407 260.44 
L 408.284095 260.44 
L 410.554121 260.44 
L 412.824146 260.44 
L 415.094171 260.44 
L 417.364196 260.44 
L 419.634221 260.44 
L 421.904246 260.44 
L 424.174271 260.44 
L 426.444296 260.44 
L 428.714322 260.44 
L 430.984347 260.44 
L 433.254372 260.44 
L 435.524397 260.44 
L 437.794422 260.44 
L 440.064447 260.44 
L 442.334472 260.44 
L 444.604497 260.44 
L 446.874523 260.44 
L 449.144548 260.44 
L 451.414573 260.44 
L 453.684598 260.44 
L 455.954623 260.44 
L 458.224648 260.44 
L 460.494673 260.44 
L 462.764698 260.44 
L 465.034724 260.44 
L 467.304749 260.44 
L 469.574774 260.44 
L 471.844799 260.44 
L 474.114824 260.44 
L 476.384849 260.44 
L 478.654874 260.44 
L 480.924899 260.44 
L 483.194925 260.44 
L 485.46495 260.44 
L 487.734975 260.44 
L 490.005 260.44 
L 490.005 90.84 
L 490.005 90.84 
L 487.734975 90.84 
L 485.46495 90.84 
L 483.194925 90.84 
L 480.924899 90.84 
L 478.654874 90.84 
L 476.384849 90.84 
L 474.114824 90.84 
L 471.844799 90.84 
L 469.574774 90.84 
L 467.304749 90.84 
L 465.034724 90.84 
L 462.764698 90.84 
L 460.494673 90.84 
L 458.224648 90.84 
L 455.954623 90.84 
L 453.684598 90.84 
L 451.414573 90.84 
L 449.144548 90.84 
L 446.874523 90.84 
L 444.604497 90.84 
L 442.334472 90.84 
L 440.064447 90.84 
L 437.794422 90.84 
L 435.524397 90.84 
L 433.254372 90.84 
L 430.984347 90.84 
L 428.714322 90.84 
L 426.444296 90.84 
L 424.174271 90.84 
L 421.904246 90.84 
L 419.634221 90.84 
L 417.364196 90.84 
L 415.094171 90.84 
L 412.824146 90.84 
L 410.554121 90.84 
L 408.284095 90.84 
L 406.01407 90.84 
L 403.744045 90.84 
L 401.47402 90.84 
L 399.203995 90.84 
L 396.93397 90.84 
L 394.663945 90.84 
L 392.39392 90.84 
L 390.123894 90.84 
L 387.853869 90.84 
L 385.583844 90.84 
L 383.313819 90.84 
L 381.043794 90.84 
L 378.773769 90.84 
L 376.503744 90.84 
L 374.233719 90.84 
L 371.963693 90.84 
L 369.693668 90.84 
L 367.423643 90.84 
L 365.153618 90.84 
L 362.883593 90.84 
L 360.613568 90.84 
L 358.343543 90.84 
L 356.073518 90.84 
L 353.803492 90.84 
L 351.533467 90.84 
L 349.263442 90.84 
L 346.993417 90.84 
L 344.723392 90.84 
L 342.453367 90.84 
L 340.183342 90.84 
L 337.913317 90.84 
L 335.643291 90.84 
L 333.373266 90.84 
L 331.103241 90.84 
L 328.833216 90.84 
L 326.563191 90.84 
L 324.293166 90.84 
L 322.023141 90.84 
L 319.753116 90.84 
L 317.48309 90.84 
L 315.213065 90.84 
L 312.94304 90.84 
L 310.673015 90.84 
L 308.40299 90.84 
L 306.132965 90.84 
L 303.86294 90.84 
L 301.592915 90.84 
L 299.322889 90.84 
L 297.052864 90.84 
L 294.782839 90.84 
L 292.512814 90.84 
L 290.242789 90.84 
L 287.972764 90.84 
L 285.702739 90.84 
L 283.432714 90.84 
L 281.162688 90.84 
L 278.892663 90.84 
L 276.622638 90.84 
L 274.352613 90.84 
L 272.082588 90.84 
L 269.812563 90.84 
L 267.542538 90.84 
L 265.272513 90.84 
L 263.002487 90.84 
L 260.732462 90.84 
L 258.462437 90.84 
L 256.192412 90.84 
L 253.922387 90.84 
L 251.652362 90.84 
L 249.382337 90.84 
L 247.112312 90.84 
L 244.842286 90.84 
L 242.572261 90.84 
L 240.302236 90.84 
L 238.032211 90.84 
L 235.762186 90.84 
L 233.492161 90.84 
L 231.222136 90.84 
L 228.952111 90.84 
L 226.682085 90.84 
L 224.41206 90.84 
L 222.142035 90.84 
L 219.87201 90.84 
L 217.601985 90.84 
L 215.33196 90.84 
L 213.061935 90.84 
L 210.79191 90.84 
L 208.521884 90.84 
L 206.251859 90.84 
L 203.981834 90.84 
L 201.711809 90.84 
L 199.441784 90.84 
L 197.171759 90.84 
L 194.901734 90.84 
L 192.631709 90.84 
L 190.361683 90.84 
L 188.091658 90.84 
L 185.821633 90.84 
L 183.551608 90.84 
L 181.281583 90.84 
L 179.011558 90.84 
L 176.741533 90.84 
L 174.471508 90.84 
L 172.201482 90.84 
L 169.931457 90.84 
L 167.661432 90.84 
L 165.391407 90.84 
L 163.121382 90.84 
L 160.851357 90.84 
L 158.581332 90.84 
L 156.311307 90.84 
L 154.041281 90.84 
L 151.771256 90.84 
L 149.501231 90.84 
L 147.231206 90.84 
L 144.961181 90.84 
L 142.691156 90.84 
L 140.421131 90.84 
L 138.151106 90.84 
L 135.88108 90.84 
L 133.611055 90.84 
L 131.34103 90.84 
L 129.071005 90.84 
L 126.80098 90.84 
L 124.530955 90.84 
L 122.26093 90.84 
L 119.990905 90.84 
L 117.720879 90.84 
L 115.450854 90.84 
L 113.180829 90.84 
L 110.910804 90.84 
L 108.640779 90.84 
L 106.370754 90.84 
L 104.100729 90.84 
L 101.830704 90.84 
L 99.560678 90.84 
L 97.290653 90.84 
L 95.020628 90.84 
L 92.750603 90.84 
L 90.480578 90.84 
L 88.210553 90.84 
L 85.940528 90.84 
L 83.670503 90.84 
L 81.400477 90.84 
L 79.130452 90.84 
L 76.860427 90.84 
L 74.590402 90.84 
L 72.320377 90.84 
L 70.050352 90.84 
L 67.780327 90.84 
L 65.510302 90.84 
L 63.240276 90.84 
L 60.970251 90.84 
L 58.700226 90.84 
L 56.430201 90.84 
L 54.160176 90.84 
L 51.890151 90.84 
L 49.620126 90.84 
L 47.350101 90.84 
L 45.080075 90.84 
L 42.81005 90.84 
L 40.540025 90.84 
L 38.27 90.84 
z
" clip-path="url(#pbcfb80d9a0)" style="fill: #1f77b4; fill-opacity: 0.25"/>
   </g>
   <g id="matplotlib.axis_1">
    <g id="xtick_1">
     <g id="line2d_1">
      <path d="M 38.27 260.44 
L 38.27 27.24 
" clip-path="url(#pbcfb80d9a0)" style="fill: none; stroke: #b0b0b0; stroke-opacity: 0.3; stroke-width: 0.8; stroke-linecap: square"/>
     </g>
     <g id="line2d_2">
      <defs>
       <path id="m5e2550a681" d="M 0 0 
L 0 3.5 
" style="stroke: #000000; stroke-width: 0.8"/>
      </defs>
      <g>
       <use xlink:href="#m5e2550a681" x="38.27" y="260.44" style="stroke: #000000; stroke-width: 0.8"/>
      </g>
     </g>
     <g id="text_1">
      <!-- 0 -->
      <g transform="translate(35.08875 275.038438) scale(0.1 -0.1)">
       <defs>
        <path id="DejaVuSans-30" d="M 2034 4250 
Q 1547 4250 1301 3770 
Q 1056 3291 1056 2328 
Q 1056 1369 1301 889 
Q 1547 409 2034 409 
Q 2525 409 2770 889 
Q 3016 1369 3016 2328 
Q 3016 3291 2770 3770 
Q 2525 4250 2034 4250 
z
M 2034 4750 
Q 2819 4750 3233 4129 
Q 3647 3509 3647 2328 
Q 3647 1150 3233 529 
Q 2819 -91 2034 -91 
Q 1250 -91 836 529 
Q 422 1150 422 2328 
Q 422 3509 836 4129 
Q 1250 4750 2034 4750 
z
" transform="scale(0.015625)"/>
       </defs>
       <use xlink:href="#DejaVuSans-30"/>
      </g>
     </g>
    </g>
    <g id="xtick_2">
     <g id="line2d_3">
      <path d="M 113.559167 260.44 
L 113.559167 27.24 
" clip-path="url(#pbcfb80d9a0)" style="fill: none; stroke: #b0b0b0; stroke-opacity: 0.3; stroke-width: 0.8; stroke-linecap: square"/>
     </g>
     <g id="line2d_4">
      <g>
       <use xlink:href="#m5e2550a681" x="113.559167" y="260.44" style="stroke: #000000; stroke-width: 0.8"/>
      </g>
     </g>
     <g id="text_2">
      <!-- 1 -->
      <g transform="translate(110.377917 275.038438) scale(0.1 -0.1)">
       <defs>
        <path id="DejaVuSans-31" d="M 794 531 
L 1825 531 
L 1825 4091 
L 703 3866 
L 703 4441 
L 1819 4666 
L 2450 4666 
L 2450 531 
L 3481 531 
L 3481 0 
L 794 0 
L 794 531 
z
" transform="scale(0.015625)"/>
       </defs>
       <use xlink:href="#DejaVuSans-31"/>
      </g>
     </g>
    </g>
    <g id="xtick_3">
     <g id="line2d_5">
      <path d="M 188.848333 260.44 
L 188.848333 27.24 
" clip-path="url(#pbcfb80d9a0)" style="fill: none; stroke: #b0b0b0; stroke-opacity: 0.3; stroke-width: 0.8; stroke-linecap: square"/>
     </g>
     <g id="line2d_6">
      <g>
       <use xlink:href="#m5e2550a681" x="188.848333" y="260.44" style="stroke: #000000; stroke-width: 0.8"/>
      </g>
     </g>
     <g id="text_3">
      <!-- 2 -->
      <g transform="translate(185.667083 275.038438) scale(0.1 -0.1)">
       <defs>
        <path id="DejaVuSans-32" d="M 1228 531 
L 3431 531 
L 3431 0 
L 469 0 
L 469 531 
Q 828 903 1448 1529 
Q 2069 2156 2228 2338 
Q 2531 2678 2651 2914 
Q 2772 3150 2772 3378 
Q 2772 3750 2511 3984 
Q 2250 4219 1831 4219 
Q 1534 4219 1204 4116 
Q 875 4013 500 3803 
L 500 4441 
Q 881 4594 1212 4672 
Q 1544 4750 1819 4750 
Q 2544 4750 2975 4387 
Q 3406 4025 3406 3419 
Q 3406 3131 3298 2873 
Q 3191 2616 2906 2266 
Q 2828 2175 2409 1742 
Q 1991 1309 1228 531 
z
" transform="scale(0.015625)"/>
       </defs>
       <use xlink:href="#DejaVuSans-32"/>
      </g>
     </g>
    </g>
    <g id="xtick_4">
     <g id="line2d_7">
      <path d="M 264.1375 260.44 
L 264.1375 27.24 
" clip-path="url(#pbcfb80d9a0)" style="fill: none; stroke: #b0b0b0; stroke-opacity: 0.3; stroke-width: 0.8; stroke-linecap: square"/>
     </g>
     <g id="line2d_8">
      <g>
       <use xlink:href="#m5e2550a681" x="264.1375" y="260.44" style="stroke: #000000; stroke-width: 0.8"/>
      </g>
     </g>
     <g id="text_4">
      <!-- 3 -->
      <g transform="translate(260.95625 275.038438) scale(0.1 -0.1)">
       <defs>
        <path id="DejaVuSans-33" d="M 2597 2516 
Q 3050 2419 3304 2112 
Q 3559 1806 3559 1356 
Q 3559 666 3084 287 
Q 2609 -91 1734 -91 
Q 1441 -91 1130 -33 
Q 819 25 488 141 
L 488 750 
Q 750 597 1062 519 
Q 1375 441 1716 441 
Q 2309 441 2620 675 
Q 2931 909 2931 1356 
Q 2931 1769 2642 2001 
Q 2353 2234 1838 2234 
L 1294 2234 
L 1294 2753 
L 1863 2753 
Q 2328 2753 2575 2939 
Q 2822 3125 2822 3475 
Q 2822 3834 2567 4026 
Q 2313 4219 1838 4219 
Q 1578 4219 1281 4162 
Q 984 4106 628 3988 
L 628 4550 
Q 988 4650 1302 4700 
Q 1616 4750 1894 4750 
Q 2613 4750 3031 4423 
Q 3450 4097 3450 3541 
Q 3450 3153 3228 2886 
Q 3006 2619 2597 2516 
z
" transform="scale(0.015625)"/>
       </defs>
       <use xlink:href="#DejaVuSans-33"/>
      </g>
     </g>
    </g>
    <g id="xtick_5">
     <g id="line2d_9">
      <path d="M 339.426667 260.44 
L 339.426667 27.24 
" clip-path="url(#pbcfb80d9a0)" style="fill: none; stroke: #b0b0b0; stroke-opacity: 0.3; stroke-width: 0.8; stroke-linecap: square"/>
     </g>
     <g id="line2d_10">
      <g>
       <use xlink:href="#m5e2550a681" x="339.426667" y="260.44" style="stroke: #000000; stroke-width: 0.8"/>
      </g>
     </g>
     <g id="text_5">
      <!-- 4 -->
      <g transform="translate(336.245417 275.038438) scale(0.1 -0.1)">
       <defs>
        <path id="DejaVuSans-34" d="M 2419 4116 
L 825 1625 
L 2419 1625 
L 2419 4116 
z
M 2253 4666 
L 3047 4666 
L 3047 1625 
L 3713 1625 
L 3713 1100 
L 3047 1100 
L 3047 0 
L 2419 0 
L 2419 1100 
L 313 1100 
L 313 1709 
L 2253 4666 
z
" transform="scale(0.015625)"/>
       </defs>
       <use xlink:href="#DejaVuSans-34"/>
      </g>
     </g>
    </g>
    <g id="xtick_6">
     <g id="line2d_11">
      <path d="M 414.715833 260.44 
L 414.715833 27.24 
" clip-path="url(#pbcfb80d9a0)" style="fill: none; stroke: #b0b0b0; stroke-opacity: 0.3; stroke-width: 0.8; stroke-linecap: square"/>
     </g>
     <g id="line2d_12">
      <g>
       <use xlink:href="#m5e2550a681" x="414.715833" y="260.44" style="stroke: #000000; stroke-width: 0.8"/>
      </g>
     </g>
     <g id="text_6">
      <!-- 5 -->
      <g transform="translate(411.534583 275.038438) scale(0.1 -0.1)">
       <defs>
        <path id="DejaVuSans-35" d="M 691 4666 
L 3169 4666 
L 3169 4134 
L 1269 4134 
L 1269 2991 
Q 1406 3038 1543 3061 
Q 1681 3084 1819 3084 
Q 2600 3084 3056 2656 
Q 3513 2228 3513 1497 
Q 3513 744 3044 326 
Q 2575 -91 1722 -91 
Q 1428 -91 1123 -41 
Q 819 9 494 109 
L 494 744 
Q 775 591 1075 516 
Q 1375 441 1709 441 
Q 2250 441 2565 725 
Q 2881 1009 2881 1497 
Q 2881 1984 2565 2268 
Q 2250 2553 1709 2553 
Q 1456 2553 1204 2497 
Q 953 2441 691 2322 
L 691 4666 
z
" transform="scale(0.015625)"/>
       </defs>
       <use xlink:href="#DejaVuSans-35"/>
      </g>
     </g>
    </g>
    <g id="xtick_7">
     <g id="line2d_13">
      <path d="M 490.005 260.44 
L 490.005 27.24 
" clip-path="url(#pbcfb80d9a0)" style="fill: none; stroke: #b0b0b0; stroke-opacity: 0.3; stroke-width: 0.8; stroke-linecap: square"/>
     </g>
     <g id="line2d_14">
      <g>
       <use xlink:href="#m5e2550a681" x="490.005" y="260.44" style="stroke: #000000; stroke-width: 0.8"/>
      </g>
     </g>
     <g id="text_7">
      <!-- 6 -->
      <g transform="translate(486.82375 275.038438) scale(0.1 -0.1)">
       <defs>
        <path id="DejaVuSans-36" d="M 2113 2584 
Q 1688 2584 1439 2293 
Q 1191 2003 1191 1497 
Q 1191 994 1439 701 
Q 1688 409 2113 409 
Q 2538 409 2786 701 
Q 3034 994 3034 1497 
Q 3034 2003 2786 2293 
Q 2538 2584 2113 2584 
z
M 3366 4563 
L 3366 3988 
Q 3128 4100 2886 4159 
Q 2644 4219 2406 4219 
Q 1781 4219 1451 3797 
Q 1122 3375 1075 2522 
Q 1259 2794 1537 2939 
Q 1816 3084 2150 3084 
Q 2853 3084 3261 2657 
Q 3669 2231 3669 1497 
Q 3669 778 3244 343 
Q 2819 -91 2113 -91 
Q 1303 -91 875 529 
Q 447 1150 447 2328 
Q 447 3434 972 4092 
Q 1497 4750 2381 4750 
Q 2619 4750 2861 4703 
Q 3103 4656 3366 4563 
z
" transform="scale(0.015625)"/>
       </defs>
       <use xlink:href="#DejaVuSans-36"/>
      </g>
     </g>
    </g>
    <g id="text_8">
     <!-- tempo t (s) -->
     <g transform="translate(236.352344 288.716563) scale(0.1 -0.1)">
      <defs>
       <path id="DejaVuSans-74" d="M 1172 4494 
L 1172 3500 
L 2356 3500 
L 2356 3053 
L 1172 3053 
L 1172 1153 
Q 1172 725 1289 603 
Q 1406 481 1766 481 
L 2356 481 
L 2356 0 
L 1766 0 
Q 1100 0 847 248 
Q 594 497 594 1153 
L 594 3053 
L 172 3053 
L 172 3500 
L 594 3500 
L 594 4494 
L 1172 4494 
z
" transform="scale(0.015625)"/>
       <path id="DejaVuSans-65" d="M 3597 1894 
L 3597 1613 
L 953 1613 
Q 991 1019 1311 708 
Q 1631 397 2203 397 
Q 2534 397 2845 478 
Q 3156 559 3463 722 
L 3463 178 
Q 3153 47 2828 -22 
Q 2503 -91 2169 -91 
Q 1331 -91 842 396 
Q 353 884 353 1716 
Q 353 2575 817 3079 
Q 1281 3584 2069 3584 
Q 2775 3584 3186 3129 
Q 3597 2675 3597 1894 
z
M 3022 2063 
Q 3016 2534 2758 2815 
Q 2500 3097 2075 3097 
Q 1594 3097 1305 2825 
Q 1016 2553 972 2059 
L 3022 2063 
z
" transform="scale(0.015625)"/>
       <path id="DejaVuSans-6d" d="M 3328 2828 
Q 3544 3216 3844 3400 
Q 4144 3584 4550 3584 
Q 5097 3584 5394 3201 
Q 5691 2819 5691 2113 
L 5691 0 
L 5113 0 
L 5113 2094 
Q 5113 2597 4934 2840 
Q 4756 3084 4391 3084 
Q 3944 3084 3684 2787 
Q 3425 2491 3425 1978 
L 3425 0 
L 2847 0 
L 2847 2094 
Q 2847 2600 2669 2842 
Q 2491 3084 2119 3084 
Q 1678 3084 1418 2786 
Q 1159 2488 1159 1978 
L 1159 0 
L 581 0 
L 581 3500 
L 1159 3500 
L 1159 2956 
Q 1356 3278 1631 3431 
Q 1906 3584 2284 3584 
Q 2666 3584 2933 3390 
Q 3200 3197 3328 2828 
z
" transform="scale(0.015625)"/>
       <path id="DejaVuSans-70" d="M 1159 525 
L 1159 -1331 
L 581 -1331 
L 581 3500 
L 1159 3500 
L 1159 2969 
Q 1341 3281 1617 3432 
Q 1894 3584 2278 3584 
Q 2916 3584 3314 3078 
Q 3713 2572 3713 1747 
Q 3713 922 3314 415 
Q 2916 -91 2278 -91 
Q 1894 -91 1617 61 
Q 1341 213 1159 525 
z
M 3116 1747 
Q 3116 2381 2855 2742 
Q 2594 3103 2138 3103 
Q 1681 3103 1420 2742 
Q 1159 2381 1159 1747 
Q 1159 1113 1420 752 
Q 1681 391 2138 391 
Q 2594 391 2855 752 
Q 3116 1113 3116 1747 
z
" transform="scale(0.015625)"/>
       <path id="DejaVuSans-6f" d="M 1959 3097 
Q 1497 3097 1228 2736 
Q 959 2375 959 1747 
Q 959 1119 1226 758 
Q 1494 397 1959 397 
Q 2419 397 2687 759 
Q 2956 1122 2956 1747 
Q 2956 2369 2687 2733 
Q 2419 3097 1959 3097 
z
M 1959 3584 
Q 2709 3584 3137 3096 
Q 3566 2609 3566 1747 
Q 3566 888 3137 398 
Q 2709 -91 1959 -91 
Q 1206 -91 779 398 
Q 353 888 353 1747 
Q 353 2609 779 3096 
Q 1206 3584 1959 3584 
z
" transform="scale(0.015625)"/>
       <path id="DejaVuSans-20" transform="scale(0.015625)"/>
       <path id="DejaVuSans-28" d="M 1984 4856 
Q 1566 4138 1362 3434 
Q 1159 2731 1159 2009 
Q 1159 1288 1364 580 
Q 1569 -128 1984 -844 
L 1484 -844 
Q 1016 -109 783 600 
Q 550 1309 550 2009 
Q 550 2706 781 3412 
Q 1013 4119 1484 4856 
L 1984 4856 
z
" transform="scale(0.015625)"/>
       <path id="DejaVuSans-73" d="M 2834 3397 
L 2834 2853 
Q 2591 2978 2328 3040 
Q 2066 3103 1784 3103 
Q 1356 3103 1142 2972 
Q 928 2841 928 2578 
Q 928 2378 1081 2264 
Q 1234 2150 1697 2047 
L 1894 2003 
Q 2506 1872 2764 1633 
Q 3022 1394 3022 966 
Q 3022 478 2636 193 
Q 2250 -91 1575 -91 
Q 1294 -91 989 -36 
Q 684 19 347 128 
L 347 722 
Q 666 556 975 473 
Q 1284 391 1588 391 
Q 1994 391 2212 530 
Q 2431 669 2431 922 
Q 2431 1156 2273 1281 
Q 2116 1406 1581 1522 
L 1381 1569 
Q 847 1681 609 1914 
Q 372 2147 372 2553 
Q 372 3047 722 3315 
Q 1072 3584 1716 3584 
Q 2034 3584 2315 3537 
Q 2597 3491 2834 3397 
z
" transform="scale(0.015625)"/>
       <path id="DejaVuSans-29" d="M 513 4856 
L 1013 4856 
Q 1481 4119 1714 3412 
Q 1947 2706 1947 2009 
Q 1947 1309 1714 600 
Q 1481 -109 1013 -844 
L 513 -844 
Q 928 -128 1133 580 
Q 1338 1288 1338 2009 
Q 1338 2731 1133 3434 
Q 928 4138 513 4856 
z
" transform="scale(0.015625)"/>
      </defs>
      <use xlink:href="#DejaVuSans-74"/>
      <use xlink:href="#DejaVuSans-65" transform="translate(39.208984 0)"/>
      <use xlink:href="#DejaVuSans-6d" transform="translate(100.732422 0)"/>
      <use xlink:href="#DejaVuSans-70" transform="translate(198.144531 0)"/>
      <use xlink:href="#DejaVuSans-6f" transform="translate(261.621094 0)"/>
      <use xlink:href="#DejaVuSans-20" transform="translate(322.802734 0)"/>
      <use xlink:href="#DejaVuSans-74" transform="translate(354.589844 0)"/>
      <use xlink:href="#DejaVuSans-20" transform="translate(393.798828 0)"/>
      <use xlink:href="#DejaVuSans-28" transform="translate(425.585938 0)"/>
      <use xlink:href="#DejaVuSans-73" transform="translate(464.599609 0)"/>
      <use xlink:href="#DejaVuSans-29" transform="translate(516.699219 0)"/>
     </g>
    </g>
   </g>
   <g id="matplotlib.axis_2">
    <g id="ytick_1">
     <g id="line2d_15">
      <path d="M 38.27 260.44 
L 490.005 260.44 
" clip-path="url(#pbcfb80d9a0)" style="fill: none; stroke: #b0b0b0; stroke-opacity: 0.3; stroke-width: 0.8; stroke-linecap: square"/>
     </g>
     <g id="line2d_16">
      <defs>
       <path id="m435a3acbd0" d="M 0 0 
L -3.5 0 
" style="stroke: #000000; stroke-width: 0.8"/>
      </defs>
      <g>
       <use xlink:href="#m435a3acbd0" x="38.27" y="260.44" style="stroke: #000000; stroke-width: 0.8"/>
      </g>
     </g>
     <g id="text_9">
      <!-- 0 -->
      <g transform="translate(24.9075 264.239219) scale(0.1 -0.1)">
       <use xlink:href="#DejaVuSans-30"/>
      </g>
     </g>
    </g>
    <g id="ytick_2">
     <g id="line2d_17">
      <path d="M 38.27 218.04 
L 490.005 218.04 
" clip-path="url(#pbcfb80d9a0)" style="fill: none; stroke: #b0b0b0; stroke-opacity: 0.3; stroke-width: 0.8; stroke-linecap: square"/>
     </g>
     <g id="line2d_18">
      <g>
       <use xlink:href="#m435a3acbd0" x="38.27" y="218.04" style="stroke: #000000; stroke-width: 0.8"/>
      </g>
     </g>
     <g id="text_10">
      <!-- 1 -->
      <g transform="translate(24.9075 221.839219) scale(0.1 -0.1)">
       <use xlink:href="#DejaVuSans-31"/>
      </g>
     </g>
    </g>
    <g id="ytick_3">
     <g id="line2d_19">
      <path d="M 38.27 175.64 
L 490.005 175.64 
" clip-path="url(#pbcfb80d9a0)" style="fill: none; stroke: #b0b0b0; stroke-opacity: 0.3; stroke-width: 0.8; stroke-linecap: square"/>
     </g>
     <g id="line2d_20">
      <g>
       <use xlink:href="#m435a3acbd0" x="38.27" y="175.64" style="stroke: #000000; stroke-width: 0.8"/>
      </g>
     </g>
     <g id="text_11">
      <!-- 2 -->
      <g transform="translate(24.9075 179.439219) scale(0.1 -0.1)">
       <use xlink:href="#DejaVuSans-32"/>
      </g>
     </g>
    </g>
    <g id="ytick_4">
     <g id="line2d_21">
      <path d="M 38.27 133.24 
L 490.005 133.24 
" clip-path="url(#pbcfb80d9a0)" style="fill: none; stroke: #b0b0b0; stroke-opacity: 0.3; stroke-width: 0.8; stroke-linecap: square"/>
     </g>
     <g id="line2d_22">
      <g>
       <use xlink:href="#m435a3acbd0" x="38.27" y="133.24" style="stroke: #000000; stroke-width: 0.8"/>
      </g>
     </g>
     <g id="text_12">
      <!-- 3 -->
      <g transform="translate(24.9075 137.039219) scale(0.1 -0.1)">
       <use xlink:href="#DejaVuSans-33"/>
      </g>
     </g>
    </g>
    <g id="ytick_5">
     <g id="line2d_23">
      <path d="M 38.27 90.84 
L 490.005 90.84 
" clip-path="url(#pbcfb80d9a0)" style="fill: none; stroke: #b0b0b0; stroke-opacity: 0.3; stroke-width: 0.8; stroke-linecap: square"/>
     </g>
     <g id="line2d_24">
      <g>
       <use xlink:href="#m435a3acbd0" x="38.27" y="90.84" style="stroke: #000000; stroke-width: 0.8"/>
      </g>
     </g>
     <g id="text_13">
      <!-- 4 -->
      <g transform="translate(24.9075 94.639219) scale(0.1 -0.1)">
       <use xlink:href="#DejaVuSans-34"/>
      </g>
     </g>
    </g>
    <g id="ytick_6">
     <g id="line2d_25">
      <path d="M 38.27 48.44 
L 490.005 48.44 
" clip-path="url(#pbcfb80d9a0)" style="fill: none; stroke: #b0b0b0; stroke-opacity: 0.3; stroke-width: 0.8; stroke-linecap: square"/>
     </g>
     <g id="line2d_26">
      <g>
       <use xlink:href="#m435a3acbd0" x="38.27" y="48.44" style="stroke: #000000; stroke-width: 0.8"/>
      </g>
     </g>
     <g id="text_14">
      <!-- 5 -->
      <g transform="translate(24.9075 52.239219) scale(0.1 -0.1)">
       <use xlink:href="#DejaVuSans-35"/>
      </g>
     </g>
    </g>
    <g id="text_15">
     <!-- velocidade v (m/s) -->
     <g transform="translate(18.827813 190.150156) rotate(-90) scale(0.1 -0.1)">
      <defs>
       <path id="DejaVuSans-76" d="M 191 3500 
L 800 3500 
L 1894 563 
L 2988 3500 
L 3597 3500 
L 2284 0 
L 1503 0 
L 191 3500 
z
" transform="scale(0.015625)"/>
       <path id="DejaVuSans-6c" d="M 603 4863 
L 1178 4863 
L 1178 0 
L 603 0 
L 603 4863 
z
" transform="scale(0.015625)"/>
       <path id="DejaVuSans-63" d="M 3122 3366 
L 3122 2828 
Q 2878 2963 2633 3030 
Q 2388 3097 2138 3097 
Q 1578 3097 1268 2742 
Q 959 2388 959 1747 
Q 959 1106 1268 751 
Q 1578 397 2138 397 
Q 2388 397 2633 464 
Q 2878 531 3122 666 
L 3122 134 
Q 2881 22 2623 -34 
Q 2366 -91 2075 -91 
Q 1284 -91 818 406 
Q 353 903 353 1747 
Q 353 2603 823 3093 
Q 1294 3584 2113 3584 
Q 2378 3584 2631 3529 
Q 2884 3475 3122 3366 
z
" transform="scale(0.015625)"/>
       <path id="DejaVuSans-69" d="M 603 3500 
L 1178 3500 
L 1178 0 
L 603 0 
L 603 3500 
z
M 603 4863 
L 1178 4863 
L 1178 4134 
L 603 4134 
L 603 4863 
z
" transform="scale(0.015625)"/>
       <path id="DejaVuSans-64" d="M 2906 2969 
L 2906 4863 
L 3481 4863 
L 3481 0 
L 2906 0 
L 2906 525 
Q 2725 213 2448 61 
Q 2172 -91 1784 -91 
Q 1150 -91 751 415 
Q 353 922 353 1747 
Q 353 2572 751 3078 
Q 1150 3584 1784 3584 
Q 2172 3584 2448 3432 
Q 2725 3281 2906 2969 
z
M 947 1747 
Q 947 1113 1208 752 
Q 1469 391 1925 391 
Q 2381 391 2643 752 
Q 2906 1113 2906 1747 
Q 2906 2381 2643 2742 
Q 2381 3103 1925 3103 
Q 1469 3103 1208 2742 
Q 947 2381 947 1747 
z
" transform="scale(0.015625)"/>
       <path id="DejaVuSans-61" d="M 2194 1759 
Q 1497 1759 1228 1600 
Q 959 1441 959 1056 
Q 959 750 1161 570 
Q 1363 391 1709 391 
Q 2188 391 2477 730 
Q 2766 1069 2766 1631 
L 2766 1759 
L 2194 1759 
z
M 3341 1997 
L 3341 0 
L 2766 0 
L 2766 531 
Q 2569 213 2275 61 
Q 1981 -91 1556 -91 
Q 1019 -91 701 211 
Q 384 513 384 1019 
Q 384 1609 779 1909 
Q 1175 2209 1959 2209 
L 2766 2209 
L 2766 2266 
Q 2766 2663 2505 2880 
Q 2244 3097 1772 3097 
Q 1472 3097 1187 3025 
Q 903 2953 641 2809 
L 641 3341 
Q 956 3463 1253 3523 
Q 1550 3584 1831 3584 
Q 2591 3584 2966 3190 
Q 3341 2797 3341 1997 
z
" transform="scale(0.015625)"/>
       <path id="DejaVuSans-2f" d="M 1625 4666 
L 2156 4666 
L 531 -594 
L 0 -594 
L 1625 4666 
z
" transform="scale(0.015625)"/>
      </defs>
      <use xlink:href="#DejaVuSans-76"/>
      <use xlink:href="#DejaVuSans-65" transform="translate(59.179688 0)"/>
      <use xlink:href="#DejaVuSans-6c" transform="translate(120.703125 0)"/>
      <use xlink:href="#DejaVuSans-6f" transform="translate(148.486328 0)"/>
      <use xlink:href="#DejaVuSans-63" transform="translate(209.667969 0)"/>
      <use xlink:href="#DejaVuSans-69" transform="translate(264.648438 0)"/>
      <use xlink:href="#DejaVuSans-64" transform="translate(292.431641 0)"/>
      <use xlink:href="#DejaVuSans-61" transform="translate(355.908203 0)"/>
      <use xlink:href="#DejaVuSans-64" transform="translate(417.1875 0)"/>
      <use xlink:href="#DejaVuSans-65" transform="translate(480.664062 0)"/>
      <use xlink:href="#DejaVuSans-20" transform="translate(542.1875 0)"/>
      <use xlink:href="#DejaVuSans-76" transform="translate(573.974609 0)"/>
      <use xlink:href="#DejaVuSans-20" transform="translate(633.154297 0)"/>
      <use xlink:href="#DejaVuSans-28" transform="translate(664.941406 0)"/>
      <use xlink:href="#DejaVuSans-6d" transform="translate(703.955078 0)"/>
      <use xlink:href="#DejaVuSans-2f" transform="translate(801.367188 0)"/>
      <use xlink:href="#DejaVuSans-73" transform="translate(835.058594 0)"/>
      <use xlink:href="#DejaVuSans-29" transform="translate(887.158203 0)"/>
     </g>
    </g>
   </g>
   <g id="line2d_27">
    <path d="M 38.27 90.84 
L 490.005 90.84 
L 490.005 90.84 
" clip-path="url(#pbcfb80d9a0)" style="fill: none; stroke: #1f77b4; stroke-width: 2; stroke-linecap: square"/>
   </g>
   <g id="patch_3">
    <path d="M 38.27 260.44 
L 38.27 27.24 
" style="fill: none; stroke: #000000; stroke-width: 0.8; stroke-linejoin: miter; stroke-linecap: square"/>
   </g>
   <g id="patch_4">
    <path d="M 490.005 260.44 
L 490.005 27.24 
" style="fill: none; stroke: #000000; stroke-width: 0.8; stroke-linejoin: miter; stroke-linecap: square"/>
   </g>
   <g id="patch_5">
    <path d="M 38.27 260.44 
L 490.005 260.44 
" style="fill: none; stroke: #000000; stroke-width: 0.8; stroke-linejoin: miter; stroke-linecap: square"/>
   </g>
   <g id="patch_6">
    <path d="M 38.27 27.24 
L 490.005 27.24 
" style="fill: none; stroke: #000000; stroke-width: 0.8; stroke-linejoin: miter; stroke-linecap: square"/>
   </g>
   <g id="text_16">
    <!-- MU: deslocamento = área do retângulo -->
    <g transform="translate(146.020938 21.24) scale(0.12 -0.12)">
     <defs>
      <path id="DejaVuSans-4d" d="M 628 4666 
L 1569 4666 
L 2759 1491 
L 3956 4666 
L 4897 4666 
L 4897 0 
L 4281 0 
L 4281 4097 
L 3078 897 
L 2444 897 
L 1241 4097 
L 1241 0 
L 628 0 
L 628 4666 
z
" transform="scale(0.015625)"/>
      <path id="DejaVuSans-55" d="M 556 4666 
L 1191 4666 
L 1191 1831 
Q 1191 1081 1462 751 
Q 1734 422 2344 422 
Q 2950 422 3222 751 
Q 3494 1081 3494 1831 
L 3494 4666 
L 4128 4666 
L 4128 1753 
Q 4128 841 3676 375 
Q 3225 -91 2344 -91 
Q 1459 -91 1007 375 
Q 556 841 556 1753 
L 556 4666 
z
" transform="scale(0.015625)"/>
      <path id="DejaVuSans-3a" d="M 750 794 
L 1409 794 
L 1409 0 
L 750 0 
L 750 794 
z
M 750 3309 
L 1409 3309 
L 1409 2516 
L 750 2516 
L 750 3309 
z
" transform="scale(0.015625)"/>
      <path id="DejaVuSans-6e" d="M 3513 2113 
L 3513 0 
L 2938 0 
L 2938 2094 
Q 2938 2591 2744 2837 
Q 2550 3084 2163 3084 
Q 1697 3084 1428 2787 
Q 1159 2491 1159 1978 
L 1159 0 
L 581 0 
L 581 3500 
L 1159 3500 
L 1159 2956 
Q 1366 3272 1645 3428 
Q 1925 3584 2291 3584 
Q 2894 3584 3203 3211 
Q 3513 2838 3513 2113 
z
" transform="scale(0.015625)"/>
      <path id="DejaVuSans-3d" d="M 678 2906 
L 4684 2906 
L 4684 2381 
L 678 2381 
L 678 2906 
z
M 678 1631 
L 4684 1631 
L 4684 1100 
L 678 1100 
L 678 1631 
z
" transform="scale(0.015625)"/>
      <path id="DejaVuSans-e1" d="M 2194 1759 
Q 1497 1759 1228 1600 
Q 959 1441 959 1056 
Q 959 750 1161 570 
Q 1363 391 1709 391 
Q 2188 391 2477 730 
Q 2766 1069 2766 1631 
L 2766 1759 
L 2194 1759 
z
M 3341 1997 
L 3341 0 
L 2766 0 
L 2766 531 
Q 2569 213 2275 61 
Q 1981 -91 1556 -91 
Q 1019 -91 701 211 
Q 384 513 384 1019 
Q 384 1609 779 1909 
Q 1175 2209 1959 2209 
L 2766 2209 
L 2766 2266 
Q 2766 2663 2505 2880 
Q 2244 3097 1772 3097 
Q 1472 3097 1187 3025 
Q 903 2953 641 2809 
L 641 3341 
Q 956 3463 1253 3523 
Q 1550 3584 1831 3584 
Q 2591 3584 2966 3190 
Q 3341 2797 3341 1997 
z
M 2290 5119 
L 2912 5119 
L 1894 3944 
L 1415 3944 
L 2290 5119 
z
" transform="scale(0.015625)"/>
      <path id="DejaVuSans-72" d="M 2631 2963 
Q 2534 3019 2420 3045 
Q 2306 3072 2169 3072 
Q 1681 3072 1420 2755 
Q 1159 2438 1159 1844 
L 1159 0 
L 581 0 
L 581 3500 
L 1159 3500 
L 1159 2956 
Q 1341 3275 1631 3429 
Q 1922 3584 2338 3584 
Q 2397 3584 2469 3576 
Q 2541 3569 2628 3553 
L 2631 2963 
z
" transform="scale(0.015625)"/>
      <path id="DejaVuSans-e2" d="M 2194 1759 
Q 1497 1759 1228 1600 
Q 959 1441 959 1056 
Q 959 750 1161 570 
Q 1363 391 1709 391 
Q 2188 391 2477 730 
Q 2766 1069 2766 1631 
L 2766 1759 
L 2194 1759 
z
M 3341 1997 
L 3341 0 
L 2766 0 
L 2766 531 
Q 2569 213 2275 61 
Q 1981 -91 1556 -91 
Q 1019 -91 701 211 
Q 384 513 384 1019 
Q 384 1609 779 1909 
Q 1175 2209 1959 2209 
L 2766 2209 
L 2766 2266 
Q 2766 2663 2505 2880 
Q 2244 3097 1772 3097 
Q 1472 3097 1187 3025 
Q 903 2953 641 2809 
L 641 3341 
Q 956 3463 1253 3523 
Q 1550 3584 1831 3584 
Q 2591 3584 2966 3190 
Q 3341 2797 3341 1997 
z
M 1625 5119 
L 2087 5119 
L 2853 3944 
L 2419 3944 
L 1856 4709 
L 1294 3944 
L 859 3944 
L 1625 5119 
z
" transform="scale(0.015625)"/>
      <path id="DejaVuSans-67" d="M 2906 1791 
Q 2906 2416 2648 2759 
Q 2391 3103 1925 3103 
Q 1463 3103 1205 2759 
Q 947 2416 947 1791 
Q 947 1169 1205 825 
Q 1463 481 1925 481 
Q 2391 481 2648 825 
Q 2906 1169 2906 1791 
z
M 3481 434 
Q 3481 -459 3084 -895 
Q 2688 -1331 1869 -1331 
Q 1566 -1331 1297 -1286 
Q 1028 -1241 775 -1147 
L 775 -588 
Q 1028 -725 1275 -790 
Q 1522 -856 1778 -856 
Q 2344 -856 2625 -561 
Q 2906 -266 2906 331 
L 2906 616 
Q 2728 306 2450 153 
Q 2172 0 1784 0 
Q 1141 0 747 490 
Q 353 981 353 1791 
Q 353 2603 747 3093 
Q 1141 3584 1784 3584 
Q 2172 3584 2450 3431 
Q 2728 3278 2906 2969 
L 2906 3500 
L 3481 3500 
L 3481 434 
z
" transform="scale(0.015625)"/>
      <path id="DejaVuSans-75" d="M 544 1381 
L 544 3500 
L 1119 3500 
L 1119 1403 
Q 1119 906 1312 657 
Q 1506 409 1894 409 
Q 2359 409 2629 706 
Q 2900 1003 2900 1516 
L 2900 3500 
L 3475 3500 
L 3475 0 
L 2900 0 
L 2900 538 
Q 2691 219 2414 64 
Q 2138 -91 1772 -91 
Q 1169 -91 856 284 
Q 544 659 544 1381 
z
M 1991 3584 
L 1991 3584 
z
" transform="scale(0.015625)"/>
     </defs>
     <use xlink:href="#DejaVuSans-4d"/>
     <use xlink:href="#DejaVuSans-55" transform="translate(86.279297 0)"/>
     <use xlink:href="#DejaVuSans-3a" transform="translate(159.472656 0)"/>
     <use xlink:href="#DejaVuSans-20" transform="translate(193.164062 0)"/>
     <use xlink:href="#DejaVuSans-64" transform="translate(224.951172 0)"/>
     <use xlink:href="#DejaVuSans-65" transform="translate(288.427734 0)"/>
     <use xlink:href="#DejaVuSans-73" transform="translate(349.951172 0)"/>
     <use xlink:href="#DejaVuSans-6c" transform="translate(402.050781 0)"/>
     <use xlink:href="#DejaVuSans-6f" transform="translate(429.833984 0)"/>
     <use xlink:href="#DejaVuSans-63" transform="translate(491.015625 0)"/>
     <use xlink:href="#DejaVuSans-61" transform="translate(545.996094 0)"/>
     <use xlink:href="#DejaVuSans-6d" transform="translate(607.275391 0)"/>
     <use xlink:href="#DejaVuSans-65" transform="translate(704.6875 0)"/>
     <use xlink:href="#DejaVuSans-6e" transform="translate(766.210938 0)"/>
     <use xlink:href="#DejaVuSans-74" transform="translate(829.589844 0)"/>
     <use xlink:href="#DejaVuSans-6f" transform="translate(868.798828 0)"/>
     <use xlink:href="#DejaVuSans-20" transform="translate(929.980469 0)"/>
     <use xlink:href="#DejaVuSans-3d" transform="translate(961.767578 0)"/>
     <use xlink:href="#DejaVuSans-20" transform="translate(1045.556641 0)"/>
     <use xlink:href="#DejaVuSans-e1" transform="translate(1077.34375 0)"/>
     <use xlink:href="#DejaVuSans-72" transform="translate(1138.623047 0)"/>
     <use xlink:href="#DejaVuSans-65" transform="translate(1177.486328 0)"/>
     <use xlink:href="#DejaVuSans-61" transform="translate(1239.009766 0)"/>
     <use xlink:href="#DejaVuSans-20" transform="translate(1300.289062 0)"/>
     <use xlink:href="#DejaVuSans-64" transform="translate(1332.076172 0)"/>
     <use xlink:href="#DejaVuSans-6f" transform="translate(1395.552734 0)"/>
     <use xlink:href="#DejaVuSans-20" transform="translate(1456.734375 0)"/>
     <use xlink:href="#DejaVuSans-72" transform="translate(1488.521484 0)"/>
     <use xlink:href="#DejaVuSans-65" transform="translate(1527.384766 0)"/>
     <use xlink:href="#DejaVuSans-74" transform="translate(1588.908203 0)"/>
     <use xlink:href="#DejaVuSans-e2" transform="translate(1628.117188 0)"/>
     <use xlink:href="#DejaVuSans-6e" transform="translate(1689.396484 0)"/>
     <use xlink:href="#DejaVuSans-67" transform="translate(1752.775391 0)"/>
     <use xlink:href="#DejaVuSans-75" transform="translate(1816.251953 0)"/>
     <use xlink:href="#DejaVuSans-6c" transform="translate(1879.630859 0)"/>
     <use xlink:href="#DejaVuSans-6f" transform="translate(1907.414062 0)"/>
    </g>
   </g>
  </g>
 </g>
 <defs>
  <clipPath id="pbcfb80d9a0">
   <rect x="38.27" y="27.24" width="451.735" height="233.2"/>
  </clipPath>
 </defs>
</svg>
