<?xml version="1.0" encoding="utf-8" standalone="no"?>
<!DOCTYPE svg PUBLIC "-//W3C//DTD SVG 1.1//EN"
  "http://www.w3.org/Graphics/SVG/1.1/DTD/svg11.dtd">
<svg xmlns:xlink="http://www.w3.org/1999/xlink" width="504pt" height="302.4pt" viewBox="0 0 504 302.4" xmlns="http://www.w3.org/2000/svg" version="1.1">
 <metadata>
  <rdf:RDF xmlns:dc="http://purl.org/dc/elements/1.1/" xmlns:cc="http://creativecommons.org/ns#" xmlns:rdf="http://www.w3.org/1999/02/22-rdf-syntax-ns#">
   <cc:Work>
    <dc:type rdf:resource="http://purl.org/dc/dcmitype/StillImage"/>
    <dc:date>2026-03-26T08:59:14.385764</dc:date>
    <dc:format>image/svg+xml</dc:format>
    <dc:creator>
     <cc:Agent>
      <dc:title>Matplotlib v3.10.8, https://matplotlib.org/</dc:title>
     </cc:Agent>
    </dc:creator>
   </cc:Work>
  </rdf:RDF>
 </metadata>
 <defs>
  <style type="text/css">*{stroke-linejoin: round; stroke-linecap: butt}</style>
 </defs>
 <g id="figure_1">
  <g id="patch_1">
   <path d="M 0 302.4 
L 504 302.4 
L 504 0 
L 0 0 
z
" style="fill: #ffffff"/>
  </g>
  <g id="axes_1">
   <g id="patch_2">
    <path d="M 54.02 260.44 
L 493.2 260.44 
L 493.2 27.24 
L 54.02 27.24 
z
" style="fill: #ffffff"/>
   </g>
   <g id="FillBetweenPolyCollection_1">
    <path d="M 73.982727 228.64 
L 73.982727 249.84 
L 75.318027 249.84 
L 76.653326 249.84 
L 77.988626 249.84 
L 79.323925 249.84 
L 80.659225 249.84 
L 81.994524 249.84 
L 83.329824 249.84 
L 84.665123 249.84 
L 86.000423 249.84 
L 87.335722 249.84 
L 88.671022 249.84 
L 90.006321 249.84 
L 91.341621 249.84 
L 92.67692 249.84 
L 94.01222 249.84 
L 95.347519 249.84 
L 96.682818 249.84 
L 98.018118 249.84 
L 99.353417 249.84 
L 100.688717 249.84 
L 102.024016 249.84 
L 103.359316 249.84 
L 104.694615 249.84 
L 106.029915 249.84 
L 107.365214 249.84 
L 108.700514 249.84 
L 110.035813 249.84 
L 111.371113 249.84 
L 112.706412 249.84 
L 114.041712 249.84 
L 115.377011 249.84 
L 116.712311 249.84 
L 118.04761 249.84 
L 119.38291 249.84 
L 120.718209 249.84 
L 122.053509 249.84 
L 123.388808 249.84 
L 124.724108 249.84 
L 126.059407 249.84 
L 127.394707 249.84 
L 128.730006 249.84 
L 130.065306 249.84 
L 131.400605 249.84 
L 132.735905 249.84 
L 134.071204 249.84 
L 135.406503 249.84 
L 136.741803 249.84 
L 138.077102 249.84 
L 139.412402 249.84 
L 140.747701 249.84 
L 142.083001 249.84 
L 143.4183 249.84 
L 144.7536 249.84 
L 146.088899 249.84 
L 147.424199 249.84 
L 148.759498 249.84 
L 150.094798 249.84 
L 151.430097 249.84 
L 152.765397 249.84 
L 154.100696 249.84 
L 155.435996 249.84 
L 156.771295 249.84 
L 158.106595 249.84 
L 159.441894 249.84 
L 160.777194 249.84 
L 162.112493 249.84 
L 163.447793 249.84 
L 164.783092 249.84 
L 166.118392 249.84 
L 167.453691 249.84 
L 168.788991 249.84 
L 170.12429 249.84 
L 171.45959 249.84 
L 172.794889 249.84 
L 174.130189 249.84 
L 175.465488 249.84 
L 176.800787 249.84 
L 178.136087 249.84 
L 179.471386 249.84 
L 180.806686 249.84 
L 182.141985 249.84 
L 183.477285 249.84 
L 184.812584 249.84 
L 186.147884 249.84 
L 187.483183 249.84 
L 188.818483 249.84 
L 190.153782 249.84 
L 191.489082 249.84 
L 192.824381 249.84 
L 194.159681 249.84 
L 195.49498 249.84 
L 196.83028 249.84 
L 198.165579 249.84 
L 199.500879 249.84 
L 200.836178 249.84 
L 202.171478 249.84 
L 203.506777 249.84 
L 204.842077 249.84 
L 206.177376 249.84 
L 207.512676 249.84 
L 208.847975 249.84 
L 210.183275 249.84 
L 211.518574 249.84 
L 212.853874 249.84 
L 214.189173 249.84 
L 215.524472 249.84 
L 216.859772 249.84 
L 218.195071 249.84 
L 219.530371 249.84 
L 220.86567 249.84 
L 222.20097 249.84 
L 223.536269 249.84 
L 224.871569 249.84 
L 226.206868 249.84 
L 227.542168 249.84 
L 228.877467 249.84 
L 230.212767 249.84 
L 231.548066 249.84 
L 232.883366 249.84 
L 234.218665 249.84 
L 235.553965 249.84 
L 236.889264 249.84 
L 238.224564 249.84 
L 239.559863 249.84 
L 240.895163 249.84 
L 242.230462 249.84 
L 243.565762 249.84 
L 244.901061 249.84 
L 246.236361 249.84 
L 247.57166 249.84 
L 248.90696 249.84 
L 250.242259 249.84 
L 251.577559 249.84 
L 252.912858 249.84 
L 254.248157 249.84 
L 255.583457 249.84 
L 256.918756 249.84 
L 258.254056 249.84 
L 259.589355 249.84 
L 260.924655 249.84 
L 262.259954 249.84 
L 263.595254 249.84 
L 264.930553 249.84 
L 266.265853 249.84 
L 267.601152 249.84 
L 268.936452 249.84 
L 270.271751 249.84 
L 271.607051 249.84 
L 272.94235 249.84 
L 274.27765 249.84 
L 275.612949 249.84 
L 276.948249 249.84 
L 278.283548 249.84 
L 279.618848 249.84 
L 280.954147 249.84 
L 282.289447 249.84 
L 283.624746 249.84 
L 284.960046 249.84 
L 286.295345 249.84 
L 287.630645 249.84 
L 288.965944 249.84 
L 290.301244 249.84 
L 291.636543 249.84 
L 292.971843 249.84 
L 294.307142 249.84 
L 295.642441 249.84 
L 296.977741 249.84 
L 298.31304 249.84 
L 299.64834 249.84 
L 300.983639 249.84 
L 302.318939 249.84 
L 303.654238 249.84 
L 304.989538 249.84 
L 306.324837 249.84 
L 307.660137 249.84 
L 308.995436 249.84 
L 310.330736 249.84 
L 311.666035 249.84 
L 313.001335 249.84 
L 314.336634 249.84 
L 315.671934 249.84 
L 317.007233 249.84 
L 318.342533 249.84 
L 319.677832 249.84 
L 321.013132 249.84 
L 322.348431 249.84 
L 323.683731 249.84 
L 325.01903 249.84 
L 326.35433 249.84 
L 327.689629 249.84 
L 329.024929 249.84 
L 330.360228 249.84 
L 331.695528 249.84 
L 333.030827 249.84 
L 334.366126 249.84 
L 335.701426 249.84 
L 337.036725 249.84 
L 338.372025 249.84 
L 339.707324 249.84 
L 341.042624 249.84 
L 342.377923 249.84 
L 343.713223 249.84 
L 345.048522 249.84 
L 346.383822 249.84 
L 347.719121 249.84 
L 349.054421 249.84 
L 350.38972 249.84 
L 351.72502 249.84 
L 353.060319 249.84 
L 354.395619 249.84 
L 355.730918 249.84 
L 357.066218 249.84 
L 358.401517 249.84 
L 359.736817 249.84 
L 361.072116 249.84 
L 362.407416 249.84 
L 363.742715 249.84 
L 365.078015 249.84 
L 366.413314 249.84 
L 367.748614 249.84 
L 369.083913 249.84 
L 370.419213 249.84 
L 371.754512 249.84 
L 373.089811 249.84 
L 374.425111 249.84 
L 375.76041 249.84 
L 377.09571 249.84 
L 378.431009 249.84 
L 379.766309 249.84 
L 381.101608 249.84 
L 382.436908 249.84 
L 383.772207 249.84 
L 385.107507 249.84 
L 386.442806 249.84 
L 387.778106 249.84 
L 389.113405 249.84 
L 390.448705 249.84 
L 391.784004 249.84 
L 393.119304 249.84 
L 394.454603 249.84 
L 395.789903 249.84 
L 397.125202 249.84 
L 398.460502 249.84 
L 399.795801 249.84 
L 401.131101 249.84 
L 402.4664 249.84 
L 403.8017 249.84 
L 405.136999 249.84 
L 406.472299 249.84 
L 407.807598 249.84 
L 409.142898 249.84 
L 410.478197 249.84 
L 411.813497 249.84 
L 413.148796 249.84 
L 414.484095 249.84 
L 415.819395 249.84 
L 417.154694 249.84 
L 418.489994 249.84 
L 419.825293 249.84 
L 421.160593 249.84 
L 422.495892 249.84 
L 423.831192 249.84 
L 425.166491 249.84 
L 426.501791 249.84 
L 427.83709 249.84 
L 429.17239 249.84 
L 430.507689 249.84 
L 431.842989 249.84 
L 433.178288 249.84 
L 434.513588 249.84 
L 435.848887 249.84 
L 437.184187 249.84 
L 438.519486 249.84 
L 439.854786 249.84 
L 441.190085 249.84 
L 442.525385 249.84 
L 443.860684 249.84 
L 445.195984 249.84 
L 446.531283 249.84 
L 447.866583 249.84 
L 449.201882 249.84 
L 450.537182 249.84 
L 451.872481 249.84 
L 453.20778 249.84 
L 454.54308 249.84 
L 455.878379 249.84 
L 457.213679 249.84 
L 458.548978 249.84 
L 459.884278 249.84 
L 461.219577 249.84 
L 462.554877 249.84 
L 463.890176 249.84 
L 465.225476 249.84 
L 466.560775 249.84 
L 467.896075 249.84 
L 469.231374 249.84 
L 470.566674 249.84 
L 471.901973 249.84 
L 473.237273 249.84 
L 473.237273 37.84 
L 473.237273 37.84 
L 471.901973 39.11412 
L 470.566674 40.383972 
L 469.231374 41.649555 
L 467.896075 42.910869 
L 466.560775 44.167916 
L 465.225476 45.420694 
L 463.890176 46.669203 
L 462.554877 47.913444 
L 461.219577 49.153417 
L 459.884278 50.389121 
L 458.548978 51.620557 
L 457.213679 52.847725 
L 455.878379 54.070624 
L 454.54308 55.289254 
L 453.20778 56.503617 
L 451.872481 57.713711 
L 450.537182 58.919536 
L 449.201882 60.121093 
L 447.866583 61.318382 
L 446.531283 62.511402 
L 445.195984 63.700154 
L 443.860684 64.884637 
L 442.525385 66.064852 
L 441.190085 67.240799 
L 439.854786 68.412477 
L 438.519486 69.579887 
L 437.184187 70.743028 
L 435.848887 71.901901 
L 434.513588 73.056505 
L 433.178288 74.206842 
L 431.842989 75.352909 
L 430.507689 76.494709 
L 429.17239 77.632239 
L 427.83709 78.765502 
L 426.501791 79.894496 
L 425.166491 81.019222 
L 423.831192 82.139679 
L 422.495892 83.255868 
L 421.160593 84.367788 
L 419.825293 85.47544 
L 418.489994 86.578824 
L 417.154694 87.677939 
L 415.819395 88.772786 
L 414.484095 89.863364 
L 413.148796 90.949674 
L 411.813497 92.031716 
L 410.478197 93.109489 
L 409.142898 94.182994 
L 407.807598 95.25223 
L 406.472299 96.317198 
L 405.136999 97.377898 
L 403.8017 98.434329 
L 402.4664 99.486492 
L 401.131101 100.534386 
L 399.795801 101.578012 
L 398.460502 102.617369 
L 397.125202 103.652458 
L 395.789903 104.683279 
L 394.454603 105.709831 
L 393.119304 106.732115 
L 391.784004 107.750131 
L 390.448705 108.763878 
L 389.113405 109.773356 
L 387.778106 110.778567 
L 386.442806 111.779509 
L 385.107507 112.776182 
L 383.772207 113.768587 
L 382.436908 114.756724 
L 381.101608 115.740592 
L 379.766309 116.720191 
L 378.431009 117.695523 
L 377.09571 118.666586 
L 375.76041 119.63338 
L 374.425111 120.595907 
L 373.089811 121.554164 
L 371.754512 122.508154 
L 370.419213 123.457875 
L 369.083913 124.403327 
L 367.748614 125.344511 
L 366.413314 126.281427 
L 365.078015 127.214074 
L 363.742715 128.142453 
L 362.407416 129.066563 
L 361.072116 129.986406 
L 359.736817 130.901979 
L 358.401517 131.813284 
L 357.066218 132.720321 
L 355.730918 133.62309 
L 354.395619 134.52159 
L 353.060319 135.415821 
L 351.72502 136.305784 
L 350.38972 137.191479 
L 349.054421 138.072906 
L 347.719121 138.950064 
L 346.383822 139.822953 
L 345.048522 140.691574 
L 343.713223 141.555927 
L 342.377923 142.416011 
L 341.042624 143.271827 
L 339.707324 144.123375 
L 338.372025 144.970654 
L 337.036725 145.813665 
L 335.701426 146.652407 
L 334.366126 147.486881 
L 333.030827 148.317086 
L 331.695528 149.143023 
L 330.360228 149.964692 
L 329.024929 150.782092 
L 327.689629 151.595224 
L 326.35433 152.404088 
L 325.01903 153.208683 
L 323.683731 154.009009 
L 322.348431 154.805068 
L 321.013132 155.596857 
L 319.677832 156.384379 
L 318.342533 157.167632 
L 317.007233 157.946616 
L 315.671934 158.721332 
L 314.336634 159.49178 
L 313.001335 160.25796 
L 311.666035 161.01987 
L 310.330736 161.777513 
L 308.995436 162.530887 
L 307.660137 163.279993 
L 306.324837 164.02483 
L 304.989538 164.765399 
L 303.654238 165.5017 
L 302.318939 166.233732 
L 300.983639 166.961495 
L 299.64834 167.684991 
L 298.31304 168.404217 
L 296.977741 169.119176 
L 295.642441 169.829866 
L 294.307142 170.536288 
L 292.971843 171.238441 
L 291.636543 171.936326 
L 290.301244 172.629942 
L 288.965944 173.31929 
L 287.630645 174.00437 
L 286.295345 174.685181 
L 284.960046 175.361723 
L 283.624746 176.033998 
L 282.289447 176.702004 
L 280.954147 177.365741 
L 279.618848 178.02521 
L 278.283548 178.680411 
L 276.948249 179.331343 
L 275.612949 179.978007 
L 274.27765 180.620403 
L 272.94235 181.25853 
L 271.607051 181.892389 
L 270.271751 182.521979 
L 268.936452 183.147301 
L 267.601152 183.768354 
L 266.265853 184.385139 
L 264.930553 184.997656 
L 263.595254 185.605904 
L 262.259954 186.209884 
L 260.924655 186.809595 
L 259.589355 187.405038 
L 258.254056 187.996213 
L 256.918756 188.583119 
L 255.583457 189.165757 
L 254.248157 189.744126 
L 252.912858 190.318227 
L 251.577559 190.88806 
L 250.242259 191.453624 
L 248.90696 192.01492 
L 247.57166 192.571947 
L 246.236361 193.124706 
L 244.901061 193.673196 
L 243.565762 194.217419 
L 242.230462 194.757372 
L 240.895163 195.293058 
L 239.559863 195.824474 
L 238.224564 196.351623 
L 236.889264 196.874503 
L 235.553965 197.393115 
L 234.218665 197.907458 
L 232.883366 198.417533 
L 231.548066 198.923339 
L 230.212767 199.424877 
L 228.877467 199.922147 
L 227.542168 200.415148 
L 226.206868 200.903881 
L 224.871569 201.388345 
L 223.536269 201.868541 
L 222.20097 202.344469 
L 220.86567 202.816128 
L 219.530371 203.283519 
L 218.195071 203.746641 
L 216.859772 204.205495 
L 215.524472 204.66008 
L 214.189173 205.110397 
L 212.853874 205.556446 
L 211.518574 205.998226 
L 210.183275 206.435738 
L 208.847975 206.868982 
L 207.512676 207.297957 
L 206.177376 207.722664 
L 204.842077 208.143102 
L 203.506777 208.559272 
L 202.171478 208.971173 
L 200.836178 209.378806 
L 199.500879 209.782171 
L 198.165579 210.181267 
L 196.83028 210.576095 
L 195.49498 210.966654 
L 194.159681 211.352945 
L 192.824381 211.734968 
L 191.489082 212.112722 
L 190.153782 212.486208 
L 188.818483 212.855425 
L 187.483183 213.220374 
L 186.147884 213.581054 
L 184.812584 213.937466 
L 183.477285 214.28961 
L 182.141985 214.637485 
L 180.806686 214.981092 
L 179.471386 215.320431 
L 178.136087 215.655501 
L 176.800787 215.986303 
L 175.465488 216.312836 
L 174.130189 216.635101 
L 172.794889 216.953097 
L 171.45959 217.266825 
L 170.12429 217.576285 
L 168.788991 217.881476 
L 167.453691 218.182399 
L 166.118392 218.479053 
L 164.783092 218.771439 
L 163.447793 219.059557 
L 162.112493 219.343406 
L 160.777194 219.622987 
L 159.441894 219.898299 
L 158.106595 220.169343 
L 156.771295 220.436119 
L 155.435996 220.698626 
L 154.100696 220.956864 
L 152.765397 221.210835 
L 151.430097 221.460537 
L 150.094798 221.70597 
L 148.759498 221.947135 
L 147.424199 222.184032 
L 146.088899 222.41666 
L 144.7536 222.64502 
L 143.4183 222.869112 
L 142.083001 223.088935 
L 140.747701 223.304489 
L 139.412402 223.515775 
L 138.077102 223.722793 
L 136.741803 223.925543 
L 135.406503 224.124024 
L 134.071204 224.318236 
L 132.735905 224.50818 
L 131.400605 224.693856 
L 130.065306 224.875264 
L 128.730006 225.052403 
L 127.394707 225.225273 
L 126.059407 225.393875 
L 124.724108 225.558209 
L 123.388808 225.718274 
L 122.053509 225.874071 
L 120.718209 226.0256 
L 119.38291 226.17286 
L 118.04761 226.315852 
L 116.712311 226.454575 
L 115.377011 226.58903 
L 114.041712 226.719216 
L 112.706412 226.845134 
L 111.371113 226.966784 
L 110.035813 227.084165 
L 108.700514 227.197278 
L 107.365214 227.306122 
L 106.029915 227.410698 
L 104.694615 227.511006 
L 103.359316 227.607045 
L 102.024016 227.698816 
L 100.688717 227.786318 
L 99.353417 227.869552 
L 98.018118 227.948518 
L 96.682818 228.023215 
L 95.347519 228.093644 
L 94.01222 228.159804 
L 92.67692 228.221696 
L 91.341621 228.279319 
L 90.006321 228.332675 
L 88.671022 228.381761 
L 87.335722 228.42658 
L 86.000423 228.467129 
L 84.665123 228.503411 
L 83.329824 228.535424 
L 81.994524 228.563169 
L 80.659225 228.586645 
L 79.323925 228.605853 
L 77.988626 228.620792 
L 76.653326 228.631463 
L 75.318027 228.637866 
L 73.982727 228.64 
z
" clip-path="url(#p50fa5d0e6c)" style="fill: #1f77b4; fill-opacity: 0.2"/>
   </g>
   <g id="matplotlib.axis_1">
    <g id="xtick_1">
     <g id="line2d_1">
      <path d="M 73.982727 260.44 
L 73.982727 27.24 
" clip-path="url(#p50fa5d0e6c)" style="fill: none; stroke: #b0b0b0; stroke-opacity: 0.3; stroke-width: 0.8; stroke-linecap: square"/>
     </g>
     <g id="line2d_2">
      <defs>
       <path id="m03d48b8ba4" d="M 0 0 
L 0 3.5 
" style="stroke: #000000; stroke-width: 0.8"/>
      </defs>
      <g>
       <use xlink:href="#m03d48b8ba4" x="73.982727" y="260.44" style="stroke: #000000; stroke-width: 0.8"/>
      </g>
     </g>
     <g id="text_1">
      <!-- 0 -->
      <g transform="translate(70.801477 275.038438) scale(0.1 -0.1)">
       <defs>
        <path id="DejaVuSans-30" d="M 2034 4250 
Q 1547 4250 1301 3770 
Q 1056 3291 1056 2328 
Q 1056 1369 1301 889 
Q 1547 409 2034 409 
Q 2525 409 2770 889 
Q 3016 1369 3016 2328 
Q 3016 3291 2770 3770 
Q 2525 4250 2034 4250 
z
M 2034 4750 
Q 2819 4750 3233 4129 
Q 3647 3509 3647 2328 
Q 3647 1150 3233 529 
Q 2819 -91 2034 -91 
Q 1250 -91 836 529 
Q 422 1150 422 2328 
Q 422 3509 836 4129 
Q 1250 4750 2034 4750 
z
" transform="scale(0.015625)"/>
       </defs>
       <use xlink:href="#DejaVuSans-30"/>
      </g>
     </g>
    </g>
    <g id="xtick_2">
     <g id="line2d_3">
      <path d="M 140.525152 260.44 
L 140.525152 27.24 
" clip-path="url(#p50fa5d0e6c)" style="fill: none; stroke: #b0b0b0; stroke-opacity: 0.3; stroke-width: 0.8; stroke-linecap: square"/>
     </g>
     <g id="line2d_4">
      <g>
       <use xlink:href="#m03d48b8ba4" x="140.525152" y="260.44" style="stroke: #000000; stroke-width: 0.8"/>
      </g>
     </g>
     <g id="text_2">
      <!-- 1 -->
      <g transform="translate(137.343902 275.038438) scale(0.1 -0.1)">
       <defs>
        <path id="DejaVuSans-31" d="M 794 531 
L 1825 531 
L 1825 4091 
L 703 3866 
L 703 4441 
L 1819 4666 
L 2450 4666 
L 2450 531 
L 3481 531 
L 3481 0 
L 794 0 
L 794 531 
z
" transform="scale(0.015625)"/>
       </defs>
       <use xlink:href="#DejaVuSans-31"/>
      </g>
     </g>
    </g>
    <g id="xtick_3">
     <g id="line2d_5">
      <path d="M 207.067576 260.44 
L 207.067576 27.24 
" clip-path="url(#p50fa5d0e6c)" style="fill: none; stroke: #b0b0b0; stroke-opacity: 0.3; stroke-width: 0.8; stroke-linecap: square"/>
     </g>
     <g id="line2d_6">
      <g>
       <use xlink:href="#m03d48b8ba4" x="207.067576" y="260.44" style="stroke: #000000; stroke-width: 0.8"/>
      </g>
     </g>
     <g id="text_3">
      <!-- 2 -->
      <g transform="translate(203.886326 275.038438) scale(0.1 -0.1)">
       <defs>
        <path id="DejaVuSans-32" d="M 1228 531 
L 3431 531 
L 3431 0 
L 469 0 
L 469 531 
Q 828 903 1448 1529 
Q 2069 2156 2228 2338 
Q 2531 2678 2651 2914 
Q 2772 3150 2772 3378 
Q 2772 3750 2511 3984 
Q 2250 4219 1831 4219 
Q 1534 4219 1204 4116 
Q 875 4013 500 3803 
L 500 4441 
Q 881 4594 1212 4672 
Q 1544 4750 1819 4750 
Q 2544 4750 2975 4387 
Q 3406 4025 3406 3419 
Q 3406 3131 3298 2873 
Q 3191 2616 2906 2266 
Q 2828 2175 2409 1742 
Q 1991 1309 1228 531 
z
" transform="scale(0.015625)"/>
       </defs>
       <use xlink:href="#DejaVuSans-32"/>
      </g>
     </g>
    </g>
    <g id="xtick_4">
     <g id="line2d_7">
      <path d="M 273.61 260.44 
L 273.61 27.24 
" clip-path="url(#p50fa5d0e6c)" style="fill: none; stroke: #b0b0b0; stroke-opacity: 0.3; stroke-width: 0.8; stroke-linecap: square"/>
     </g>
     <g id="line2d_8">
      <g>
       <use xlink:href="#m03d48b8ba4" x="273.61" y="260.44" style="stroke: #000000; stroke-width: 0.8"/>
      </g>
     </g>
     <g id="text_4">
      <!-- 3 -->
      <g transform="translate(270.42875 275.038438) scale(0.1 -0.1)">
       <defs>
        <path id="DejaVuSans-33" d="M 2597 2516 
Q 3050 2419 3304 2112 
Q 3559 1806 3559 1356 
Q 3559 666 3084 287 
Q 2609 -91 1734 -91 
Q 1441 -91 1130 -33 
Q 819 25 488 141 
L 488 750 
Q 750 597 1062 519 
Q 1375 441 1716 441 
Q 2309 441 2620 675 
Q 2931 909 2931 1356 
Q 2931 1769 2642 2001 
Q 2353 2234 1838 2234 
L 1294 2234 
L 1294 2753 
L 1863 2753 
Q 2328 2753 2575 2939 
Q 2822 3125 2822 3475 
Q 2822 3834 2567 4026 
Q 2313 4219 1838 4219 
Q 1578 4219 1281 4162 
Q 984 4106 628 3988 
L 628 4550 
Q 988 4650 1302 4700 
Q 1616 4750 1894 4750 
Q 2613 4750 3031 4423 
Q 3450 4097 3450 3541 
Q 3450 3153 3228 2886 
Q 3006 2619 2597 2516 
z
" transform="scale(0.015625)"/>
       </defs>
       <use xlink:href="#DejaVuSans-33"/>
      </g>
     </g>
    </g>
    <g id="xtick_5">
     <g id="line2d_9">
      <path d="M 340.152424 260.44 
L 340.152424 27.24 
" clip-path="url(#p50fa5d0e6c)" style="fill: none; stroke: #b0b0b0; stroke-opacity: 0.3; stroke-width: 0.8; stroke-linecap: square"/>
     </g>
     <g id="line2d_10">
      <g>
       <use xlink:href="#m03d48b8ba4" x="340.152424" y="260.44" style="stroke: #000000; stroke-width: 0.8"/>
      </g>
     </g>
     <g id="text_5">
      <!-- 4 -->
      <g transform="translate(336.971174 275.038438) scale(0.1 -0.1)">
       <defs>
        <path id="DejaVuSans-34" d="M 2419 4116 
L 825 1625 
L 2419 1625 
L 2419 4116 
z
M 2253 4666 
L 3047 4666 
L 3047 1625 
L 3713 1625 
L 3713 1100 
L 3047 1100 
L 3047 0 
L 2419 0 
L 2419 1100 
L 313 1100 
L 313 1709 
L 2253 4666 
z
" transform="scale(0.015625)"/>
       </defs>
       <use xlink:href="#DejaVuSans-34"/>
      </g>
     </g>
    </g>
    <g id="xtick_6">
     <g id="line2d_11">
      <path d="M 406.694848 260.44 
L 406.694848 27.24 
" clip-path="url(#p50fa5d0e6c)" style="fill: none; stroke: #b0b0b0; stroke-opacity: 0.3; stroke-width: 0.8; stroke-linecap: square"/>
     </g>
     <g id="line2d_12">
      <g>
       <use xlink:href="#m03d48b8ba4" x="406.694848" y="260.44" style="stroke: #000000; stroke-width: 0.8"/>
      </g>
     </g>
     <g id="text_6">
      <!-- 5 -->
      <g transform="translate(403.513598 275.038438) scale(0.1 -0.1)">
       <defs>
        <path id="DejaVuSans-35" d="M 691 4666 
L 3169 4666 
L 3169 4134 
L 1269 4134 
L 1269 2991 
Q 1406 3038 1543 3061 
Q 1681 3084 1819 3084 
Q 2600 3084 3056 2656 
Q 3513 2228 3513 1497 
Q 3513 744 3044 326 
Q 2575 -91 1722 -91 
Q 1428 -91 1123 -41 
Q 819 9 494 109 
L 494 744 
Q 775 591 1075 516 
Q 1375 441 1709 441 
Q 2250 441 2565 725 
Q 2881 1009 2881 1497 
Q 2881 1984 2565 2268 
Q 2250 2553 1709 2553 
Q 1456 2553 1204 2497 
Q 953 2441 691 2322 
L 691 4666 
z
" transform="scale(0.015625)"/>
       </defs>
       <use xlink:href="#DejaVuSans-35"/>
      </g>
     </g>
    </g>
    <g id="xtick_7">
     <g id="line2d_13">
      <path d="M 473.237273 260.44 
L 473.237273 27.24 
" clip-path="url(#p50fa5d0e6c)" style="fill: none; stroke: #b0b0b0; stroke-opacity: 0.3; stroke-width: 0.8; stroke-linecap: square"/>
     </g>
     <g id="line2d_14">
      <g>
       <use xlink:href="#m03d48b8ba4" x="473.237273" y="260.44" style="stroke: #000000; stroke-width: 0.8"/>
      </g>
     </g>
     <g id="text_7">
      <!-- 6 -->
      <g transform="translate(470.056023 275.038438) scale(0.1 -0.1)">
       <defs>
        <path id="DejaVuSans-36" d="M 2113 2584 
Q 1688 2584 1439 2293 
Q 1191 2003 1191 1497 
Q 1191 994 1439 701 
Q 1688 409 2113 409 
Q 2538 409 2786 701 
Q 3034 994 3034 1497 
Q 3034 2003 2786 2293 
Q 2538 2584 2113 2584 
z
M 3366 4563 
L 3366 3988 
Q 3128 4100 2886 4159 
Q 2644 4219 2406 4219 
Q 1781 4219 1451 3797 
Q 1122 3375 1075 2522 
Q 1259 2794 1537 2939 
Q 1816 3084 2150 3084 
Q 2853 3084 3261 2657 
Q 3669 2231 3669 1497 
Q 3669 778 3244 343 
Q 2819 -91 2113 -91 
Q 1303 -91 875 529 
Q 447 1150 447 2328 
Q 447 3434 972 4092 
Q 1497 4750 2381 4750 
Q 2619 4750 2861 4703 
Q 3103 4656 3366 4563 
z
" transform="scale(0.015625)"/>
       </defs>
       <use xlink:href="#DejaVuSans-36"/>
      </g>
     </g>
    </g>
    <g id="text_8">
     <!-- tempo t (s) -->
     <g transform="translate(245.824844 288.716563) scale(0.1 -0.1)">
      <defs>
       <path id="DejaVuSans-74" d="M 1172 4494 
L 1172 3500 
L 2356 3500 
L 2356 3053 
L 1172 3053 
L 1172 1153 
Q 1172 725 1289 603 
Q 1406 481 1766 481 
L 2356 481 
L 2356 0 
L 1766 0 
Q 1100 0 847 248 
Q 594 497 594 1153 
L 594 3053 
L 172 3053 
L 172 3500 
L 594 3500 
L 594 4494 
L 1172 4494 
z
" transform="scale(0.015625)"/>
       <path id="DejaVuSans-65" d="M 3597 1894 
L 3597 1613 
L 953 1613 
Q 991 1019 1311 708 
Q 1631 397 2203 397 
Q 2534 397 2845 478 
Q 3156 559 3463 722 
L 3463 178 
Q 3153 47 2828 -22 
Q 2503 -91 2169 -91 
Q 1331 -91 842 396 
Q 353 884 353 1716 
Q 353 2575 817 3079 
Q 1281 3584 2069 3584 
Q 2775 3584 3186 3129 
Q 3597 2675 3597 1894 
z
M 3022 2063 
Q 3016 2534 2758 2815 
Q 2500 3097 2075 3097 
Q 1594 3097 1305 2825 
Q 1016 2553 972 2059 
L 3022 2063 
z
" transform="scale(0.015625)"/>
       <path id="DejaVuSans-6d" d="M 3328 2828 
Q 3544 3216 3844 3400 
Q 4144 3584 4550 3584 
Q 5097 3584 5394 3201 
Q 5691 2819 5691 2113 
L 5691 0 
L 5113 0 
L 5113 2094 
Q 5113 2597 4934 2840 
Q 4756 3084 4391 3084 
Q 3944 3084 3684 2787 
Q 3425 2491 3425 1978 
L 3425 0 
L 2847 0 
L 2847 2094 
Q 2847 2600 2669 2842 
Q 2491 3084 2119 3084 
Q 1678 3084 1418 2786 
Q 1159 2488 1159 1978 
L 1159 0 
L 581 0 
L 581 3500 
L 1159 3500 
L 1159 2956 
Q 1356 3278 1631 3431 
Q 1906 3584 2284 3584 
Q 2666 3584 2933 3390 
Q 3200 3197 3328 2828 
z
" transform="scale(0.015625)"/>
       <path id="DejaVuSans-70" d="M 1159 525 
L 1159 -1331 
L 581 -1331 
L 581 3500 
L 1159 3500 
L 1159 2969 
Q 1341 3281 1617 3432 
Q 1894 3584 2278 3584 
Q 2916 3584 3314 3078 
Q 3713 2572 3713 1747 
Q 3713 922 3314 415 
Q 2916 -91 2278 -91 
Q 1894 -91 1617 61 
Q 1341 213 1159 525 
z
M 3116 1747 
Q 3116 2381 2855 2742 
Q 2594 3103 2138 3103 
Q 1681 3103 1420 2742 
Q 1159 2381 1159 1747 
Q 1159 1113 1420 752 
Q 1681 391 2138 391 
Q 2594 391 2855 752 
Q 3116 1113 3116 1747 
z
" transform="scale(0.015625)"/>
       <path id="DejaVuSans-6f" d="M 1959 3097 
Q 1497 3097 1228 2736 
Q 959 2375 959 1747 
Q 959 1119 1226 758 
Q 1494 397 1959 397 
Q 2419 397 2687 759 
Q 2956 1122 2956 1747 
Q 2956 2369 2687 2733 
Q 2419 3097 1959 3097 
z
M 1959 3584 
Q 2709 3584 3137 3096 
Q 3566 2609 3566 1747 
Q 3566 888 3137 398 
Q 2709 -91 1959 -91 
Q 1206 -91 779 398 
Q 353 888 353 1747 
Q 353 2609 779 3096 
Q 1206 3584 1959 3584 
z
" transform="scale(0.015625)"/>
       <path id="DejaVuSans-20" transform="scale(0.015625)"/>
       <path id="DejaVuSans-28" d="M 1984 4856 
Q 1566 4138 1362 3434 
Q 1159 2731 1159 2009 
Q 1159 1288 1364 580 
Q 1569 -128 1984 -844 
L 1484 -844 
Q 1016 -109 783 600 
Q 550 1309 550 2009 
Q 550 2706 781 3412 
Q 1013 4119 1484 4856 
L 1984 4856 
z
" transform="scale(0.015625)"/>
       <path id="DejaVuSans-73" d="M 2834 3397 
L 2834 2853 
Q 2591 2978 2328 3040 
Q 2066 3103 1784 3103 
Q 1356 3103 1142 2972 
Q 928 2841 928 2578 
Q 928 2378 1081 2264 
Q 1234 2150 1697 2047 
L 1894 2003 
Q 2506 1872 2764 1633 
Q 3022 1394 3022 966 
Q 3022 478 2636 193 
Q 2250 -91 1575 -91 
Q 1294 -91 989 -36 
Q 684 19 347 128 
L 347 722 
Q 666 556 975 473 
Q 1284 391 1588 391 
Q 1994 391 2212 530 
Q 2431 669 2431 922 
Q 2431 1156 2273 1281 
Q 2116 1406 1581 1522 
L 1381 1569 
Q 847 1681 609 1914 
Q 372 2147 372 2553 
Q 372 3047 722 3315 
Q 1072 3584 1716 3584 
Q 2034 3584 2315 3537 
Q 2597 3491 2834 3397 
z
" transform="scale(0.015625)"/>
       <path id="DejaVuSans-29" d="M 513 4856 
L 1013 4856 
Q 1481 4119 1714 3412 
Q 1947 2706 1947 2009 
Q 1947 1309 1714 600 
Q 1481 -109 1013 -844 
L 513 -844 
Q 928 -128 1133 580 
Q 1338 1288 1338 2009 
Q 1338 2731 1133 3434 
Q 928 4138 513 4856 
z
" transform="scale(0.015625)"/>
      </defs>
      <use xlink:href="#DejaVuSans-74"/>
      <use xlink:href="#DejaVuSans-65" transform="translate(39.208984 0)"/>
      <use xlink:href="#DejaVuSans-6d" transform="translate(100.732422 0)"/>
      <use xlink:href="#DejaVuSans-70" transform="translate(198.144531 0)"/>
      <use xlink:href="#DejaVuSans-6f" transform="translate(261.621094 0)"/>
      <use xlink:href="#DejaVuSans-20" transform="translate(322.802734 0)"/>
      <use xlink:href="#DejaVuSans-74" transform="translate(354.589844 0)"/>
      <use xlink:href="#DejaVuSans-20" transform="translate(393.798828 0)"/>
      <use xlink:href="#DejaVuSans-28" transform="translate(425.585938 0)"/>
      <use xlink:href="#DejaVuSans-73" transform="translate(464.599609 0)"/>
      <use xlink:href="#DejaVuSans-29" transform="translate(516.699219 0)"/>
     </g>
    </g>
   </g>
   <g id="matplotlib.axis_2">
    <g id="ytick_1">
     <g id="line2d_15">
      <path d="M 54.02 249.84 
L 493.2 249.84 
" clip-path="url(#p50fa5d0e6c)" style="fill: none; stroke: #b0b0b0; stroke-opacity: 0.3; stroke-width: 0.8; stroke-linecap: square"/>
     </g>
     <g id="line2d_16">
      <defs>
       <path id="m688c13a6a0" d="M 0 0 
L -3.5 0 
" style="stroke: #000000; stroke-width: 0.8"/>
      </defs>
      <g>
       <use xlink:href="#m688c13a6a0" x="54.02" y="249.84" style="stroke: #000000; stroke-width: 0.8"/>
      </g>
     </g>
     <g id="text_9">
      <!-- 0.0 -->
      <g transform="translate(31.116875 253.639219) scale(0.1 -0.1)">
       <defs>
        <path id="DejaVuSans-2e" d="M 684 794 
L 1344 794 
L 1344 0 
L 684 0 
L 684 794 
z
" transform="scale(0.015625)"/>
       </defs>
       <use xlink:href="#DejaVuSans-30"/>
       <use xlink:href="#DejaVuSans-2e" transform="translate(63.623047 0)"/>
       <use xlink:href="#DejaVuSans-30" transform="translate(95.410156 0)"/>
      </g>
     </g>
    </g>
    <g id="ytick_2">
     <g id="line2d_17">
      <path d="M 54.02 223.34 
L 493.2 223.34 
" clip-path="url(#p50fa5d0e6c)" style="fill: none; stroke: #b0b0b0; stroke-opacity: 0.3; stroke-width: 0.8; stroke-linecap: square"/>
     </g>
     <g id="line2d_18">
      <g>
       <use xlink:href="#m688c13a6a0" x="54.02" y="223.34" style="stroke: #000000; stroke-width: 0.8"/>
      </g>
     </g>
     <g id="text_10">
      <!-- 2.5 -->
      <g transform="translate(31.116875 227.139219) scale(0.1 -0.1)">
       <use xlink:href="#DejaVuSans-32"/>
       <use xlink:href="#DejaVuSans-2e" transform="translate(63.623047 0)"/>
       <use xlink:href="#DejaVuSans-35" transform="translate(95.410156 0)"/>
      </g>
     </g>
    </g>
    <g id="ytick_3">
     <g id="line2d_19">
      <path d="M 54.02 196.84 
L 493.2 196.84 
" clip-path="url(#p50fa5d0e6c)" style="fill: none; stroke: #b0b0b0; stroke-opacity: 0.3; stroke-width: 0.8; stroke-linecap: square"/>
     </g>
     <g id="line2d_20">
      <g>
       <use xlink:href="#m688c13a6a0" x="54.02" y="196.84" style="stroke: #000000; stroke-width: 0.8"/>
      </g>
     </g>
     <g id="text_11">
      <!-- 5.0 -->
      <g transform="translate(31.116875 200.639219) scale(0.1 -0.1)">
       <use xlink:href="#DejaVuSans-35"/>
       <use xlink:href="#DejaVuSans-2e" transform="translate(63.623047 0)"/>
       <use xlink:href="#DejaVuSans-30" transform="translate(95.410156 0)"/>
      </g>
     </g>
    </g>
    <g id="ytick_4">
     <g id="line2d_21">
      <path d="M 54.02 170.34 
L 493.2 170.34 
" clip-path="url(#p50fa5d0e6c)" style="fill: none; stroke: #b0b0b0; stroke-opacity: 0.3; stroke-width: 0.8; stroke-linecap: square"/>
     </g>
     <g id="line2d_22">
      <g>
       <use xlink:href="#m688c13a6a0" x="54.02" y="170.34" style="stroke: #000000; stroke-width: 0.8"/>
      </g>
     </g>
     <g id="text_12">
      <!-- 7.5 -->
      <g transform="translate(31.116875 174.139219) scale(0.1 -0.1)">
       <defs>
        <path id="DejaVuSans-37" d="M 525 4666 
L 3525 4666 
L 3525 4397 
L 1831 0 
L 1172 0 
L 2766 4134 
L 525 4134 
L 525 4666 
z
" transform="scale(0.015625)"/>
       </defs>
       <use xlink:href="#DejaVuSans-37"/>
       <use xlink:href="#DejaVuSans-2e" transform="translate(63.623047 0)"/>
       <use xlink:href="#DejaVuSans-35" transform="translate(95.410156 0)"/>
      </g>
     </g>
    </g>
    <g id="ytick_5">
     <g id="line2d_23">
      <path d="M 54.02 143.84 
L 493.2 143.84 
" clip-path="url(#p50fa5d0e6c)" style="fill: none; stroke: #b0b0b0; stroke-opacity: 0.3; stroke-width: 0.8; stroke-linecap: square"/>
     </g>
     <g id="line2d_24">
      <g>
       <use xlink:href="#m688c13a6a0" x="54.02" y="143.84" style="stroke: #000000; stroke-width: 0.8"/>
      </g>
     </g>
     <g id="text_13">
      <!-- 10.0 -->
      <g transform="translate(24.754375 147.639219) scale(0.1 -0.1)">
       <use xlink:href="#DejaVuSans-31"/>
       <use xlink:href="#DejaVuSans-30" transform="translate(63.623047 0)"/>
       <use xlink:href="#DejaVuSans-2e" transform="translate(127.246094 0)"/>
       <use xlink:href="#DejaVuSans-30" transform="translate(159.033203 0)"/>
      </g>
     </g>
    </g>
    <g id="ytick_6">
     <g id="line2d_25">
      <path d="M 54.02 117.34 
L 493.2 117.34 
" clip-path="url(#p50fa5d0e6c)" style="fill: none; stroke: #b0b0b0; stroke-opacity: 0.3; stroke-width: 0.8; stroke-linecap: square"/>
     </g>
     <g id="line2d_26">
      <g>
       <use xlink:href="#m688c13a6a0" x="54.02" y="117.34" style="stroke: #000000; stroke-width: 0.8"/>
      </g>
     </g>
     <g id="text_14">
      <!-- 12.5 -->
      <g transform="translate(24.754375 121.139219) scale(0.1 -0.1)">
       <use xlink:href="#DejaVuSans-31"/>
       <use xlink:href="#DejaVuSans-32" transform="translate(63.623047 0)"/>
       <use xlink:href="#DejaVuSans-2e" transform="translate(127.246094 0)"/>
       <use xlink:href="#DejaVuSans-35" transform="translate(159.033203 0)"/>
      </g>
     </g>
    </g>
    <g id="ytick_7">
     <g id="line2d_27">
      <path d="M 54.02 90.84 
L 493.2 90.84 
" clip-path="url(#p50fa5d0e6c)" style="fill: none; stroke: #b0b0b0; stroke-opacity: 0.3; stroke-width: 0.8; stroke-linecap: square"/>
     </g>
     <g id="line2d_28">
      <g>
       <use xlink:href="#m688c13a6a0" x="54.02" y="90.84" style="stroke: #000000; stroke-width: 0.8"/>
      </g>
     </g>
     <g id="text_15">
      <!-- 15.0 -->
      <g transform="translate(24.754375 94.639219) scale(0.1 -0.1)">
       <use xlink:href="#DejaVuSans-31"/>
       <use xlink:href="#DejaVuSans-35" transform="translate(63.623047 0)"/>
       <use xlink:href="#DejaVuSans-2e" transform="translate(127.246094 0)"/>
       <use xlink:href="#DejaVuSans-30" transform="translate(159.033203 0)"/>
      </g>
     </g>
    </g>
    <g id="ytick_8">
     <g id="line2d_29">
      <path d="M 54.02 64.34 
L 493.2 64.34 
" clip-path="url(#p50fa5d0e6c)" style="fill: none; stroke: #b0b0b0; stroke-opacity: 0.3; stroke-width: 0.8; stroke-linecap: square"/>
     </g>
     <g id="line2d_30">
      <g>
       <use xlink:href="#m688c13a6a0" x="54.02" y="64.34" style="stroke: #000000; stroke-width: 0.8"/>
      </g>
     </g>
     <g id="text_16">
      <!-- 17.5 -->
      <g transform="translate(24.754375 68.139219) scale(0.1 -0.1)">
       <use xlink:href="#DejaVuSans-31"/>
       <use xlink:href="#DejaVuSans-37" transform="translate(63.623047 0)"/>
       <use xlink:href="#DejaVuSans-2e" transform="translate(127.246094 0)"/>
       <use xlink:href="#DejaVuSans-35" transform="translate(159.033203 0)"/>
      </g>
     </g>
    </g>
    <g id="ytick_9">
     <g id="line2d_31">
      <path d="M 54.02 37.84 
L 493.2 37.84 
" clip-path="url(#p50fa5d0e6c)" style="fill: none; stroke: #b0b0b0; stroke-opacity: 0.3; stroke-width: 0.8; stroke-linecap: square"/>
     </g>
     <g id="line2d_32">
      <g>
       <use xlink:href="#m688c13a6a0" x="54.02" y="37.84" style="stroke: #000000; stroke-width: 0.8"/>
      </g>
     </g>
     <g id="text_17">
      <!-- 20.0 -->
      <g transform="translate(24.754375 41.639219) scale(0.1 -0.1)">
       <use xlink:href="#DejaVuSans-32"/>
       <use xlink:href="#DejaVuSans-30" transform="translate(63.623047 0)"/>
       <use xlink:href="#DejaVuSans-2e" transform="translate(127.246094 0)"/>
       <use xlink:href="#DejaVuSans-30" transform="translate(159.033203 0)"/>
      </g>
     </g>
    </g>
    <g id="text_18">
     <!-- velocidade v (m/s) -->
     <g transform="translate(18.674688 190.150156) rotate(-90) scale(0.1 -0.1)">
      <defs>
       <path id="DejaVuSans-76" d="M 191 3500 
L 800 3500 
L 1894 563 
L 2988 3500 
L 3597 3500 
L 2284 0 
L 1503 0 
L 191 3500 
z
" transform="scale(0.015625)"/>
       <path id="DejaVuSans-6c" d="M 603 4863 
L 1178 4863 
L 1178 0 
L 603 0 
L 603 4863 
z
" transform="scale(0.015625)"/>
       <path id="DejaVuSans-63" d="M 3122 3366 
L 3122 2828 
Q 2878 2963 2633 3030 
Q 2388 3097 2138 3097 
Q 1578 3097 1268 2742 
Q 959 2388 959 1747 
Q 959 1106 1268 751 
Q 1578 397 2138 397 
Q 2388 397 2633 464 
Q 2878 531 3122 666 
L 3122 134 
Q 2881 22 2623 -34 
Q 2366 -91 2075 -91 
Q 1284 -91 818 406 
Q 353 903 353 1747 
Q 353 2603 823 3093 
Q 1294 3584 2113 3584 
Q 2378 3584 2631 3529 
Q 2884 3475 3122 3366 
z
" transform="scale(0.015625)"/>
       <path id="DejaVuSans-69" d="M 603 3500 
L 1178 3500 
L 1178 0 
L 603 0 
L 603 3500 
z
M 603 4863 
L 1178 4863 
L 1178 4134 
L 603 4134 
L 603 4863 
z
" transform="scale(0.015625)"/>
       <path id="DejaVuSans-64" d="M 2906 2969 
L 2906 4863 
L 3481 4863 
L 3481 0 
L 2906 0 
L 2906 525 
Q 2725 213 2448 61 
Q 2172 -91 1784 -91 
Q 1150 -91 751 415 
Q 353 922 353 1747 
Q 353 2572 751 3078 
Q 1150 3584 1784 3584 
Q 2172 3584 2448 3432 
Q 2725 3281 2906 2969 
z
M 947 1747 
Q 947 1113 1208 752 
Q 1469 391 1925 391 
Q 2381 391 2643 752 
Q 2906 1113 2906 1747 
Q 2906 2381 2643 2742 
Q 2381 3103 1925 3103 
Q 1469 3103 1208 2742 
Q 947 2381 947 1747 
z
" transform="scale(0.015625)"/>
       <path id="DejaVuSans-61" d="M 2194 1759 
Q 1497 1759 1228 1600 
Q 959 1441 959 1056 
Q 959 750 1161 570 
Q 1363 391 1709 391 
Q 2188 391 2477 730 
Q 2766 1069 2766 1631 
L 2766 1759 
L 2194 1759 
z
M 3341 1997 
L 3341 0 
L 2766 0 
L 2766 531 
Q 2569 213 2275 61 
Q 1981 -91 1556 -91 
Q 1019 -91 701 211 
Q 384 513 384 1019 
Q 384 1609 779 1909 
Q 1175 2209 1959 2209 
L 2766 2209 
L 2766 2266 
Q 2766 2663 2505 2880 
Q 2244 3097 1772 3097 
Q 1472 3097 1187 3025 
Q 903 2953 641 2809 
L 641 3341 
Q 956 3463 1253 3523 
Q 1550 3584 1831 3584 
Q 2591 3584 2966 3190 
Q 3341 2797 3341 1997 
z
" transform="scale(0.015625)"/>
       <path id="DejaVuSans-2f" d="M 1625 4666 
L 2156 4666 
L 531 -594 
L 0 -594 
L 1625 4666 
z
" transform="scale(0.015625)"/>
      </defs>
      <use xlink:href="#DejaVuSans-76"/>
      <use xlink:href="#DejaVuSans-65" transform="translate(59.179688 0)"/>
      <use xlink:href="#DejaVuSans-6c" transform="translate(120.703125 0)"/>
      <use xlink:href="#DejaVuSans-6f" transform="translate(148.486328 0)"/>
      <use xlink:href="#DejaVuSans-63" transform="translate(209.667969 0)"/>
      <use xlink:href="#DejaVuSans-69" transform="translate(264.648438 0)"/>
      <use xlink:href="#DejaVuSans-64" transform="translate(292.431641 0)"/>
      <use xlink:href="#DejaVuSans-61" transform="translate(355.908203 0)"/>
      <use xlink:href="#DejaVuSans-64" transform="translate(417.1875 0)"/>
      <use xlink:href="#DejaVuSans-65" transform="translate(480.664062 0)"/>
      <use xlink:href="#DejaVuSans-20" transform="translate(542.1875 0)"/>
      <use xlink:href="#DejaVuSans-76" transform="translate(573.974609 0)"/>
      <use xlink:href="#DejaVuSans-20" transform="translate(633.154297 0)"/>
      <use xlink:href="#DejaVuSans-28" transform="translate(664.941406 0)"/>
      <use xlink:href="#DejaVuSans-6d" transform="translate(703.955078 0)"/>
      <use xlink:href="#DejaVuSans-2f" transform="translate(801.367188 0)"/>
      <use xlink:href="#DejaVuSans-73" transform="translate(835.058594 0)"/>
      <use xlink:href="#DejaVuSans-29" transform="translate(887.158203 0)"/>
     </g>
    </g>
   </g>
   <g id="line2d_33">
    <path d="M 73.982727 228.64 
L 83.329824 228.535424 
L 92.67692 228.221696 
L 102.024016 227.698816 
L 111.371113 226.966784 
L 120.718209 226.0256 
L 130.065306 224.875264 
L 139.412402 223.515775 
L 148.759498 221.947135 
L 158.106595 220.169343 
L 167.453691 218.182399 
L 176.800787 215.986303 
L 186.147884 213.581054 
L 195.49498 210.966654 
L 204.842077 208.143102 
L 214.189173 205.110397 
L 223.536269 201.868541 
L 232.883366 198.417533 
L 242.230462 194.757372 
L 252.912858 190.318227 
L 263.595254 185.605904 
L 274.27765 180.620403 
L 284.960046 175.361723 
L 295.642441 169.829866 
L 306.324837 164.02483 
L 317.007233 157.946616 
L 327.689629 151.595224 
L 338.372025 144.970654 
L 349.054421 138.072906 
L 359.736817 130.901979 
L 370.419213 123.457875 
L 381.101608 115.740592 
L 391.784004 107.750131 
L 402.4664 99.486492 
L 413.148796 90.949674 
L 423.831192 82.139679 
L 434.513588 73.056505 
L 445.195984 63.700154 
L 455.878379 54.070624 
L 466.560775 44.167916 
L 473.237273 37.84 
L 473.237273 37.84 
" clip-path="url(#p50fa5d0e6c)" style="fill: none; stroke: #1f77b4; stroke-width: 2; stroke-linecap: square"/>
   </g>
   <g id="patch_3">
    <path d="M 54.02 260.44 
L 54.02 27.24 
" style="fill: none; stroke: #000000; stroke-width: 0.8; stroke-linejoin: miter; stroke-linecap: square"/>
   </g>
   <g id="patch_4">
    <path d="M 493.2 260.44 
L 493.2 27.24 
" style="fill: none; stroke: #000000; stroke-width: 0.8; stroke-linejoin: miter; stroke-linecap: square"/>
   </g>
   <g id="patch_5">
    <path d="M 54.02 260.44 
L 493.2 260.44 
" style="fill: none; stroke: #000000; stroke-width: 0.8; stroke-linejoin: miter; stroke-linecap: square"/>
   </g>
   <g id="patch_6">
    <path d="M 54.02 27.24 
L 493.2 27.24 
" style="fill: none; stroke: #000000; stroke-width: 0.8; stroke-linejoin: miter; stroke-linecap: square"/>
   </g>
   <g id="text_19">
    <!-- Movimento geral: área sob uma curva de v(t) -->
    <g transform="translate(137.311562 21.24) scale(0.12 -0.12)">
     <defs>
      <path id="DejaVuSans-4d" d="M 628 4666 
L 1569 4666 
L 2759 1491 
L 3956 4666 
L 4897 4666 
L 4897 0 
L 4281 0 
L 4281 4097 
L 3078 897 
L 2444 897 
L 1241 4097 
L 1241 0 
L 628 0 
L 628 4666 
z
" transform="scale(0.015625)"/>
      <path id="DejaVuSans-6e" d="M 3513 2113 
L 3513 0 
L 2938 0 
L 2938 2094 
Q 2938 2591 2744 2837 
Q 2550 3084 2163 3084 
Q 1697 3084 1428 2787 
Q 1159 2491 1159 1978 
L 1159 0 
L 581 0 
L 581 3500 
L 1159 3500 
L 1159 2956 
Q 1366 3272 1645 3428 
Q 1925 3584 2291 3584 
Q 2894 3584 3203 3211 
Q 3513 2838 3513 2113 
z
" transform="scale(0.015625)"/>
      <path id="DejaVuSans-67" d="M 2906 1791 
Q 2906 2416 2648 2759 
Q 2391 3103 1925 3103 
Q 1463 3103 1205 2759 
Q 947 2416 947 1791 
Q 947 1169 1205 825 
Q 1463 481 1925 481 
Q 2391 481 2648 825 
Q 2906 1169 2906 1791 
z
M 3481 434 
Q 3481 -459 3084 -895 
Q 2688 -1331 1869 -1331 
Q 1566 -1331 1297 -1286 
Q 1028 -1241 775 -1147 
L 775 -588 
Q 1028 -725 1275 -790 
Q 1522 -856 1778 -856 
Q 2344 -856 2625 -561 
Q 2906 -266 2906 331 
L 2906 616 
Q 2728 306 2450 153 
Q 2172 0 1784 0 
Q 1141 0 747 490 
Q 353 981 353 1791 
Q 353 2603 747 3093 
Q 1141 3584 1784 3584 
Q 2172 3584 2450 3431 
Q 2728 3278 2906 2969 
L 2906 3500 
L 3481 3500 
L 3481 434 
z
" transform="scale(0.015625)"/>
      <path id="DejaVuSans-72" d="M 2631 2963 
Q 2534 3019 2420 3045 
Q 2306 3072 2169 3072 
Q 1681 3072 1420 2755 
Q 1159 2438 1159 1844 
L 1159 0 
L 581 0 
L 581 3500 
L 1159 3500 
L 1159 2956 
Q 1341 3275 1631 3429 
Q 1922 3584 2338 3584 
Q 2397 3584 2469 3576 
Q 2541 3569 2628 3553 
L 2631 2963 
z
" transform="scale(0.015625)"/>
      <path id="DejaVuSans-3a" d="M 750 794 
L 1409 794 
L 1409 0 
L 750 0 
L 750 794 
z
M 750 3309 
L 1409 3309 
L 1409 2516 
L 750 2516 
L 750 3309 
z
" transform="scale(0.015625)"/>
      <path id="DejaVuSans-e1" d="M 2194 1759 
Q 1497 1759 1228 1600 
Q 959 1441 959 1056 
Q 959 750 1161 570 
Q 1363 391 1709 391 
Q 2188 391 2477 730 
Q 2766 1069 2766 1631 
L 2766 1759 
L 2194 1759 
z
M 3341 1997 
L 3341 0 
L 2766 0 
L 2766 531 
Q 2569 213 2275 61 
Q 1981 -91 1556 -91 
Q 1019 -91 701 211 
Q 384 513 384 1019 
Q 384 1609 779 1909 
Q 1175 2209 1959 2209 
L 2766 2209 
L 2766 2266 
Q 2766 2663 2505 2880 
Q 2244 3097 1772 3097 
Q 1472 3097 1187 3025 
Q 903 2953 641 2809 
L 641 3341 
Q 956 3463 1253 3523 
Q 1550 3584 1831 3584 
Q 2591 3584 2966 3190 
Q 3341 2797 3341 1997 
z
M 2290 5119 
L 2912 5119 
L 1894 3944 
L 1415 3944 
L 2290 5119 
z
" transform="scale(0.015625)"/>
      <path id="DejaVuSans-62" d="M 3116 1747 
Q 3116 2381 2855 2742 
Q 2594 3103 2138 3103 
Q 1681 3103 1420 2742 
Q 1159 2381 1159 1747 
Q 1159 1113 1420 752 
Q 1681 391 2138 391 
Q 2594 391 2855 752 
Q 3116 1113 3116 1747 
z
M 1159 2969 
Q 1341 3281 1617 3432 
Q 1894 3584 2278 3584 
Q 2916 3584 3314 3078 
Q 3713 2572 3713 1747 
Q 3713 922 3314 415 
Q 2916 -91 2278 -91 
Q 1894 -91 1617 61 
Q 1341 213 1159 525 
L 1159 0 
L 581 0 
L 581 4863 
L 1159 4863 
L 1159 2969 
z
" transform="scale(0.015625)"/>
      <path id="DejaVuSans-75" d="M 544 1381 
L 544 3500 
L 1119 3500 
L 1119 1403 
Q 1119 906 1312 657 
Q 1506 409 1894 409 
Q 2359 409 2629 706 
Q 2900 1003 2900 1516 
L 2900 3500 
L 3475 3500 
L 3475 0 
L 2900 0 
L 2900 538 
Q 2691 219 2414 64 
Q 2138 -91 1772 -91 
Q 1169 -91 856 284 
Q 544 659 544 1381 
z
M 1991 3584 
L 1991 3584 
z
" transform="scale(0.015625)"/>
     </defs>
     <use xlink:href="#DejaVuSans-4d"/>
     <use xlink:href="#DejaVuSans-6f" transform="translate(86.279297 0)"/>
     <use xlink:href="#DejaVuSans-76" transform="translate(147.460938 0)"/>
     <use xlink:href="#DejaVuSans-69" transform="translate(206.640625 0)"/>
     <use xlink:href="#DejaVuSans-6d" transform="translate(234.423828 0)"/>
     <use xlink:href="#DejaVuSans-65" transform="translate(331.835938 0)"/>
     <use xlink:href="#DejaVuSans-6e" transform="translate(393.359375 0)"/>
     <use xlink:href="#DejaVuSans-74" transform="translate(456.738281 0)"/>
     <use xlink:href="#DejaVuSans-6f" transform="translate(495.947266 0)"/>
     <use xlink:href="#DejaVuSans-20" transform="translate(557.128906 0)"/>
     <use xlink:href="#DejaVuSans-67" transform="translate(588.916016 0)"/>
     <use xlink:href="#DejaVuSans-65" transform="translate(652.392578 0)"/>
     <use xlink:href="#DejaVuSans-72" transform="translate(713.916016 0)"/>
     <use xlink:href="#DejaVuSans-61" transform="translate(755.029297 0)"/>
     <use xlink:href="#DejaVuSans-6c" transform="translate(816.308594 0)"/>
     <use xlink:href="#DejaVuSans-3a" transform="translate(844.091797 0)"/>
     <use xlink:href="#DejaVuSans-20" transform="translate(877.783203 0)"/>
     <use xlink:href="#DejaVuSans-e1" transform="translate(909.570312 0)"/>
     <use xlink:href="#DejaVuSans-72" transform="translate(970.849609 0)"/>
     <use xlink:href="#DejaVuSans-65" transform="translate(1009.712891 0)"/>
     <use xlink:href="#DejaVuSans-61" transform="translate(1071.236328 0)"/>
     <use xlink:href="#DejaVuSans-20" transform="translate(1132.515625 0)"/>
     <use xlink:href="#DejaVuSans-73" transform="translate(1164.302734 0)"/>
     <use xlink:href="#DejaVuSans-6f" transform="translate(1216.402344 0)"/>
     <use xlink:href="#DejaVuSans-62" transform="translate(1277.583984 0)"/>
     <use xlink:href="#DejaVuSans-20" transform="translate(1341.060547 0)"/>
     <use xlink:href="#DejaVuSans-75" transform="translate(1372.847656 0)"/>
     <use xlink:href="#DejaVuSans-6d" transform="translate(1436.226562 0)"/>
     <use xlink:href="#DejaVuSans-61" transform="translate(1533.638672 0)"/>
     <use xlink:href="#DejaVuSans-20" transform="translate(1594.917969 0)"/>
     <use xlink:href="#DejaVuSans-63" transform="translate(1626.705078 0)"/>
     <use xlink:href="#DejaVuSans-75" transform="translate(1681.685547 0)"/>
     <use xlink:href="#DejaVuSans-72" transform="translate(1745.064453 0)"/>
     <use xlink:href="#DejaVuSans-76" transform="translate(1786.177734 0)"/>
     <use xlink:href="#DejaVuSans-61" transform="translate(1845.357422 0)"/>
     <use xlink:href="#DejaVuSans-20" transform="translate(1906.636719 0)"/>
     <use xlink:href="#DejaVuSans-64" transform="translate(1938.423828 0)"/>
     <use xlink:href="#DejaVuSans-65" transform="translate(2001.900391 0)"/>
     <use xlink:href="#DejaVuSans-20" transform="translate(2063.423828 0)"/>
     <use xlink:href="#DejaVuSans-76" transform="translate(2095.210938 0)"/>
     <use xlink:href="#DejaVuSans-28" transform="translate(2154.390625 0)"/>
     <use xlink:href="#DejaVuSans-74" transform="translate(2193.404297 0)"/>
     <use xlink:href="#DejaVuSans-29" transform="translate(2232.613281 0)"/>
    </g>
   </g>
  </g>
 </g>
 <defs>
  <clipPath id="p50fa5d0e6c">
   <rect x="54.02" y="27.24" width="439.18" height="233.2"/>
  </clipPath>
 </defs>
</svg>
