<?xml version="1.0" encoding="utf-8" standalone="no"?>
<!DOCTYPE svg PUBLIC "-//W3C//DTD SVG 1.1//EN"
  "http://www.w3.org/Graphics/SVG/1.1/DTD/svg11.dtd">
<svg xmlns:xlink="http://www.w3.org/1999/xlink" width="756pt" height="302.4pt" viewBox="0 0 756 302.4" xmlns="http://www.w3.org/2000/svg" version="1.1">
 <metadata>
  <rdf:RDF xmlns:dc="http://purl.org/dc/elements/1.1/" xmlns:cc="http://creativecommons.org/ns#" xmlns:rdf="http://www.w3.org/1999/02/22-rdf-syntax-ns#">
   <cc:Work>
    <dc:type rdf:resource="http://purl.org/dc/dcmitype/StillImage"/>
    <dc:date>2026-03-26T07:11:11.118172</dc:date>
    <dc:format>image/svg+xml</dc:format>
    <dc:creator>
     <cc:Agent>
      <dc:title>Matplotlib v3.7.5, https://matplotlib.org/</dc:title>
     </cc:Agent>
    </dc:creator>
   </cc:Work>
  </rdf:RDF>
 </metadata>
 <defs>
  <style type="text/css">*{stroke-linejoin: round; stroke-linecap: butt}</style>
 </defs>
 <g id="figure_1">
  <g id="patch_1">
   <path d="M 0 302.4 
L 756 302.4 
L 756 0 
L 0 0 
z
" style="fill: #f6f1e6"/>
  </g>
  <g id="axes_1">
   <g id="patch_2">
    <path d="M 11.48 291.390476 
L 744.52 291.390476 
L 744.52 11.009524 
L 11.48 11.009524 
z
" clip-path="url(#p8ba83780f9)" style="fill: #f6f1e6; stroke: #d8c1a2; stroke-width: 1.4; stroke-linejoin: miter"/>
   </g>
   <g id="patch_3">
    <path d="M 40.278 53.417143 
L 251.962 53.417143 
Q 260.19 53.417143 260.19 45.706667 
L 260.19 28.182857 
Q 260.19 20.472381 251.962 20.472381 
L 40.278 20.472381 
Q 32.05 20.472381 32.05 28.182857 
L 32.05 45.706667 
Q 32.05 53.417143 40.278 53.417143 
z
" clip-path="url(#p8ba83780f9)" style="fill: #efe5d2"/>
   </g>
   <g id="patch_4">
    <path d="M 65.838973 249.333333 
Q 377.998401 249.333333 688.592582 249.333333 
" clip-path="url(#p8ba83780f9)" style="fill: none; stroke: #2a2926; stroke-width: 1.4; stroke-linecap: round"/>
    <path d="M 683.792582 246.933333 
L 688.592582 249.333333 
L 683.792582 251.733333 
z
" clip-path="url(#p8ba83780f9)" style="fill: #2a2926; stroke: #2a2926; stroke-width: 1.4; stroke-linecap: round"/>
   </g>
   <g id="patch_5">
    <path d="M 63.84 217.790476 
L 692.16 217.790476 
L 692.16 182.742857 
L 63.84 182.742857 
z
" clip-path="url(#p8ba83780f9)" style="fill: #5d6166; stroke: #484c50; stroke-linejoin: miter"/>
   </g>
   <g id="patch_6">
    <path d="M 297.216 212.88381 
L 301.704 212.88381 
L 301.704 123.161905 
L 297.216 123.161905 
z
" clip-path="url(#p8ba83780f9)" style="fill: #8b9098; stroke: #2a2926; stroke-width: 0.8; stroke-linejoin: miter"/>
   </g>
   <g id="patch_7">
    <path d="M 282.256 146.994286 
L 316.664 146.994286 
Q 319.656 146.994286 319.656 144.190476 
L 319.656 131.573333 
Q 319.656 128.769524 316.664 128.769524 
L 282.256 128.769524 
Q 279.264 128.769524 279.264 131.573333 
L 279.264 144.190476 
Q 279.264 146.994286 282.256 146.994286 
z
" clip-path="url(#p8ba83780f9)" style="fill: #efe5d2; stroke: #2a2926; stroke-width: 0.9; stroke-linejoin: miter"/>
   </g>
   <g id="patch_8">
    <path d="M 579.96 212.88381 
L 584.448 212.88381 
L 584.448 123.161905 
L 579.96 123.161905 
z
" clip-path="url(#p8ba83780f9)" style="fill: #8b9098; stroke: #2a2926; stroke-width: 0.8; stroke-linejoin: miter"/>
   </g>
   <g id="patch_9">
    <path d="M 565 146.994286 
L 599.408 146.994286 
Q 602.4 146.994286 602.4 144.190476 
L 602.4 131.573333 
Q 602.4 128.769524 599.408 128.769524 
L 565 128.769524 
Q 562.008 128.769524 562.008 131.573333 
L 562.008 144.190476 
Q 562.008 146.994286 565 146.994286 
z
" clip-path="url(#p8ba83780f9)" style="fill: #efe5d2; stroke: #2a2926; stroke-width: 0.9; stroke-linejoin: miter"/>
   </g>
   <g id="patch_10">
    <path d="M 272.1206 201.633524 
L 326.7994 201.633524 
Q 334.2794 201.633524 334.2794 194.624 
L 334.2794 187.474286 
Q 334.2794 180.464762 326.7994 180.464762 
L 272.1206 180.464762 
Q 264.6406 180.464762 264.6406 187.474286 
L 264.6406 194.624 
Q 264.6406 201.633524 272.1206 201.633524 
z
" clip-path="url(#p8ba83780f9)" style="fill: #8b9098; opacity: 0.45; stroke: #2a2926; stroke-width: 1.1; stroke-linejoin: miter"/>
   </g>
   <g id="patch_11">
    <path d="M 277.207 181.51619 
L 291.8304 166.620952 
L 317.2624 166.620952 
L 327.4352 181.51619 
z
" clip-path="url(#p8ba83780f9)" style="fill: #8b9098; opacity: 0.45; stroke: #2a2926; stroke-linejoin: miter"/>
   </g>
   <g id="patch_12">
    <path d="M 293.102 170.19581 
L 312.176 170.19581 
L 320.4414 179.728762 
L 298.1884 179.728762 
z
" clip-path="url(#p8ba83780f9)" style="fill: #dae9f3; opacity: 0.405"/>
   </g>
   <g id="patch_13">
    <path d="M 278.4786 209.817143 
C 280.586302 209.817143 282.607961 209.032415 284.098331 207.635786 
C 285.588701 206.239157 286.4261 204.344655 286.4261 202.369524 
C 286.4261 200.394392 285.588701 198.499891 284.098331 197.103262 
C 282.607961 195.706633 280.586302 194.921905 278.4786 194.921905 
C 276.370898 194.921905 274.349239 195.706633 272.858869 197.103262 
C 271.368499 198.499891 270.5311 200.394392 270.5311 202.369524 
C 270.5311 204.344655 271.368499 206.239157 272.858869 207.635786 
C 274.349239 209.032415 276.370898 209.817143 278.4786 209.817143 
z
" clip-path="url(#p8ba83780f9)" style="fill: #30363b; opacity: 0.45; stroke: #2a2926; stroke-linejoin: miter"/>
   </g>
   <g id="patch_14">
    <path d="M 278.4786 205.646476 
C 279.405989 205.646476 280.295519 205.301196 280.951282 204.686679 
C 281.607045 204.072162 281.9755 203.238582 281.9755 202.369524 
C 281.9755 201.500466 281.607045 200.666885 280.951282 200.052369 
C 280.295519 199.437852 279.405989 199.092571 278.4786 199.092571 
C 277.551211 199.092571 276.661681 199.437852 276.005918 200.052369 
C 275.350155 200.666885 274.9817 201.500466 274.9817 202.369524 
C 274.9817 203.238582 275.350155 204.072162 276.005918 204.686679 
C 276.661681 205.301196 277.551211 205.646476 278.4786 205.646476 
z
" clip-path="url(#p8ba83780f9)" style="fill: #d8dade; opacity: 0.45"/>
   </g>
   <g id="patch_15">
    <path d="M 319.8056 209.817143 
C 321.913302 209.817143 323.934961 209.032415 325.425331 207.635786 
C 326.915701 206.239157 327.7531 204.344655 327.7531 202.369524 
C 327.7531 200.394392 326.915701 198.499891 325.425331 197.103262 
C 323.934961 195.706633 321.913302 194.921905 319.8056 194.921905 
C 317.697898 194.921905 315.676239 195.706633 314.185869 197.103262 
C 312.695499 198.499891 311.8581 200.394392 311.8581 202.369524 
C 311.8581 204.344655 312.695499 206.239157 314.185869 207.635786 
C 315.676239 209.032415 317.697898 209.817143 319.8056 209.817143 
z
" clip-path="url(#p8ba83780f9)" style="fill: #30363b; opacity: 0.45; stroke: #2a2926; stroke-linejoin: miter"/>
   </g>
   <g id="patch_16">
    <path d="M 319.8056 205.646476 
C 320.732989 205.646476 321.622519 205.301196 322.278282 204.686679 
C 322.934045 204.072162 323.3025 203.238582 323.3025 202.369524 
C 323.3025 201.500466 322.934045 200.666885 322.278282 200.052369 
C 321.622519 199.437852 320.732989 199.092571 319.8056 199.092571 
C 318.878211 199.092571 317.988681 199.437852 317.332918 200.052369 
C 316.677155 200.666885 316.3087 201.500466 316.3087 202.369524 
C 316.3087 203.238582 316.677155 204.072162 317.332918 204.686679 
C 317.988681 205.301196 318.878211 205.646476 319.8056 205.646476 
z
" clip-path="url(#p8ba83780f9)" style="fill: #d8dade; opacity: 0.45"/>
   </g>
   <g id="patch_17">
    <path d="M 554.8646 201.633524 
L 609.5434 201.633524 
Q 617.0234 201.633524 617.0234 194.624 
L 617.0234 187.474286 
Q 617.0234 180.464762 609.5434 180.464762 
L 554.8646 180.464762 
Q 547.3846 180.464762 547.3846 187.474286 
L 547.3846 194.624 
Q 547.3846 201.633524 554.8646 201.633524 
z
" clip-path="url(#p8ba83780f9)" style="fill: #4c78a8; stroke: #2a2926; stroke-width: 1.1; stroke-linejoin: miter"/>
   </g>
   <g id="patch_18">
    <path d="M 559.951 181.51619 
L 574.5744 166.620952 
L 600.0064 166.620952 
L 610.1792 181.51619 
z
" clip-path="url(#p8ba83780f9)" style="fill: #4c78a8; stroke: #2a2926; stroke-linejoin: miter"/>
   </g>
   <g id="patch_19">
    <path d="M 575.846 170.19581 
L 594.92 170.19581 
L 603.1854 179.728762 
L 580.9324 179.728762 
z
" clip-path="url(#p8ba83780f9)" style="fill: #dae9f3; opacity: 0.9"/>
   </g>
   <g id="patch_20">
    <path d="M 561.2226 209.817143 
C 563.330302 209.817143 565.351961 209.032415 566.842331 207.635786 
C 568.332701 206.239157 569.1701 204.344655 569.1701 202.369524 
C 569.1701 200.394392 568.332701 198.499891 566.842331 197.103262 
C 565.351961 195.706633 563.330302 194.921905 561.2226 194.921905 
C 559.114898 194.921905 557.093239 195.706633 555.602869 197.103262 
C 554.112499 198.499891 553.2751 200.394392 553.2751 202.369524 
C 553.2751 204.344655 554.112499 206.239157 555.602869 207.635786 
C 557.093239 209.032415 559.114898 209.817143 561.2226 209.817143 
z
" clip-path="url(#p8ba83780f9)" style="fill: #30363b; stroke: #2a2926; stroke-linejoin: miter"/>
   </g>
   <g id="patch_21">
    <path d="M 561.2226 205.646476 
C 562.149989 205.646476 563.039519 205.301196 563.695282 204.686679 
C 564.351045 204.072162 564.7195 203.238582 564.7195 202.369524 
C 564.7195 201.500466 564.351045 200.666885 563.695282 200.052369 
C 563.039519 199.437852 562.149989 199.092571 561.2226 199.092571 
C 560.295211 199.092571 559.405681 199.437852 558.749918 200.052369 
C 558.094155 200.666885 557.7257 201.500466 557.7257 202.369524 
C 557.7257 203.238582 558.094155 204.072162 558.749918 204.686679 
C 559.405681 205.301196 560.295211 205.646476 561.2226 205.646476 
z
" clip-path="url(#p8ba83780f9)" style="fill: #d8dade"/>
   </g>
   <g id="patch_22">
    <path d="M 602.5496 209.817143 
C 604.657302 209.817143 606.678961 209.032415 608.169331 207.635786 
C 609.659701 206.239157 610.4971 204.344655 610.4971 202.369524 
C 610.4971 200.394392 609.659701 198.499891 608.169331 197.103262 
C 606.678961 195.706633 604.657302 194.921905 602.5496 194.921905 
C 600.441898 194.921905 598.420239 195.706633 596.929869 197.103262 
C 595.439499 198.499891 594.6021 200.394392 594.6021 202.369524 
C 594.6021 204.344655 595.439499 206.239157 596.929869 207.635786 
C 598.420239 209.032415 600.441898 209.817143 602.5496 209.817143 
z
" clip-path="url(#p8ba83780f9)" style="fill: #30363b; stroke: #2a2926; stroke-linejoin: miter"/>
   </g>
   <g id="patch_23">
    <path d="M 602.5496 205.646476 
C 603.476989 205.646476 604.366519 205.301196 605.022282 204.686679 
C 605.678045 204.072162 606.0465 203.238582 606.0465 202.369524 
C 606.0465 201.500466 605.678045 200.666885 605.022282 200.052369 
C 604.366519 199.437852 603.476989 199.092571 602.5496 199.092571 
C 601.622211 199.092571 600.732681 199.437852 600.076918 200.052369 
C 599.421155 200.666885 599.0527 201.500466 599.0527 202.369524 
C 599.0527 203.238582 599.421155 204.072162 600.076918 204.686679 
C 600.732681 205.301196 601.622211 205.646476 602.5496 205.646476 
z
" clip-path="url(#p8ba83780f9)" style="fill: #d8dade"/>
   </g>
   <g id="patch_24">
    <path d="M 346.342146 112.647619 
Q 448.312211 112.647619 548.717029 112.647619 
" clip-path="url(#p8ba83780f9)" style="fill: none; stroke: #8b5e34; stroke-width: 1.4; stroke-linecap: round"/>
    <path d="M 543.917029 110.247619 
L 548.717029 112.647619 
L 543.917029 115.047619 
" clip-path="url(#p8ba83780f9)" style="fill: none; stroke: #8b5e34; stroke-width: 1.4; stroke-linecap: round"/>
   </g>
   <g id="patch_25">
    <path d="M 266.922 94.773333 
L 331.998 94.773333 
Q 335.738 94.773333 335.738 91.268571 
L 335.738 77.950476 
Q 335.738 74.445714 331.998 74.445714 
L 266.922 74.445714 
Q 263.182 74.445714 263.182 77.950476 
L 263.182 91.268571 
Q 263.182 94.773333 266.922 94.773333 
z
" clip-path="url(#p8ba83780f9)" style="fill: #efe5d2"/>
   </g>
   <g id="patch_26">
    <path d="M 549.666 94.773333 
L 614.742 94.773333 
Q 618.482 94.773333 618.482 91.268571 
L 618.482 77.950476 
Q 618.482 74.445714 614.742 74.445714 
L 549.666 74.445714 
Q 545.926 74.445714 545.926 77.950476 
L 545.926 91.268571 
Q 545.926 94.773333 549.666 94.773333 
z
" clip-path="url(#p8ba83780f9)" style="fill: #efe5d2"/>
   </g>
   <g id="patch_27">
    <path d="M 266.922 177.485714 
L 331.998 177.485714 
Q 335.738 177.485714 335.738 173.980952 
L 335.738 160.662857 
Q 335.738 157.158095 331.998 157.158095 
L 266.922 157.158095 
Q 263.182 157.158095 263.182 160.662857 
L 263.182 173.980952 
Q 263.182 177.485714 266.922 177.485714 
z
" clip-path="url(#p8ba83780f9)" style="fill: #efe5d2"/>
   </g>
   <g id="patch_28">
    <path d="M 549.666 177.485714 
L 614.742 177.485714 
Q 618.482 177.485714 618.482 173.980952 
L 618.482 160.662857 
Q 618.482 157.158095 614.742 157.158095 
L 549.666 157.158095 
Q 545.926 157.158095 545.926 160.662857 
L 545.926 173.980952 
Q 545.926 177.485714 549.666 177.485714 
z
" clip-path="url(#p8ba83780f9)" style="fill: #efe5d2"/>
   </g>
   <g id="line2d_1">
    <path d="M 63.84 257.04381 
L 63.84 241.622857 
" clip-path="url(#p8ba83780f9)" style="fill: none; stroke: #2a2926; stroke-linecap: square"/>
   </g>
   <g id="line2d_2">
    <path d="M 142.38 257.04381 
L 142.38 241.622857 
" clip-path="url(#p8ba83780f9)" style="fill: none; stroke: #2a2926; stroke-linecap: square"/>
   </g>
   <g id="line2d_3">
    <path d="M 220.92 257.04381 
L 220.92 241.622857 
" clip-path="url(#p8ba83780f9)" style="fill: none; stroke: #2a2926; stroke-linecap: square"/>
   </g>
   <g id="line2d_4">
    <path d="M 299.46 257.04381 
L 299.46 241.622857 
" clip-path="url(#p8ba83780f9)" style="fill: none; stroke: #2a2926; stroke-linecap: square"/>
   </g>
   <g id="line2d_5">
    <path d="M 378 257.04381 
L 378 241.622857 
" clip-path="url(#p8ba83780f9)" style="fill: none; stroke: #2a2926; stroke-linecap: square"/>
   </g>
   <g id="line2d_6">
    <path d="M 456.54 257.04381 
L 456.54 241.622857 
" clip-path="url(#p8ba83780f9)" style="fill: none; stroke: #2a2926; stroke-linecap: square"/>
   </g>
   <g id="line2d_7">
    <path d="M 535.08 257.04381 
L 535.08 241.622857 
" clip-path="url(#p8ba83780f9)" style="fill: none; stroke: #2a2926; stroke-linecap: square"/>
   </g>
   <g id="line2d_8">
    <path d="M 613.62 257.04381 
L 613.62 241.622857 
" clip-path="url(#p8ba83780f9)" style="fill: none; stroke: #2a2926; stroke-linecap: square"/>
   </g>
   <g id="line2d_9">
    <path d="M 692.16 257.04381 
L 692.16 241.622857 
" clip-path="url(#p8ba83780f9)" style="fill: none; stroke: #2a2926; stroke-linecap: square"/>
   </g>
   <g id="line2d_10">
    <path d="M 63.84 182.742857 
L 692.16 182.742857 
" clip-path="url(#p8ba83780f9)" style="fill: none; stroke: #d7d9dc; stroke-opacity: 0.7; stroke-linecap: square"/>
   </g>
   <g id="line2d_11">
    <path d="M 299.46 249.333333 
L 299.46 102.133333 
" clip-path="url(#p8ba83780f9)" style="fill: none; stroke-dasharray: 3.7,1.6; stroke-dashoffset: 0; stroke: #d8c1a2"/>
   </g>
   <g id="line2d_12">
    <path d="M 582.204 249.333333 
L 582.204 102.133333 
" clip-path="url(#p8ba83780f9)" style="fill: none; stroke-dasharray: 3.7,1.6; stroke-dashoffset: 0; stroke: #d8c1a2"/>
   </g>
   <g id="text_1">
    <!-- Leitura de posicao entre postes -->
    <g style="fill: #2a2926" transform="translate(48.88 41.657917) scale(0.12 -0.12)">
     <defs>
      <path id="DejaVuSans-Bold-4c" d="M 588 4666 
L 1791 4666 
L 1791 909 
L 3903 909 
L 3903 0 
L 588 0 
L 588 4666 
z
" transform="scale(0.015625)"/>
      <path id="DejaVuSans-Bold-65" d="M 4031 1759 
L 4031 1441 
L 1416 1441 
Q 1456 1047 1700 850 
Q 1944 653 2381 653 
Q 2734 653 3104 758 
Q 3475 863 3866 1075 
L 3866 213 
Q 3469 63 3072 -14 
Q 2675 -91 2278 -91 
Q 1328 -91 801 392 
Q 275 875 275 1747 
Q 275 2603 792 3093 
Q 1309 3584 2216 3584 
Q 3041 3584 3536 3087 
Q 4031 2591 4031 1759 
z
M 2881 2131 
Q 2881 2450 2695 2645 
Q 2509 2841 2209 2841 
Q 1884 2841 1681 2658 
Q 1478 2475 1428 2131 
L 2881 2131 
z
" transform="scale(0.015625)"/>
      <path id="DejaVuSans-Bold-69" d="M 538 3500 
L 1656 3500 
L 1656 0 
L 538 0 
L 538 3500 
z
M 538 4863 
L 1656 4863 
L 1656 3950 
L 538 3950 
L 538 4863 
z
" transform="scale(0.015625)"/>
      <path id="DejaVuSans-Bold-74" d="M 1759 4494 
L 1759 3500 
L 2913 3500 
L 2913 2700 
L 1759 2700 
L 1759 1216 
Q 1759 972 1856 886 
Q 1953 800 2241 800 
L 2816 800 
L 2816 0 
L 1856 0 
Q 1194 0 917 276 
Q 641 553 641 1216 
L 641 2700 
L 84 2700 
L 84 3500 
L 641 3500 
L 641 4494 
L 1759 4494 
z
" transform="scale(0.015625)"/>
      <path id="DejaVuSans-Bold-75" d="M 500 1363 
L 500 3500 
L 1625 3500 
L 1625 3150 
Q 1625 2866 1622 2436 
Q 1619 2006 1619 1863 
Q 1619 1441 1641 1255 
Q 1663 1069 1716 984 
Q 1784 875 1895 815 
Q 2006 756 2150 756 
Q 2500 756 2700 1025 
Q 2900 1294 2900 1772 
L 2900 3500 
L 4019 3500 
L 4019 0 
L 2900 0 
L 2900 506 
Q 2647 200 2364 54 
Q 2081 -91 1741 -91 
Q 1134 -91 817 281 
Q 500 653 500 1363 
z
" transform="scale(0.015625)"/>
      <path id="DejaVuSans-Bold-72" d="M 3138 2547 
Q 2991 2616 2845 2648 
Q 2700 2681 2553 2681 
Q 2122 2681 1889 2404 
Q 1656 2128 1656 1613 
L 1656 0 
L 538 0 
L 538 3500 
L 1656 3500 
L 1656 2925 
Q 1872 3269 2151 3426 
Q 2431 3584 2822 3584 
Q 2878 3584 2943 3579 
Q 3009 3575 3134 3559 
L 3138 2547 
z
" transform="scale(0.015625)"/>
      <path id="DejaVuSans-Bold-61" d="M 2106 1575 
Q 1756 1575 1579 1456 
Q 1403 1338 1403 1106 
Q 1403 894 1545 773 
Q 1688 653 1941 653 
Q 2256 653 2472 879 
Q 2688 1106 2688 1447 
L 2688 1575 
L 2106 1575 
z
M 3816 1997 
L 3816 0 
L 2688 0 
L 2688 519 
Q 2463 200 2181 54 
Q 1900 -91 1497 -91 
Q 953 -91 614 226 
Q 275 544 275 1050 
Q 275 1666 698 1953 
Q 1122 2241 2028 2241 
L 2688 2241 
L 2688 2328 
Q 2688 2594 2478 2717 
Q 2269 2841 1825 2841 
Q 1466 2841 1156 2769 
Q 847 2697 581 2553 
L 581 3406 
Q 941 3494 1303 3539 
Q 1666 3584 2028 3584 
Q 2975 3584 3395 3211 
Q 3816 2838 3816 1997 
z
" transform="scale(0.015625)"/>
      <path id="DejaVuSans-Bold-20" transform="scale(0.015625)"/>
      <path id="DejaVuSans-Bold-64" d="M 2919 2988 
L 2919 4863 
L 4044 4863 
L 4044 0 
L 2919 0 
L 2919 506 
Q 2688 197 2409 53 
Q 2131 -91 1766 -91 
Q 1119 -91 703 423 
Q 288 938 288 1747 
Q 288 2556 703 3070 
Q 1119 3584 1766 3584 
Q 2128 3584 2408 3439 
Q 2688 3294 2919 2988 
z
M 2181 722 
Q 2541 722 2730 984 
Q 2919 1247 2919 1747 
Q 2919 2247 2730 2509 
Q 2541 2772 2181 2772 
Q 1825 2772 1636 2509 
Q 1447 2247 1447 1747 
Q 1447 1247 1636 984 
Q 1825 722 2181 722 
z
" transform="scale(0.015625)"/>
      <path id="DejaVuSans-Bold-70" d="M 1656 506 
L 1656 -1331 
L 538 -1331 
L 538 3500 
L 1656 3500 
L 1656 2988 
Q 1888 3294 2169 3439 
Q 2450 3584 2816 3584 
Q 3463 3584 3878 3070 
Q 4294 2556 4294 1747 
Q 4294 938 3878 423 
Q 3463 -91 2816 -91 
Q 2450 -91 2169 54 
Q 1888 200 1656 506 
z
M 2400 2772 
Q 2041 2772 1848 2508 
Q 1656 2244 1656 1747 
Q 1656 1250 1848 986 
Q 2041 722 2400 722 
Q 2759 722 2948 984 
Q 3138 1247 3138 1747 
Q 3138 2247 2948 2509 
Q 2759 2772 2400 2772 
z
" transform="scale(0.015625)"/>
      <path id="DejaVuSans-Bold-6f" d="M 2203 2784 
Q 1831 2784 1636 2517 
Q 1441 2250 1441 1747 
Q 1441 1244 1636 976 
Q 1831 709 2203 709 
Q 2569 709 2762 976 
Q 2956 1244 2956 1747 
Q 2956 2250 2762 2517 
Q 2569 2784 2203 2784 
z
M 2203 3584 
Q 3106 3584 3614 3096 
Q 4122 2609 4122 1747 
Q 4122 884 3614 396 
Q 3106 -91 2203 -91 
Q 1297 -91 786 396 
Q 275 884 275 1747 
Q 275 2609 786 3096 
Q 1297 3584 2203 3584 
z
" transform="scale(0.015625)"/>
      <path id="DejaVuSans-Bold-73" d="M 3272 3391 
L 3272 2541 
Q 2913 2691 2578 2766 
Q 2244 2841 1947 2841 
Q 1628 2841 1473 2761 
Q 1319 2681 1319 2516 
Q 1319 2381 1436 2309 
Q 1553 2238 1856 2203 
L 2053 2175 
Q 2913 2066 3209 1816 
Q 3506 1566 3506 1031 
Q 3506 472 3093 190 
Q 2681 -91 1863 -91 
Q 1516 -91 1145 -36 
Q 775 19 384 128 
L 384 978 
Q 719 816 1070 734 
Q 1422 653 1784 653 
Q 2113 653 2278 743 
Q 2444 834 2444 1013 
Q 2444 1163 2330 1236 
Q 2216 1309 1875 1350 
L 1678 1375 
Q 931 1469 631 1722 
Q 331 1975 331 2491 
Q 331 3047 712 3315 
Q 1094 3584 1881 3584 
Q 2191 3584 2531 3537 
Q 2872 3491 3272 3391 
z
" transform="scale(0.015625)"/>
      <path id="DejaVuSans-Bold-63" d="M 3366 3391 
L 3366 2478 
Q 3138 2634 2908 2709 
Q 2678 2784 2431 2784 
Q 1963 2784 1702 2511 
Q 1441 2238 1441 1747 
Q 1441 1256 1702 982 
Q 1963 709 2431 709 
Q 2694 709 2930 787 
Q 3166 866 3366 1019 
L 3366 103 
Q 3103 6 2833 -42 
Q 2563 -91 2291 -91 
Q 1344 -91 809 395 
Q 275 881 275 1747 
Q 275 2613 809 3098 
Q 1344 3584 2291 3584 
Q 2566 3584 2833 3536 
Q 3100 3488 3366 3391 
z
" transform="scale(0.015625)"/>
      <path id="DejaVuSans-Bold-6e" d="M 4056 2131 
L 4056 0 
L 2931 0 
L 2931 347 
L 2931 1631 
Q 2931 2084 2911 2256 
Q 2891 2428 2841 2509 
Q 2775 2619 2662 2680 
Q 2550 2741 2406 2741 
Q 2056 2741 1856 2470 
Q 1656 2200 1656 1722 
L 1656 0 
L 538 0 
L 538 3500 
L 1656 3500 
L 1656 2988 
Q 1909 3294 2193 3439 
Q 2478 3584 2822 3584 
Q 3428 3584 3742 3212 
Q 4056 2841 4056 2131 
z
" transform="scale(0.015625)"/>
     </defs>
     <use xlink:href="#DejaVuSans-Bold-4c"/>
     <use xlink:href="#DejaVuSans-Bold-65" x="63.720703"/>
     <use xlink:href="#DejaVuSans-Bold-69" x="131.542969"/>
     <use xlink:href="#DejaVuSans-Bold-74" x="165.820312"/>
     <use xlink:href="#DejaVuSans-Bold-75" x="213.623047"/>
     <use xlink:href="#DejaVuSans-Bold-72" x="284.814453"/>
     <use xlink:href="#DejaVuSans-Bold-61" x="334.130859"/>
     <use xlink:href="#DejaVuSans-Bold-20" x="401.611328"/>
     <use xlink:href="#DejaVuSans-Bold-64" x="436.425781"/>
     <use xlink:href="#DejaVuSans-Bold-65" x="508.007812"/>
     <use xlink:href="#DejaVuSans-Bold-20" x="575.830078"/>
     <use xlink:href="#DejaVuSans-Bold-70" x="610.644531"/>
     <use xlink:href="#DejaVuSans-Bold-6f" x="682.226562"/>
     <use xlink:href="#DejaVuSans-Bold-73" x="750.927734"/>
     <use xlink:href="#DejaVuSans-Bold-69" x="810.449219"/>
     <use xlink:href="#DejaVuSans-Bold-63" x="844.726562"/>
     <use xlink:href="#DejaVuSans-Bold-61" x="904.003906"/>
     <use xlink:href="#DejaVuSans-Bold-6f" x="971.484375"/>
     <use xlink:href="#DejaVuSans-Bold-20" x="1040.185547"/>
     <use xlink:href="#DejaVuSans-Bold-65" x="1075"/>
     <use xlink:href="#DejaVuSans-Bold-6e" x="1142.822266"/>
     <use xlink:href="#DejaVuSans-Bold-74" x="1214.013672"/>
     <use xlink:href="#DejaVuSans-Bold-72" x="1261.816406"/>
     <use xlink:href="#DejaVuSans-Bold-65" x="1311.132812"/>
     <use xlink:href="#DejaVuSans-Bold-20" x="1378.955078"/>
     <use xlink:href="#DejaVuSans-Bold-70" x="1413.769531"/>
     <use xlink:href="#DejaVuSans-Bold-6f" x="1485.351562"/>
     <use xlink:href="#DejaVuSans-Bold-73" x="1554.052734"/>
     <use xlink:href="#DejaVuSans-Bold-74" x="1613.574219"/>
     <use xlink:href="#DejaVuSans-Bold-65" x="1661.376953"/>
     <use xlink:href="#DejaVuSans-Bold-73" x="1729.199219"/>
    </g>
   </g>
   <g id="text_2">
    <!-- 0 -->
    <g style="fill: #665f56" transform="translate(61.295 277.84256) scale(0.08 -0.08)">
     <defs>
      <path id="DejaVuSans-30" d="M 2034 4250 
Q 1547 4250 1301 3770 
Q 1056 3291 1056 2328 
Q 1056 1369 1301 889 
Q 1547 409 2034 409 
Q 2525 409 2770 889 
Q 3016 1369 3016 2328 
Q 3016 3291 2770 3770 
Q 2525 4250 2034 4250 
z
M 2034 4750 
Q 2819 4750 3233 4129 
Q 3647 3509 3647 2328 
Q 3647 1150 3233 529 
Q 2819 -91 2034 -91 
Q 1250 -91 836 529 
Q 422 1150 422 2328 
Q 422 3509 836 4129 
Q 1250 4750 2034 4750 
z
" transform="scale(0.015625)"/>
     </defs>
     <use xlink:href="#DejaVuSans-30"/>
    </g>
   </g>
   <g id="text_3">
    <!-- 10 -->
    <g style="fill: #665f56" transform="translate(137.29 277.84256) scale(0.08 -0.08)">
     <defs>
      <path id="DejaVuSans-31" d="M 794 531 
L 1825 531 
L 1825 4091 
L 703 3866 
L 703 4441 
L 1819 4666 
L 2450 4666 
L 2450 531 
L 3481 531 
L 3481 0 
L 794 0 
L 794 531 
z
" transform="scale(0.015625)"/>
     </defs>
     <use xlink:href="#DejaVuSans-31"/>
     <use xlink:href="#DejaVuSans-30" x="63.623047"/>
    </g>
   </g>
   <g id="text_4">
    <!-- 20 -->
    <g style="fill: #665f56" transform="translate(215.83 277.84256) scale(0.08 -0.08)">
     <defs>
      <path id="DejaVuSans-32" d="M 1228 531 
L 3431 531 
L 3431 0 
L 469 0 
L 469 531 
Q 828 903 1448 1529 
Q 2069 2156 2228 2338 
Q 2531 2678 2651 2914 
Q 2772 3150 2772 3378 
Q 2772 3750 2511 3984 
Q 2250 4219 1831 4219 
Q 1534 4219 1204 4116 
Q 875 4013 500 3803 
L 500 4441 
Q 881 4594 1212 4672 
Q 1544 4750 1819 4750 
Q 2544 4750 2975 4387 
Q 3406 4025 3406 3419 
Q 3406 3131 3298 2873 
Q 3191 2616 2906 2266 
Q 2828 2175 2409 1742 
Q 1991 1309 1228 531 
z
" transform="scale(0.015625)"/>
     </defs>
     <use xlink:href="#DejaVuSans-32"/>
     <use xlink:href="#DejaVuSans-30" x="63.623047"/>
    </g>
   </g>
   <g id="text_5">
    <!-- 30 -->
    <g style="fill: #665f56" transform="translate(294.37 277.84256) scale(0.08 -0.08)">
     <defs>
      <path id="DejaVuSans-33" d="M 2597 2516 
Q 3050 2419 3304 2112 
Q 3559 1806 3559 1356 
Q 3559 666 3084 287 
Q 2609 -91 1734 -91 
Q 1441 -91 1130 -33 
Q 819 25 488 141 
L 488 750 
Q 750 597 1062 519 
Q 1375 441 1716 441 
Q 2309 441 2620 675 
Q 2931 909 2931 1356 
Q 2931 1769 2642 2001 
Q 2353 2234 1838 2234 
L 1294 2234 
L 1294 2753 
L 1863 2753 
Q 2328 2753 2575 2939 
Q 2822 3125 2822 3475 
Q 2822 3834 2567 4026 
Q 2313 4219 1838 4219 
Q 1578 4219 1281 4162 
Q 984 4106 628 3988 
L 628 4550 
Q 988 4650 1302 4700 
Q 1616 4750 1894 4750 
Q 2613 4750 3031 4423 
Q 3450 4097 3450 3541 
Q 3450 3153 3228 2886 
Q 3006 2619 2597 2516 
z
" transform="scale(0.015625)"/>
     </defs>
     <use xlink:href="#DejaVuSans-33"/>
     <use xlink:href="#DejaVuSans-30" x="63.623047"/>
    </g>
   </g>
   <g id="text_6">
    <!-- 40 -->
    <g style="fill: #665f56" transform="translate(372.91 277.84256) scale(0.08 -0.08)">
     <defs>
      <path id="DejaVuSans-34" d="M 2419 4116 
L 825 1625 
L 2419 1625 
L 2419 4116 
z
M 2253 4666 
L 3047 4666 
L 3047 1625 
L 3713 1625 
L 3713 1100 
L 3047 1100 
L 3047 0 
L 2419 0 
L 2419 1100 
L 313 1100 
L 313 1709 
L 2253 4666 
z
" transform="scale(0.015625)"/>
     </defs>
     <use xlink:href="#DejaVuSans-34"/>
     <use xlink:href="#DejaVuSans-30" x="63.623047"/>
    </g>
   </g>
   <g id="text_7">
    <!-- 50 -->
    <g style="fill: #665f56" transform="translate(451.45 277.84256) scale(0.08 -0.08)">
     <defs>
      <path id="DejaVuSans-35" d="M 691 4666 
L 3169 4666 
L 3169 4134 
L 1269 4134 
L 1269 2991 
Q 1406 3038 1543 3061 
Q 1681 3084 1819 3084 
Q 2600 3084 3056 2656 
Q 3513 2228 3513 1497 
Q 3513 744 3044 326 
Q 2575 -91 1722 -91 
Q 1428 -91 1123 -41 
Q 819 9 494 109 
L 494 744 
Q 775 591 1075 516 
Q 1375 441 1709 441 
Q 2250 441 2565 725 
Q 2881 1009 2881 1497 
Q 2881 1984 2565 2268 
Q 2250 2553 1709 2553 
Q 1456 2553 1204 2497 
Q 953 2441 691 2322 
L 691 4666 
z
" transform="scale(0.015625)"/>
     </defs>
     <use xlink:href="#DejaVuSans-35"/>
     <use xlink:href="#DejaVuSans-30" x="63.623047"/>
    </g>
   </g>
   <g id="text_8">
    <!-- 60 -->
    <g style="fill: #665f56" transform="translate(529.99 277.84256) scale(0.08 -0.08)">
     <defs>
      <path id="DejaVuSans-36" d="M 2113 2584 
Q 1688 2584 1439 2293 
Q 1191 2003 1191 1497 
Q 1191 994 1439 701 
Q 1688 409 2113 409 
Q 2538 409 2786 701 
Q 3034 994 3034 1497 
Q 3034 2003 2786 2293 
Q 2538 2584 2113 2584 
z
M 3366 4563 
L 3366 3988 
Q 3128 4100 2886 4159 
Q 2644 4219 2406 4219 
Q 1781 4219 1451 3797 
Q 1122 3375 1075 2522 
Q 1259 2794 1537 2939 
Q 1816 3084 2150 3084 
Q 2853 3084 3261 2657 
Q 3669 2231 3669 1497 
Q 3669 778 3244 343 
Q 2819 -91 2113 -91 
Q 1303 -91 875 529 
Q 447 1150 447 2328 
Q 447 3434 972 4092 
Q 1497 4750 2381 4750 
Q 2619 4750 2861 4703 
Q 3103 4656 3366 4563 
z
" transform="scale(0.015625)"/>
     </defs>
     <use xlink:href="#DejaVuSans-36"/>
     <use xlink:href="#DejaVuSans-30" x="63.623047"/>
    </g>
   </g>
   <g id="text_9">
    <!-- 70 -->
    <g style="fill: #665f56" transform="translate(608.53 277.84256) scale(0.08 -0.08)">
     <defs>
      <path id="DejaVuSans-37" d="M 525 4666 
L 3525 4666 
L 3525 4397 
L 1831 0 
L 1172 0 
L 2766 4134 
L 525 4134 
L 525 4666 
z
" transform="scale(0.015625)"/>
     </defs>
     <use xlink:href="#DejaVuSans-37"/>
     <use xlink:href="#DejaVuSans-30" x="63.623047"/>
    </g>
   </g>
   <g id="text_10">
    <!-- 80 -->
    <g style="fill: #665f56" transform="translate(687.07 277.84256) scale(0.08 -0.08)">
     <defs>
      <path id="DejaVuSans-38" d="M 2034 2216 
Q 1584 2216 1326 1975 
Q 1069 1734 1069 1313 
Q 1069 891 1326 650 
Q 1584 409 2034 409 
Q 2484 409 2743 651 
Q 3003 894 3003 1313 
Q 3003 1734 2745 1975 
Q 2488 2216 2034 2216 
z
M 1403 2484 
Q 997 2584 770 2862 
Q 544 3141 544 3541 
Q 544 4100 942 4425 
Q 1341 4750 2034 4750 
Q 2731 4750 3128 4425 
Q 3525 4100 3525 3541 
Q 3525 3141 3298 2862 
Q 3072 2584 2669 2484 
Q 3125 2378 3379 2068 
Q 3634 1759 3634 1313 
Q 3634 634 3220 271 
Q 2806 -91 2034 -91 
Q 1263 -91 848 271 
Q 434 634 434 1313 
Q 434 1759 690 2068 
Q 947 2378 1403 2484 
z
M 1172 3481 
Q 1172 3119 1398 2916 
Q 1625 2713 2034 2713 
Q 2441 2713 2670 2916 
Q 2900 3119 2900 3481 
Q 2900 3844 2670 4047 
Q 2441 4250 2034 4250 
Q 1625 4250 1398 4047 
Q 1172 3844 1172 3481 
z
" transform="scale(0.015625)"/>
     </defs>
     <use xlink:href="#DejaVuSans-38"/>
     <use xlink:href="#DejaVuSans-30" x="63.623047"/>
    </g>
   </g>
   <g id="text_11">
    <!-- S (m) -->
    <g style="fill: #2a2926" transform="translate(701.136 247.931429) scale(0.09 -0.09)">
     <defs>
      <path id="DejaVuSans-Bold-53" d="M 3834 4519 
L 3834 3531 
Q 3450 3703 3084 3790 
Q 2719 3878 2394 3878 
Q 1963 3878 1756 3759 
Q 1550 3641 1550 3391 
Q 1550 3203 1689 3098 
Q 1828 2994 2194 2919 
L 2706 2816 
Q 3484 2659 3812 2340 
Q 4141 2022 4141 1434 
Q 4141 663 3683 286 
Q 3225 -91 2284 -91 
Q 1841 -91 1394 -6 
Q 947 78 500 244 
L 500 1259 
Q 947 1022 1364 901 
Q 1781 781 2169 781 
Q 2563 781 2772 912 
Q 2981 1044 2981 1288 
Q 2981 1506 2839 1625 
Q 2697 1744 2272 1838 
L 1806 1941 
Q 1106 2091 782 2419 
Q 459 2747 459 3303 
Q 459 4000 909 4375 
Q 1359 4750 2203 4750 
Q 2588 4750 2994 4692 
Q 3400 4634 3834 4519 
z
" transform="scale(0.015625)"/>
      <path id="DejaVuSans-Bold-28" d="M 2413 -844 
L 1484 -844 
Q 1006 -72 778 623 
Q 550 1319 550 2003 
Q 550 2688 779 3389 
Q 1009 4091 1484 4856 
L 2413 4856 
Q 2013 4116 1813 3408 
Q 1613 2700 1613 2009 
Q 1613 1319 1811 609 
Q 2009 -100 2413 -844 
z
" transform="scale(0.015625)"/>
      <path id="DejaVuSans-Bold-6d" d="M 3781 2919 
Q 3994 3244 4286 3414 
Q 4578 3584 4928 3584 
Q 5531 3584 5847 3212 
Q 6163 2841 6163 2131 
L 6163 0 
L 5038 0 
L 5038 1825 
Q 5041 1866 5042 1909 
Q 5044 1953 5044 2034 
Q 5044 2406 4934 2573 
Q 4825 2741 4581 2741 
Q 4263 2741 4089 2478 
Q 3916 2216 3909 1719 
L 3909 0 
L 2784 0 
L 2784 1825 
Q 2784 2406 2684 2573 
Q 2584 2741 2328 2741 
Q 2006 2741 1831 2477 
Q 1656 2213 1656 1722 
L 1656 0 
L 531 0 
L 531 3500 
L 1656 3500 
L 1656 2988 
Q 1863 3284 2130 3434 
Q 2397 3584 2719 3584 
Q 3081 3584 3359 3409 
Q 3638 3234 3781 2919 
z
" transform="scale(0.015625)"/>
      <path id="DejaVuSans-Bold-29" d="M 513 -844 
Q 913 -100 1113 609 
Q 1313 1319 1313 2009 
Q 1313 2700 1113 3408 
Q 913 4116 513 4856 
L 1441 4856 
Q 1916 4091 2145 3389 
Q 2375 2688 2375 2003 
Q 2375 1319 2147 623 
Q 1919 -72 1441 -844 
L 513 -844 
z
" transform="scale(0.015625)"/>
     </defs>
     <use xlink:href="#DejaVuSans-Bold-53"/>
     <use xlink:href="#DejaVuSans-Bold-20" x="72.021484"/>
     <use xlink:href="#DejaVuSans-Bold-28" x="106.835938"/>
     <use xlink:href="#DejaVuSans-Bold-6d" x="152.539062"/>
     <use xlink:href="#DejaVuSans-Bold-29" x="256.738281"/>
    </g>
   </g>
   <g id="text_12">
    <!-- poste A -->
    <g style="fill: #2a2926" transform="translate(284.3525 140.089405) scale(0.08 -0.08)">
     <defs>
      <path id="DejaVuSans-70" d="M 1159 525 
L 1159 -1331 
L 581 -1331 
L 581 3500 
L 1159 3500 
L 1159 2969 
Q 1341 3281 1617 3432 
Q 1894 3584 2278 3584 
Q 2916 3584 3314 3078 
Q 3713 2572 3713 1747 
Q 3713 922 3314 415 
Q 2916 -91 2278 -91 
Q 1894 -91 1617 61 
Q 1341 213 1159 525 
z
M 3116 1747 
Q 3116 2381 2855 2742 
Q 2594 3103 2138 3103 
Q 1681 3103 1420 2742 
Q 1159 2381 1159 1747 
Q 1159 1113 1420 752 
Q 1681 391 2138 391 
Q 2594 391 2855 752 
Q 3116 1113 3116 1747 
z
" transform="scale(0.015625)"/>
      <path id="DejaVuSans-6f" d="M 1959 3097 
Q 1497 3097 1228 2736 
Q 959 2375 959 1747 
Q 959 1119 1226 758 
Q 1494 397 1959 397 
Q 2419 397 2687 759 
Q 2956 1122 2956 1747 
Q 2956 2369 2687 2733 
Q 2419 3097 1959 3097 
z
M 1959 3584 
Q 2709 3584 3137 3096 
Q 3566 2609 3566 1747 
Q 3566 888 3137 398 
Q 2709 -91 1959 -91 
Q 1206 -91 779 398 
Q 353 888 353 1747 
Q 353 2609 779 3096 
Q 1206 3584 1959 3584 
z
" transform="scale(0.015625)"/>
      <path id="DejaVuSans-73" d="M 2834 3397 
L 2834 2853 
Q 2591 2978 2328 3040 
Q 2066 3103 1784 3103 
Q 1356 3103 1142 2972 
Q 928 2841 928 2578 
Q 928 2378 1081 2264 
Q 1234 2150 1697 2047 
L 1894 2003 
Q 2506 1872 2764 1633 
Q 3022 1394 3022 966 
Q 3022 478 2636 193 
Q 2250 -91 1575 -91 
Q 1294 -91 989 -36 
Q 684 19 347 128 
L 347 722 
Q 666 556 975 473 
Q 1284 391 1588 391 
Q 1994 391 2212 530 
Q 2431 669 2431 922 
Q 2431 1156 2273 1281 
Q 2116 1406 1581 1522 
L 1381 1569 
Q 847 1681 609 1914 
Q 372 2147 372 2553 
Q 372 3047 722 3315 
Q 1072 3584 1716 3584 
Q 2034 3584 2315 3537 
Q 2597 3491 2834 3397 
z
" transform="scale(0.015625)"/>
      <path id="DejaVuSans-74" d="M 1172 4494 
L 1172 3500 
L 2356 3500 
L 2356 3053 
L 1172 3053 
L 1172 1153 
Q 1172 725 1289 603 
Q 1406 481 1766 481 
L 2356 481 
L 2356 0 
L 1766 0 
Q 1100 0 847 248 
Q 594 497 594 1153 
L 594 3053 
L 172 3053 
L 172 3500 
L 594 3500 
L 594 4494 
L 1172 4494 
z
" transform="scale(0.015625)"/>
      <path id="DejaVuSans-65" d="M 3597 1894 
L 3597 1613 
L 953 1613 
Q 991 1019 1311 708 
Q 1631 397 2203 397 
Q 2534 397 2845 478 
Q 3156 559 3463 722 
L 3463 178 
Q 3153 47 2828 -22 
Q 2503 -91 2169 -91 
Q 1331 -91 842 396 
Q 353 884 353 1716 
Q 353 2575 817 3079 
Q 1281 3584 2069 3584 
Q 2775 3584 3186 3129 
Q 3597 2675 3597 1894 
z
M 3022 2063 
Q 3016 2534 2758 2815 
Q 2500 3097 2075 3097 
Q 1594 3097 1305 2825 
Q 1016 2553 972 2059 
L 3022 2063 
z
" transform="scale(0.015625)"/>
      <path id="DejaVuSans-20" transform="scale(0.015625)"/>
      <path id="DejaVuSans-41" d="M 2188 4044 
L 1331 1722 
L 3047 1722 
L 2188 4044 
z
M 1831 4666 
L 2547 4666 
L 4325 0 
L 3669 0 
L 3244 1197 
L 1141 1197 
L 716 0 
L 50 0 
L 1831 4666 
z
" transform="scale(0.015625)"/>
     </defs>
     <use xlink:href="#DejaVuSans-70"/>
     <use xlink:href="#DejaVuSans-6f" x="63.476562"/>
     <use xlink:href="#DejaVuSans-73" x="124.658203"/>
     <use xlink:href="#DejaVuSans-74" x="176.757812"/>
     <use xlink:href="#DejaVuSans-65" x="215.966797"/>
     <use xlink:href="#DejaVuSans-20" x="277.490234"/>
     <use xlink:href="#DejaVuSans-41" x="309.277344"/>
    </g>
   </g>
   <g id="text_13">
    <!-- poste B -->
    <g style="fill: #2a2926" transform="translate(567.088375 140.089405) scale(0.08 -0.08)">
     <defs>
      <path id="DejaVuSans-42" d="M 1259 2228 
L 1259 519 
L 2272 519 
Q 2781 519 3026 730 
Q 3272 941 3272 1375 
Q 3272 1813 3026 2020 
Q 2781 2228 2272 2228 
L 1259 2228 
z
M 1259 4147 
L 1259 2741 
L 2194 2741 
Q 2656 2741 2882 2914 
Q 3109 3088 3109 3444 
Q 3109 3797 2882 3972 
Q 2656 4147 2194 4147 
L 1259 4147 
z
M 628 4666 
L 2241 4666 
Q 2963 4666 3353 4366 
Q 3744 4066 3744 3513 
Q 3744 3084 3544 2831 
Q 3344 2578 2956 2516 
Q 3422 2416 3680 2098 
Q 3938 1781 3938 1306 
Q 3938 681 3513 340 
Q 3088 0 2303 0 
L 628 0 
L 628 4666 
z
" transform="scale(0.015625)"/>
     </defs>
     <use xlink:href="#DejaVuSans-70"/>
     <use xlink:href="#DejaVuSans-6f" x="63.476562"/>
     <use xlink:href="#DejaVuSans-73" x="124.658203"/>
     <use xlink:href="#DejaVuSans-74" x="176.757812"/>
     <use xlink:href="#DejaVuSans-65" x="215.966797"/>
     <use xlink:href="#DejaVuSans-20" x="277.490234"/>
     <use xlink:href="#DejaVuSans-42" x="309.277344"/>
    </g>
   </g>
   <g id="text_14">
    <!-- intervalo observado -->
    <g style="fill: #8b5e34" transform="translate(408.361375 104.23619) scale(0.08 -0.08)">
     <defs>
      <path id="DejaVuSans-69" d="M 603 3500 
L 1178 3500 
L 1178 0 
L 603 0 
L 603 3500 
z
M 603 4863 
L 1178 4863 
L 1178 4134 
L 603 4134 
L 603 4863 
z
" transform="scale(0.015625)"/>
      <path id="DejaVuSans-6e" d="M 3513 2113 
L 3513 0 
L 2938 0 
L 2938 2094 
Q 2938 2591 2744 2837 
Q 2550 3084 2163 3084 
Q 1697 3084 1428 2787 
Q 1159 2491 1159 1978 
L 1159 0 
L 581 0 
L 581 3500 
L 1159 3500 
L 1159 2956 
Q 1366 3272 1645 3428 
Q 1925 3584 2291 3584 
Q 2894 3584 3203 3211 
Q 3513 2838 3513 2113 
z
" transform="scale(0.015625)"/>
      <path id="DejaVuSans-72" d="M 2631 2963 
Q 2534 3019 2420 3045 
Q 2306 3072 2169 3072 
Q 1681 3072 1420 2755 
Q 1159 2438 1159 1844 
L 1159 0 
L 581 0 
L 581 3500 
L 1159 3500 
L 1159 2956 
Q 1341 3275 1631 3429 
Q 1922 3584 2338 3584 
Q 2397 3584 2469 3576 
Q 2541 3569 2628 3553 
L 2631 2963 
z
" transform="scale(0.015625)"/>
      <path id="DejaVuSans-76" d="M 191 3500 
L 800 3500 
L 1894 563 
L 2988 3500 
L 3597 3500 
L 2284 0 
L 1503 0 
L 191 3500 
z
" transform="scale(0.015625)"/>
      <path id="DejaVuSans-61" d="M 2194 1759 
Q 1497 1759 1228 1600 
Q 959 1441 959 1056 
Q 959 750 1161 570 
Q 1363 391 1709 391 
Q 2188 391 2477 730 
Q 2766 1069 2766 1631 
L 2766 1759 
L 2194 1759 
z
M 3341 1997 
L 3341 0 
L 2766 0 
L 2766 531 
Q 2569 213 2275 61 
Q 1981 -91 1556 -91 
Q 1019 -91 701 211 
Q 384 513 384 1019 
Q 384 1609 779 1909 
Q 1175 2209 1959 2209 
L 2766 2209 
L 2766 2266 
Q 2766 2663 2505 2880 
Q 2244 3097 1772 3097 
Q 1472 3097 1187 3025 
Q 903 2953 641 2809 
L 641 3341 
Q 956 3463 1253 3523 
Q 1550 3584 1831 3584 
Q 2591 3584 2966 3190 
Q 3341 2797 3341 1997 
z
" transform="scale(0.015625)"/>
      <path id="DejaVuSans-6c" d="M 603 4863 
L 1178 4863 
L 1178 0 
L 603 0 
L 603 4863 
z
" transform="scale(0.015625)"/>
      <path id="DejaVuSans-62" d="M 3116 1747 
Q 3116 2381 2855 2742 
Q 2594 3103 2138 3103 
Q 1681 3103 1420 2742 
Q 1159 2381 1159 1747 
Q 1159 1113 1420 752 
Q 1681 391 2138 391 
Q 2594 391 2855 752 
Q 3116 1113 3116 1747 
z
M 1159 2969 
Q 1341 3281 1617 3432 
Q 1894 3584 2278 3584 
Q 2916 3584 3314 3078 
Q 3713 2572 3713 1747 
Q 3713 922 3314 415 
Q 2916 -91 2278 -91 
Q 1894 -91 1617 61 
Q 1341 213 1159 525 
L 1159 0 
L 581 0 
L 581 4863 
L 1159 4863 
L 1159 2969 
z
" transform="scale(0.015625)"/>
      <path id="DejaVuSans-64" d="M 2906 2969 
L 2906 4863 
L 3481 4863 
L 3481 0 
L 2906 0 
L 2906 525 
Q 2725 213 2448 61 
Q 2172 -91 1784 -91 
Q 1150 -91 751 415 
Q 353 922 353 1747 
Q 353 2572 751 3078 
Q 1150 3584 1784 3584 
Q 2172 3584 2448 3432 
Q 2725 3281 2906 2969 
z
M 947 1747 
Q 947 1113 1208 752 
Q 1469 391 1925 391 
Q 2381 391 2643 752 
Q 2906 1113 2906 1747 
Q 2906 2381 2643 2742 
Q 2381 3103 1925 3103 
Q 1469 3103 1208 2742 
Q 947 2381 947 1747 
z
" transform="scale(0.015625)"/>
     </defs>
     <use xlink:href="#DejaVuSans-69"/>
     <use xlink:href="#DejaVuSans-6e" x="27.783203"/>
     <use xlink:href="#DejaVuSans-74" x="91.162109"/>
     <use xlink:href="#DejaVuSans-65" x="130.371094"/>
     <use xlink:href="#DejaVuSans-72" x="191.894531"/>
     <use xlink:href="#DejaVuSans-76" x="233.007812"/>
     <use xlink:href="#DejaVuSans-61" x="292.1875"/>
     <use xlink:href="#DejaVuSans-6c" x="353.466797"/>
     <use xlink:href="#DejaVuSans-6f" x="381.25"/>
     <use xlink:href="#DejaVuSans-20" x="442.431641"/>
     <use xlink:href="#DejaVuSans-6f" x="474.21875"/>
     <use xlink:href="#DejaVuSans-62" x="535.400391"/>
     <use xlink:href="#DejaVuSans-73" x="598.876953"/>
     <use xlink:href="#DejaVuSans-65" x="650.976562"/>
     <use xlink:href="#DejaVuSans-72" x="712.5"/>
     <use xlink:href="#DejaVuSans-76" x="753.613281"/>
     <use xlink:href="#DejaVuSans-61" x="812.792969"/>
     <use xlink:href="#DejaVuSans-64" x="874.072266"/>
     <use xlink:href="#DejaVuSans-6f" x="937.548828"/>
    </g>
   </g>
   <g id="text_15">
    <!-- t = 2 s -->
    <g style="fill: #2a2926" transform="translate(286.0975 86.817024) scale(0.08 -0.08)">
     <defs>
      <path id="DejaVuSans-3d" d="M 678 2906 
L 4684 2906 
L 4684 2381 
L 678 2381 
L 678 2906 
z
M 678 1631 
L 4684 1631 
L 4684 1100 
L 678 1100 
L 678 1631 
z
" transform="scale(0.015625)"/>
     </defs>
     <use xlink:href="#DejaVuSans-74"/>
     <use xlink:href="#DejaVuSans-20" x="39.208984"/>
     <use xlink:href="#DejaVuSans-3d" x="70.996094"/>
     <use xlink:href="#DejaVuSans-20" x="154.785156"/>
     <use xlink:href="#DejaVuSans-32" x="186.572266"/>
     <use xlink:href="#DejaVuSans-20" x="250.195312"/>
     <use xlink:href="#DejaVuSans-73" x="281.982422"/>
    </g>
   </g>
   <g id="text_16">
    <!-- t = 5 s -->
    <g style="fill: #2a2926" transform="translate(568.8415 86.817024) scale(0.08 -0.08)">
     <use xlink:href="#DejaVuSans-74"/>
     <use xlink:href="#DejaVuSans-20" x="39.208984"/>
     <use xlink:href="#DejaVuSans-3d" x="70.996094"/>
     <use xlink:href="#DejaVuSans-20" x="154.785156"/>
     <use xlink:href="#DejaVuSans-35" x="186.572266"/>
     <use xlink:href="#DejaVuSans-20" x="250.195312"/>
     <use xlink:href="#DejaVuSans-73" x="281.982422"/>
    </g>
   </g>
   <g id="text_17">
    <!-- x = 30 m -->
    <g style="fill: #2a2926" transform="translate(280.940625 169.529405) scale(0.08 -0.08)">
     <defs>
      <path id="DejaVuSans-78" d="M 3513 3500 
L 2247 1797 
L 3578 0 
L 2900 0 
L 1881 1375 
L 863 0 
L 184 0 
L 1544 1831 
L 300 3500 
L 978 3500 
L 1906 2253 
L 2834 3500 
L 3513 3500 
z
" transform="scale(0.015625)"/>
      <path id="DejaVuSans-6d" d="M 3328 2828 
Q 3544 3216 3844 3400 
Q 4144 3584 4550 3584 
Q 5097 3584 5394 3201 
Q 5691 2819 5691 2113 
L 5691 0 
L 5113 0 
L 5113 2094 
Q 5113 2597 4934 2840 
Q 4756 3084 4391 3084 
Q 3944 3084 3684 2787 
Q 3425 2491 3425 1978 
L 3425 0 
L 2847 0 
L 2847 2094 
Q 2847 2600 2669 2842 
Q 2491 3084 2119 3084 
Q 1678 3084 1418 2786 
Q 1159 2488 1159 1978 
L 1159 0 
L 581 0 
L 581 3500 
L 1159 3500 
L 1159 2956 
Q 1356 3278 1631 3431 
Q 1906 3584 2284 3584 
Q 2666 3584 2933 3390 
Q 3200 3197 3328 2828 
z
" transform="scale(0.015625)"/>
     </defs>
     <use xlink:href="#DejaVuSans-78"/>
     <use xlink:href="#DejaVuSans-20" x="59.179688"/>
     <use xlink:href="#DejaVuSans-3d" x="90.966797"/>
     <use xlink:href="#DejaVuSans-20" x="174.755859"/>
     <use xlink:href="#DejaVuSans-33" x="206.542969"/>
     <use xlink:href="#DejaVuSans-30" x="270.166016"/>
     <use xlink:href="#DejaVuSans-20" x="333.789062"/>
     <use xlink:href="#DejaVuSans-6d" x="365.576172"/>
    </g>
   </g>
   <g id="text_18">
    <!-- x = 66 m -->
    <g style="fill: #2a2926" transform="translate(563.684625 169.529405) scale(0.08 -0.08)">
     <use xlink:href="#DejaVuSans-78"/>
     <use xlink:href="#DejaVuSans-20" x="59.179688"/>
     <use xlink:href="#DejaVuSans-3d" x="90.966797"/>
     <use xlink:href="#DejaVuSans-20" x="174.755859"/>
     <use xlink:href="#DejaVuSans-36" x="206.542969"/>
     <use xlink:href="#DejaVuSans-36" x="270.166016"/>
     <use xlink:href="#DejaVuSans-20" x="333.789062"/>
     <use xlink:href="#DejaVuSans-6d" x="365.576172"/>
    </g>
   </g>
  </g>
 </g>
 <defs>
  <clipPath id="p8ba83780f9">
   <rect x="4" y="4" width="748" height="294.4"/>
  </clipPath>
 </defs>
</svg>
