<?xml version="1.0" encoding="utf-8" standalone="no"?>
<!DOCTYPE svg PUBLIC "-//W3C//DTD SVG 1.1//EN"
  "http://www.w3.org/Graphics/SVG/1.1/DTD/svg11.dtd">
<svg xmlns:xlink="http://www.w3.org/1999/xlink" width="756pt" height="302.4pt" viewBox="0 0 756 302.4" xmlns="http://www.w3.org/2000/svg" version="1.1">
 <metadata>
  <rdf:RDF xmlns:dc="http://purl.org/dc/elements/1.1/" xmlns:cc="http://creativecommons.org/ns#" xmlns:rdf="http://www.w3.org/1999/02/22-rdf-syntax-ns#">
   <cc:Work>
    <dc:type rdf:resource="http://purl.org/dc/dcmitype/StillImage"/>
    <dc:date>2026-03-26T07:11:11.220488</dc:date>
    <dc:format>image/svg+xml</dc:format>
    <dc:creator>
     <cc:Agent>
      <dc:title>Matplotlib v3.7.5, https://matplotlib.org/</dc:title>
     </cc:Agent>
    </dc:creator>
   </cc:Work>
  </rdf:RDF>
 </metadata>
 <defs>
  <style type="text/css">*{stroke-linejoin: round; stroke-linecap: butt}</style>
 </defs>
 <g id="figure_1">
  <g id="patch_1">
   <path d="M 0 302.4 
L 756 302.4 
L 756 0 
L 0 0 
z
" style="fill: #f6f1e6"/>
  </g>
  <g id="axes_1">
   <g id="patch_2">
    <path d="M 11.48 291.390476 
L 744.52 291.390476 
L 744.52 11.009524 
L 11.48 11.009524 
z
" clip-path="url(#pe5023545fa)" style="fill: #f6f1e6; stroke: #d8c1a2; stroke-width: 1.4; stroke-linejoin: miter"/>
   </g>
   <g id="patch_3">
    <path d="M 40.278 53.417143 
L 251.962 53.417143 
Q 260.19 53.417143 260.19 45.706667 
L 260.19 28.182857 
Q 260.19 20.472381 251.962 20.472381 
L 40.278 20.472381 
Q 32.05 20.472381 32.05 28.182857 
L 32.05 45.706667 
Q 32.05 53.417143 40.278 53.417143 
z
" clip-path="url(#pe5023545fa)" style="fill: #efe5d2"/>
   </g>
   <g id="patch_4">
    <path d="M 65.838973 249.333333 
Q 377.998401 249.333333 688.592582 249.333333 
" clip-path="url(#pe5023545fa)" style="fill: none; stroke: #2a2926; stroke-width: 1.4; stroke-linecap: round"/>
    <path d="M 683.792582 246.933333 
L 688.592582 249.333333 
L 683.792582 251.733333 
z
" clip-path="url(#pe5023545fa)" style="fill: #2a2926; stroke: #2a2926; stroke-width: 1.4; stroke-linecap: round"/>
   </g>
   <g id="patch_5">
    <path d="M 78.8 158.209524 
L 161.08 158.209524 
L 161.08 88.114286 
L 78.8 88.114286 
z
" clip-path="url(#pe5023545fa)" style="fill: #8eb6d9; stroke: #2a2926; stroke-width: 1.1; stroke-linejoin: miter"/>
   </g>
   <g id="patch_6">
    <path d="M 78.8 88.114286 
L 96.752 67.085714 
L 114.704 88.114286 
L 132.656 67.085714 
L 150.608 88.114286 
L 161.08 88.114286 
z
" clip-path="url(#pe5023545fa)" style="fill: #4c78a8; stroke: #2a2926; stroke-width: 1.1; stroke-linejoin: miter"/>
   </g>
   <g id="patch_7">
    <path d="M 141.632 105.638095 
L 152.852 105.638095 
L 152.852 60.07619 
L 141.632 60.07619 
z
" clip-path="url(#pe5023545fa)" style="fill: #8b9098; stroke: #2a2926; stroke-linejoin: miter"/>
   </g>
   <g id="patch_8">
    <path d="M 153.6 196.761905 
L 572.48 196.761905 
L 572.48 177.135238 
L 153.6 177.135238 
z
" clip-path="url(#pe5023545fa)" style="fill: #30363b; stroke: #2a2926; stroke-linejoin: miter"/>
   </g>
   <g id="patch_9">
    <path d="M 168.56 205.173333 
C 170.345347 205.173333 172.057812 204.508622 173.320243 203.325596 
C 174.582674 202.142569 175.292 200.537815 175.292 198.864762 
C 175.292 197.191709 174.582674 195.586955 173.320243 194.403928 
C 172.057812 193.220901 170.345347 192.55619 168.56 192.55619 
C 166.774653 192.55619 165.062188 193.220901 163.799757 194.403928 
C 162.537326 195.586955 161.828 197.191709 161.828 198.864762 
C 161.828 200.537815 162.537326 202.142569 163.799757 203.325596 
C 165.062188 204.508622 166.774653 205.173333 168.56 205.173333 
z
" clip-path="url(#pe5023545fa)" style="fill: #8b9098; stroke: #2a2926; stroke-width: 0.7; stroke-linejoin: miter"/>
   </g>
   <g id="patch_10">
    <path d="M 213.44 205.173333 
C 215.225347 205.173333 216.937812 204.508622 218.200243 203.325596 
C 219.462674 202.142569 220.172 200.537815 220.172 198.864762 
C 220.172 197.191709 219.462674 195.586955 218.200243 194.403928 
C 216.937812 193.220901 215.225347 192.55619 213.44 192.55619 
C 211.654653 192.55619 209.942188 193.220901 208.679757 194.403928 
C 207.417326 195.586955 206.708 197.191709 206.708 198.864762 
C 206.708 200.537815 207.417326 202.142569 208.679757 203.325596 
C 209.942188 204.508622 211.654653 205.173333 213.44 205.173333 
z
" clip-path="url(#pe5023545fa)" style="fill: #8b9098; stroke: #2a2926; stroke-width: 0.7; stroke-linejoin: miter"/>
   </g>
   <g id="patch_11">
    <path d="M 258.32 205.173333 
C 260.105347 205.173333 261.817812 204.508622 263.080243 203.325596 
C 264.342674 202.142569 265.052 200.537815 265.052 198.864762 
C 265.052 197.191709 264.342674 195.586955 263.080243 194.403928 
C 261.817812 193.220901 260.105347 192.55619 258.32 192.55619 
C 256.534653 192.55619 254.822188 193.220901 253.559757 194.403928 
C 252.297326 195.586955 251.588 197.191709 251.588 198.864762 
C 251.588 200.537815 252.297326 202.142569 253.559757 203.325596 
C 254.822188 204.508622 256.534653 205.173333 258.32 205.173333 
z
" clip-path="url(#pe5023545fa)" style="fill: #8b9098; stroke: #2a2926; stroke-width: 0.7; stroke-linejoin: miter"/>
   </g>
   <g id="patch_12">
    <path d="M 303.2 205.173333 
C 304.985347 205.173333 306.697812 204.508622 307.960243 203.325596 
C 309.222674 202.142569 309.932 200.537815 309.932 198.864762 
C 309.932 197.191709 309.222674 195.586955 307.960243 194.403928 
C 306.697812 193.220901 304.985347 192.55619 303.2 192.55619 
C 301.414653 192.55619 299.702188 193.220901 298.439757 194.403928 
C 297.177326 195.586955 296.468 197.191709 296.468 198.864762 
C 296.468 200.537815 297.177326 202.142569 298.439757 203.325596 
C 299.702188 204.508622 301.414653 205.173333 303.2 205.173333 
z
" clip-path="url(#pe5023545fa)" style="fill: #8b9098; stroke: #2a2926; stroke-width: 0.7; stroke-linejoin: miter"/>
   </g>
   <g id="patch_13">
    <path d="M 348.08 205.173333 
C 349.865347 205.173333 351.577812 204.508622 352.840243 203.325596 
C 354.102674 202.142569 354.812 200.537815 354.812 198.864762 
C 354.812 197.191709 354.102674 195.586955 352.840243 194.403928 
C 351.577812 193.220901 349.865347 192.55619 348.08 192.55619 
C 346.294653 192.55619 344.582188 193.220901 343.319757 194.403928 
C 342.057326 195.586955 341.348 197.191709 341.348 198.864762 
C 341.348 200.537815 342.057326 202.142569 343.319757 203.325596 
C 344.582188 204.508622 346.294653 205.173333 348.08 205.173333 
z
" clip-path="url(#pe5023545fa)" style="fill: #8b9098; stroke: #2a2926; stroke-width: 0.7; stroke-linejoin: miter"/>
   </g>
   <g id="patch_14">
    <path d="M 392.96 205.173333 
C 394.745347 205.173333 396.457812 204.508622 397.720243 203.325596 
C 398.982674 202.142569 399.692 200.537815 399.692 198.864762 
C 399.692 197.191709 398.982674 195.586955 397.720243 194.403928 
C 396.457812 193.220901 394.745347 192.55619 392.96 192.55619 
C 391.174653 192.55619 389.462188 193.220901 388.199757 194.403928 
C 386.937326 195.586955 386.228 197.191709 386.228 198.864762 
C 386.228 200.537815 386.937326 202.142569 388.199757 203.325596 
C 389.462188 204.508622 391.174653 205.173333 392.96 205.173333 
z
" clip-path="url(#pe5023545fa)" style="fill: #8b9098; stroke: #2a2926; stroke-width: 0.7; stroke-linejoin: miter"/>
   </g>
   <g id="patch_15">
    <path d="M 437.84 205.173333 
C 439.625347 205.173333 441.337812 204.508622 442.600243 203.325596 
C 443.862674 202.142569 444.572 200.537815 444.572 198.864762 
C 444.572 197.191709 443.862674 195.586955 442.600243 194.403928 
C 441.337812 193.220901 439.625347 192.55619 437.84 192.55619 
C 436.054653 192.55619 434.342188 193.220901 433.079757 194.403928 
C 431.817326 195.586955 431.108 197.191709 431.108 198.864762 
C 431.108 200.537815 431.817326 202.142569 433.079757 203.325596 
C 434.342188 204.508622 436.054653 205.173333 437.84 205.173333 
z
" clip-path="url(#pe5023545fa)" style="fill: #8b9098; stroke: #2a2926; stroke-width: 0.7; stroke-linejoin: miter"/>
   </g>
   <g id="patch_16">
    <path d="M 482.72 205.173333 
C 484.505347 205.173333 486.217812 204.508622 487.480243 203.325596 
C 488.742674 202.142569 489.452 200.537815 489.452 198.864762 
C 489.452 197.191709 488.742674 195.586955 487.480243 194.403928 
C 486.217812 193.220901 484.505347 192.55619 482.72 192.55619 
C 480.934653 192.55619 479.222188 193.220901 477.959757 194.403928 
C 476.697326 195.586955 475.988 197.191709 475.988 198.864762 
C 475.988 200.537815 476.697326 202.142569 477.959757 203.325596 
C 479.222188 204.508622 480.934653 205.173333 482.72 205.173333 
z
" clip-path="url(#pe5023545fa)" style="fill: #8b9098; stroke: #2a2926; stroke-width: 0.7; stroke-linejoin: miter"/>
   </g>
   <g id="patch_17">
    <path d="M 527.6 205.173333 
C 529.385347 205.173333 531.097812 204.508622 532.360243 203.325596 
C 533.622674 202.142569 534.332 200.537815 534.332 198.864762 
C 534.332 197.191709 533.622674 195.586955 532.360243 194.403928 
C 531.097812 193.220901 529.385347 192.55619 527.6 192.55619 
C 525.814653 192.55619 524.102188 193.220901 522.839757 194.403928 
C 521.577326 195.586955 520.868 197.191709 520.868 198.864762 
C 520.868 200.537815 521.577326 202.142569 522.839757 203.325596 
C 524.102188 204.508622 525.814653 205.173333 527.6 205.173333 
z
" clip-path="url(#pe5023545fa)" style="fill: #8b9098; stroke: #2a2926; stroke-width: 0.7; stroke-linejoin: miter"/>
   </g>
   <g id="patch_18">
    <path d="M 97.54488 177.83619 
L 130.66632 177.83619 
L 130.66632 154.844952 
L 97.54488 154.844952 
z
" clip-path="url(#pe5023545fa)" style="fill: #d6ab73; opacity: 0.45; stroke: #2a2926; stroke-linejoin: miter"/>
   </g>
   <g id="patch_19">
    <path d="M 97.54488 154.844952 
L 114.1056 147.947581 
L 130.66632 154.844952 
L 114.1056 160.592762 
z
" clip-path="url(#pe5023545fa)" style="fill: #e6c392; opacity: 0.45; stroke: #2a2926; stroke-width: 0.8; stroke-linejoin: miter"/>
   </g>
   <g id="patch_20">
    <path d="M 600.20088 177.83619 
L 633.32232 177.83619 
L 633.32232 154.844952 
L 600.20088 154.844952 
z
" clip-path="url(#pe5023545fa)" style="fill: #d6ab73; stroke: #2a2926; stroke-linejoin: miter"/>
   </g>
   <g id="patch_21">
    <path d="M 600.20088 154.844952 
L 616.7616 147.947581 
L 633.32232 154.844952 
L 616.7616 160.592762 
z
" clip-path="url(#pe5023545fa)" style="fill: #e6c392; stroke: #2a2926; stroke-width: 0.8; stroke-linejoin: miter"/>
   </g>
   <g id="patch_22">
    <path d="M 149.762245 109.142857 
Q 369.171375 109.142857 587.015257 109.142857 
" clip-path="url(#pe5023545fa)" style="fill: none; stroke: #8b5e34; stroke-width: 1.4; stroke-linecap: round"/>
    <path d="M 582.215257 106.742857 
L 587.015257 109.142857 
L 582.215257 111.542857 
" clip-path="url(#pe5023545fa)" style="fill: none; stroke: #8b5e34; stroke-width: 1.4; stroke-linecap: round"/>
   </g>
   <g id="patch_23">
    <path d="M 81.5676 95.474286 
L 146.6436 95.474286 
Q 150.3836 95.474286 150.3836 91.969524 
L 150.3836 78.651429 
Q 150.3836 75.146667 146.6436 75.146667 
L 81.5676 75.146667 
Q 77.8276 75.146667 77.8276 78.651429 
L 77.8276 91.969524 
Q 77.8276 95.474286 81.5676 95.474286 
z
" clip-path="url(#pe5023545fa)" style="fill: #efe5d2"/>
   </g>
   <g id="patch_24">
    <path d="M 584.2236 95.474286 
L 649.2996 95.474286 
Q 653.0396 95.474286 653.0396 91.969524 
L 653.0396 78.651429 
Q 653.0396 75.146667 649.2996 75.146667 
L 584.2236 75.146667 
Q 580.4836 75.146667 580.4836 78.651429 
L 580.4836 91.969524 
Q 580.4836 95.474286 584.2236 95.474286 
z
" clip-path="url(#pe5023545fa)" style="fill: #efe5d2"/>
   </g>
   <g id="patch_25">
    <path d="M 673.9836 155.75619 
L 739.0596 155.75619 
Q 742.7996 155.75619 742.7996 152.251429 
L 742.7996 138.933333 
Q 742.7996 135.428571 739.0596 135.428571 
L 673.9836 135.428571 
Q 670.2436 135.428571 670.2436 138.933333 
L 670.2436 152.251429 
Q 670.2436 155.75619 673.9836 155.75619 
z
" clip-path="url(#pe5023545fa)" style="fill: #efe5d2"/>
   </g>
   <g id="line2d_1">
    <path d="M 63.84 257.04381 
L 63.84 241.622857 
" clip-path="url(#pe5023545fa)" style="fill: none; stroke: #2a2926; stroke-linecap: square"/>
   </g>
   <g id="line2d_2">
    <path d="M 189.504 257.04381 
L 189.504 241.622857 
" clip-path="url(#pe5023545fa)" style="fill: none; stroke: #2a2926; stroke-linecap: square"/>
   </g>
   <g id="line2d_3">
    <path d="M 315.168 257.04381 
L 315.168 241.622857 
" clip-path="url(#pe5023545fa)" style="fill: none; stroke: #2a2926; stroke-linecap: square"/>
   </g>
   <g id="line2d_4">
    <path d="M 440.832 257.04381 
L 440.832 241.622857 
" clip-path="url(#pe5023545fa)" style="fill: none; stroke: #2a2926; stroke-linecap: square"/>
   </g>
   <g id="line2d_5">
    <path d="M 566.496 257.04381 
L 566.496 241.622857 
" clip-path="url(#pe5023545fa)" style="fill: none; stroke: #2a2926; stroke-linecap: square"/>
   </g>
   <g id="line2d_6">
    <path d="M 692.16 257.04381 
L 692.16 241.622857 
" clip-path="url(#pe5023545fa)" style="fill: none; stroke: #2a2926; stroke-linecap: square"/>
   </g>
   <g id="line2d_7">
    <path d="M 114.1056 177.83619 
L 114.1056 154.844952 
" clip-path="url(#pe5023545fa)" style="fill: none; stroke: #8f6a3d; stroke-opacity: 0.45; stroke-width: 0.8; stroke-linecap: square"/>
   </g>
   <g id="line2d_8">
    <path d="M 616.7616 177.83619 
L 616.7616 154.844952 
" clip-path="url(#pe5023545fa)" style="fill: none; stroke: #8f6a3d; stroke-width: 0.8; stroke-linecap: square"/>
   </g>
   <g id="text_1">
    <!-- Esteira industrial em MU -->
    <g style="fill: #2a2926" transform="translate(48.88 41.657917) scale(0.12 -0.12)">
     <defs>
      <path id="DejaVuSans-Bold-45" d="M 588 4666 
L 3834 4666 
L 3834 3756 
L 1791 3756 
L 1791 2888 
L 3713 2888 
L 3713 1978 
L 1791 1978 
L 1791 909 
L 3903 909 
L 3903 0 
L 588 0 
L 588 4666 
z
" transform="scale(0.015625)"/>
      <path id="DejaVuSans-Bold-73" d="M 3272 3391 
L 3272 2541 
Q 2913 2691 2578 2766 
Q 2244 2841 1947 2841 
Q 1628 2841 1473 2761 
Q 1319 2681 1319 2516 
Q 1319 2381 1436 2309 
Q 1553 2238 1856 2203 
L 2053 2175 
Q 2913 2066 3209 1816 
Q 3506 1566 3506 1031 
Q 3506 472 3093 190 
Q 2681 -91 1863 -91 
Q 1516 -91 1145 -36 
Q 775 19 384 128 
L 384 978 
Q 719 816 1070 734 
Q 1422 653 1784 653 
Q 2113 653 2278 743 
Q 2444 834 2444 1013 
Q 2444 1163 2330 1236 
Q 2216 1309 1875 1350 
L 1678 1375 
Q 931 1469 631 1722 
Q 331 1975 331 2491 
Q 331 3047 712 3315 
Q 1094 3584 1881 3584 
Q 2191 3584 2531 3537 
Q 2872 3491 3272 3391 
z
" transform="scale(0.015625)"/>
      <path id="DejaVuSans-Bold-74" d="M 1759 4494 
L 1759 3500 
L 2913 3500 
L 2913 2700 
L 1759 2700 
L 1759 1216 
Q 1759 972 1856 886 
Q 1953 800 2241 800 
L 2816 800 
L 2816 0 
L 1856 0 
Q 1194 0 917 276 
Q 641 553 641 1216 
L 641 2700 
L 84 2700 
L 84 3500 
L 641 3500 
L 641 4494 
L 1759 4494 
z
" transform="scale(0.015625)"/>
      <path id="DejaVuSans-Bold-65" d="M 4031 1759 
L 4031 1441 
L 1416 1441 
Q 1456 1047 1700 850 
Q 1944 653 2381 653 
Q 2734 653 3104 758 
Q 3475 863 3866 1075 
L 3866 213 
Q 3469 63 3072 -14 
Q 2675 -91 2278 -91 
Q 1328 -91 801 392 
Q 275 875 275 1747 
Q 275 2603 792 3093 
Q 1309 3584 2216 3584 
Q 3041 3584 3536 3087 
Q 4031 2591 4031 1759 
z
M 2881 2131 
Q 2881 2450 2695 2645 
Q 2509 2841 2209 2841 
Q 1884 2841 1681 2658 
Q 1478 2475 1428 2131 
L 2881 2131 
z
" transform="scale(0.015625)"/>
      <path id="DejaVuSans-Bold-69" d="M 538 3500 
L 1656 3500 
L 1656 0 
L 538 0 
L 538 3500 
z
M 538 4863 
L 1656 4863 
L 1656 3950 
L 538 3950 
L 538 4863 
z
" transform="scale(0.015625)"/>
      <path id="DejaVuSans-Bold-72" d="M 3138 2547 
Q 2991 2616 2845 2648 
Q 2700 2681 2553 2681 
Q 2122 2681 1889 2404 
Q 1656 2128 1656 1613 
L 1656 0 
L 538 0 
L 538 3500 
L 1656 3500 
L 1656 2925 
Q 1872 3269 2151 3426 
Q 2431 3584 2822 3584 
Q 2878 3584 2943 3579 
Q 3009 3575 3134 3559 
L 3138 2547 
z
" transform="scale(0.015625)"/>
      <path id="DejaVuSans-Bold-61" d="M 2106 1575 
Q 1756 1575 1579 1456 
Q 1403 1338 1403 1106 
Q 1403 894 1545 773 
Q 1688 653 1941 653 
Q 2256 653 2472 879 
Q 2688 1106 2688 1447 
L 2688 1575 
L 2106 1575 
z
M 3816 1997 
L 3816 0 
L 2688 0 
L 2688 519 
Q 2463 200 2181 54 
Q 1900 -91 1497 -91 
Q 953 -91 614 226 
Q 275 544 275 1050 
Q 275 1666 698 1953 
Q 1122 2241 2028 2241 
L 2688 2241 
L 2688 2328 
Q 2688 2594 2478 2717 
Q 2269 2841 1825 2841 
Q 1466 2841 1156 2769 
Q 847 2697 581 2553 
L 581 3406 
Q 941 3494 1303 3539 
Q 1666 3584 2028 3584 
Q 2975 3584 3395 3211 
Q 3816 2838 3816 1997 
z
" transform="scale(0.015625)"/>
      <path id="DejaVuSans-Bold-20" transform="scale(0.015625)"/>
      <path id="DejaVuSans-Bold-6e" d="M 4056 2131 
L 4056 0 
L 2931 0 
L 2931 347 
L 2931 1631 
Q 2931 2084 2911 2256 
Q 2891 2428 2841 2509 
Q 2775 2619 2662 2680 
Q 2550 2741 2406 2741 
Q 2056 2741 1856 2470 
Q 1656 2200 1656 1722 
L 1656 0 
L 538 0 
L 538 3500 
L 1656 3500 
L 1656 2988 
Q 1909 3294 2193 3439 
Q 2478 3584 2822 3584 
Q 3428 3584 3742 3212 
Q 4056 2841 4056 2131 
z
" transform="scale(0.015625)"/>
      <path id="DejaVuSans-Bold-64" d="M 2919 2988 
L 2919 4863 
L 4044 4863 
L 4044 0 
L 2919 0 
L 2919 506 
Q 2688 197 2409 53 
Q 2131 -91 1766 -91 
Q 1119 -91 703 423 
Q 288 938 288 1747 
Q 288 2556 703 3070 
Q 1119 3584 1766 3584 
Q 2128 3584 2408 3439 
Q 2688 3294 2919 2988 
z
M 2181 722 
Q 2541 722 2730 984 
Q 2919 1247 2919 1747 
Q 2919 2247 2730 2509 
Q 2541 2772 2181 2772 
Q 1825 2772 1636 2509 
Q 1447 2247 1447 1747 
Q 1447 1247 1636 984 
Q 1825 722 2181 722 
z
" transform="scale(0.015625)"/>
      <path id="DejaVuSans-Bold-75" d="M 500 1363 
L 500 3500 
L 1625 3500 
L 1625 3150 
Q 1625 2866 1622 2436 
Q 1619 2006 1619 1863 
Q 1619 1441 1641 1255 
Q 1663 1069 1716 984 
Q 1784 875 1895 815 
Q 2006 756 2150 756 
Q 2500 756 2700 1025 
Q 2900 1294 2900 1772 
L 2900 3500 
L 4019 3500 
L 4019 0 
L 2900 0 
L 2900 506 
Q 2647 200 2364 54 
Q 2081 -91 1741 -91 
Q 1134 -91 817 281 
Q 500 653 500 1363 
z
" transform="scale(0.015625)"/>
      <path id="DejaVuSans-Bold-6c" d="M 538 4863 
L 1656 4863 
L 1656 0 
L 538 0 
L 538 4863 
z
" transform="scale(0.015625)"/>
      <path id="DejaVuSans-Bold-6d" d="M 3781 2919 
Q 3994 3244 4286 3414 
Q 4578 3584 4928 3584 
Q 5531 3584 5847 3212 
Q 6163 2841 6163 2131 
L 6163 0 
L 5038 0 
L 5038 1825 
Q 5041 1866 5042 1909 
Q 5044 1953 5044 2034 
Q 5044 2406 4934 2573 
Q 4825 2741 4581 2741 
Q 4263 2741 4089 2478 
Q 3916 2216 3909 1719 
L 3909 0 
L 2784 0 
L 2784 1825 
Q 2784 2406 2684 2573 
Q 2584 2741 2328 2741 
Q 2006 2741 1831 2477 
Q 1656 2213 1656 1722 
L 1656 0 
L 531 0 
L 531 3500 
L 1656 3500 
L 1656 2988 
Q 1863 3284 2130 3434 
Q 2397 3584 2719 3584 
Q 3081 3584 3359 3409 
Q 3638 3234 3781 2919 
z
" transform="scale(0.015625)"/>
      <path id="DejaVuSans-Bold-4d" d="M 588 4666 
L 2119 4666 
L 3181 2169 
L 4250 4666 
L 5778 4666 
L 5778 0 
L 4641 0 
L 4641 3413 
L 3566 897 
L 2803 897 
L 1728 3413 
L 1728 0 
L 588 0 
L 588 4666 
z
" transform="scale(0.015625)"/>
      <path id="DejaVuSans-Bold-55" d="M 588 4666 
L 1791 4666 
L 1791 1869 
Q 1791 1291 1980 1042 
Q 2169 794 2597 794 
Q 3028 794 3217 1042 
Q 3406 1291 3406 1869 
L 3406 4666 
L 4609 4666 
L 4609 1869 
Q 4609 878 4112 393 
Q 3616 -91 2597 -91 
Q 1581 -91 1084 393 
Q 588 878 588 1869 
L 588 4666 
z
" transform="scale(0.015625)"/>
     </defs>
     <use xlink:href="#DejaVuSans-Bold-45"/>
     <use xlink:href="#DejaVuSans-Bold-73" x="68.310547"/>
     <use xlink:href="#DejaVuSans-Bold-74" x="127.832031"/>
     <use xlink:href="#DejaVuSans-Bold-65" x="175.634766"/>
     <use xlink:href="#DejaVuSans-Bold-69" x="243.457031"/>
     <use xlink:href="#DejaVuSans-Bold-72" x="277.734375"/>
     <use xlink:href="#DejaVuSans-Bold-61" x="327.050781"/>
     <use xlink:href="#DejaVuSans-Bold-20" x="394.53125"/>
     <use xlink:href="#DejaVuSans-Bold-69" x="429.345703"/>
     <use xlink:href="#DejaVuSans-Bold-6e" x="463.623047"/>
     <use xlink:href="#DejaVuSans-Bold-64" x="534.814453"/>
     <use xlink:href="#DejaVuSans-Bold-75" x="606.396484"/>
     <use xlink:href="#DejaVuSans-Bold-73" x="677.587891"/>
     <use xlink:href="#DejaVuSans-Bold-74" x="737.109375"/>
     <use xlink:href="#DejaVuSans-Bold-72" x="784.912109"/>
     <use xlink:href="#DejaVuSans-Bold-69" x="834.228516"/>
     <use xlink:href="#DejaVuSans-Bold-61" x="868.505859"/>
     <use xlink:href="#DejaVuSans-Bold-6c" x="935.986328"/>
     <use xlink:href="#DejaVuSans-Bold-20" x="970.263672"/>
     <use xlink:href="#DejaVuSans-Bold-65" x="1005.078125"/>
     <use xlink:href="#DejaVuSans-Bold-6d" x="1072.900391"/>
     <use xlink:href="#DejaVuSans-Bold-20" x="1177.099609"/>
     <use xlink:href="#DejaVuSans-Bold-4d" x="1211.914062"/>
     <use xlink:href="#DejaVuSans-Bold-55" x="1311.425781"/>
    </g>
   </g>
   <g id="text_2">
    <!-- 0 -->
    <g style="fill: #665f56" transform="translate(61.295 277.84256) scale(0.08 -0.08)">
     <defs>
      <path id="DejaVuSans-30" d="M 2034 4250 
Q 1547 4250 1301 3770 
Q 1056 3291 1056 2328 
Q 1056 1369 1301 889 
Q 1547 409 2034 409 
Q 2525 409 2770 889 
Q 3016 1369 3016 2328 
Q 3016 3291 2770 3770 
Q 2525 4250 2034 4250 
z
M 2034 4750 
Q 2819 4750 3233 4129 
Q 3647 3509 3647 2328 
Q 3647 1150 3233 529 
Q 2819 -91 2034 -91 
Q 1250 -91 836 529 
Q 422 1150 422 2328 
Q 422 3509 836 4129 
Q 1250 4750 2034 4750 
z
" transform="scale(0.015625)"/>
     </defs>
     <use xlink:href="#DejaVuSans-30"/>
    </g>
   </g>
   <g id="text_3">
    <!-- 3 -->
    <g style="fill: #665f56" transform="translate(186.959 277.84256) scale(0.08 -0.08)">
     <defs>
      <path id="DejaVuSans-33" d="M 2597 2516 
Q 3050 2419 3304 2112 
Q 3559 1806 3559 1356 
Q 3559 666 3084 287 
Q 2609 -91 1734 -91 
Q 1441 -91 1130 -33 
Q 819 25 488 141 
L 488 750 
Q 750 597 1062 519 
Q 1375 441 1716 441 
Q 2309 441 2620 675 
Q 2931 909 2931 1356 
Q 2931 1769 2642 2001 
Q 2353 2234 1838 2234 
L 1294 2234 
L 1294 2753 
L 1863 2753 
Q 2328 2753 2575 2939 
Q 2822 3125 2822 3475 
Q 2822 3834 2567 4026 
Q 2313 4219 1838 4219 
Q 1578 4219 1281 4162 
Q 984 4106 628 3988 
L 628 4550 
Q 988 4650 1302 4700 
Q 1616 4750 1894 4750 
Q 2613 4750 3031 4423 
Q 3450 4097 3450 3541 
Q 3450 3153 3228 2886 
Q 3006 2619 2597 2516 
z
" transform="scale(0.015625)"/>
     </defs>
     <use xlink:href="#DejaVuSans-33"/>
    </g>
   </g>
   <g id="text_4">
    <!-- 6 -->
    <g style="fill: #665f56" transform="translate(312.623 277.84256) scale(0.08 -0.08)">
     <defs>
      <path id="DejaVuSans-36" d="M 2113 2584 
Q 1688 2584 1439 2293 
Q 1191 2003 1191 1497 
Q 1191 994 1439 701 
Q 1688 409 2113 409 
Q 2538 409 2786 701 
Q 3034 994 3034 1497 
Q 3034 2003 2786 2293 
Q 2538 2584 2113 2584 
z
M 3366 4563 
L 3366 3988 
Q 3128 4100 2886 4159 
Q 2644 4219 2406 4219 
Q 1781 4219 1451 3797 
Q 1122 3375 1075 2522 
Q 1259 2794 1537 2939 
Q 1816 3084 2150 3084 
Q 2853 3084 3261 2657 
Q 3669 2231 3669 1497 
Q 3669 778 3244 343 
Q 2819 -91 2113 -91 
Q 1303 -91 875 529 
Q 447 1150 447 2328 
Q 447 3434 972 4092 
Q 1497 4750 2381 4750 
Q 2619 4750 2861 4703 
Q 3103 4656 3366 4563 
z
" transform="scale(0.015625)"/>
     </defs>
     <use xlink:href="#DejaVuSans-36"/>
    </g>
   </g>
   <g id="text_5">
    <!-- 9 -->
    <g style="fill: #665f56" transform="translate(438.287 277.84256) scale(0.08 -0.08)">
     <defs>
      <path id="DejaVuSans-39" d="M 703 97 
L 703 672 
Q 941 559 1184 500 
Q 1428 441 1663 441 
Q 2288 441 2617 861 
Q 2947 1281 2994 2138 
Q 2813 1869 2534 1725 
Q 2256 1581 1919 1581 
Q 1219 1581 811 2004 
Q 403 2428 403 3163 
Q 403 3881 828 4315 
Q 1253 4750 1959 4750 
Q 2769 4750 3195 4129 
Q 3622 3509 3622 2328 
Q 3622 1225 3098 567 
Q 2575 -91 1691 -91 
Q 1453 -91 1209 -44 
Q 966 3 703 97 
z
M 1959 2075 
Q 2384 2075 2632 2365 
Q 2881 2656 2881 3163 
Q 2881 3666 2632 3958 
Q 2384 4250 1959 4250 
Q 1534 4250 1286 3958 
Q 1038 3666 1038 3163 
Q 1038 2656 1286 2365 
Q 1534 2075 1959 2075 
z
" transform="scale(0.015625)"/>
     </defs>
     <use xlink:href="#DejaVuSans-39"/>
    </g>
   </g>
   <g id="text_6">
    <!-- 12 -->
    <g style="fill: #665f56" transform="translate(561.406 277.84256) scale(0.08 -0.08)">
     <defs>
      <path id="DejaVuSans-31" d="M 794 531 
L 1825 531 
L 1825 4091 
L 703 3866 
L 703 4441 
L 1819 4666 
L 2450 4666 
L 2450 531 
L 3481 531 
L 3481 0 
L 794 0 
L 794 531 
z
" transform="scale(0.015625)"/>
      <path id="DejaVuSans-32" d="M 1228 531 
L 3431 531 
L 3431 0 
L 469 0 
L 469 531 
Q 828 903 1448 1529 
Q 2069 2156 2228 2338 
Q 2531 2678 2651 2914 
Q 2772 3150 2772 3378 
Q 2772 3750 2511 3984 
Q 2250 4219 1831 4219 
Q 1534 4219 1204 4116 
Q 875 4013 500 3803 
L 500 4441 
Q 881 4594 1212 4672 
Q 1544 4750 1819 4750 
Q 2544 4750 2975 4387 
Q 3406 4025 3406 3419 
Q 3406 3131 3298 2873 
Q 3191 2616 2906 2266 
Q 2828 2175 2409 1742 
Q 1991 1309 1228 531 
z
" transform="scale(0.015625)"/>
     </defs>
     <use xlink:href="#DejaVuSans-31"/>
     <use xlink:href="#DejaVuSans-32" x="63.623047"/>
    </g>
   </g>
   <g id="text_7">
    <!-- 15 -->
    <g style="fill: #665f56" transform="translate(687.07 277.84256) scale(0.08 -0.08)">
     <defs>
      <path id="DejaVuSans-35" d="M 691 4666 
L 3169 4666 
L 3169 4134 
L 1269 4134 
L 1269 2991 
Q 1406 3038 1543 3061 
Q 1681 3084 1819 3084 
Q 2600 3084 3056 2656 
Q 3513 2228 3513 1497 
Q 3513 744 3044 326 
Q 2575 -91 1722 -91 
Q 1428 -91 1123 -41 
Q 819 9 494 109 
L 494 744 
Q 775 591 1075 516 
Q 1375 441 1709 441 
Q 2250 441 2565 725 
Q 2881 1009 2881 1497 
Q 2881 1984 2565 2268 
Q 2250 2553 1709 2553 
Q 1456 2553 1204 2497 
Q 953 2441 691 2322 
L 691 4666 
z
" transform="scale(0.015625)"/>
     </defs>
     <use xlink:href="#DejaVuSans-31"/>
     <use xlink:href="#DejaVuSans-35" x="63.623047"/>
    </g>
   </g>
   <g id="text_8">
    <!-- S (m) -->
    <g style="fill: #2a2926" transform="translate(701.136 247.931429) scale(0.09 -0.09)">
     <defs>
      <path id="DejaVuSans-Bold-53" d="M 3834 4519 
L 3834 3531 
Q 3450 3703 3084 3790 
Q 2719 3878 2394 3878 
Q 1963 3878 1756 3759 
Q 1550 3641 1550 3391 
Q 1550 3203 1689 3098 
Q 1828 2994 2194 2919 
L 2706 2816 
Q 3484 2659 3812 2340 
Q 4141 2022 4141 1434 
Q 4141 663 3683 286 
Q 3225 -91 2284 -91 
Q 1841 -91 1394 -6 
Q 947 78 500 244 
L 500 1259 
Q 947 1022 1364 901 
Q 1781 781 2169 781 
Q 2563 781 2772 912 
Q 2981 1044 2981 1288 
Q 2981 1506 2839 1625 
Q 2697 1744 2272 1838 
L 1806 1941 
Q 1106 2091 782 2419 
Q 459 2747 459 3303 
Q 459 4000 909 4375 
Q 1359 4750 2203 4750 
Q 2588 4750 2994 4692 
Q 3400 4634 3834 4519 
z
" transform="scale(0.015625)"/>
      <path id="DejaVuSans-Bold-28" d="M 2413 -844 
L 1484 -844 
Q 1006 -72 778 623 
Q 550 1319 550 2003 
Q 550 2688 779 3389 
Q 1009 4091 1484 4856 
L 2413 4856 
Q 2013 4116 1813 3408 
Q 1613 2700 1613 2009 
Q 1613 1319 1811 609 
Q 2009 -100 2413 -844 
z
" transform="scale(0.015625)"/>
      <path id="DejaVuSans-Bold-29" d="M 513 -844 
Q 913 -100 1113 609 
Q 1313 1319 1313 2009 
Q 1313 2700 1113 3408 
Q 913 4116 513 4856 
L 1441 4856 
Q 1916 4091 2145 3389 
Q 2375 2688 2375 2003 
Q 2375 1319 2147 623 
Q 1919 -72 1441 -844 
L 513 -844 
z
" transform="scale(0.015625)"/>
     </defs>
     <use xlink:href="#DejaVuSans-Bold-53"/>
     <use xlink:href="#DejaVuSans-Bold-20" x="72.021484"/>
     <use xlink:href="#DejaVuSans-Bold-28" x="106.835938"/>
     <use xlink:href="#DejaVuSans-Bold-6d" x="152.539062"/>
     <use xlink:href="#DejaVuSans-Bold-29" x="256.738281"/>
    </g>
   </g>
   <g id="text_9">
    <!-- v = 0,8 m/s -->
    <g style="fill: #8b5e34" transform="translate(345.951725 100.731429) scale(0.08 -0.08)">
     <defs>
      <path id="DejaVuSans-76" d="M 191 3500 
L 800 3500 
L 1894 563 
L 2988 3500 
L 3597 3500 
L 2284 0 
L 1503 0 
L 191 3500 
z
" transform="scale(0.015625)"/>
      <path id="DejaVuSans-20" transform="scale(0.015625)"/>
      <path id="DejaVuSans-3d" d="M 678 2906 
L 4684 2906 
L 4684 2381 
L 678 2381 
L 678 2906 
z
M 678 1631 
L 4684 1631 
L 4684 1100 
L 678 1100 
L 678 1631 
z
" transform="scale(0.015625)"/>
      <path id="DejaVuSans-2c" d="M 750 794 
L 1409 794 
L 1409 256 
L 897 -744 
L 494 -744 
L 750 256 
L 750 794 
z
" transform="scale(0.015625)"/>
      <path id="DejaVuSans-38" d="M 2034 2216 
Q 1584 2216 1326 1975 
Q 1069 1734 1069 1313 
Q 1069 891 1326 650 
Q 1584 409 2034 409 
Q 2484 409 2743 651 
Q 3003 894 3003 1313 
Q 3003 1734 2745 1975 
Q 2488 2216 2034 2216 
z
M 1403 2484 
Q 997 2584 770 2862 
Q 544 3141 544 3541 
Q 544 4100 942 4425 
Q 1341 4750 2034 4750 
Q 2731 4750 3128 4425 
Q 3525 4100 3525 3541 
Q 3525 3141 3298 2862 
Q 3072 2584 2669 2484 
Q 3125 2378 3379 2068 
Q 3634 1759 3634 1313 
Q 3634 634 3220 271 
Q 2806 -91 2034 -91 
Q 1263 -91 848 271 
Q 434 634 434 1313 
Q 434 1759 690 2068 
Q 947 2378 1403 2484 
z
M 1172 3481 
Q 1172 3119 1398 2916 
Q 1625 2713 2034 2713 
Q 2441 2713 2670 2916 
Q 2900 3119 2900 3481 
Q 2900 3844 2670 4047 
Q 2441 4250 2034 4250 
Q 1625 4250 1398 4047 
Q 1172 3844 1172 3481 
z
" transform="scale(0.015625)"/>
      <path id="DejaVuSans-6d" d="M 3328 2828 
Q 3544 3216 3844 3400 
Q 4144 3584 4550 3584 
Q 5097 3584 5394 3201 
Q 5691 2819 5691 2113 
L 5691 0 
L 5113 0 
L 5113 2094 
Q 5113 2597 4934 2840 
Q 4756 3084 4391 3084 
Q 3944 3084 3684 2787 
Q 3425 2491 3425 1978 
L 3425 0 
L 2847 0 
L 2847 2094 
Q 2847 2600 2669 2842 
Q 2491 3084 2119 3084 
Q 1678 3084 1418 2786 
Q 1159 2488 1159 1978 
L 1159 0 
L 581 0 
L 581 3500 
L 1159 3500 
L 1159 2956 
Q 1356 3278 1631 3431 
Q 1906 3584 2284 3584 
Q 2666 3584 2933 3390 
Q 3200 3197 3328 2828 
z
" transform="scale(0.015625)"/>
      <path id="DejaVuSans-2f" d="M 1625 4666 
L 2156 4666 
L 531 -594 
L 0 -594 
L 1625 4666 
z
" transform="scale(0.015625)"/>
      <path id="DejaVuSans-73" d="M 2834 3397 
L 2834 2853 
Q 2591 2978 2328 3040 
Q 2066 3103 1784 3103 
Q 1356 3103 1142 2972 
Q 928 2841 928 2578 
Q 928 2378 1081 2264 
Q 1234 2150 1697 2047 
L 1894 2003 
Q 2506 1872 2764 1633 
Q 3022 1394 3022 966 
Q 3022 478 2636 193 
Q 2250 -91 1575 -91 
Q 1294 -91 989 -36 
Q 684 19 347 128 
L 347 722 
Q 666 556 975 473 
Q 1284 391 1588 391 
Q 1994 391 2212 530 
Q 2431 669 2431 922 
Q 2431 1156 2273 1281 
Q 2116 1406 1581 1522 
L 1381 1569 
Q 847 1681 609 1914 
Q 372 2147 372 2553 
Q 372 3047 722 3315 
Q 1072 3584 1716 3584 
Q 2034 3584 2315 3537 
Q 2597 3491 2834 3397 
z
" transform="scale(0.015625)"/>
     </defs>
     <use xlink:href="#DejaVuSans-76"/>
     <use xlink:href="#DejaVuSans-20" x="59.179688"/>
     <use xlink:href="#DejaVuSans-3d" x="90.966797"/>
     <use xlink:href="#DejaVuSans-20" x="174.755859"/>
     <use xlink:href="#DejaVuSans-30" x="206.542969"/>
     <use xlink:href="#DejaVuSans-2c" x="270.166016"/>
     <use xlink:href="#DejaVuSans-38" x="301.953125"/>
     <use xlink:href="#DejaVuSans-20" x="365.576172"/>
     <use xlink:href="#DejaVuSans-6d" x="397.363281"/>
     <use xlink:href="#DejaVuSans-2f" x="494.775391"/>
     <use xlink:href="#DejaVuSans-73" x="528.466797"/>
    </g>
   </g>
   <g id="text_10">
    <!-- x0 = 1,2 m -->
    <g style="fill: #2a2926" transform="translate(91.769975 87.517976) scale(0.08 -0.08)">
     <defs>
      <path id="DejaVuSans-78" d="M 3513 3500 
L 2247 1797 
L 3578 0 
L 2900 0 
L 1881 1375 
L 863 0 
L 184 0 
L 1544 1831 
L 300 3500 
L 978 3500 
L 1906 2253 
L 2834 3500 
L 3513 3500 
z
" transform="scale(0.015625)"/>
     </defs>
     <use xlink:href="#DejaVuSans-78"/>
     <use xlink:href="#DejaVuSans-30" x="59.179688"/>
     <use xlink:href="#DejaVuSans-20" x="122.802734"/>
     <use xlink:href="#DejaVuSans-3d" x="154.589844"/>
     <use xlink:href="#DejaVuSans-20" x="238.378906"/>
     <use xlink:href="#DejaVuSans-31" x="270.166016"/>
     <use xlink:href="#DejaVuSans-2c" x="333.789062"/>
     <use xlink:href="#DejaVuSans-32" x="365.576172"/>
     <use xlink:href="#DejaVuSans-20" x="429.199219"/>
     <use xlink:href="#DejaVuSans-6d" x="460.986328"/>
    </g>
   </g>
   <g id="text_11">
    <!-- x = 13,2 m -->
    <g style="fill: #2a2926" transform="translate(594.425975 87.517976) scale(0.08 -0.08)">
     <use xlink:href="#DejaVuSans-78"/>
     <use xlink:href="#DejaVuSans-20" x="59.179688"/>
     <use xlink:href="#DejaVuSans-3d" x="90.966797"/>
     <use xlink:href="#DejaVuSans-20" x="174.755859"/>
     <use xlink:href="#DejaVuSans-31" x="206.542969"/>
     <use xlink:href="#DejaVuSans-33" x="270.166016"/>
     <use xlink:href="#DejaVuSans-2c" x="333.789062"/>
     <use xlink:href="#DejaVuSans-32" x="365.576172"/>
     <use xlink:href="#DejaVuSans-20" x="429.199219"/>
     <use xlink:href="#DejaVuSans-6d" x="460.986328"/>
    </g>
   </g>
   <g id="text_12">
    <!-- t = 15 s -->
    <g style="fill: #2a2926" transform="translate(690.6141 147.799881) scale(0.08 -0.08)">
     <defs>
      <path id="DejaVuSans-74" d="M 1172 4494 
L 1172 3500 
L 2356 3500 
L 2356 3053 
L 1172 3053 
L 1172 1153 
Q 1172 725 1289 603 
Q 1406 481 1766 481 
L 2356 481 
L 2356 0 
L 1766 0 
Q 1100 0 847 248 
Q 594 497 594 1153 
L 594 3053 
L 172 3053 
L 172 3500 
L 594 3500 
L 594 4494 
L 1172 4494 
z
" transform="scale(0.015625)"/>
     </defs>
     <use xlink:href="#DejaVuSans-74"/>
     <use xlink:href="#DejaVuSans-20" x="39.208984"/>
     <use xlink:href="#DejaVuSans-3d" x="70.996094"/>
     <use xlink:href="#DejaVuSans-20" x="154.785156"/>
     <use xlink:href="#DejaVuSans-31" x="186.572266"/>
     <use xlink:href="#DejaVuSans-35" x="250.195312"/>
     <use xlink:href="#DejaVuSans-20" x="313.818359"/>
     <use xlink:href="#DejaVuSans-73" x="345.605469"/>
    </g>
   </g>
  </g>
 </g>
 <defs>
  <clipPath id="pe5023545fa">
   <rect x="4" y="4" width="748" height="294.4"/>
  </clipPath>
 </defs>
</svg>
