<?xml version="1.0" encoding="utf-8" standalone="no"?>
<!DOCTYPE svg PUBLIC "-//W3C//DTD SVG 1.1//EN"
  "http://www.w3.org/Graphics/SVG/1.1/DTD/svg11.dtd">
<svg xmlns:xlink="http://www.w3.org/1999/xlink" width="756pt" height="302.4pt" viewBox="0 0 756 302.4" xmlns="http://www.w3.org/2000/svg" version="1.1">
 <metadata>
  <rdf:RDF xmlns:dc="http://purl.org/dc/elements/1.1/" xmlns:cc="http://creativecommons.org/ns#" xmlns:rdf="http://www.w3.org/1999/02/22-rdf-syntax-ns#">
   <cc:Work>
    <dc:type rdf:resource="http://purl.org/dc/dcmitype/StillImage"/>
    <dc:date>2026-03-26T07:11:11.665043</dc:date>
    <dc:format>image/svg+xml</dc:format>
    <dc:creator>
     <cc:Agent>
      <dc:title>Matplotlib v3.7.5, https://matplotlib.org/</dc:title>
     </cc:Agent>
    </dc:creator>
   </cc:Work>
  </rdf:RDF>
 </metadata>
 <defs>
  <style type="text/css">*{stroke-linejoin: round; stroke-linecap: butt}</style>
 </defs>
 <g id="figure_1">
  <g id="patch_1">
   <path d="M 0 302.4 
L 756 302.4 
L 756 0 
L 0 0 
z
" style="fill: #f6f1e6"/>
  </g>
  <g id="axes_1">
   <g id="patch_2">
    <path d="M 11.48 291.390476 
L 744.52 291.390476 
L 744.52 11.009524 
L 11.48 11.009524 
z
" clip-path="url(#pb2b44e7d91)" style="fill: #f6f1e6; stroke: #d8c1a2; stroke-width: 1.4; stroke-linejoin: miter"/>
   </g>
   <g id="patch_3">
    <path d="M 40.278 53.417143 
L 251.962 53.417143 
Q 260.19 53.417143 260.19 45.706667 
L 260.19 28.182857 
Q 260.19 20.472381 251.962 20.472381 
L 40.278 20.472381 
Q 32.05 20.472381 32.05 28.182857 
L 32.05 45.706667 
Q 32.05 53.417143 40.278 53.417143 
z
" clip-path="url(#pb2b44e7d91)" style="fill: #efe5d2"/>
   </g>
   <g id="patch_4">
    <path d="M 65.838973 249.333333 
Q 377.998401 249.333333 688.592582 249.333333 
" clip-path="url(#pb2b44e7d91)" style="fill: none; stroke: #2a2926; stroke-width: 1.4; stroke-linecap: round"/>
    <path d="M 683.792582 246.933333 
L 688.592582 249.333333 
L 683.792582 251.733333 
z
" clip-path="url(#pb2b44e7d91)" style="fill: #2a2926; stroke: #2a2926; stroke-width: 1.4; stroke-linecap: round"/>
   </g>
   <g id="patch_5">
    <path d="M 63.84 219.192381 
L 692.16 219.192381 
L 692.16 211.481905 
L 63.84 211.481905 
z
" clip-path="url(#pb2b44e7d91)" style="fill: #30363b; stroke: #2a2926; stroke-width: 0.8; stroke-linejoin: miter"/>
   </g>
   <g id="patch_6">
    <path d="M 63.84 182.041905 
L 692.16 182.041905 
L 692.16 174.331429 
L 63.84 174.331429 
z
" clip-path="url(#pb2b44e7d91)" style="fill: #30363b; stroke: #2a2926; stroke-width: 0.8; stroke-linejoin: miter"/>
   </g>
   <g id="patch_7">
    <path d="M 60.6984 200.154514 
L 117.2472 200.154514 
L 117.2472 182.490514 
L 60.6984 182.490514 
z
" clip-path="url(#pb2b44e7d91)" style="fill: #8b9098; opacity: 0.45; stroke: #2a2926; stroke-linejoin: miter"/>
   </g>
   <g id="patch_8">
    <path d="M 82.6896 182.490514 
L 95.256 182.490514 
L 95.256 170.714514 
L 82.6896 170.714514 
z
" clip-path="url(#pb2b44e7d91)" style="fill: #8b9098; opacity: 0.45; stroke: #2a2926; stroke-linejoin: miter"/>
   </g>
   <g id="patch_9">
    <path d="M 71.37984 208.103314 
C 73.296113 208.103314 75.134158 207.389858 76.489167 206.120076 
C 77.844177 204.850294 78.60552 203.127858 78.60552 201.332114 
C 78.60552 199.536371 77.844177 197.813935 76.489167 196.544153 
C 75.134158 195.274371 73.296113 194.560914 71.37984 194.560914 
C 69.463567 194.560914 67.625522 195.274371 66.270513 196.544153 
C 64.915503 197.813935 64.15416 199.536371 64.15416 201.332114 
C 64.15416 203.127858 64.915503 204.850294 66.270513 206.120076 
C 67.625522 207.389858 69.463567 208.103314 71.37984 208.103314 
z
" clip-path="url(#pb2b44e7d91)" style="fill: #30363b; opacity: 0.45; stroke: #2a2926; stroke-linejoin: miter"/>
   </g>
   <g id="patch_10">
    <path d="M 71.37984 203.981714 
C 72.129686 203.981714 72.848921 203.702536 73.379142 203.205664 
C 73.909363 202.708793 74.20728 202.034796 74.20728 201.332114 
C 74.20728 200.629432 73.909363 199.955435 73.379142 199.458564 
C 72.848921 198.961693 72.129686 198.682514 71.37984 198.682514 
C 70.629994 198.682514 69.910759 198.961693 69.380538 199.458564 
C 68.850317 199.955435 68.5524 200.629432 68.5524 201.332114 
C 68.5524 202.034796 68.850317 202.708793 69.380538 203.205664 
C 69.910759 203.702536 70.629994 203.981714 71.37984 203.981714 
z
" clip-path="url(#pb2b44e7d91)" style="fill: #d8dade; opacity: 0.45"/>
   </g>
   <g id="patch_11">
    <path d="M 106.56576 208.103314 
C 108.482033 208.103314 110.320078 207.389858 111.675087 206.120076 
C 113.030097 204.850294 113.79144 203.127858 113.79144 201.332114 
C 113.79144 199.536371 113.030097 197.813935 111.675087 196.544153 
C 110.320078 195.274371 108.482033 194.560914 106.56576 194.560914 
C 104.649487 194.560914 102.811442 195.274371 101.456433 196.544153 
C 100.101423 197.813935 99.34008 199.536371 99.34008 201.332114 
C 99.34008 203.127858 100.101423 204.850294 101.456433 206.120076 
C 102.811442 207.389858 104.649487 208.103314 106.56576 208.103314 
z
" clip-path="url(#pb2b44e7d91)" style="fill: #30363b; opacity: 0.45; stroke: #2a2926; stroke-linejoin: miter"/>
   </g>
   <g id="patch_12">
    <path d="M 106.56576 203.981714 
C 107.315606 203.981714 108.034841 203.702536 108.565062 203.205664 
C 109.095283 202.708793 109.3932 202.034796 109.3932 201.332114 
C 109.3932 200.629432 109.095283 199.955435 108.565062 199.458564 
C 108.034841 198.961693 107.315606 198.682514 106.56576 198.682514 
C 105.815914 198.682514 105.096679 198.961693 104.566458 199.458564 
C 104.036237 199.955435 103.73832 200.629432 103.73832 201.332114 
C 103.73832 202.034796 104.036237 202.708793 104.566458 203.205664 
C 105.096679 203.702536 105.815914 203.981714 106.56576 203.981714 
z
" clip-path="url(#pb2b44e7d91)" style="fill: #d8dade; opacity: 0.45"/>
   </g>
   <g id="patch_13">
    <path d="M 586.4676 199.145143 
L 647.0556 199.145143 
L 647.0556 180.219429 
L 586.4676 180.219429 
z
" clip-path="url(#pb2b44e7d91)" style="fill: #5e8f62; stroke: #2a2926; stroke-linejoin: miter"/>
   </g>
   <g id="patch_14">
    <path d="M 610.0296 180.219429 
L 623.4936 180.219429 
L 623.4936 167.602286 
L 610.0296 167.602286 
z
" clip-path="url(#pb2b44e7d91)" style="fill: #5e8f62; stroke: #2a2926; stroke-linejoin: miter"/>
   </g>
   <g id="patch_15">
    <path d="M 597.912 207.661714 
C 599.965149 207.661714 601.934483 206.897297 603.386279 205.536816 
C 604.838075 204.176335 605.6538 202.330868 605.6538 200.406857 
C 605.6538 198.482847 604.838075 196.637379 603.386279 195.276898 
C 601.934483 193.916418 599.965149 193.152 597.912 193.152 
C 595.858851 193.152 593.889517 193.916418 592.437721 195.276898 
C 590.985925 196.637379 590.1702 198.482847 590.1702 200.406857 
C 590.1702 202.330868 590.985925 204.176335 592.437721 205.536816 
C 593.889517 206.897297 595.858851 207.661714 597.912 207.661714 
z
" clip-path="url(#pb2b44e7d91)" style="fill: #30363b; stroke: #2a2926; stroke-linejoin: miter"/>
   </g>
   <g id="patch_16">
    <path d="M 597.912 203.245714 
C 598.715406 203.245714 599.486015 202.946594 600.054109 202.414232 
C 600.622203 201.88187 600.9414 201.159731 600.9414 200.406857 
C 600.9414 199.653983 600.622203 198.931844 600.054109 198.399482 
C 599.486015 197.86712 598.715406 197.568 597.912 197.568 
C 597.108594 197.568 596.337985 197.86712 595.769891 198.399482 
C 595.201797 198.931844 594.8826 199.653983 594.8826 200.406857 
C 594.8826 201.159731 595.201797 201.88187 595.769891 202.414232 
C 596.337985 202.946594 597.108594 203.245714 597.912 203.245714 
z
" clip-path="url(#pb2b44e7d91)" style="fill: #d8dade"/>
   </g>
   <g id="patch_17">
    <path d="M 635.6112 207.661714 
C 637.664349 207.661714 639.633683 206.897297 641.085479 205.536816 
C 642.537275 204.176335 643.353 202.330868 643.353 200.406857 
C 643.353 198.482847 642.537275 196.637379 641.085479 195.276898 
C 639.633683 193.916418 637.664349 193.152 635.6112 193.152 
C 633.558051 193.152 631.588717 193.916418 630.136921 195.276898 
C 628.685125 196.637379 627.8694 198.482847 627.8694 200.406857 
C 627.8694 202.330868 628.685125 204.176335 630.136921 205.536816 
C 631.588717 206.897297 633.558051 207.661714 635.6112 207.661714 
z
" clip-path="url(#pb2b44e7d91)" style="fill: #30363b; stroke: #2a2926; stroke-linejoin: miter"/>
   </g>
   <g id="patch_18">
    <path d="M 635.6112 203.245714 
C 636.414606 203.245714 637.185215 202.946594 637.753309 202.414232 
C 638.321403 201.88187 638.6406 201.159731 638.6406 200.406857 
C 638.6406 199.653983 638.321403 198.931844 637.753309 198.399482 
C 637.185215 197.86712 636.414606 197.568 635.6112 197.568 
C 634.807794 197.568 634.037185 197.86712 633.469091 198.399482 
C 632.900997 198.931844 632.5818 199.653983 632.5818 200.406857 
C 632.5818 201.159731 632.900997 201.88187 633.469091 202.414232 
C 634.037185 202.946594 634.807794 203.245714 635.6112 203.245714 
z
" clip-path="url(#pb2b44e7d91)" style="fill: #d8dade"/>
   </g>
   <g id="patch_19">
    <path d="M 132.109455 109.142857 
Q 358.474626 109.142857 583.274548 109.142857 
" clip-path="url(#pb2b44e7d91)" style="fill: none; stroke: #8b5e34; stroke-width: 1.4; stroke-linecap: round"/>
    <path d="M 578.474548 106.742857 
L 583.274548 109.142857 
L 578.474548 111.542857 
" clip-path="url(#pb2b44e7d91)" style="fill: none; stroke: #8b5e34; stroke-width: 1.4; stroke-linecap: round"/>
   </g>
   <g id="patch_20">
    <path d="M 56.4348 95.474286 
L 121.5108 95.474286 
Q 125.2508 95.474286 125.2508 91.969524 
L 125.2508 78.651429 
Q 125.2508 75.146667 121.5108 75.146667 
L 56.4348 75.146667 
Q 52.6948 75.146667 52.6948 78.651429 
L 52.6948 91.969524 
Q 52.6948 95.474286 56.4348 95.474286 
z
" clip-path="url(#pb2b44e7d91)" style="fill: #efe5d2"/>
   </g>
   <g id="patch_21">
    <path d="M 584.2236 95.474286 
L 649.2996 95.474286 
Q 653.0396 95.474286 653.0396 91.969524 
L 653.0396 78.651429 
Q 653.0396 75.146667 649.2996 75.146667 
L 584.2236 75.146667 
Q 580.4836 75.146667 580.4836 78.651429 
L 580.4836 91.969524 
Q 580.4836 95.474286 584.2236 95.474286 
z
" clip-path="url(#pb2b44e7d91)" style="fill: #efe5d2"/>
   </g>
   <g id="patch_22">
    <path d="M 662.7636 165.569524 
L 727.8396 165.569524 
Q 731.5796 165.569524 731.5796 162.064762 
L 731.5796 148.746667 
Q 731.5796 145.241905 727.8396 145.241905 
L 662.7636 145.241905 
Q 659.0236 145.241905 659.0236 148.746667 
L 659.0236 162.064762 
Q 659.0236 165.569524 662.7636 165.569524 
z
" clip-path="url(#pb2b44e7d91)" style="fill: #efe5d2"/>
   </g>
   <g id="line2d_1">
    <path d="M 63.84 257.04381 
L 63.84 241.622857 
" clip-path="url(#pb2b44e7d91)" style="fill: none; stroke: #2a2926; stroke-linecap: square"/>
   </g>
   <g id="line2d_2">
    <path d="M 189.504 257.04381 
L 189.504 241.622857 
" clip-path="url(#pb2b44e7d91)" style="fill: none; stroke: #2a2926; stroke-linecap: square"/>
   </g>
   <g id="line2d_3">
    <path d="M 315.168 257.04381 
L 315.168 241.622857 
" clip-path="url(#pb2b44e7d91)" style="fill: none; stroke: #2a2926; stroke-linecap: square"/>
   </g>
   <g id="line2d_4">
    <path d="M 440.832 257.04381 
L 440.832 241.622857 
" clip-path="url(#pb2b44e7d91)" style="fill: none; stroke: #2a2926; stroke-linecap: square"/>
   </g>
   <g id="line2d_5">
    <path d="M 566.496 257.04381 
L 566.496 241.622857 
" clip-path="url(#pb2b44e7d91)" style="fill: none; stroke: #2a2926; stroke-linecap: square"/>
   </g>
   <g id="line2d_6">
    <path d="M 692.16 257.04381 
L 692.16 241.622857 
" clip-path="url(#pb2b44e7d91)" style="fill: none; stroke: #2a2926; stroke-linecap: square"/>
   </g>
   <g id="line2d_7">
    <path d="M 86.28 211.481905 
L 86.28 182.041905 
" clip-path="url(#pb2b44e7d91)" style="fill: none; stroke: #8b9098; stroke-width: 0.7; stroke-linecap: square"/>
   </g>
   <g id="line2d_8">
    <path d="M 123.68 211.481905 
L 123.68 182.041905 
" clip-path="url(#pb2b44e7d91)" style="fill: none; stroke: #8b9098; stroke-width: 0.7; stroke-linecap: square"/>
   </g>
   <g id="line2d_9">
    <path d="M 161.08 211.481905 
L 161.08 182.041905 
" clip-path="url(#pb2b44e7d91)" style="fill: none; stroke: #8b9098; stroke-width: 0.7; stroke-linecap: square"/>
   </g>
   <g id="line2d_10">
    <path d="M 198.48 211.481905 
L 198.48 182.041905 
" clip-path="url(#pb2b44e7d91)" style="fill: none; stroke: #8b9098; stroke-width: 0.7; stroke-linecap: square"/>
   </g>
   <g id="line2d_11">
    <path d="M 235.88 211.481905 
L 235.88 182.041905 
" clip-path="url(#pb2b44e7d91)" style="fill: none; stroke: #8b9098; stroke-width: 0.7; stroke-linecap: square"/>
   </g>
   <g id="line2d_12">
    <path d="M 273.28 211.481905 
L 273.28 182.041905 
" clip-path="url(#pb2b44e7d91)" style="fill: none; stroke: #8b9098; stroke-width: 0.7; stroke-linecap: square"/>
   </g>
   <g id="line2d_13">
    <path d="M 310.68 211.481905 
L 310.68 182.041905 
" clip-path="url(#pb2b44e7d91)" style="fill: none; stroke: #8b9098; stroke-width: 0.7; stroke-linecap: square"/>
   </g>
   <g id="line2d_14">
    <path d="M 348.08 211.481905 
L 348.08 182.041905 
" clip-path="url(#pb2b44e7d91)" style="fill: none; stroke: #8b9098; stroke-width: 0.7; stroke-linecap: square"/>
   </g>
   <g id="line2d_15">
    <path d="M 385.48 211.481905 
L 385.48 182.041905 
" clip-path="url(#pb2b44e7d91)" style="fill: none; stroke: #8b9098; stroke-width: 0.7; stroke-linecap: square"/>
   </g>
   <g id="line2d_16">
    <path d="M 422.88 211.481905 
L 422.88 182.041905 
" clip-path="url(#pb2b44e7d91)" style="fill: none; stroke: #8b9098; stroke-width: 0.7; stroke-linecap: square"/>
   </g>
   <g id="line2d_17">
    <path d="M 460.28 211.481905 
L 460.28 182.041905 
" clip-path="url(#pb2b44e7d91)" style="fill: none; stroke: #8b9098; stroke-width: 0.7; stroke-linecap: square"/>
   </g>
   <g id="line2d_18">
    <path d="M 497.68 211.481905 
L 497.68 182.041905 
" clip-path="url(#pb2b44e7d91)" style="fill: none; stroke: #8b9098; stroke-width: 0.7; stroke-linecap: square"/>
   </g>
   <g id="line2d_19">
    <path d="M 535.08 211.481905 
L 535.08 182.041905 
" clip-path="url(#pb2b44e7d91)" style="fill: none; stroke: #8b9098; stroke-width: 0.7; stroke-linecap: square"/>
   </g>
   <g id="line2d_20">
    <path d="M 572.48 211.481905 
L 572.48 182.041905 
" clip-path="url(#pb2b44e7d91)" style="fill: none; stroke: #8b9098; stroke-width: 0.7; stroke-linecap: square"/>
   </g>
   <g id="line2d_21">
    <path d="M 609.88 211.481905 
L 609.88 182.041905 
" clip-path="url(#pb2b44e7d91)" style="fill: none; stroke: #8b9098; stroke-width: 0.7; stroke-linecap: square"/>
   </g>
   <g id="line2d_22">
    <path d="M 647.28 211.481905 
L 647.28 182.041905 
" clip-path="url(#pb2b44e7d91)" style="fill: none; stroke: #8b9098; stroke-width: 0.7; stroke-linecap: square"/>
   </g>
   <g id="line2d_23">
    <path d="M 684.68 211.481905 
L 684.68 182.041905 
" clip-path="url(#pb2b44e7d91)" style="fill: none; stroke: #8b9098; stroke-width: 0.7; stroke-linecap: square"/>
   </g>
   <g id="line2d_24">
    <path d="M 95.256 170.714514 
L 112.84896 161.293714 
" clip-path="url(#pb2b44e7d91)" style="fill: none; stroke: #2a2926; stroke-opacity: 0.45; stroke-linecap: square"/>
   </g>
   <g id="line2d_25">
    <path d="M 623.4936 167.602286 
L 642.3432 157.508571 
" clip-path="url(#pb2b44e7d91)" style="fill: none; stroke: #2a2926; stroke-linecap: square"/>
   </g>
   <g id="text_1">
    <!-- Carrinho de inspecao em MU -->
    <g style="fill: #2a2926" transform="translate(48.88 41.657917) scale(0.12 -0.12)">
     <defs>
      <path id="DejaVuSans-Bold-43" d="M 4288 256 
Q 3956 84 3597 -3 
Q 3238 -91 2847 -91 
Q 1681 -91 1000 561 
Q 319 1213 319 2328 
Q 319 3447 1000 4098 
Q 1681 4750 2847 4750 
Q 3238 4750 3597 4662 
Q 3956 4575 4288 4403 
L 4288 3438 
Q 3953 3666 3628 3772 
Q 3303 3878 2944 3878 
Q 2300 3878 1931 3465 
Q 1563 3053 1563 2328 
Q 1563 1606 1931 1193 
Q 2300 781 2944 781 
Q 3303 781 3628 887 
Q 3953 994 4288 1222 
L 4288 256 
z
" transform="scale(0.015625)"/>
      <path id="DejaVuSans-Bold-61" d="M 2106 1575 
Q 1756 1575 1579 1456 
Q 1403 1338 1403 1106 
Q 1403 894 1545 773 
Q 1688 653 1941 653 
Q 2256 653 2472 879 
Q 2688 1106 2688 1447 
L 2688 1575 
L 2106 1575 
z
M 3816 1997 
L 3816 0 
L 2688 0 
L 2688 519 
Q 2463 200 2181 54 
Q 1900 -91 1497 -91 
Q 953 -91 614 226 
Q 275 544 275 1050 
Q 275 1666 698 1953 
Q 1122 2241 2028 2241 
L 2688 2241 
L 2688 2328 
Q 2688 2594 2478 2717 
Q 2269 2841 1825 2841 
Q 1466 2841 1156 2769 
Q 847 2697 581 2553 
L 581 3406 
Q 941 3494 1303 3539 
Q 1666 3584 2028 3584 
Q 2975 3584 3395 3211 
Q 3816 2838 3816 1997 
z
" transform="scale(0.015625)"/>
      <path id="DejaVuSans-Bold-72" d="M 3138 2547 
Q 2991 2616 2845 2648 
Q 2700 2681 2553 2681 
Q 2122 2681 1889 2404 
Q 1656 2128 1656 1613 
L 1656 0 
L 538 0 
L 538 3500 
L 1656 3500 
L 1656 2925 
Q 1872 3269 2151 3426 
Q 2431 3584 2822 3584 
Q 2878 3584 2943 3579 
Q 3009 3575 3134 3559 
L 3138 2547 
z
" transform="scale(0.015625)"/>
      <path id="DejaVuSans-Bold-69" d="M 538 3500 
L 1656 3500 
L 1656 0 
L 538 0 
L 538 3500 
z
M 538 4863 
L 1656 4863 
L 1656 3950 
L 538 3950 
L 538 4863 
z
" transform="scale(0.015625)"/>
      <path id="DejaVuSans-Bold-6e" d="M 4056 2131 
L 4056 0 
L 2931 0 
L 2931 347 
L 2931 1631 
Q 2931 2084 2911 2256 
Q 2891 2428 2841 2509 
Q 2775 2619 2662 2680 
Q 2550 2741 2406 2741 
Q 2056 2741 1856 2470 
Q 1656 2200 1656 1722 
L 1656 0 
L 538 0 
L 538 3500 
L 1656 3500 
L 1656 2988 
Q 1909 3294 2193 3439 
Q 2478 3584 2822 3584 
Q 3428 3584 3742 3212 
Q 4056 2841 4056 2131 
z
" transform="scale(0.015625)"/>
      <path id="DejaVuSans-Bold-68" d="M 4056 2131 
L 4056 0 
L 2931 0 
L 2931 347 
L 2931 1625 
Q 2931 2084 2911 2256 
Q 2891 2428 2841 2509 
Q 2775 2619 2662 2680 
Q 2550 2741 2406 2741 
Q 2056 2741 1856 2470 
Q 1656 2200 1656 1722 
L 1656 0 
L 538 0 
L 538 4863 
L 1656 4863 
L 1656 2988 
Q 1909 3294 2193 3439 
Q 2478 3584 2822 3584 
Q 3428 3584 3742 3212 
Q 4056 2841 4056 2131 
z
" transform="scale(0.015625)"/>
      <path id="DejaVuSans-Bold-6f" d="M 2203 2784 
Q 1831 2784 1636 2517 
Q 1441 2250 1441 1747 
Q 1441 1244 1636 976 
Q 1831 709 2203 709 
Q 2569 709 2762 976 
Q 2956 1244 2956 1747 
Q 2956 2250 2762 2517 
Q 2569 2784 2203 2784 
z
M 2203 3584 
Q 3106 3584 3614 3096 
Q 4122 2609 4122 1747 
Q 4122 884 3614 396 
Q 3106 -91 2203 -91 
Q 1297 -91 786 396 
Q 275 884 275 1747 
Q 275 2609 786 3096 
Q 1297 3584 2203 3584 
z
" transform="scale(0.015625)"/>
      <path id="DejaVuSans-Bold-20" transform="scale(0.015625)"/>
      <path id="DejaVuSans-Bold-64" d="M 2919 2988 
L 2919 4863 
L 4044 4863 
L 4044 0 
L 2919 0 
L 2919 506 
Q 2688 197 2409 53 
Q 2131 -91 1766 -91 
Q 1119 -91 703 423 
Q 288 938 288 1747 
Q 288 2556 703 3070 
Q 1119 3584 1766 3584 
Q 2128 3584 2408 3439 
Q 2688 3294 2919 2988 
z
M 2181 722 
Q 2541 722 2730 984 
Q 2919 1247 2919 1747 
Q 2919 2247 2730 2509 
Q 2541 2772 2181 2772 
Q 1825 2772 1636 2509 
Q 1447 2247 1447 1747 
Q 1447 1247 1636 984 
Q 1825 722 2181 722 
z
" transform="scale(0.015625)"/>
      <path id="DejaVuSans-Bold-65" d="M 4031 1759 
L 4031 1441 
L 1416 1441 
Q 1456 1047 1700 850 
Q 1944 653 2381 653 
Q 2734 653 3104 758 
Q 3475 863 3866 1075 
L 3866 213 
Q 3469 63 3072 -14 
Q 2675 -91 2278 -91 
Q 1328 -91 801 392 
Q 275 875 275 1747 
Q 275 2603 792 3093 
Q 1309 3584 2216 3584 
Q 3041 3584 3536 3087 
Q 4031 2591 4031 1759 
z
M 2881 2131 
Q 2881 2450 2695 2645 
Q 2509 2841 2209 2841 
Q 1884 2841 1681 2658 
Q 1478 2475 1428 2131 
L 2881 2131 
z
" transform="scale(0.015625)"/>
      <path id="DejaVuSans-Bold-73" d="M 3272 3391 
L 3272 2541 
Q 2913 2691 2578 2766 
Q 2244 2841 1947 2841 
Q 1628 2841 1473 2761 
Q 1319 2681 1319 2516 
Q 1319 2381 1436 2309 
Q 1553 2238 1856 2203 
L 2053 2175 
Q 2913 2066 3209 1816 
Q 3506 1566 3506 1031 
Q 3506 472 3093 190 
Q 2681 -91 1863 -91 
Q 1516 -91 1145 -36 
Q 775 19 384 128 
L 384 978 
Q 719 816 1070 734 
Q 1422 653 1784 653 
Q 2113 653 2278 743 
Q 2444 834 2444 1013 
Q 2444 1163 2330 1236 
Q 2216 1309 1875 1350 
L 1678 1375 
Q 931 1469 631 1722 
Q 331 1975 331 2491 
Q 331 3047 712 3315 
Q 1094 3584 1881 3584 
Q 2191 3584 2531 3537 
Q 2872 3491 3272 3391 
z
" transform="scale(0.015625)"/>
      <path id="DejaVuSans-Bold-70" d="M 1656 506 
L 1656 -1331 
L 538 -1331 
L 538 3500 
L 1656 3500 
L 1656 2988 
Q 1888 3294 2169 3439 
Q 2450 3584 2816 3584 
Q 3463 3584 3878 3070 
Q 4294 2556 4294 1747 
Q 4294 938 3878 423 
Q 3463 -91 2816 -91 
Q 2450 -91 2169 54 
Q 1888 200 1656 506 
z
M 2400 2772 
Q 2041 2772 1848 2508 
Q 1656 2244 1656 1747 
Q 1656 1250 1848 986 
Q 2041 722 2400 722 
Q 2759 722 2948 984 
Q 3138 1247 3138 1747 
Q 3138 2247 2948 2509 
Q 2759 2772 2400 2772 
z
" transform="scale(0.015625)"/>
      <path id="DejaVuSans-Bold-63" d="M 3366 3391 
L 3366 2478 
Q 3138 2634 2908 2709 
Q 2678 2784 2431 2784 
Q 1963 2784 1702 2511 
Q 1441 2238 1441 1747 
Q 1441 1256 1702 982 
Q 1963 709 2431 709 
Q 2694 709 2930 787 
Q 3166 866 3366 1019 
L 3366 103 
Q 3103 6 2833 -42 
Q 2563 -91 2291 -91 
Q 1344 -91 809 395 
Q 275 881 275 1747 
Q 275 2613 809 3098 
Q 1344 3584 2291 3584 
Q 2566 3584 2833 3536 
Q 3100 3488 3366 3391 
z
" transform="scale(0.015625)"/>
      <path id="DejaVuSans-Bold-6d" d="M 3781 2919 
Q 3994 3244 4286 3414 
Q 4578 3584 4928 3584 
Q 5531 3584 5847 3212 
Q 6163 2841 6163 2131 
L 6163 0 
L 5038 0 
L 5038 1825 
Q 5041 1866 5042 1909 
Q 5044 1953 5044 2034 
Q 5044 2406 4934 2573 
Q 4825 2741 4581 2741 
Q 4263 2741 4089 2478 
Q 3916 2216 3909 1719 
L 3909 0 
L 2784 0 
L 2784 1825 
Q 2784 2406 2684 2573 
Q 2584 2741 2328 2741 
Q 2006 2741 1831 2477 
Q 1656 2213 1656 1722 
L 1656 0 
L 531 0 
L 531 3500 
L 1656 3500 
L 1656 2988 
Q 1863 3284 2130 3434 
Q 2397 3584 2719 3584 
Q 3081 3584 3359 3409 
Q 3638 3234 3781 2919 
z
" transform="scale(0.015625)"/>
      <path id="DejaVuSans-Bold-4d" d="M 588 4666 
L 2119 4666 
L 3181 2169 
L 4250 4666 
L 5778 4666 
L 5778 0 
L 4641 0 
L 4641 3413 
L 3566 897 
L 2803 897 
L 1728 3413 
L 1728 0 
L 588 0 
L 588 4666 
z
" transform="scale(0.015625)"/>
      <path id="DejaVuSans-Bold-55" d="M 588 4666 
L 1791 4666 
L 1791 1869 
Q 1791 1291 1980 1042 
Q 2169 794 2597 794 
Q 3028 794 3217 1042 
Q 3406 1291 3406 1869 
L 3406 4666 
L 4609 4666 
L 4609 1869 
Q 4609 878 4112 393 
Q 3616 -91 2597 -91 
Q 1581 -91 1084 393 
Q 588 878 588 1869 
L 588 4666 
z
" transform="scale(0.015625)"/>
     </defs>
     <use xlink:href="#DejaVuSans-Bold-43"/>
     <use xlink:href="#DejaVuSans-Bold-61" x="73.388672"/>
     <use xlink:href="#DejaVuSans-Bold-72" x="140.869141"/>
     <use xlink:href="#DejaVuSans-Bold-72" x="190.185547"/>
     <use xlink:href="#DejaVuSans-Bold-69" x="239.501953"/>
     <use xlink:href="#DejaVuSans-Bold-6e" x="273.779297"/>
     <use xlink:href="#DejaVuSans-Bold-68" x="344.970703"/>
     <use xlink:href="#DejaVuSans-Bold-6f" x="416.162109"/>
     <use xlink:href="#DejaVuSans-Bold-20" x="484.863281"/>
     <use xlink:href="#DejaVuSans-Bold-64" x="519.677734"/>
     <use xlink:href="#DejaVuSans-Bold-65" x="591.259766"/>
     <use xlink:href="#DejaVuSans-Bold-20" x="659.082031"/>
     <use xlink:href="#DejaVuSans-Bold-69" x="693.896484"/>
     <use xlink:href="#DejaVuSans-Bold-6e" x="728.173828"/>
     <use xlink:href="#DejaVuSans-Bold-73" x="799.365234"/>
     <use xlink:href="#DejaVuSans-Bold-70" x="858.886719"/>
     <use xlink:href="#DejaVuSans-Bold-65" x="930.46875"/>
     <use xlink:href="#DejaVuSans-Bold-63" x="998.291016"/>
     <use xlink:href="#DejaVuSans-Bold-61" x="1057.568359"/>
     <use xlink:href="#DejaVuSans-Bold-6f" x="1125.048828"/>
     <use xlink:href="#DejaVuSans-Bold-20" x="1193.75"/>
     <use xlink:href="#DejaVuSans-Bold-65" x="1228.564453"/>
     <use xlink:href="#DejaVuSans-Bold-6d" x="1296.386719"/>
     <use xlink:href="#DejaVuSans-Bold-20" x="1400.585938"/>
     <use xlink:href="#DejaVuSans-Bold-4d" x="1435.400391"/>
     <use xlink:href="#DejaVuSans-Bold-55" x="1534.912109"/>
    </g>
   </g>
   <g id="text_2">
    <!-- 0 -->
    <g style="fill: #665f56" transform="translate(61.295 277.84256) scale(0.08 -0.08)">
     <defs>
      <path id="DejaVuSans-30" d="M 2034 4250 
Q 1547 4250 1301 3770 
Q 1056 3291 1056 2328 
Q 1056 1369 1301 889 
Q 1547 409 2034 409 
Q 2525 409 2770 889 
Q 3016 1369 3016 2328 
Q 3016 3291 2770 3770 
Q 2525 4250 2034 4250 
z
M 2034 4750 
Q 2819 4750 3233 4129 
Q 3647 3509 3647 2328 
Q 3647 1150 3233 529 
Q 2819 -91 2034 -91 
Q 1250 -91 836 529 
Q 422 1150 422 2328 
Q 422 3509 836 4129 
Q 1250 4750 2034 4750 
z
" transform="scale(0.015625)"/>
     </defs>
     <use xlink:href="#DejaVuSans-30"/>
    </g>
   </g>
   <g id="text_3">
    <!-- 10 -->
    <g style="fill: #665f56" transform="translate(184.414 277.84256) scale(0.08 -0.08)">
     <defs>
      <path id="DejaVuSans-31" d="M 794 531 
L 1825 531 
L 1825 4091 
L 703 3866 
L 703 4441 
L 1819 4666 
L 2450 4666 
L 2450 531 
L 3481 531 
L 3481 0 
L 794 0 
L 794 531 
z
" transform="scale(0.015625)"/>
     </defs>
     <use xlink:href="#DejaVuSans-31"/>
     <use xlink:href="#DejaVuSans-30" x="63.623047"/>
    </g>
   </g>
   <g id="text_4">
    <!-- 20 -->
    <g style="fill: #665f56" transform="translate(310.078 277.84256) scale(0.08 -0.08)">
     <defs>
      <path id="DejaVuSans-32" d="M 1228 531 
L 3431 531 
L 3431 0 
L 469 0 
L 469 531 
Q 828 903 1448 1529 
Q 2069 2156 2228 2338 
Q 2531 2678 2651 2914 
Q 2772 3150 2772 3378 
Q 2772 3750 2511 3984 
Q 2250 4219 1831 4219 
Q 1534 4219 1204 4116 
Q 875 4013 500 3803 
L 500 4441 
Q 881 4594 1212 4672 
Q 1544 4750 1819 4750 
Q 2544 4750 2975 4387 
Q 3406 4025 3406 3419 
Q 3406 3131 3298 2873 
Q 3191 2616 2906 2266 
Q 2828 2175 2409 1742 
Q 1991 1309 1228 531 
z
" transform="scale(0.015625)"/>
     </defs>
     <use xlink:href="#DejaVuSans-32"/>
     <use xlink:href="#DejaVuSans-30" x="63.623047"/>
    </g>
   </g>
   <g id="text_5">
    <!-- 30 -->
    <g style="fill: #665f56" transform="translate(435.742 277.84256) scale(0.08 -0.08)">
     <defs>
      <path id="DejaVuSans-33" d="M 2597 2516 
Q 3050 2419 3304 2112 
Q 3559 1806 3559 1356 
Q 3559 666 3084 287 
Q 2609 -91 1734 -91 
Q 1441 -91 1130 -33 
Q 819 25 488 141 
L 488 750 
Q 750 597 1062 519 
Q 1375 441 1716 441 
Q 2309 441 2620 675 
Q 2931 909 2931 1356 
Q 2931 1769 2642 2001 
Q 2353 2234 1838 2234 
L 1294 2234 
L 1294 2753 
L 1863 2753 
Q 2328 2753 2575 2939 
Q 2822 3125 2822 3475 
Q 2822 3834 2567 4026 
Q 2313 4219 1838 4219 
Q 1578 4219 1281 4162 
Q 984 4106 628 3988 
L 628 4550 
Q 988 4650 1302 4700 
Q 1616 4750 1894 4750 
Q 2613 4750 3031 4423 
Q 3450 4097 3450 3541 
Q 3450 3153 3228 2886 
Q 3006 2619 2597 2516 
z
" transform="scale(0.015625)"/>
     </defs>
     <use xlink:href="#DejaVuSans-33"/>
     <use xlink:href="#DejaVuSans-30" x="63.623047"/>
    </g>
   </g>
   <g id="text_6">
    <!-- 40 -->
    <g style="fill: #665f56" transform="translate(561.406 277.84256) scale(0.08 -0.08)">
     <defs>
      <path id="DejaVuSans-34" d="M 2419 4116 
L 825 1625 
L 2419 1625 
L 2419 4116 
z
M 2253 4666 
L 3047 4666 
L 3047 1625 
L 3713 1625 
L 3713 1100 
L 3047 1100 
L 3047 0 
L 2419 0 
L 2419 1100 
L 313 1100 
L 313 1709 
L 2253 4666 
z
" transform="scale(0.015625)"/>
     </defs>
     <use xlink:href="#DejaVuSans-34"/>
     <use xlink:href="#DejaVuSans-30" x="63.623047"/>
    </g>
   </g>
   <g id="text_7">
    <!-- 50 -->
    <g style="fill: #665f56" transform="translate(687.07 277.84256) scale(0.08 -0.08)">
     <defs>
      <path id="DejaVuSans-35" d="M 691 4666 
L 3169 4666 
L 3169 4134 
L 1269 4134 
L 1269 2991 
Q 1406 3038 1543 3061 
Q 1681 3084 1819 3084 
Q 2600 3084 3056 2656 
Q 3513 2228 3513 1497 
Q 3513 744 3044 326 
Q 2575 -91 1722 -91 
Q 1428 -91 1123 -41 
Q 819 9 494 109 
L 494 744 
Q 775 591 1075 516 
Q 1375 441 1709 441 
Q 2250 441 2565 725 
Q 2881 1009 2881 1497 
Q 2881 1984 2565 2268 
Q 2250 2553 1709 2553 
Q 1456 2553 1204 2497 
Q 953 2441 691 2322 
L 691 4666 
z
" transform="scale(0.015625)"/>
     </defs>
     <use xlink:href="#DejaVuSans-35"/>
     <use xlink:href="#DejaVuSans-30" x="63.623047"/>
    </g>
   </g>
   <g id="text_8">
    <!-- S (m) -->
    <g style="fill: #2a2926" transform="translate(701.136 247.931429) scale(0.09 -0.09)">
     <defs>
      <path id="DejaVuSans-Bold-53" d="M 3834 4519 
L 3834 3531 
Q 3450 3703 3084 3790 
Q 2719 3878 2394 3878 
Q 1963 3878 1756 3759 
Q 1550 3641 1550 3391 
Q 1550 3203 1689 3098 
Q 1828 2994 2194 2919 
L 2706 2816 
Q 3484 2659 3812 2340 
Q 4141 2022 4141 1434 
Q 4141 663 3683 286 
Q 3225 -91 2284 -91 
Q 1841 -91 1394 -6 
Q 947 78 500 244 
L 500 1259 
Q 947 1022 1364 901 
Q 1781 781 2169 781 
Q 2563 781 2772 912 
Q 2981 1044 2981 1288 
Q 2981 1506 2839 1625 
Q 2697 1744 2272 1838 
L 1806 1941 
Q 1106 2091 782 2419 
Q 459 2747 459 3303 
Q 459 4000 909 4375 
Q 1359 4750 2203 4750 
Q 2588 4750 2994 4692 
Q 3400 4634 3834 4519 
z
" transform="scale(0.015625)"/>
      <path id="DejaVuSans-Bold-28" d="M 2413 -844 
L 1484 -844 
Q 1006 -72 778 623 
Q 550 1319 550 2003 
Q 550 2688 779 3389 
Q 1009 4091 1484 4856 
L 2413 4856 
Q 2013 4116 1813 3408 
Q 1613 2700 1613 2009 
Q 1613 1319 1811 609 
Q 2009 -100 2413 -844 
z
" transform="scale(0.015625)"/>
      <path id="DejaVuSans-Bold-29" d="M 513 -844 
Q 913 -100 1113 609 
Q 1313 1319 1313 2009 
Q 1313 2700 1113 3408 
Q 913 4116 513 4856 
L 1441 4856 
Q 1916 4091 2145 3389 
Q 2375 2688 2375 2003 
Q 2375 1319 2147 623 
Q 1919 -72 1441 -844 
L 513 -844 
z
" transform="scale(0.015625)"/>
     </defs>
     <use xlink:href="#DejaVuSans-Bold-53"/>
     <use xlink:href="#DejaVuSans-Bold-20" x="72.021484"/>
     <use xlink:href="#DejaVuSans-Bold-28" x="106.835938"/>
     <use xlink:href="#DejaVuSans-Bold-6d" x="152.539062"/>
     <use xlink:href="#DejaVuSans-Bold-29" x="256.738281"/>
    </g>
   </g>
   <g id="text_9">
    <!-- v = 3,5 m/s -->
    <g style="fill: #8b5e34" transform="translate(335.255325 100.731429) scale(0.08 -0.08)">
     <defs>
      <path id="DejaVuSans-76" d="M 191 3500 
L 800 3500 
L 1894 563 
L 2988 3500 
L 3597 3500 
L 2284 0 
L 1503 0 
L 191 3500 
z
" transform="scale(0.015625)"/>
      <path id="DejaVuSans-20" transform="scale(0.015625)"/>
      <path id="DejaVuSans-3d" d="M 678 2906 
L 4684 2906 
L 4684 2381 
L 678 2381 
L 678 2906 
z
M 678 1631 
L 4684 1631 
L 4684 1100 
L 678 1100 
L 678 1631 
z
" transform="scale(0.015625)"/>
      <path id="DejaVuSans-2c" d="M 750 794 
L 1409 794 
L 1409 256 
L 897 -744 
L 494 -744 
L 750 256 
L 750 794 
z
" transform="scale(0.015625)"/>
      <path id="DejaVuSans-6d" d="M 3328 2828 
Q 3544 3216 3844 3400 
Q 4144 3584 4550 3584 
Q 5097 3584 5394 3201 
Q 5691 2819 5691 2113 
L 5691 0 
L 5113 0 
L 5113 2094 
Q 5113 2597 4934 2840 
Q 4756 3084 4391 3084 
Q 3944 3084 3684 2787 
Q 3425 2491 3425 1978 
L 3425 0 
L 2847 0 
L 2847 2094 
Q 2847 2600 2669 2842 
Q 2491 3084 2119 3084 
Q 1678 3084 1418 2786 
Q 1159 2488 1159 1978 
L 1159 0 
L 581 0 
L 581 3500 
L 1159 3500 
L 1159 2956 
Q 1356 3278 1631 3431 
Q 1906 3584 2284 3584 
Q 2666 3584 2933 3390 
Q 3200 3197 3328 2828 
z
" transform="scale(0.015625)"/>
      <path id="DejaVuSans-2f" d="M 1625 4666 
L 2156 4666 
L 531 -594 
L 0 -594 
L 1625 4666 
z
" transform="scale(0.015625)"/>
      <path id="DejaVuSans-73" d="M 2834 3397 
L 2834 2853 
Q 2591 2978 2328 3040 
Q 2066 3103 1784 3103 
Q 1356 3103 1142 2972 
Q 928 2841 928 2578 
Q 928 2378 1081 2264 
Q 1234 2150 1697 2047 
L 1894 2003 
Q 2506 1872 2764 1633 
Q 3022 1394 3022 966 
Q 3022 478 2636 193 
Q 2250 -91 1575 -91 
Q 1294 -91 989 -36 
Q 684 19 347 128 
L 347 722 
Q 666 556 975 473 
Q 1284 391 1588 391 
Q 1994 391 2212 530 
Q 2431 669 2431 922 
Q 2431 1156 2273 1281 
Q 2116 1406 1581 1522 
L 1381 1569 
Q 847 1681 609 1914 
Q 372 2147 372 2553 
Q 372 3047 722 3315 
Q 1072 3584 1716 3584 
Q 2034 3584 2315 3537 
Q 2597 3491 2834 3397 
z
" transform="scale(0.015625)"/>
     </defs>
     <use xlink:href="#DejaVuSans-76"/>
     <use xlink:href="#DejaVuSans-20" x="59.179688"/>
     <use xlink:href="#DejaVuSans-3d" x="90.966797"/>
     <use xlink:href="#DejaVuSans-20" x="174.755859"/>
     <use xlink:href="#DejaVuSans-33" x="206.542969"/>
     <use xlink:href="#DejaVuSans-2c" x="270.166016"/>
     <use xlink:href="#DejaVuSans-35" x="301.953125"/>
     <use xlink:href="#DejaVuSans-20" x="365.576172"/>
     <use xlink:href="#DejaVuSans-6d" x="397.363281"/>
     <use xlink:href="#DejaVuSans-2f" x="494.775391"/>
     <use xlink:href="#DejaVuSans-73" x="528.466797"/>
    </g>
   </g>
   <g id="text_10">
    <!-- x0 = 2 m -->
    <g style="fill: #2a2926" transform="translate(70.453425 87.517976) scale(0.08 -0.08)">
     <defs>
      <path id="DejaVuSans-78" d="M 3513 3500 
L 2247 1797 
L 3578 0 
L 2900 0 
L 1881 1375 
L 863 0 
L 184 0 
L 1544 1831 
L 300 3500 
L 978 3500 
L 1906 2253 
L 2834 3500 
L 3513 3500 
z
" transform="scale(0.015625)"/>
     </defs>
     <use xlink:href="#DejaVuSans-78"/>
     <use xlink:href="#DejaVuSans-30" x="59.179688"/>
     <use xlink:href="#DejaVuSans-20" x="122.802734"/>
     <use xlink:href="#DejaVuSans-3d" x="154.589844"/>
     <use xlink:href="#DejaVuSans-20" x="238.378906"/>
     <use xlink:href="#DejaVuSans-32" x="270.166016"/>
     <use xlink:href="#DejaVuSans-20" x="333.789062"/>
     <use xlink:href="#DejaVuSans-6d" x="365.576172"/>
    </g>
   </g>
   <g id="text_11">
    <!-- x = 44 m -->
    <g style="fill: #2a2926" transform="translate(598.242225 87.517976) scale(0.08 -0.08)">
     <use xlink:href="#DejaVuSans-78"/>
     <use xlink:href="#DejaVuSans-20" x="59.179688"/>
     <use xlink:href="#DejaVuSans-3d" x="90.966797"/>
     <use xlink:href="#DejaVuSans-20" x="174.755859"/>
     <use xlink:href="#DejaVuSans-34" x="206.542969"/>
     <use xlink:href="#DejaVuSans-34" x="270.166016"/>
     <use xlink:href="#DejaVuSans-20" x="333.789062"/>
     <use xlink:href="#DejaVuSans-6d" x="365.576172"/>
    </g>
   </g>
   <g id="text_12">
    <!-- t = 12 s -->
    <g style="fill: #2a2926" transform="translate(679.3941 157.613214) scale(0.08 -0.08)">
     <defs>
      <path id="DejaVuSans-74" d="M 1172 4494 
L 1172 3500 
L 2356 3500 
L 2356 3053 
L 1172 3053 
L 1172 1153 
Q 1172 725 1289 603 
Q 1406 481 1766 481 
L 2356 481 
L 2356 0 
L 1766 0 
Q 1100 0 847 248 
Q 594 497 594 1153 
L 594 3053 
L 172 3053 
L 172 3500 
L 594 3500 
L 594 4494 
L 1172 4494 
z
" transform="scale(0.015625)"/>
     </defs>
     <use xlink:href="#DejaVuSans-74"/>
     <use xlink:href="#DejaVuSans-20" x="39.208984"/>
     <use xlink:href="#DejaVuSans-3d" x="70.996094"/>
     <use xlink:href="#DejaVuSans-20" x="154.785156"/>
     <use xlink:href="#DejaVuSans-31" x="186.572266"/>
     <use xlink:href="#DejaVuSans-32" x="250.195312"/>
     <use xlink:href="#DejaVuSans-20" x="313.818359"/>
     <use xlink:href="#DejaVuSans-73" x="345.605469"/>
    </g>
   </g>
  </g>
 </g>
 <defs>
  <clipPath id="pb2b44e7d91">
   <rect x="4" y="4" width="748" height="294.4"/>
  </clipPath>
 </defs>
</svg>
