<?xml version="1.0" encoding="utf-8" standalone="no"?>
<!DOCTYPE svg PUBLIC "-//W3C//DTD SVG 1.1//EN"
  "http://www.w3.org/Graphics/SVG/1.1/DTD/svg11.dtd">
<svg xmlns:xlink="http://www.w3.org/1999/xlink" width="756pt" height="302.4pt" viewBox="0 0 756 302.4" xmlns="http://www.w3.org/2000/svg" version="1.1">
 <metadata>
  <rdf:RDF xmlns:dc="http://purl.org/dc/elements/1.1/" xmlns:cc="http://creativecommons.org/ns#" xmlns:rdf="http://www.w3.org/1999/02/22-rdf-syntax-ns#">
   <cc:Work>
    <dc:type rdf:resource="http://purl.org/dc/dcmitype/StillImage"/>
    <dc:date>2026-03-26T00:00:00</dc:date>
    <dc:format>image/svg+xml</dc:format>
    <dc:creator>
     <cc:Agent>
      <dc:title>Matplotlib v3.7.5, https://matplotlib.org/</dc:title>
     </cc:Agent>
    </dc:creator>
   </cc:Work>
  </rdf:RDF>
 </metadata>
 <defs>
  <style type="text/css">*{stroke-linejoin: round; stroke-linecap: butt}</style>
 </defs>
 <g id="figure_1">
  <g id="patch_1">
   <path d="M 0 302.4 
L 756 302.4 
L 756 0 
L 0 0 
z
" style="fill: #f6f1e6"/>
  </g>
  <g id="axes_1">
   <g id="patch_2">
    <path d="M 11.475698 291.390476 
L 744.094102 291.390476 
L 744.094102 11.009524 
L 11.475698 11.009524 
z
" clip-path="url(#pd3643ff9a5)" style="fill: #f6f1e6; stroke: #d8c1a2; stroke-width: 1.4; stroke-linejoin: miter"/>
   </g>
   <g id="patch_3">
    <path d="M 40.257135 53.417143 
L 251.819389 53.417143 
Q 260.042657 53.417143 260.042657 45.706667 
L 260.042657 28.182857 
Q 260.042657 20.472381 251.819389 20.472381 
L 40.257135 20.472381 
Q 32.033868 20.472381 32.033868 28.182857 
L 32.033868 45.706667 
Q 32.033868 53.417143 40.257135 53.417143 
z
" clip-path="url(#pd3643ff9a5)" style="fill: #efe5d2"/>
   </g>
   <g id="patch_4">
    <path d="M 65.803408 249.333333 
Q 377.783302 249.333333 688.197949 249.333333 
" clip-path="url(#pd3643ff9a5)" style="fill: none; stroke: #2a2926; stroke-width: 1.4; stroke-linecap: round"/>
    <path d="M 683.397949 246.933333 
L 688.197949 249.333333 
L 683.397949 251.733333 
z
" clip-path="url(#pd3643ff9a5)" style="fill: #2a2926; stroke: #2a2926; stroke-width: 1.4; stroke-linecap: round"/>
   </g>
   <g id="patch_5">
    <path d="M 63.805584 217.790476 
L 691.764216 217.790476 
L 691.764216 182.742857 
L 63.805584 182.742857 
z
" clip-path="url(#pd3643ff9a5)" style="fill: #5d6166; stroke: #484c50; stroke-linejoin: miter"/>
   </g>
   <g id="patch_6">
    <path d="M 112.995677 209.887238 
C 115.538333 209.887238 117.977192 208.940025 119.775122 207.254212 
C 121.573051 205.568398 122.58326 203.281624 122.58326 200.897524 
C 122.58326 198.513424 121.573051 196.226649 119.775122 194.540836 
C 117.977192 192.855023 115.538333 191.90781 112.995677 191.90781 
C 110.45302 191.90781 108.014162 192.855023 106.216232 194.540836 
C 104.418302 196.226649 103.408094 198.513424 103.408094 200.897524 
C 103.408094 203.281624 104.418302 205.568398 106.216232 207.254212 
C 108.014162 208.940025 110.45302 209.887238 112.995677 209.887238 
z
" clip-path="url(#pd3643ff9a5)" style="fill: #30363b; opacity: 0.45; stroke: #2a2926; stroke-linejoin: miter"/>
   </g>
   <g id="patch_7">
    <path d="M 112.995677 204.56 
C 114.031574 204.56 115.025183 204.174098 115.757673 203.487286 
C 116.490163 202.800473 116.901729 201.868824 116.901729 200.897524 
C 116.901729 199.926224 116.490163 198.994575 115.757673 198.307762 
C 115.025183 197.620949 114.031574 197.235048 112.995677 197.235048 
C 111.95978 197.235048 110.966171 197.620949 110.233681 198.307762 
C 109.501191 198.994575 109.089625 199.926224 109.089625 200.897524 
C 109.089625 201.868824 109.501191 202.800473 110.233681 203.487286 
C 110.966171 204.174098 111.95978 204.56 112.995677 204.56 
z
" clip-path="url(#pd3643ff9a5)" style="fill: #d8dade; opacity: 0.45"/>
   </g>
   <g id="patch_8">
    <path d="M 161.288686 209.887238 
C 163.831343 209.887238 166.270201 208.940025 168.068131 207.254212 
C 169.86606 205.568398 170.876269 203.281624 170.876269 200.897524 
C 170.876269 198.513424 169.86606 196.226649 168.068131 194.540836 
C 166.270201 192.855023 163.831343 191.90781 161.288686 191.90781 
C 158.746029 191.90781 156.307171 192.855023 154.509241 194.540836 
C 152.711311 196.226649 151.701103 198.513424 151.701103 200.897524 
C 151.701103 203.281624 152.711311 205.568398 154.509241 207.254212 
C 156.307171 208.940025 158.746029 209.887238 161.288686 209.887238 
z
" clip-path="url(#pd3643ff9a5)" style="fill: #30363b; opacity: 0.45; stroke: #2a2926; stroke-linejoin: miter"/>
   </g>
   <g id="patch_9">
    <path d="M 161.288686 204.56 
C 162.324583 204.56 163.318192 204.174098 164.050682 203.487286 
C 164.783172 202.800473 165.194738 201.868824 165.194738 200.897524 
C 165.194738 199.926224 164.783172 198.994575 164.050682 198.307762 
C 163.318192 197.620949 162.324583 197.235048 161.288686 197.235048 
C 160.252789 197.235048 159.25918 197.620949 158.52669 198.307762 
C 157.7942 198.994575 157.382634 199.926224 157.382634 200.897524 
C 157.382634 201.868824 157.7942 202.800473 158.52669 203.487286 
C 159.25918 204.174098 160.252789 204.56 161.288686 204.56 
z
" clip-path="url(#pd3643ff9a5)" style="fill: #d8dade; opacity: 0.45"/>
   </g>
   <g id="patch_10">
    <path d="M 130.040268 185.756952 
L 152.76639 185.756952 
Q 156.504239 185.756952 156.504239 182.25219 
L 156.504239 178.922667 
Q 156.504239 175.417905 152.76639 175.417905 
L 130.040268 175.417905 
Q 126.302419 175.417905 126.302419 178.922667 
L 126.302419 182.25219 
Q 126.302419 185.756952 130.040268 185.756952 
z
" clip-path="url(#pd3643ff9a5)" style="fill: #8b9098; opacity: 0.45; stroke: #2a2926; stroke-linejoin: miter"/>
   </g>
   <g id="patch_11">
    <path d="M 634.799397 209.887238 
C 637.342054 209.887238 639.780912 208.940025 641.578842 207.254212 
C 643.376772 205.568398 644.38698 203.281624 644.38698 200.897524 
C 644.38698 198.513424 643.376772 196.226649 641.578842 194.540836 
C 639.780912 192.855023 637.342054 191.90781 634.799397 191.90781 
C 632.256741 191.90781 629.817882 192.855023 628.019953 194.540836 
C 626.222023 196.226649 625.211815 198.513424 625.211815 200.897524 
C 625.211815 203.281624 626.222023 205.568398 628.019953 207.254212 
C 629.817882 208.940025 632.256741 209.887238 634.799397 209.887238 
z
" clip-path="url(#pd3643ff9a5)" style="fill: #30363b; stroke: #2a2926; stroke-linejoin: miter"/>
   </g>
   <g id="patch_12">
    <path d="M 634.799397 204.56 
C 635.835294 204.56 636.828903 204.174098 637.561393 203.487286 
C 638.293883 202.800473 638.705449 201.868824 638.705449 200.897524 
C 638.705449 199.926224 638.293883 198.994575 637.561393 198.307762 
C 636.828903 197.620949 635.835294 197.235048 634.799397 197.235048 
C 633.7635 197.235048 632.769891 197.620949 632.037401 198.307762 
C 631.304911 198.994575 630.893345 199.926224 630.893345 200.897524 
C 630.893345 201.868824 631.304911 202.800473 632.037401 203.487286 
C 632.769891 204.174098 633.7635 204.56 634.799397 204.56 
z
" clip-path="url(#pd3643ff9a5)" style="fill: #d8dade"/>
   </g>
   <g id="patch_13">
    <path d="M 683.092406 209.887238 
C 685.635063 209.887238 688.073921 208.940025 689.871851 207.254212 
C 691.669781 205.568398 692.679989 203.281624 692.679989 200.897524 
C 692.679989 198.513424 691.669781 196.226649 689.871851 194.540836 
C 688.073921 192.855023 685.635063 191.90781 683.092406 191.90781 
C 680.54975 191.90781 678.110891 192.855023 676.312962 194.540836 
C 674.515032 196.226649 673.504824 198.513424 673.504824 200.897524 
C 673.504824 203.281624 674.515032 205.568398 676.312962 207.254212 
C 678.110891 208.940025 680.54975 209.887238 683.092406 209.887238 
z
" clip-path="url(#pd3643ff9a5)" style="fill: #30363b; stroke: #2a2926; stroke-linejoin: miter"/>
   </g>
   <g id="patch_14">
    <path d="M 683.092406 204.56 
C 684.128303 204.56 685.121912 204.174098 685.854402 203.487286 
C 686.586892 202.800473 686.998459 201.868824 686.998459 200.897524 
C 686.998459 199.926224 686.586892 198.994575 685.854402 198.307762 
C 685.121912 197.620949 684.128303 197.235048 683.092406 197.235048 
C 682.056509 197.235048 681.0629 197.620949 680.33041 198.307762 
C 679.59792 198.994575 679.186354 199.926224 679.186354 200.897524 
C 679.186354 201.868824 679.59792 202.800473 680.33041 203.487286 
C 681.0629 204.174098 682.056509 204.56 683.092406 204.56 
z
" clip-path="url(#pd3643ff9a5)" style="fill: #d8dade"/>
   </g>
   <g id="patch_15">
    <path d="M 651.843989 185.756952 
L 674.570111 185.756952 
Q 678.30796 185.756952 678.30796 182.25219 
L 678.30796 178.922667 
Q 678.30796 175.417905 674.570111 175.417905 
L 651.843989 175.417905 
Q 648.10614 175.417905 648.10614 178.922667 
L 648.10614 182.25219 
Q 648.10614 185.756952 651.843989 185.756952 
z
" clip-path="url(#pd3643ff9a5)" style="fill: #cc5a4e; stroke: #2a2926; stroke-linejoin: miter"/>
   </g>
   <g id="patch_16">
    <path d="M 185.414935 109.142857 
Q 408.806627 109.142857 630.633072 109.142857 
" clip-path="url(#pd3643ff9a5)" style="fill: none; stroke: #8b5e34; stroke-width: 1.4; stroke-linecap: round"/>
    <path d="M 625.833072 106.742857 
L 630.633072 109.142857 
L 625.833072 111.542857 
" clip-path="url(#pd3643ff9a5)" style="fill: none; stroke: #8b5e34; stroke-width: 1.4; stroke-linecap: round"/>
   </g>
   <g id="patch_17">
    <path d="M 106.043278 95.474286 
L 171.08185 95.474286 
Q 174.819699 95.474286 174.819699 91.969524 
L 174.819699 78.651429 
Q 174.819699 75.146667 171.08185 75.146667 
L 106.043278 75.146667 
Q 102.305429 75.146667 102.305429 78.651429 
L 102.305429 91.969524 
Q 102.305429 95.474286 106.043278 95.474286 
z
" clip-path="url(#pd3643ff9a5)" style="fill: #efe5d2"/>
   </g>
   <g id="patch_18">
    <path d="M 627.846998 95.474286 
L 692.885571 95.474286 
Q 696.62342 95.474286 696.62342 91.969524 
L 696.62342 78.651429 
Q 696.62342 75.146667 692.885571 75.146667 
L 627.846998 75.146667 
Q 624.109149 75.146667 624.109149 78.651429 
L 624.109149 91.969524 
Q 624.109149 95.474286 627.846998 95.474286 
z
" clip-path="url(#pd3643ff9a5)" style="fill: #efe5d2"/>
   </g>
   <g id="patch_19">
    <path d="M 702.603978 165.569524 
L 767.642551 165.569524 
Q 771.3804 165.569524 771.3804 162.064762 
L 771.3804 148.746667 
Q 771.3804 145.241905 767.642551 145.241905 
L 702.603978 145.241905 
Q 698.866129 145.241905 698.866129 148.746667 
L 698.866129 162.064762 
Q 698.866129 165.569524 702.603978 165.569524 
z
" clip-path="url(#pd3643ff9a5)" style="fill: #efe5d2"/>
   </g>
   <g id="line2d_1">
    <path d="M 63.805584 257.04381 
L 63.805584 241.622857 
" clip-path="url(#pd3643ff9a5)" style="fill: none; stroke: #2a2926; stroke-linecap: square"/>
   </g>
   <g id="line2d_2">
    <path d="M 189.39731 257.04381 
L 189.39731 241.622857 
" clip-path="url(#pd3643ff9a5)" style="fill: none; stroke: #2a2926; stroke-linecap: square"/>
   </g>
   <g id="line2d_3">
    <path d="M 314.989037 257.04381 
L 314.989037 241.622857 
" clip-path="url(#pd3643ff9a5)" style="fill: none; stroke: #2a2926; stroke-linecap: square"/>
   </g>
   <g id="line2d_4">
    <path d="M 440.580763 257.04381 
L 440.580763 241.622857 
" clip-path="url(#pd3643ff9a5)" style="fill: none; stroke: #2a2926; stroke-linecap: square"/>
   </g>
   <g id="line2d_5">
    <path d="M 566.17249 257.04381 
L 566.17249 241.622857 
" clip-path="url(#pd3643ff9a5)" style="fill: none; stroke: #2a2926; stroke-linecap: square"/>
   </g>
   <g id="line2d_6">
    <path d="M 691.764216 257.04381 
L 691.764216 241.622857 
" clip-path="url(#pd3643ff9a5)" style="fill: none; stroke: #2a2926; stroke-linecap: square"/>
   </g>
   <g id="line2d_7">
    <path d="M 63.805584 182.742857 
L 691.764216 182.742857 
" clip-path="url(#pd3643ff9a5)" style="fill: none; stroke: #d7d9dc; stroke-opacity: 0.7; stroke-linecap: square"/>
   </g>
   <g id="line2d_8">
    <path d="M 117.256825 200.897524 
L 132.881034 181.586286 
L 145.664477 180.920381 
L 161.288686 200.897524 
" clip-path="url(#pd3643ff9a5)" style="fill: none; stroke: #2a2926; stroke-opacity: 0.45; stroke-width: 1.2; stroke-linecap: square"/>
   </g>
   <g id="line2d_9">
    <path d="M 132.881034 181.586286 
L 142.823712 171.597714 
" clip-path="url(#pd3643ff9a5)" style="fill: none; stroke: #2a2926; stroke-opacity: 0.45; stroke-linecap: square"/>
   </g>
   <g id="line2d_10">
    <path d="M 144.954286 172.929524 
L 158.447921 165.604571 
" clip-path="url(#pd3643ff9a5)" style="fill: none; stroke: #2a2926; stroke-opacity: 0.45; stroke-linecap: square"/>
   </g>
   <g id="line2d_11">
    <path d="M 132.881034 171.597714 
L 122.228164 164.938667 
" clip-path="url(#pd3643ff9a5)" style="fill: none; stroke: #2a2926; stroke-opacity: 0.45; stroke-linecap: square"/>
   </g>
   <g id="line2d_12">
    <path d="M 639.060545 200.897524 
L 654.684754 181.586286 
L 667.468198 180.920381 
L 683.092406 200.897524 
" clip-path="url(#pd3643ff9a5)" style="fill: none; stroke: #2a2926; stroke-width: 1.2; stroke-linecap: square"/>
   </g>
   <g id="line2d_13">
    <path d="M 654.684754 181.586286 
L 664.627432 171.597714 
" clip-path="url(#pd3643ff9a5)" style="fill: none; stroke: #2a2926; stroke-linecap: square"/>
   </g>
   <g id="line2d_14">
    <path d="M 666.758006 172.929524 
L 680.251641 165.604571 
" clip-path="url(#pd3643ff9a5)" style="fill: none; stroke: #2a2926; stroke-linecap: square"/>
   </g>
   <g id="line2d_15">
    <path d="M 654.684754 171.597714 
L 644.031884 164.938667 
" clip-path="url(#pd3643ff9a5)" style="fill: none; stroke: #2a2926; stroke-linecap: square"/>
   </g>
   <g id="text_1">
    <!-- Moto em MUV acelerado -->
    <g style="fill: #2a2926" transform="translate(48.854188 41.657917) scale(0.12 -0.12)">
     <defs>
      <path id="DejaVuSans-Bold-4d" d="M 588 4666 
L 2119 4666 
L 3181 2169 
L 4250 4666 
L 5778 4666 
L 5778 0 
L 4641 0 
L 4641 3413 
L 3566 897 
L 2803 897 
L 1728 3413 
L 1728 0 
L 588 0 
L 588 4666 
z
" transform="scale(0.015625)"/>
      <path id="DejaVuSans-Bold-6f" d="M 2203 2784 
Q 1831 2784 1636 2517 
Q 1441 2250 1441 1747 
Q 1441 1244 1636 976 
Q 1831 709 2203 709 
Q 2569 709 2762 976 
Q 2956 1244 2956 1747 
Q 2956 2250 2762 2517 
Q 2569 2784 2203 2784 
z
M 2203 3584 
Q 3106 3584 3614 3096 
Q 4122 2609 4122 1747 
Q 4122 884 3614 396 
Q 3106 -91 2203 -91 
Q 1297 -91 786 396 
Q 275 884 275 1747 
Q 275 2609 786 3096 
Q 1297 3584 2203 3584 
z
" transform="scale(0.015625)"/>
      <path id="DejaVuSans-Bold-74" d="M 1759 4494 
L 1759 3500 
L 2913 3500 
L 2913 2700 
L 1759 2700 
L 1759 1216 
Q 1759 972 1856 886 
Q 1953 800 2241 800 
L 2816 800 
L 2816 0 
L 1856 0 
Q 1194 0 917 276 
Q 641 553 641 1216 
L 641 2700 
L 84 2700 
L 84 3500 
L 641 3500 
L 641 4494 
L 1759 4494 
z
" transform="scale(0.015625)"/>
      <path id="DejaVuSans-Bold-20" transform="scale(0.015625)"/>
      <path id="DejaVuSans-Bold-65" d="M 4031 1759 
L 4031 1441 
L 1416 1441 
Q 1456 1047 1700 850 
Q 1944 653 2381 653 
Q 2734 653 3104 758 
Q 3475 863 3866 1075 
L 3866 213 
Q 3469 63 3072 -14 
Q 2675 -91 2278 -91 
Q 1328 -91 801 392 
Q 275 875 275 1747 
Q 275 2603 792 3093 
Q 1309 3584 2216 3584 
Q 3041 3584 3536 3087 
Q 4031 2591 4031 1759 
z
M 2881 2131 
Q 2881 2450 2695 2645 
Q 2509 2841 2209 2841 
Q 1884 2841 1681 2658 
Q 1478 2475 1428 2131 
L 2881 2131 
z
" transform="scale(0.015625)"/>
      <path id="DejaVuSans-Bold-6d" d="M 3781 2919 
Q 3994 3244 4286 3414 
Q 4578 3584 4928 3584 
Q 5531 3584 5847 3212 
Q 6163 2841 6163 2131 
L 6163 0 
L 5038 0 
L 5038 1825 
Q 5041 1866 5042 1909 
Q 5044 1953 5044 2034 
Q 5044 2406 4934 2573 
Q 4825 2741 4581 2741 
Q 4263 2741 4089 2478 
Q 3916 2216 3909 1719 
L 3909 0 
L 2784 0 
L 2784 1825 
Q 2784 2406 2684 2573 
Q 2584 2741 2328 2741 
Q 2006 2741 1831 2477 
Q 1656 2213 1656 1722 
L 1656 0 
L 531 0 
L 531 3500 
L 1656 3500 
L 1656 2988 
Q 1863 3284 2130 3434 
Q 2397 3584 2719 3584 
Q 3081 3584 3359 3409 
Q 3638 3234 3781 2919 
z
" transform="scale(0.015625)"/>
      <path id="DejaVuSans-Bold-55" d="M 588 4666 
L 1791 4666 
L 1791 1869 
Q 1791 1291 1980 1042 
Q 2169 794 2597 794 
Q 3028 794 3217 1042 
Q 3406 1291 3406 1869 
L 3406 4666 
L 4609 4666 
L 4609 1869 
Q 4609 878 4112 393 
Q 3616 -91 2597 -91 
Q 1581 -91 1084 393 
Q 588 878 588 1869 
L 588 4666 
z
" transform="scale(0.015625)"/>
      <path id="DejaVuSans-Bold-56" d="M 31 4666 
L 1241 4666 
L 2478 1222 
L 3713 4666 
L 4922 4666 
L 3194 0 
L 1759 0 
L 31 4666 
z
" transform="scale(0.015625)"/>
      <path id="DejaVuSans-Bold-61" d="M 2106 1575 
Q 1756 1575 1579 1456 
Q 1403 1338 1403 1106 
Q 1403 894 1545 773 
Q 1688 653 1941 653 
Q 2256 653 2472 879 
Q 2688 1106 2688 1447 
L 2688 1575 
L 2106 1575 
z
M 3816 1997 
L 3816 0 
L 2688 0 
L 2688 519 
Q 2463 200 2181 54 
Q 1900 -91 1497 -91 
Q 953 -91 614 226 
Q 275 544 275 1050 
Q 275 1666 698 1953 
Q 1122 2241 2028 2241 
L 2688 2241 
L 2688 2328 
Q 2688 2594 2478 2717 
Q 2269 2841 1825 2841 
Q 1466 2841 1156 2769 
Q 847 2697 581 2553 
L 581 3406 
Q 941 3494 1303 3539 
Q 1666 3584 2028 3584 
Q 2975 3584 3395 3211 
Q 3816 2838 3816 1997 
z
" transform="scale(0.015625)"/>
      <path id="DejaVuSans-Bold-63" d="M 3366 3391 
L 3366 2478 
Q 3138 2634 2908 2709 
Q 2678 2784 2431 2784 
Q 1963 2784 1702 2511 
Q 1441 2238 1441 1747 
Q 1441 1256 1702 982 
Q 1963 709 2431 709 
Q 2694 709 2930 787 
Q 3166 866 3366 1019 
L 3366 103 
Q 3103 6 2833 -42 
Q 2563 -91 2291 -91 
Q 1344 -91 809 395 
Q 275 881 275 1747 
Q 275 2613 809 3098 
Q 1344 3584 2291 3584 
Q 2566 3584 2833 3536 
Q 3100 3488 3366 3391 
z
" transform="scale(0.015625)"/>
      <path id="DejaVuSans-Bold-6c" d="M 538 4863 
L 1656 4863 
L 1656 0 
L 538 0 
L 538 4863 
z
" transform="scale(0.015625)"/>
      <path id="DejaVuSans-Bold-72" d="M 3138 2547 
Q 2991 2616 2845 2648 
Q 2700 2681 2553 2681 
Q 2122 2681 1889 2404 
Q 1656 2128 1656 1613 
L 1656 0 
L 538 0 
L 538 3500 
L 1656 3500 
L 1656 2925 
Q 1872 3269 2151 3426 
Q 2431 3584 2822 3584 
Q 2878 3584 2943 3579 
Q 3009 3575 3134 3559 
L 3138 2547 
z
" transform="scale(0.015625)"/>
      <path id="DejaVuSans-Bold-64" d="M 2919 2988 
L 2919 4863 
L 4044 4863 
L 4044 0 
L 2919 0 
L 2919 506 
Q 2688 197 2409 53 
Q 2131 -91 1766 -91 
Q 1119 -91 703 423 
Q 288 938 288 1747 
Q 288 2556 703 3070 
Q 1119 3584 1766 3584 
Q 2128 3584 2408 3439 
Q 2688 3294 2919 2988 
z
M 2181 722 
Q 2541 722 2730 984 
Q 2919 1247 2919 1747 
Q 2919 2247 2730 2509 
Q 2541 2772 2181 2772 
Q 1825 2772 1636 2509 
Q 1447 2247 1447 1747 
Q 1447 1247 1636 984 
Q 1825 722 2181 722 
z
" transform="scale(0.015625)"/>
     </defs>
     <use xlink:href="#DejaVuSans-Bold-4d"/>
     <use xlink:href="#DejaVuSans-Bold-6f" x="99.511719"/>
     <use xlink:href="#DejaVuSans-Bold-74" x="168.212891"/>
     <use xlink:href="#DejaVuSans-Bold-6f" x="216.015625"/>
     <use xlink:href="#DejaVuSans-Bold-20" x="284.716797"/>
     <use xlink:href="#DejaVuSans-Bold-65" x="319.53125"/>
     <use xlink:href="#DejaVuSans-Bold-6d" x="387.353516"/>
     <use xlink:href="#DejaVuSans-Bold-20" x="491.552734"/>
     <use xlink:href="#DejaVuSans-Bold-4d" x="526.367188"/>
     <use xlink:href="#DejaVuSans-Bold-55" x="625.878906"/>
     <use xlink:href="#DejaVuSans-Bold-56" x="707.080078"/>
     <use xlink:href="#DejaVuSans-Bold-20" x="784.472656"/>
     <use xlink:href="#DejaVuSans-Bold-61" x="819.287109"/>
     <use xlink:href="#DejaVuSans-Bold-63" x="886.767578"/>
     <use xlink:href="#DejaVuSans-Bold-65" x="946.044922"/>
     <use xlink:href="#DejaVuSans-Bold-6c" x="1013.867188"/>
     <use xlink:href="#DejaVuSans-Bold-65" x="1048.144531"/>
     <use xlink:href="#DejaVuSans-Bold-72" x="1115.966797"/>
     <use xlink:href="#DejaVuSans-Bold-61" x="1165.283203"/>
     <use xlink:href="#DejaVuSans-Bold-64" x="1232.763672"/>
     <use xlink:href="#DejaVuSans-Bold-6f" x="1304.345703"/>
    </g>
   </g>
   <g id="text_2">
    <!-- 0 -->
    <g style="fill: #665f56" transform="translate(61.260584 277.84256) scale(0.08 -0.08)">
     <defs>
      <path id="DejaVuSans-30" d="M 2034 4250 
Q 1547 4250 1301 3770 
Q 1056 3291 1056 2328 
Q 1056 1369 1301 889 
Q 1547 409 2034 409 
Q 2525 409 2770 889 
Q 3016 1369 3016 2328 
Q 3016 3291 2770 3770 
Q 2525 4250 2034 4250 
z
M 2034 4750 
Q 2819 4750 3233 4129 
Q 3647 3509 3647 2328 
Q 3647 1150 3233 529 
Q 2819 -91 2034 -91 
Q 1250 -91 836 529 
Q 422 1150 422 2328 
Q 422 3509 836 4129 
Q 1250 4750 2034 4750 
z
" transform="scale(0.015625)"/>
     </defs>
     <use xlink:href="#DejaVuSans-30"/>
    </g>
   </g>
   <g id="text_3">
    <!-- 10 -->
    <g style="fill: #665f56" transform="translate(184.30731 277.84256) scale(0.08 -0.08)">
     <defs>
      <path id="DejaVuSans-31" d="M 794 531 
L 1825 531 
L 1825 4091 
L 703 3866 
L 703 4441 
L 1819 4666 
L 2450 4666 
L 2450 531 
L 3481 531 
L 3481 0 
L 794 0 
L 794 531 
z
" transform="scale(0.015625)"/>
     </defs>
     <use xlink:href="#DejaVuSans-31"/>
     <use xlink:href="#DejaVuSans-30" x="63.623047"/>
    </g>
   </g>
   <g id="text_4">
    <!-- 20 -->
    <g style="fill: #665f56" transform="translate(309.899037 277.84256) scale(0.08 -0.08)">
     <defs>
      <path id="DejaVuSans-32" d="M 1228 531 
L 3431 531 
L 3431 0 
L 469 0 
L 469 531 
Q 828 903 1448 1529 
Q 2069 2156 2228 2338 
Q 2531 2678 2651 2914 
Q 2772 3150 2772 3378 
Q 2772 3750 2511 3984 
Q 2250 4219 1831 4219 
Q 1534 4219 1204 4116 
Q 875 4013 500 3803 
L 500 4441 
Q 881 4594 1212 4672 
Q 1544 4750 1819 4750 
Q 2544 4750 2975 4387 
Q 3406 4025 3406 3419 
Q 3406 3131 3298 2873 
Q 3191 2616 2906 2266 
Q 2828 2175 2409 1742 
Q 1991 1309 1228 531 
z
" transform="scale(0.015625)"/>
     </defs>
     <use xlink:href="#DejaVuSans-32"/>
     <use xlink:href="#DejaVuSans-30" x="63.623047"/>
    </g>
   </g>
   <g id="text_5">
    <!-- 30 -->
    <g style="fill: #665f56" transform="translate(435.490763 277.84256) scale(0.08 -0.08)">
     <defs>
      <path id="DejaVuSans-33" d="M 2597 2516 
Q 3050 2419 3304 2112 
Q 3559 1806 3559 1356 
Q 3559 666 3084 287 
Q 2609 -91 1734 -91 
Q 1441 -91 1130 -33 
Q 819 25 488 141 
L 488 750 
Q 750 597 1062 519 
Q 1375 441 1716 441 
Q 2309 441 2620 675 
Q 2931 909 2931 1356 
Q 2931 1769 2642 2001 
Q 2353 2234 1838 2234 
L 1294 2234 
L 1294 2753 
L 1863 2753 
Q 2328 2753 2575 2939 
Q 2822 3125 2822 3475 
Q 2822 3834 2567 4026 
Q 2313 4219 1838 4219 
Q 1578 4219 1281 4162 
Q 984 4106 628 3988 
L 628 4550 
Q 988 4650 1302 4700 
Q 1616 4750 1894 4750 
Q 2613 4750 3031 4423 
Q 3450 4097 3450 3541 
Q 3450 3153 3228 2886 
Q 3006 2619 2597 2516 
z
" transform="scale(0.015625)"/>
     </defs>
     <use xlink:href="#DejaVuSans-33"/>
     <use xlink:href="#DejaVuSans-30" x="63.623047"/>
    </g>
   </g>
   <g id="text_6">
    <!-- 40 -->
    <g style="fill: #665f56" transform="translate(561.08249 277.84256) scale(0.08 -0.08)">
     <defs>
      <path id="DejaVuSans-34" d="M 2419 4116 
L 825 1625 
L 2419 1625 
L 2419 4116 
z
M 2253 4666 
L 3047 4666 
L 3047 1625 
L 3713 1625 
L 3713 1100 
L 3047 1100 
L 3047 0 
L 2419 0 
L 2419 1100 
L 313 1100 
L 313 1709 
L 2253 4666 
z
" transform="scale(0.015625)"/>
     </defs>
     <use xlink:href="#DejaVuSans-34"/>
     <use xlink:href="#DejaVuSans-30" x="63.623047"/>
    </g>
   </g>
   <g id="text_7">
    <!-- 50 -->
    <g style="fill: #665f56" transform="translate(686.674216 277.84256) scale(0.08 -0.08)">
     <defs>
      <path id="DejaVuSans-35" d="M 691 4666 
L 3169 4666 
L 3169 4134 
L 1269 4134 
L 1269 2991 
Q 1406 3038 1543 3061 
Q 1681 3084 1819 3084 
Q 2600 3084 3056 2656 
Q 3513 2228 3513 1497 
Q 3513 744 3044 326 
Q 2575 -91 1722 -91 
Q 1428 -91 1123 -41 
Q 819 9 494 109 
L 494 744 
Q 775 591 1075 516 
Q 1375 441 1709 441 
Q 2250 441 2565 725 
Q 2881 1009 2881 1497 
Q 2881 1984 2565 2268 
Q 2250 2553 1709 2553 
Q 1456 2553 1204 2497 
Q 953 2441 691 2322 
L 691 4666 
z
" transform="scale(0.015625)"/>
     </defs>
     <use xlink:href="#DejaVuSans-35"/>
     <use xlink:href="#DejaVuSans-30" x="63.623047"/>
    </g>
   </g>
   <g id="text_8">
    <!-- S (m) -->
    <g style="fill: #2a2926" transform="translate(700.735054 247.931429) scale(0.09 -0.09)">
     <defs>
      <path id="DejaVuSans-Bold-53" d="M 3834 4519 
L 3834 3531 
Q 3450 3703 3084 3790 
Q 2719 3878 2394 3878 
Q 1963 3878 1756 3759 
Q 1550 3641 1550 3391 
Q 1550 3203 1689 3098 
Q 1828 2994 2194 2919 
L 2706 2816 
Q 3484 2659 3812 2340 
Q 4141 2022 4141 1434 
Q 4141 663 3683 286 
Q 3225 -91 2284 -91 
Q 1841 -91 1394 -6 
Q 947 78 500 244 
L 500 1259 
Q 947 1022 1364 901 
Q 1781 781 2169 781 
Q 2563 781 2772 912 
Q 2981 1044 2981 1288 
Q 2981 1506 2839 1625 
Q 2697 1744 2272 1838 
L 1806 1941 
Q 1106 2091 782 2419 
Q 459 2747 459 3303 
Q 459 4000 909 4375 
Q 1359 4750 2203 4750 
Q 2588 4750 2994 4692 
Q 3400 4634 3834 4519 
z
" transform="scale(0.015625)"/>
      <path id="DejaVuSans-Bold-28" d="M 2413 -844 
L 1484 -844 
Q 1006 -72 778 623 
Q 550 1319 550 2003 
Q 550 2688 779 3389 
Q 1009 4091 1484 4856 
L 2413 4856 
Q 2013 4116 1813 3408 
Q 1613 2700 1613 2009 
Q 1613 1319 1811 609 
Q 2009 -100 2413 -844 
z
" transform="scale(0.015625)"/>
      <path id="DejaVuSans-Bold-29" d="M 513 -844 
Q 913 -100 1113 609 
Q 1313 1319 1313 2009 
Q 1313 2700 1113 3408 
Q 913 4116 513 4856 
L 1441 4856 
Q 1916 4091 2145 3389 
Q 2375 2688 2375 2003 
Q 2375 1319 2147 623 
Q 1919 -72 1441 -844 
L 513 -844 
z
" transform="scale(0.015625)"/>
     </defs>
     <use xlink:href="#DejaVuSans-Bold-53"/>
     <use xlink:href="#DejaVuSans-Bold-20" x="72.021484"/>
     <use xlink:href="#DejaVuSans-Bold-28" x="106.835938"/>
     <use xlink:href="#DejaVuSans-Bold-6d" x="152.539062"/>
     <use xlink:href="#DejaVuSans-Bold-29" x="256.738281"/>
    </g>
   </g>
   <g id="text_9">
    <!-- a = 3 m/s2 -->
    <g style="fill: #8b5e34" transform="translate(386.774672 100.731429) scale(0.08 -0.08)">
     <defs>
      <path id="DejaVuSans-61" d="M 2194 1759 
Q 1497 1759 1228 1600 
Q 959 1441 959 1056 
Q 959 750 1161 570 
Q 1363 391 1709 391 
Q 2188 391 2477 730 
Q 2766 1069 2766 1631 
L 2766 1759 
L 2194 1759 
z
M 3341 1997 
L 3341 0 
L 2766 0 
L 2766 531 
Q 2569 213 2275 61 
Q 1981 -91 1556 -91 
Q 1019 -91 701 211 
Q 384 513 384 1019 
Q 384 1609 779 1909 
Q 1175 2209 1959 2209 
L 2766 2209 
L 2766 2266 
Q 2766 2663 2505 2880 
Q 2244 3097 1772 3097 
Q 1472 3097 1187 3025 
Q 903 2953 641 2809 
L 641 3341 
Q 956 3463 1253 3523 
Q 1550 3584 1831 3584 
Q 2591 3584 2966 3190 
Q 3341 2797 3341 1997 
z
" transform="scale(0.015625)"/>
      <path id="DejaVuSans-20" transform="scale(0.015625)"/>
      <path id="DejaVuSans-3d" d="M 678 2906 
L 4684 2906 
L 4684 2381 
L 678 2381 
L 678 2906 
z
M 678 1631 
L 4684 1631 
L 4684 1100 
L 678 1100 
L 678 1631 
z
" transform="scale(0.015625)"/>
      <path id="DejaVuSans-6d" d="M 3328 2828 
Q 3544 3216 3844 3400 
Q 4144 3584 4550 3584 
Q 5097 3584 5394 3201 
Q 5691 2819 5691 2113 
L 5691 0 
L 5113 0 
L 5113 2094 
Q 5113 2597 4934 2840 
Q 4756 3084 4391 3084 
Q 3944 3084 3684 2787 
Q 3425 2491 3425 1978 
L 3425 0 
L 2847 0 
L 2847 2094 
Q 2847 2600 2669 2842 
Q 2491 3084 2119 3084 
Q 1678 3084 1418 2786 
Q 1159 2488 1159 1978 
L 1159 0 
L 581 0 
L 581 3500 
L 1159 3500 
L 1159 2956 
Q 1356 3278 1631 3431 
Q 1906 3584 2284 3584 
Q 2666 3584 2933 3390 
Q 3200 3197 3328 2828 
z
" transform="scale(0.015625)"/>
      <path id="DejaVuSans-2f" d="M 1625 4666 
L 2156 4666 
L 531 -594 
L 0 -594 
L 1625 4666 
z
" transform="scale(0.015625)"/>
      <path id="DejaVuSans-73" d="M 2834 3397 
L 2834 2853 
Q 2591 2978 2328 3040 
Q 2066 3103 1784 3103 
Q 1356 3103 1142 2972 
Q 928 2841 928 2578 
Q 928 2378 1081 2264 
Q 1234 2150 1697 2047 
L 1894 2003 
Q 2506 1872 2764 1633 
Q 3022 1394 3022 966 
Q 3022 478 2636 193 
Q 2250 -91 1575 -91 
Q 1294 -91 989 -36 
Q 684 19 347 128 
L 347 722 
Q 666 556 975 473 
Q 1284 391 1588 391 
Q 1994 391 2212 530 
Q 2431 669 2431 922 
Q 2431 1156 2273 1281 
Q 2116 1406 1581 1522 
L 1381 1569 
Q 847 1681 609 1914 
Q 372 2147 372 2553 
Q 372 3047 722 3315 
Q 1072 3584 1716 3584 
Q 2034 3584 2315 3537 
Q 2597 3491 2834 3397 
z
" transform="scale(0.015625)"/>
     </defs>
     <use xlink:href="#DejaVuSans-61"/>
     <use xlink:href="#DejaVuSans-20" x="61.279297"/>
     <use xlink:href="#DejaVuSans-3d" x="93.066406"/>
     <use xlink:href="#DejaVuSans-20" x="176.855469"/>
     <use xlink:href="#DejaVuSans-33" x="208.642578"/>
     <use xlink:href="#DejaVuSans-20" x="272.265625"/>
     <use xlink:href="#DejaVuSans-6d" x="304.052734"/>
     <use xlink:href="#DejaVuSans-2f" x="401.464844"/>
     <use xlink:href="#DejaVuSans-73" x="435.15625"/>
     <use xlink:href="#DejaVuSans-32" x="487.255859"/>
    </g>
   </g>
   <g id="text_10">
    <!-- v0 = 2 m/s -->
    <g style="fill: #2a2926" transform="translate(116.611939 87.517976) scale(0.08 -0.08)">
     <defs>
      <path id="DejaVuSans-76" d="M 191 3500 
L 800 3500 
L 1894 563 
L 2988 3500 
L 3597 3500 
L 2284 0 
L 1503 0 
L 191 3500 
z
" transform="scale(0.015625)"/>
     </defs>
     <use xlink:href="#DejaVuSans-76"/>
     <use xlink:href="#DejaVuSans-30" x="59.179688"/>
     <use xlink:href="#DejaVuSans-20" x="122.802734"/>
     <use xlink:href="#DejaVuSans-3d" x="154.589844"/>
     <use xlink:href="#DejaVuSans-20" x="238.378906"/>
     <use xlink:href="#DejaVuSans-32" x="270.166016"/>
     <use xlink:href="#DejaVuSans-20" x="333.789062"/>
     <use xlink:href="#DejaVuSans-6d" x="365.576172"/>
     <use xlink:href="#DejaVuSans-2f" x="462.988281"/>
     <use xlink:href="#DejaVuSans-73" x="496.679688"/>
    </g>
   </g>
   <g id="text_11">
    <!-- Dx = 47,5 m -->
    <g style="fill: #2a2926" transform="translate(634.950659 87.517976) scale(0.08 -0.08)">
     <defs>
      <path id="DejaVuSans-44" d="M 1259 4147 
L 1259 519 
L 2022 519 
Q 2988 519 3436 956 
Q 3884 1394 3884 2338 
Q 3884 3275 3436 3711 
Q 2988 4147 2022 4147 
L 1259 4147 
z
M 628 4666 
L 1925 4666 
Q 3281 4666 3915 4102 
Q 4550 3538 4550 2338 
Q 4550 1131 3912 565 
Q 3275 0 1925 0 
L 628 0 
L 628 4666 
z
" transform="scale(0.015625)"/>
      <path id="DejaVuSans-78" d="M 3513 3500 
L 2247 1797 
L 3578 0 
L 2900 0 
L 1881 1375 
L 863 0 
L 184 0 
L 1544 1831 
L 300 3500 
L 978 3500 
L 1906 2253 
L 2834 3500 
L 3513 3500 
z
" transform="scale(0.015625)"/>
      <path id="DejaVuSans-37" d="M 525 4666 
L 3525 4666 
L 3525 4397 
L 1831 0 
L 1172 0 
L 2766 4134 
L 525 4134 
L 525 4666 
z
" transform="scale(0.015625)"/>
      <path id="DejaVuSans-2c" d="M 750 794 
L 1409 794 
L 1409 256 
L 897 -744 
L 494 -744 
L 750 256 
L 750 794 
z
" transform="scale(0.015625)"/>
     </defs>
     <use xlink:href="#DejaVuSans-44"/>
     <use xlink:href="#DejaVuSans-78" x="77.001953"/>
     <use xlink:href="#DejaVuSans-20" x="136.181641"/>
     <use xlink:href="#DejaVuSans-3d" x="167.96875"/>
     <use xlink:href="#DejaVuSans-20" x="251.757812"/>
     <use xlink:href="#DejaVuSans-34" x="283.544922"/>
     <use xlink:href="#DejaVuSans-37" x="347.167969"/>
     <use xlink:href="#DejaVuSans-2c" x="410.791016"/>
     <use xlink:href="#DejaVuSans-35" x="442.578125"/>
     <use xlink:href="#DejaVuSans-20" x="506.201172"/>
     <use xlink:href="#DejaVuSans-6d" x="537.988281"/>
    </g>
   </g>
   <g id="text_12">
    <!-- t = 5 s -->
    <g style="fill: #2a2926" transform="translate(721.760764 157.613214) scale(0.08 -0.08)">
     <defs>
      <path id="DejaVuSans-74" d="M 1172 4494 
L 1172 3500 
L 2356 3500 
L 2356 3053 
L 1172 3053 
L 1172 1153 
Q 1172 725 1289 603 
Q 1406 481 1766 481 
L 2356 481 
L 2356 0 
L 1766 0 
Q 1100 0 847 248 
Q 594 497 594 1153 
L 594 3053 
L 172 3053 
L 172 3500 
L 594 3500 
L 594 4494 
L 1172 4494 
z
" transform="scale(0.015625)"/>
     </defs>
     <use xlink:href="#DejaVuSans-74"/>
     <use xlink:href="#DejaVuSans-20" x="39.208984"/>
     <use xlink:href="#DejaVuSans-3d" x="70.996094"/>
     <use xlink:href="#DejaVuSans-20" x="154.785156"/>
     <use xlink:href="#DejaVuSans-35" x="186.572266"/>
     <use xlink:href="#DejaVuSans-20" x="250.195312"/>
     <use xlink:href="#DejaVuSans-73" x="281.982422"/>
    </g>
   </g>
  </g>
 </g>
 <defs>
  <clipPath id="pd3643ff9a5">
   <rect x="4" y="4" width="747.5698" height="294.4"/>
  </clipPath>
 </defs>
</svg>
