<?xml version="1.0" encoding="utf-8" standalone="no"?>
<!DOCTYPE svg PUBLIC "-//W3C//DTD SVG 1.1//EN"
  "http://www.w3.org/Graphics/SVG/1.1/DTD/svg11.dtd">
<svg xmlns:xlink="http://www.w3.org/1999/xlink" width="504pt" height="302.4pt" viewBox="0 0 504 302.4" xmlns="http://www.w3.org/2000/svg" version="1.1">
 <metadata>
  <rdf:RDF xmlns:dc="http://purl.org/dc/elements/1.1/" xmlns:cc="http://creativecommons.org/ns#" xmlns:rdf="http://www.w3.org/1999/02/22-rdf-syntax-ns#">
   <cc:Work>
    <dc:type rdf:resource="http://purl.org/dc/dcmitype/StillImage"/>
    <dc:date>2026-03-26T08:59:13.759268</dc:date>
    <dc:format>image/svg+xml</dc:format>
    <dc:creator>
     <cc:Agent>
      <dc:title>Matplotlib v3.10.8, https://matplotlib.org/</dc:title>
     </cc:Agent>
    </dc:creator>
   </cc:Work>
  </rdf:RDF>
 </metadata>
 <defs>
  <style type="text/css">*{stroke-linejoin: round; stroke-linecap: butt}</style>
 </defs>
 <g id="figure_1">
  <g id="patch_1">
   <path d="M 0 302.4 
L 504 302.4 
L 504 0 
L 0 0 
z
" style="fill: #ffffff"/>
  </g>
  <g id="axes_1">
   <g id="patch_2">
    <path d="M 44.57 260.44 
L 490.005 260.44 
L 490.005 27.24 
L 44.57 27.24 
z
" style="fill: #ffffff"/>
   </g>
   <g id="FillBetweenPolyCollection_1">
    <path d="M 44.57 209.744348 
L 44.57 260.44 
L 46.808367 260.44 
L 49.046734 260.44 
L 51.285101 260.44 
L 53.523467 260.44 
L 55.761834 260.44 
L 58.000201 260.44 
L 60.238568 260.44 
L 62.476935 260.44 
L 64.715302 260.44 
L 66.953668 260.44 
L 69.192035 260.44 
L 71.430402 260.44 
L 73.668769 260.44 
L 75.907136 260.44 
L 78.145503 260.44 
L 80.383869 260.44 
L 82.622236 260.44 
L 84.860603 260.44 
L 87.09897 260.44 
L 89.337337 260.44 
L 91.575704 260.44 
L 93.81407 260.44 
L 96.052437 260.44 
L 98.290804 260.44 
L 100.529171 260.44 
L 102.767538 260.44 
L 105.005905 260.44 
L 107.244271 260.44 
L 109.482638 260.44 
L 111.721005 260.44 
L 113.959372 260.44 
L 116.197739 260.44 
L 118.436106 260.44 
L 120.674472 260.44 
L 122.912839 260.44 
L 125.151206 260.44 
L 127.389573 260.44 
L 129.62794 260.44 
L 131.866307 260.44 
L 134.104673 260.44 
L 136.34304 260.44 
L 138.581407 260.44 
L 140.819774 260.44 
L 143.058141 260.44 
L 145.296508 260.44 
L 147.534874 260.44 
L 149.773241 260.44 
L 152.011608 260.44 
L 154.249975 260.44 
L 156.488342 260.44 
L 158.726709 260.44 
L 160.965075 260.44 
L 163.203442 260.44 
L 165.441809 260.44 
L 167.680176 260.44 
L 169.918543 260.44 
L 172.15691 260.44 
L 174.395276 260.44 
L 176.633643 260.44 
L 178.87201 260.44 
L 181.110377 260.44 
L 183.348744 260.44 
L 185.587111 260.44 
L 187.825477 260.44 
L 190.063844 260.44 
L 192.302211 260.44 
L 194.540578 260.44 
L 196.778945 260.44 
L 199.017312 260.44 
L 201.255678 260.44 
L 203.494045 260.44 
L 205.732412 260.44 
L 207.970779 260.44 
L 210.209146 260.44 
L 212.447513 260.44 
L 214.685879 260.44 
L 216.924246 260.44 
L 219.162613 260.44 
L 221.40098 260.44 
L 223.639347 260.44 
L 225.877714 260.44 
L 228.11608 260.44 
L 230.354447 260.44 
L 232.592814 260.44 
L 234.831181 260.44 
L 237.069548 260.44 
L 239.307915 260.44 
L 241.546281 260.44 
L 243.784648 260.44 
L 246.023015 260.44 
L 248.261382 260.44 
L 250.499749 260.44 
L 252.738116 260.44 
L 254.976482 260.44 
L 257.214849 260.44 
L 259.453216 260.44 
L 261.691583 260.44 
L 263.92995 260.44 
L 266.168317 260.44 
L 268.406683 260.44 
L 270.64505 260.44 
L 272.883417 260.44 
L 275.121784 260.44 
L 277.360151 260.44 
L 279.598518 260.44 
L 281.836884 260.44 
L 284.075251 260.44 
L 286.313618 260.44 
L 288.551985 260.44 
L 290.790352 260.44 
L 293.028719 260.44 
L 295.267085 260.44 
L 297.505452 260.44 
L 299.743819 260.44 
L 301.982186 260.44 
L 304.220553 260.44 
L 306.45892 260.44 
L 308.697286 260.44 
L 310.935653 260.44 
L 313.17402 260.44 
L 315.412387 260.44 
L 317.650754 260.44 
L 319.889121 260.44 
L 322.127487 260.44 
L 324.365854 260.44 
L 326.604221 260.44 
L 328.842588 260.44 
L 331.080955 260.44 
L 333.319322 260.44 
L 335.557688 260.44 
L 337.796055 260.44 
L 340.034422 260.44 
L 342.272789 260.44 
L 344.511156 260.44 
L 346.749523 260.44 
L 348.987889 260.44 
L 351.226256 260.44 
L 353.464623 260.44 
L 355.70299 260.44 
L 357.941357 260.44 
L 360.179724 260.44 
L 362.41809 260.44 
L 364.656457 260.44 
L 366.894824 260.44 
L 369.133191 260.44 
L 371.371558 260.44 
L 373.609925 260.44 
L 375.848291 260.44 
L 378.086658 260.44 
L 380.325025 260.44 
L 382.563392 260.44 
L 384.801759 260.44 
L 387.040126 260.44 
L 389.278492 260.44 
L 391.516859 260.44 
L 393.755226 260.44 
L 395.993593 260.44 
L 398.23196 260.44 
L 400.470327 260.44 
L 402.708693 260.44 
L 404.94706 260.44 
L 407.185427 260.44 
L 409.423794 260.44 
L 411.662161 260.44 
L 413.900528 260.44 
L 416.138894 260.44 
L 418.377261 260.44 
L 420.615628 260.44 
L 422.853995 260.44 
L 425.092362 260.44 
L 427.330729 260.44 
L 429.569095 260.44 
L 431.807462 260.44 
L 434.045829 260.44 
L 436.284196 260.44 
L 438.522563 260.44 
L 440.76093 260.44 
L 442.999296 260.44 
L 445.237663 260.44 
L 447.47603 260.44 
L 449.714397 260.44 
L 451.952764 260.44 
L 454.191131 260.44 
L 456.429497 260.44 
L 458.667864 260.44 
L 460.906231 260.44 
L 463.144598 260.44 
L 465.382965 260.44 
L 467.621332 260.44 
L 469.859698 260.44 
L 472.098065 260.44 
L 474.336432 260.44 
L 476.574799 260.44 
L 478.813166 260.44 
L 481.051533 260.44 
L 483.289899 260.44 
L 485.528266 260.44 
L 487.766633 260.44 
L 490.005 260.44 
L 490.005 47.518261 
L 490.005 47.518261 
L 487.766633 48.333467 
L 485.528266 49.148674 
L 483.289899 49.96388 
L 481.051533 50.779087 
L 478.813166 51.594293 
L 476.574799 52.4095 
L 474.336432 53.224706 
L 472.098065 54.039913 
L 469.859698 54.855119 
L 467.621332 55.670326 
L 465.382965 56.485532 
L 463.144598 57.300738 
L 460.906231 58.115945 
L 458.667864 58.931151 
L 456.429497 59.746358 
L 454.191131 60.561564 
L 451.952764 61.376771 
L 449.714397 62.191977 
L 447.47603 63.007184 
L 445.237663 63.82239 
L 442.999296 64.637597 
L 440.76093 65.452803 
L 438.522563 66.26801 
L 436.284196 67.083216 
L 434.045829 67.898423 
L 431.807462 68.713629 
L 429.569095 69.528835 
L 427.330729 70.344042 
L 425.092362 71.159248 
L 422.853995 71.974455 
L 420.615628 72.789661 
L 418.377261 73.604868 
L 416.138894 74.420074 
L 413.900528 75.235281 
L 411.662161 76.050487 
L 409.423794 76.865694 
L 407.185427 77.6809 
L 404.94706 78.496107 
L 402.708693 79.311313 
L 400.470327 80.12652 
L 398.23196 80.941726 
L 395.993593 81.756932 
L 393.755226 82.572139 
L 391.516859 83.387345 
L 389.278492 84.202552 
L 387.040126 85.017758 
L 384.801759 85.832965 
L 382.563392 86.648171 
L 380.325025 87.463378 
L 378.086658 88.278584 
L 375.848291 89.093791 
L 373.609925 89.908997 
L 371.371558 90.724204 
L 369.133191 91.53941 
L 366.894824 92.354617 
L 364.656457 93.169823 
L 362.41809 93.985029 
L 360.179724 94.800236 
L 357.941357 95.615442 
L 355.70299 96.430649 
L 353.464623 97.245855 
L 351.226256 98.061062 
L 348.987889 98.876268 
L 346.749523 99.691475 
L 344.511156 100.506681 
L 342.272789 101.321888 
L 340.034422 102.137094 
L 337.796055 102.952301 
L 335.557688 103.767507 
L 333.319322 104.582714 
L 331.080955 105.39792 
L 328.842588 106.213127 
L 326.604221 107.028333 
L 324.365854 107.843539 
L 322.127487 108.658746 
L 319.889121 109.473952 
L 317.650754 110.289159 
L 315.412387 111.104365 
L 313.17402 111.919572 
L 310.935653 112.734778 
L 308.697286 113.549985 
L 306.45892 114.365191 
L 304.220553 115.180398 
L 301.982186 115.995604 
L 299.743819 116.810811 
L 297.505452 117.626017 
L 295.267085 118.441224 
L 293.028719 119.25643 
L 290.790352 120.071636 
L 288.551985 120.886843 
L 286.313618 121.702049 
L 284.075251 122.517256 
L 281.836884 123.332462 
L 279.598518 124.147669 
L 277.360151 124.962875 
L 275.121784 125.778082 
L 272.883417 126.593288 
L 270.64505 127.408495 
L 268.406683 128.223701 
L 266.168317 129.038908 
L 263.92995 129.854114 
L 261.691583 130.669321 
L 259.453216 131.484527 
L 257.214849 132.299733 
L 254.976482 133.11494 
L 252.738116 133.930146 
L 250.499749 134.745353 
L 248.261382 135.560559 
L 246.023015 136.375766 
L 243.784648 137.190972 
L 241.546281 138.006179 
L 239.307915 138.821385 
L 237.069548 139.636592 
L 234.831181 140.451798 
L 232.592814 141.267005 
L 230.354447 142.082211 
L 228.11608 142.897418 
L 225.877714 143.712624 
L 223.639347 144.52783 
L 221.40098 145.343037 
L 219.162613 146.158243 
L 216.924246 146.97345 
L 214.685879 147.788656 
L 212.447513 148.603863 
L 210.209146 149.419069 
L 207.970779 150.234276 
L 205.732412 151.049482 
L 203.494045 151.864689 
L 201.255678 152.679895 
L 199.017312 153.495102 
L 196.778945 154.310308 
L 194.540578 155.125515 
L 192.302211 155.940721 
L 190.063844 156.755927 
L 187.825477 157.571134 
L 185.587111 158.38634 
L 183.348744 159.201547 
L 181.110377 160.016753 
L 178.87201 160.83196 
L 176.633643 161.647166 
L 174.395276 162.462373 
L 172.15691 163.277579 
L 169.918543 164.092786 
L 167.680176 164.907992 
L 165.441809 165.723199 
L 163.203442 166.538405 
L 160.965075 167.353612 
L 158.726709 168.168818 
L 156.488342 168.984024 
L 154.249975 169.799231 
L 152.011608 170.614437 
L 149.773241 171.429644 
L 147.534874 172.24485 
L 145.296508 173.060057 
L 143.058141 173.875263 
L 140.819774 174.69047 
L 138.581407 175.505676 
L 136.34304 176.320883 
L 134.104673 177.136089 
L 131.866307 177.951296 
L 129.62794 178.766502 
L 127.389573 179.581709 
L 125.151206 180.396915 
L 122.912839 181.212121 
L 120.674472 182.027328 
L 118.436106 182.842534 
L 116.197739 183.657741 
L 113.959372 184.472947 
L 111.721005 185.288154 
L 109.482638 186.10336 
L 107.244271 186.918567 
L 105.005905 187.733773 
L 102.767538 188.54898 
L 100.529171 189.364186 
L 98.290804 190.179393 
L 96.052437 190.994599 
L 93.81407 191.809806 
L 91.575704 192.625012 
L 89.337337 193.440218 
L 87.09897 194.255425 
L 84.860603 195.070631 
L 82.622236 195.885838 
L 80.383869 196.701044 
L 78.145503 197.516251 
L 75.907136 198.331457 
L 73.668769 199.146664 
L 71.430402 199.96187 
L 69.192035 200.777077 
L 66.953668 201.592283 
L 64.715302 202.40749 
L 62.476935 203.222696 
L 60.238568 204.037903 
L 58.000201 204.853109 
L 55.761834 205.668315 
L 53.523467 206.483522 
L 51.285101 207.298728 
L 49.046734 208.113935 
L 46.808367 208.929141 
L 44.57 209.744348 
z
" clip-path="url(#pf9a18757e0)" style="fill: #1f77b4; fill-opacity: 0.2"/>
   </g>
   <g id="FillBetweenPolyCollection_2">
    <path d="M 44.57 209.744348 
L 44.57 260.44 
L 490.005 260.44 
L 490.005 209.744348 
L 490.005 209.744348 
L 44.57 209.744348 
z
" clip-path="url(#pf9a18757e0)" style="fill: #ff7f0e; fill-opacity: 0.3"/>
   </g>
   <g id="FillBetweenPolyCollection_3">
    <path d="M 44.57 209.744348 
L 44.57 209.744348 
L 49.069343 209.744348 
L 53.568687 209.744348 
L 58.06803 209.744348 
L 62.567374 209.744348 
L 67.066717 209.744348 
L 71.566061 209.744348 
L 76.065404 209.744348 
L 80.564747 209.744348 
L 85.064091 209.744348 
L 89.563434 209.744348 
L 94.062778 209.744348 
L 98.562121 209.744348 
L 103.061465 209.744348 
L 107.560808 209.744348 
L 112.060152 209.744348 
L 116.559495 209.744348 
L 121.058838 209.744348 
L 125.558182 209.744348 
L 130.057525 209.744348 
L 134.556869 209.744348 
L 139.056212 209.744348 
L 143.555556 209.744348 
L 148.054899 209.744348 
L 152.554242 209.744348 
L 157.053586 209.744348 
L 161.552929 209.744348 
L 166.052273 209.744348 
L 170.551616 209.744348 
L 175.05096 209.744348 
L 179.550303 209.744348 
L 184.049646 209.744348 
L 188.54899 209.744348 
L 193.048333 209.744348 
L 197.547677 209.744348 
L 202.04702 209.744348 
L 206.546364 209.744348 
L 211.045707 209.744348 
L 215.545051 209.744348 
L 220.044394 209.744348 
L 224.543737 209.744348 
L 229.043081 209.744348 
L 233.542424 209.744348 
L 238.041768 209.744348 
L 242.541111 209.744348 
L 247.040455 209.744348 
L 251.539798 209.744348 
L 256.039141 209.744348 
L 260.538485 209.744348 
L 265.037828 209.744348 
L 269.537172 209.744348 
L 274.036515 209.744348 
L 278.535859 209.744348 
L 283.035202 209.744348 
L 287.534545 209.744348 
L 292.033889 209.744348 
L 296.533232 209.744348 
L 301.032576 209.744348 
L 305.531919 209.744348 
L 310.031263 209.744348 
L 314.530606 209.744348 
L 319.029949 209.744348 
L 323.529293 209.744348 
L 328.028636 209.744348 
L 332.52798 209.744348 
L 337.027323 209.744348 
L 341.526667 209.744348 
L 346.02601 209.744348 
L 350.525354 209.744348 
L 355.024697 209.744348 
L 359.52404 209.744348 
L 364.023384 209.744348 
L 368.522727 209.744348 
L 373.022071 209.744348 
L 377.521414 209.744348 
L 382.020758 209.744348 
L 386.520101 209.744348 
L 391.019444 209.744348 
L 395.518788 209.744348 
L 400.018131 209.744348 
L 404.517475 209.744348 
L 409.016818 209.744348 
L 413.516162 209.744348 
L 418.015505 209.744348 
L 422.514848 209.744348 
L 427.014192 209.744348 
L 431.513535 209.744348 
L 436.012879 209.744348 
L 440.512222 209.744348 
L 445.011566 209.744348 
L 449.510909 209.744348 
L 454.010253 209.744348 
L 458.509596 209.744348 
L 463.008939 209.744348 
L 467.508283 209.744348 
L 472.007626 209.744348 
L 476.50697 209.744348 
L 481.006313 209.744348 
L 485.505657 209.744348 
L 490.005 209.744348 
L 490.005 47.518261 
L 490.005 47.518261 
L 485.505657 49.156908 
L 481.006313 50.795556 
L 476.50697 52.434203 
L 472.007626 54.07285 
L 467.508283 55.711498 
L 463.008939 57.350145 
L 458.509596 58.988792 
L 454.010253 60.62744 
L 449.510909 62.266087 
L 445.011566 63.904734 
L 440.512222 65.543382 
L 436.012879 67.182029 
L 431.513535 68.820676 
L 427.014192 70.459324 
L 422.514848 72.097971 
L 418.015505 73.736618 
L 413.516162 75.375266 
L 409.016818 77.013913 
L 404.517475 78.65256 
L 400.018131 80.291208 
L 395.518788 81.929855 
L 391.019444 83.568502 
L 386.520101 85.20715 
L 382.020758 86.845797 
L 377.521414 88.484444 
L 373.022071 90.123092 
L 368.522727 91.761739 
L 364.023384 93.400386 
L 359.52404 95.039034 
L 355.024697 96.677681 
L 350.525354 98.316329 
L 346.02601 99.954976 
L 341.526667 101.593623 
L 337.027323 103.232271 
L 332.52798 104.870918 
L 328.028636 106.509565 
L 323.529293 108.148213 
L 319.029949 109.78686 
L 314.530606 111.425507 
L 310.031263 113.064155 
L 305.531919 114.702802 
L 301.032576 116.341449 
L 296.533232 117.980097 
L 292.033889 119.618744 
L 287.534545 121.257391 
L 283.035202 122.896039 
L 278.535859 124.534686 
L 274.036515 126.173333 
L 269.537172 127.811981 
L 265.037828 129.450628 
L 260.538485 131.089275 
L 256.039141 132.727923 
L 251.539798 134.36657 
L 247.040455 136.005217 
L 242.541111 137.643865 
L 238.041768 139.282512 
L 233.542424 140.921159 
L 229.043081 142.559807 
L 224.543737 144.198454 
L 220.044394 145.837101 
L 215.545051 147.475749 
L 211.045707 149.114396 
L 206.546364 150.753043 
L 202.04702 152.391691 
L 197.547677 154.030338 
L 193.048333 155.668986 
L 188.54899 157.307633 
L 184.049646 158.94628 
L 179.550303 160.584928 
L 175.05096 162.223575 
L 170.551616 163.862222 
L 166.052273 165.50087 
L 161.552929 167.139517 
L 157.053586 168.778164 
L 152.554242 170.416812 
L 148.054899 172.055459 
L 143.555556 173.694106 
L 139.056212 175.332754 
L 134.556869 176.971401 
L 130.057525 178.610048 
L 125.558182 180.248696 
L 121.058838 181.887343 
L 116.559495 183.52599 
L 112.060152 185.164638 
L 107.560808 186.803285 
L 103.061465 188.441932 
L 98.562121 190.08058 
L 94.062778 191.719227 
L 89.563434 193.357874 
L 85.064091 194.996522 
L 80.564747 196.635169 
L 76.065404 198.273816 
L 71.566061 199.912464 
L 67.066717 201.551111 
L 62.567374 203.189758 
L 58.06803 204.828406 
L 53.568687 206.467053 
L 49.069343 208.1057 
L 44.57 209.744348 
z
" clip-path="url(#pf9a18757e0)" style="fill: #2ca02c; fill-opacity: 0.35"/>
   </g>
   <g id="matplotlib.axis_1">
    <g id="xtick_1">
     <g id="line2d_1">
      <path d="M 44.57 260.44 
L 44.57 27.24 
" clip-path="url(#pf9a18757e0)" style="fill: none; stroke: #b0b0b0; stroke-opacity: 0.3; stroke-width: 0.8; stroke-linecap: square"/>
     </g>
     <g id="line2d_2">
      <defs>
       <path id="mfb52ef74bf" d="M 0 0 
L 0 3.5 
" style="stroke: #000000; stroke-width: 0.8"/>
      </defs>
      <g>
       <use xlink:href="#mfb52ef74bf" x="44.57" y="260.44" style="stroke: #000000; stroke-width: 0.8"/>
      </g>
     </g>
     <g id="text_1">
      <!-- 0 -->
      <g transform="translate(41.38875 275.038438) scale(0.1 -0.1)">
       <defs>
        <path id="DejaVuSans-30" d="M 2034 4250 
Q 1547 4250 1301 3770 
Q 1056 3291 1056 2328 
Q 1056 1369 1301 889 
Q 1547 409 2034 409 
Q 2525 409 2770 889 
Q 3016 1369 3016 2328 
Q 3016 3291 2770 3770 
Q 2525 4250 2034 4250 
z
M 2034 4750 
Q 2819 4750 3233 4129 
Q 3647 3509 3647 2328 
Q 3647 1150 3233 529 
Q 2819 -91 2034 -91 
Q 1250 -91 836 529 
Q 422 1150 422 2328 
Q 422 3509 836 4129 
Q 1250 4750 2034 4750 
z
" transform="scale(0.015625)"/>
       </defs>
       <use xlink:href="#DejaVuSans-30"/>
      </g>
     </g>
    </g>
    <g id="xtick_2">
     <g id="line2d_3">
      <path d="M 100.249375 260.44 
L 100.249375 27.24 
" clip-path="url(#pf9a18757e0)" style="fill: none; stroke: #b0b0b0; stroke-opacity: 0.3; stroke-width: 0.8; stroke-linecap: square"/>
     </g>
     <g id="line2d_4">
      <g>
       <use xlink:href="#mfb52ef74bf" x="100.249375" y="260.44" style="stroke: #000000; stroke-width: 0.8"/>
      </g>
     </g>
     <g id="text_2">
      <!-- 1 -->
      <g transform="translate(97.068125 275.038438) scale(0.1 -0.1)">
       <defs>
        <path id="DejaVuSans-31" d="M 794 531 
L 1825 531 
L 1825 4091 
L 703 3866 
L 703 4441 
L 1819 4666 
L 2450 4666 
L 2450 531 
L 3481 531 
L 3481 0 
L 794 0 
L 794 531 
z
" transform="scale(0.015625)"/>
       </defs>
       <use xlink:href="#DejaVuSans-31"/>
      </g>
     </g>
    </g>
    <g id="xtick_3">
     <g id="line2d_5">
      <path d="M 155.92875 260.44 
L 155.92875 27.24 
" clip-path="url(#pf9a18757e0)" style="fill: none; stroke: #b0b0b0; stroke-opacity: 0.3; stroke-width: 0.8; stroke-linecap: square"/>
     </g>
     <g id="line2d_6">
      <g>
       <use xlink:href="#mfb52ef74bf" x="155.92875" y="260.44" style="stroke: #000000; stroke-width: 0.8"/>
      </g>
     </g>
     <g id="text_3">
      <!-- 2 -->
      <g transform="translate(152.7475 275.038438) scale(0.1 -0.1)">
       <defs>
        <path id="DejaVuSans-32" d="M 1228 531 
L 3431 531 
L 3431 0 
L 469 0 
L 469 531 
Q 828 903 1448 1529 
Q 2069 2156 2228 2338 
Q 2531 2678 2651 2914 
Q 2772 3150 2772 3378 
Q 2772 3750 2511 3984 
Q 2250 4219 1831 4219 
Q 1534 4219 1204 4116 
Q 875 4013 500 3803 
L 500 4441 
Q 881 4594 1212 4672 
Q 1544 4750 1819 4750 
Q 2544 4750 2975 4387 
Q 3406 4025 3406 3419 
Q 3406 3131 3298 2873 
Q 3191 2616 2906 2266 
Q 2828 2175 2409 1742 
Q 1991 1309 1228 531 
z
" transform="scale(0.015625)"/>
       </defs>
       <use xlink:href="#DejaVuSans-32"/>
      </g>
     </g>
    </g>
    <g id="xtick_4">
     <g id="line2d_7">
      <path d="M 211.608125 260.44 
L 211.608125 27.24 
" clip-path="url(#pf9a18757e0)" style="fill: none; stroke: #b0b0b0; stroke-opacity: 0.3; stroke-width: 0.8; stroke-linecap: square"/>
     </g>
     <g id="line2d_8">
      <g>
       <use xlink:href="#mfb52ef74bf" x="211.608125" y="260.44" style="stroke: #000000; stroke-width: 0.8"/>
      </g>
     </g>
     <g id="text_4">
      <!-- 3 -->
      <g transform="translate(208.426875 275.038438) scale(0.1 -0.1)">
       <defs>
        <path id="DejaVuSans-33" d="M 2597 2516 
Q 3050 2419 3304 2112 
Q 3559 1806 3559 1356 
Q 3559 666 3084 287 
Q 2609 -91 1734 -91 
Q 1441 -91 1130 -33 
Q 819 25 488 141 
L 488 750 
Q 750 597 1062 519 
Q 1375 441 1716 441 
Q 2309 441 2620 675 
Q 2931 909 2931 1356 
Q 2931 1769 2642 2001 
Q 2353 2234 1838 2234 
L 1294 2234 
L 1294 2753 
L 1863 2753 
Q 2328 2753 2575 2939 
Q 2822 3125 2822 3475 
Q 2822 3834 2567 4026 
Q 2313 4219 1838 4219 
Q 1578 4219 1281 4162 
Q 984 4106 628 3988 
L 628 4550 
Q 988 4650 1302 4700 
Q 1616 4750 1894 4750 
Q 2613 4750 3031 4423 
Q 3450 4097 3450 3541 
Q 3450 3153 3228 2886 
Q 3006 2619 2597 2516 
z
" transform="scale(0.015625)"/>
       </defs>
       <use xlink:href="#DejaVuSans-33"/>
      </g>
     </g>
    </g>
    <g id="xtick_5">
     <g id="line2d_9">
      <path d="M 267.2875 260.44 
L 267.2875 27.24 
" clip-path="url(#pf9a18757e0)" style="fill: none; stroke: #b0b0b0; stroke-opacity: 0.3; stroke-width: 0.8; stroke-linecap: square"/>
     </g>
     <g id="line2d_10">
      <g>
       <use xlink:href="#mfb52ef74bf" x="267.2875" y="260.44" style="stroke: #000000; stroke-width: 0.8"/>
      </g>
     </g>
     <g id="text_5">
      <!-- 4 -->
      <g transform="translate(264.10625 275.038438) scale(0.1 -0.1)">
       <defs>
        <path id="DejaVuSans-34" d="M 2419 4116 
L 825 1625 
L 2419 1625 
L 2419 4116 
z
M 2253 4666 
L 3047 4666 
L 3047 1625 
L 3713 1625 
L 3713 1100 
L 3047 1100 
L 3047 0 
L 2419 0 
L 2419 1100 
L 313 1100 
L 313 1709 
L 2253 4666 
z
" transform="scale(0.015625)"/>
       </defs>
       <use xlink:href="#DejaVuSans-34"/>
      </g>
     </g>
    </g>
    <g id="xtick_6">
     <g id="line2d_11">
      <path d="M 322.966875 260.44 
L 322.966875 27.24 
" clip-path="url(#pf9a18757e0)" style="fill: none; stroke: #b0b0b0; stroke-opacity: 0.3; stroke-width: 0.8; stroke-linecap: square"/>
     </g>
     <g id="line2d_12">
      <g>
       <use xlink:href="#mfb52ef74bf" x="322.966875" y="260.44" style="stroke: #000000; stroke-width: 0.8"/>
      </g>
     </g>
     <g id="text_6">
      <!-- 5 -->
      <g transform="translate(319.785625 275.038438) scale(0.1 -0.1)">
       <defs>
        <path id="DejaVuSans-35" d="M 691 4666 
L 3169 4666 
L 3169 4134 
L 1269 4134 
L 1269 2991 
Q 1406 3038 1543 3061 
Q 1681 3084 1819 3084 
Q 2600 3084 3056 2656 
Q 3513 2228 3513 1497 
Q 3513 744 3044 326 
Q 2575 -91 1722 -91 
Q 1428 -91 1123 -41 
Q 819 9 494 109 
L 494 744 
Q 775 591 1075 516 
Q 1375 441 1709 441 
Q 2250 441 2565 725 
Q 2881 1009 2881 1497 
Q 2881 1984 2565 2268 
Q 2250 2553 1709 2553 
Q 1456 2553 1204 2497 
Q 953 2441 691 2322 
L 691 4666 
z
" transform="scale(0.015625)"/>
       </defs>
       <use xlink:href="#DejaVuSans-35"/>
      </g>
     </g>
    </g>
    <g id="xtick_7">
     <g id="line2d_13">
      <path d="M 378.64625 260.44 
L 378.64625 27.24 
" clip-path="url(#pf9a18757e0)" style="fill: none; stroke: #b0b0b0; stroke-opacity: 0.3; stroke-width: 0.8; stroke-linecap: square"/>
     </g>
     <g id="line2d_14">
      <g>
       <use xlink:href="#mfb52ef74bf" x="378.64625" y="260.44" style="stroke: #000000; stroke-width: 0.8"/>
      </g>
     </g>
     <g id="text_7">
      <!-- 6 -->
      <g transform="translate(375.465 275.038438) scale(0.1 -0.1)">
       <defs>
        <path id="DejaVuSans-36" d="M 2113 2584 
Q 1688 2584 1439 2293 
Q 1191 2003 1191 1497 
Q 1191 994 1439 701 
Q 1688 409 2113 409 
Q 2538 409 2786 701 
Q 3034 994 3034 1497 
Q 3034 2003 2786 2293 
Q 2538 2584 2113 2584 
z
M 3366 4563 
L 3366 3988 
Q 3128 4100 2886 4159 
Q 2644 4219 2406 4219 
Q 1781 4219 1451 3797 
Q 1122 3375 1075 2522 
Q 1259 2794 1537 2939 
Q 1816 3084 2150 3084 
Q 2853 3084 3261 2657 
Q 3669 2231 3669 1497 
Q 3669 778 3244 343 
Q 2819 -91 2113 -91 
Q 1303 -91 875 529 
Q 447 1150 447 2328 
Q 447 3434 972 4092 
Q 1497 4750 2381 4750 
Q 2619 4750 2861 4703 
Q 3103 4656 3366 4563 
z
" transform="scale(0.015625)"/>
       </defs>
       <use xlink:href="#DejaVuSans-36"/>
      </g>
     </g>
    </g>
    <g id="xtick_8">
     <g id="line2d_15">
      <path d="M 434.325625 260.44 
L 434.325625 27.24 
" clip-path="url(#pf9a18757e0)" style="fill: none; stroke: #b0b0b0; stroke-opacity: 0.3; stroke-width: 0.8; stroke-linecap: square"/>
     </g>
     <g id="line2d_16">
      <g>
       <use xlink:href="#mfb52ef74bf" x="434.325625" y="260.44" style="stroke: #000000; stroke-width: 0.8"/>
      </g>
     </g>
     <g id="text_8">
      <!-- 7 -->
      <g transform="translate(431.144375 275.038438) scale(0.1 -0.1)">
       <defs>
        <path id="DejaVuSans-37" d="M 525 4666 
L 3525 4666 
L 3525 4397 
L 1831 0 
L 1172 0 
L 2766 4134 
L 525 4134 
L 525 4666 
z
" transform="scale(0.015625)"/>
       </defs>
       <use xlink:href="#DejaVuSans-37"/>
      </g>
     </g>
    </g>
    <g id="xtick_9">
     <g id="line2d_17">
      <path d="M 490.005 260.44 
L 490.005 27.24 
" clip-path="url(#pf9a18757e0)" style="fill: none; stroke: #b0b0b0; stroke-opacity: 0.3; stroke-width: 0.8; stroke-linecap: square"/>
     </g>
     <g id="line2d_18">
      <g>
       <use xlink:href="#mfb52ef74bf" x="490.005" y="260.44" style="stroke: #000000; stroke-width: 0.8"/>
      </g>
     </g>
     <g id="text_9">
      <!-- 8 -->
      <g transform="translate(486.82375 275.038438) scale(0.1 -0.1)">
       <defs>
        <path id="DejaVuSans-38" d="M 2034 2216 
Q 1584 2216 1326 1975 
Q 1069 1734 1069 1313 
Q 1069 891 1326 650 
Q 1584 409 2034 409 
Q 2484 409 2743 651 
Q 3003 894 3003 1313 
Q 3003 1734 2745 1975 
Q 2488 2216 2034 2216 
z
M 1403 2484 
Q 997 2584 770 2862 
Q 544 3141 544 3541 
Q 544 4100 942 4425 
Q 1341 4750 2034 4750 
Q 2731 4750 3128 4425 
Q 3525 4100 3525 3541 
Q 3525 3141 3298 2862 
Q 3072 2584 2669 2484 
Q 3125 2378 3379 2068 
Q 3634 1759 3634 1313 
Q 3634 634 3220 271 
Q 2806 -91 2034 -91 
Q 1263 -91 848 271 
Q 434 634 434 1313 
Q 434 1759 690 2068 
Q 947 2378 1403 2484 
z
M 1172 3481 
Q 1172 3119 1398 2916 
Q 1625 2713 2034 2713 
Q 2441 2713 2670 2916 
Q 2900 3119 2900 3481 
Q 2900 3844 2670 4047 
Q 2441 4250 2034 4250 
Q 1625 4250 1398 4047 
Q 1172 3844 1172 3481 
z
" transform="scale(0.015625)"/>
       </defs>
       <use xlink:href="#DejaVuSans-38"/>
      </g>
     </g>
    </g>
    <g id="text_10">
     <!-- tempo t (s) -->
     <g transform="translate(239.502344 288.716563) scale(0.1 -0.1)">
      <defs>
       <path id="DejaVuSans-74" d="M 1172 4494 
L 1172 3500 
L 2356 3500 
L 2356 3053 
L 1172 3053 
L 1172 1153 
Q 1172 725 1289 603 
Q 1406 481 1766 481 
L 2356 481 
L 2356 0 
L 1766 0 
Q 1100 0 847 248 
Q 594 497 594 1153 
L 594 3053 
L 172 3053 
L 172 3500 
L 594 3500 
L 594 4494 
L 1172 4494 
z
" transform="scale(0.015625)"/>
       <path id="DejaVuSans-65" d="M 3597 1894 
L 3597 1613 
L 953 1613 
Q 991 1019 1311 708 
Q 1631 397 2203 397 
Q 2534 397 2845 478 
Q 3156 559 3463 722 
L 3463 178 
Q 3153 47 2828 -22 
Q 2503 -91 2169 -91 
Q 1331 -91 842 396 
Q 353 884 353 1716 
Q 353 2575 817 3079 
Q 1281 3584 2069 3584 
Q 2775 3584 3186 3129 
Q 3597 2675 3597 1894 
z
M 3022 2063 
Q 3016 2534 2758 2815 
Q 2500 3097 2075 3097 
Q 1594 3097 1305 2825 
Q 1016 2553 972 2059 
L 3022 2063 
z
" transform="scale(0.015625)"/>
       <path id="DejaVuSans-6d" d="M 3328 2828 
Q 3544 3216 3844 3400 
Q 4144 3584 4550 3584 
Q 5097 3584 5394 3201 
Q 5691 2819 5691 2113 
L 5691 0 
L 5113 0 
L 5113 2094 
Q 5113 2597 4934 2840 
Q 4756 3084 4391 3084 
Q 3944 3084 3684 2787 
Q 3425 2491 3425 1978 
L 3425 0 
L 2847 0 
L 2847 2094 
Q 2847 2600 2669 2842 
Q 2491 3084 2119 3084 
Q 1678 3084 1418 2786 
Q 1159 2488 1159 1978 
L 1159 0 
L 581 0 
L 581 3500 
L 1159 3500 
L 1159 2956 
Q 1356 3278 1631 3431 
Q 1906 3584 2284 3584 
Q 2666 3584 2933 3390 
Q 3200 3197 3328 2828 
z
" transform="scale(0.015625)"/>
       <path id="DejaVuSans-70" d="M 1159 525 
L 1159 -1331 
L 581 -1331 
L 581 3500 
L 1159 3500 
L 1159 2969 
Q 1341 3281 1617 3432 
Q 1894 3584 2278 3584 
Q 2916 3584 3314 3078 
Q 3713 2572 3713 1747 
Q 3713 922 3314 415 
Q 2916 -91 2278 -91 
Q 1894 -91 1617 61 
Q 1341 213 1159 525 
z
M 3116 1747 
Q 3116 2381 2855 2742 
Q 2594 3103 2138 3103 
Q 1681 3103 1420 2742 
Q 1159 2381 1159 1747 
Q 1159 1113 1420 752 
Q 1681 391 2138 391 
Q 2594 391 2855 752 
Q 3116 1113 3116 1747 
z
" transform="scale(0.015625)"/>
       <path id="DejaVuSans-6f" d="M 1959 3097 
Q 1497 3097 1228 2736 
Q 959 2375 959 1747 
Q 959 1119 1226 758 
Q 1494 397 1959 397 
Q 2419 397 2687 759 
Q 2956 1122 2956 1747 
Q 2956 2369 2687 2733 
Q 2419 3097 1959 3097 
z
M 1959 3584 
Q 2709 3584 3137 3096 
Q 3566 2609 3566 1747 
Q 3566 888 3137 398 
Q 2709 -91 1959 -91 
Q 1206 -91 779 398 
Q 353 888 353 1747 
Q 353 2609 779 3096 
Q 1206 3584 1959 3584 
z
" transform="scale(0.015625)"/>
       <path id="DejaVuSans-20" transform="scale(0.015625)"/>
       <path id="DejaVuSans-28" d="M 1984 4856 
Q 1566 4138 1362 3434 
Q 1159 2731 1159 2009 
Q 1159 1288 1364 580 
Q 1569 -128 1984 -844 
L 1484 -844 
Q 1016 -109 783 600 
Q 550 1309 550 2009 
Q 550 2706 781 3412 
Q 1013 4119 1484 4856 
L 1984 4856 
z
" transform="scale(0.015625)"/>
       <path id="DejaVuSans-73" d="M 2834 3397 
L 2834 2853 
Q 2591 2978 2328 3040 
Q 2066 3103 1784 3103 
Q 1356 3103 1142 2972 
Q 928 2841 928 2578 
Q 928 2378 1081 2264 
Q 1234 2150 1697 2047 
L 1894 2003 
Q 2506 1872 2764 1633 
Q 3022 1394 3022 966 
Q 3022 478 2636 193 
Q 2250 -91 1575 -91 
Q 1294 -91 989 -36 
Q 684 19 347 128 
L 347 722 
Q 666 556 975 473 
Q 1284 391 1588 391 
Q 1994 391 2212 530 
Q 2431 669 2431 922 
Q 2431 1156 2273 1281 
Q 2116 1406 1581 1522 
L 1381 1569 
Q 847 1681 609 1914 
Q 372 2147 372 2553 
Q 372 3047 722 3315 
Q 1072 3584 1716 3584 
Q 2034 3584 2315 3537 
Q 2597 3491 2834 3397 
z
" transform="scale(0.015625)"/>
       <path id="DejaVuSans-29" d="M 513 4856 
L 1013 4856 
Q 1481 4119 1714 3412 
Q 1947 2706 1947 2009 
Q 1947 1309 1714 600 
Q 1481 -109 1013 -844 
L 513 -844 
Q 928 -128 1133 580 
Q 1338 1288 1338 2009 
Q 1338 2731 1133 3434 
Q 928 4138 513 4856 
z
" transform="scale(0.015625)"/>
      </defs>
      <use xlink:href="#DejaVuSans-74"/>
      <use xlink:href="#DejaVuSans-65" transform="translate(39.208984 0)"/>
      <use xlink:href="#DejaVuSans-6d" transform="translate(100.732422 0)"/>
      <use xlink:href="#DejaVuSans-70" transform="translate(198.144531 0)"/>
      <use xlink:href="#DejaVuSans-6f" transform="translate(261.621094 0)"/>
      <use xlink:href="#DejaVuSans-20" transform="translate(322.802734 0)"/>
      <use xlink:href="#DejaVuSans-74" transform="translate(354.589844 0)"/>
      <use xlink:href="#DejaVuSans-20" transform="translate(393.798828 0)"/>
      <use xlink:href="#DejaVuSans-28" transform="translate(425.585938 0)"/>
      <use xlink:href="#DejaVuSans-73" transform="translate(464.599609 0)"/>
      <use xlink:href="#DejaVuSans-29" transform="translate(516.699219 0)"/>
     </g>
    </g>
   </g>
   <g id="matplotlib.axis_2">
    <g id="ytick_1">
     <g id="line2d_19">
      <path d="M 44.57 260.44 
L 490.005 260.44 
" clip-path="url(#pf9a18757e0)" style="fill: none; stroke: #b0b0b0; stroke-opacity: 0.3; stroke-width: 0.8; stroke-linecap: square"/>
     </g>
     <g id="line2d_20">
      <defs>
       <path id="mc129d3fe41" d="M 0 0 
L -3.5 0 
" style="stroke: #000000; stroke-width: 0.8"/>
      </defs>
      <g>
       <use xlink:href="#mc129d3fe41" x="44.57" y="260.44" style="stroke: #000000; stroke-width: 0.8"/>
      </g>
     </g>
     <g id="text_11">
      <!-- 0 -->
      <g transform="translate(31.2075 264.239219) scale(0.1 -0.1)">
       <use xlink:href="#DejaVuSans-30"/>
      </g>
     </g>
    </g>
    <g id="ytick_2">
     <g id="line2d_21">
      <path d="M 44.57 209.744348 
L 490.005 209.744348 
" clip-path="url(#pf9a18757e0)" style="fill: none; stroke: #b0b0b0; stroke-opacity: 0.3; stroke-width: 0.8; stroke-linecap: square"/>
     </g>
     <g id="line2d_22">
      <g>
       <use xlink:href="#mc129d3fe41" x="44.57" y="209.744348" style="stroke: #000000; stroke-width: 0.8"/>
      </g>
     </g>
     <g id="text_12">
      <!-- 5 -->
      <g transform="translate(31.2075 213.543567) scale(0.1 -0.1)">
       <use xlink:href="#DejaVuSans-35"/>
      </g>
     </g>
    </g>
    <g id="ytick_3">
     <g id="line2d_23">
      <path d="M 44.57 159.048696 
L 490.005 159.048696 
" clip-path="url(#pf9a18757e0)" style="fill: none; stroke: #b0b0b0; stroke-opacity: 0.3; stroke-width: 0.8; stroke-linecap: square"/>
     </g>
     <g id="line2d_24">
      <g>
       <use xlink:href="#mc129d3fe41" x="44.57" y="159.048696" style="stroke: #000000; stroke-width: 0.8"/>
      </g>
     </g>
     <g id="text_13">
      <!-- 10 -->
      <g transform="translate(24.845 162.847914) scale(0.1 -0.1)">
       <use xlink:href="#DejaVuSans-31"/>
       <use xlink:href="#DejaVuSans-30" transform="translate(63.623047 0)"/>
      </g>
     </g>
    </g>
    <g id="ytick_4">
     <g id="line2d_25">
      <path d="M 44.57 108.353043 
L 490.005 108.353043 
" clip-path="url(#pf9a18757e0)" style="fill: none; stroke: #b0b0b0; stroke-opacity: 0.3; stroke-width: 0.8; stroke-linecap: square"/>
     </g>
     <g id="line2d_26">
      <g>
       <use xlink:href="#mc129d3fe41" x="44.57" y="108.353043" style="stroke: #000000; stroke-width: 0.8"/>
      </g>
     </g>
     <g id="text_14">
      <!-- 15 -->
      <g transform="translate(24.845 112.152262) scale(0.1 -0.1)">
       <use xlink:href="#DejaVuSans-31"/>
       <use xlink:href="#DejaVuSans-35" transform="translate(63.623047 0)"/>
      </g>
     </g>
    </g>
    <g id="ytick_5">
     <g id="line2d_27">
      <path d="M 44.57 57.657391 
L 490.005 57.657391 
" clip-path="url(#pf9a18757e0)" style="fill: none; stroke: #b0b0b0; stroke-opacity: 0.3; stroke-width: 0.8; stroke-linecap: square"/>
     </g>
     <g id="line2d_28">
      <g>
       <use xlink:href="#mc129d3fe41" x="44.57" y="57.657391" style="stroke: #000000; stroke-width: 0.8"/>
      </g>
     </g>
     <g id="text_15">
      <!-- 20 -->
      <g transform="translate(24.845 61.45661) scale(0.1 -0.1)">
       <use xlink:href="#DejaVuSans-32"/>
       <use xlink:href="#DejaVuSans-30" transform="translate(63.623047 0)"/>
      </g>
     </g>
    </g>
    <g id="text_16">
     <!-- velocidade v (m/s) -->
     <g transform="translate(18.765313 190.150156) rotate(-90) scale(0.1 -0.1)">
      <defs>
       <path id="DejaVuSans-76" d="M 191 3500 
L 800 3500 
L 1894 563 
L 2988 3500 
L 3597 3500 
L 2284 0 
L 1503 0 
L 191 3500 
z
" transform="scale(0.015625)"/>
       <path id="DejaVuSans-6c" d="M 603 4863 
L 1178 4863 
L 1178 0 
L 603 0 
L 603 4863 
z
" transform="scale(0.015625)"/>
       <path id="DejaVuSans-63" d="M 3122 3366 
L 3122 2828 
Q 2878 2963 2633 3030 
Q 2388 3097 2138 3097 
Q 1578 3097 1268 2742 
Q 959 2388 959 1747 
Q 959 1106 1268 751 
Q 1578 397 2138 397 
Q 2388 397 2633 464 
Q 2878 531 3122 666 
L 3122 134 
Q 2881 22 2623 -34 
Q 2366 -91 2075 -91 
Q 1284 -91 818 406 
Q 353 903 353 1747 
Q 353 2603 823 3093 
Q 1294 3584 2113 3584 
Q 2378 3584 2631 3529 
Q 2884 3475 3122 3366 
z
" transform="scale(0.015625)"/>
       <path id="DejaVuSans-69" d="M 603 3500 
L 1178 3500 
L 1178 0 
L 603 0 
L 603 3500 
z
M 603 4863 
L 1178 4863 
L 1178 4134 
L 603 4134 
L 603 4863 
z
" transform="scale(0.015625)"/>
       <path id="DejaVuSans-64" d="M 2906 2969 
L 2906 4863 
L 3481 4863 
L 3481 0 
L 2906 0 
L 2906 525 
Q 2725 213 2448 61 
Q 2172 -91 1784 -91 
Q 1150 -91 751 415 
Q 353 922 353 1747 
Q 353 2572 751 3078 
Q 1150 3584 1784 3584 
Q 2172 3584 2448 3432 
Q 2725 3281 2906 2969 
z
M 947 1747 
Q 947 1113 1208 752 
Q 1469 391 1925 391 
Q 2381 391 2643 752 
Q 2906 1113 2906 1747 
Q 2906 2381 2643 2742 
Q 2381 3103 1925 3103 
Q 1469 3103 1208 2742 
Q 947 2381 947 1747 
z
" transform="scale(0.015625)"/>
       <path id="DejaVuSans-61" d="M 2194 1759 
Q 1497 1759 1228 1600 
Q 959 1441 959 1056 
Q 959 750 1161 570 
Q 1363 391 1709 391 
Q 2188 391 2477 730 
Q 2766 1069 2766 1631 
L 2766 1759 
L 2194 1759 
z
M 3341 1997 
L 3341 0 
L 2766 0 
L 2766 531 
Q 2569 213 2275 61 
Q 1981 -91 1556 -91 
Q 1019 -91 701 211 
Q 384 513 384 1019 
Q 384 1609 779 1909 
Q 1175 2209 1959 2209 
L 2766 2209 
L 2766 2266 
Q 2766 2663 2505 2880 
Q 2244 3097 1772 3097 
Q 1472 3097 1187 3025 
Q 903 2953 641 2809 
L 641 3341 
Q 956 3463 1253 3523 
Q 1550 3584 1831 3584 
Q 2591 3584 2966 3190 
Q 3341 2797 3341 1997 
z
" transform="scale(0.015625)"/>
       <path id="DejaVuSans-2f" d="M 1625 4666 
L 2156 4666 
L 531 -594 
L 0 -594 
L 1625 4666 
z
" transform="scale(0.015625)"/>
      </defs>
      <use xlink:href="#DejaVuSans-76"/>
      <use xlink:href="#DejaVuSans-65" transform="translate(59.179688 0)"/>
      <use xlink:href="#DejaVuSans-6c" transform="translate(120.703125 0)"/>
      <use xlink:href="#DejaVuSans-6f" transform="translate(148.486328 0)"/>
      <use xlink:href="#DejaVuSans-63" transform="translate(209.667969 0)"/>
      <use xlink:href="#DejaVuSans-69" transform="translate(264.648438 0)"/>
      <use xlink:href="#DejaVuSans-64" transform="translate(292.431641 0)"/>
      <use xlink:href="#DejaVuSans-61" transform="translate(355.908203 0)"/>
      <use xlink:href="#DejaVuSans-64" transform="translate(417.1875 0)"/>
      <use xlink:href="#DejaVuSans-65" transform="translate(480.664062 0)"/>
      <use xlink:href="#DejaVuSans-20" transform="translate(542.1875 0)"/>
      <use xlink:href="#DejaVuSans-76" transform="translate(573.974609 0)"/>
      <use xlink:href="#DejaVuSans-20" transform="translate(633.154297 0)"/>
      <use xlink:href="#DejaVuSans-28" transform="translate(664.941406 0)"/>
      <use xlink:href="#DejaVuSans-6d" transform="translate(703.955078 0)"/>
      <use xlink:href="#DejaVuSans-2f" transform="translate(801.367188 0)"/>
      <use xlink:href="#DejaVuSans-73" transform="translate(835.058594 0)"/>
      <use xlink:href="#DejaVuSans-29" transform="translate(887.158203 0)"/>
     </g>
    </g>
   </g>
   <g id="line2d_29">
    <path d="M 44.57 209.744348 
L 490.005 47.518261 
L 490.005 47.518261 
" clip-path="url(#pf9a18757e0)" style="fill: none; stroke: #1f77b4; stroke-width: 2; stroke-linecap: square"/>
   </g>
   <g id="patch_3">
    <path d="M 44.57 260.44 
L 44.57 27.24 
" style="fill: none; stroke: #000000; stroke-width: 0.8; stroke-linejoin: miter; stroke-linecap: square"/>
   </g>
   <g id="patch_4">
    <path d="M 490.005 260.44 
L 490.005 27.24 
" style="fill: none; stroke: #000000; stroke-width: 0.8; stroke-linejoin: miter; stroke-linecap: square"/>
   </g>
   <g id="patch_5">
    <path d="M 44.57 260.44 
L 490.005 260.44 
" style="fill: none; stroke: #000000; stroke-width: 0.8; stroke-linejoin: miter; stroke-linecap: square"/>
   </g>
   <g id="patch_6">
    <path d="M 44.57 27.24 
L 490.005 27.24 
" style="fill: none; stroke: #000000; stroke-width: 0.8; stroke-linejoin: miter; stroke-linecap: square"/>
   </g>
   <g id="text_17">
    <!-- MUV: deslocamento = retângulo + triângulo -->
    <g transform="translate(134.469063 21.24) scale(0.12 -0.12)">
     <defs>
      <path id="DejaVuSans-4d" d="M 628 4666 
L 1569 4666 
L 2759 1491 
L 3956 4666 
L 4897 4666 
L 4897 0 
L 4281 0 
L 4281 4097 
L 3078 897 
L 2444 897 
L 1241 4097 
L 1241 0 
L 628 0 
L 628 4666 
z
" transform="scale(0.015625)"/>
      <path id="DejaVuSans-55" d="M 556 4666 
L 1191 4666 
L 1191 1831 
Q 1191 1081 1462 751 
Q 1734 422 2344 422 
Q 2950 422 3222 751 
Q 3494 1081 3494 1831 
L 3494 4666 
L 4128 4666 
L 4128 1753 
Q 4128 841 3676 375 
Q 3225 -91 2344 -91 
Q 1459 -91 1007 375 
Q 556 841 556 1753 
L 556 4666 
z
" transform="scale(0.015625)"/>
      <path id="DejaVuSans-56" d="M 1831 0 
L 50 4666 
L 709 4666 
L 2188 738 
L 3669 4666 
L 4325 4666 
L 2547 0 
L 1831 0 
z
" transform="scale(0.015625)"/>
      <path id="DejaVuSans-3a" d="M 750 794 
L 1409 794 
L 1409 0 
L 750 0 
L 750 794 
z
M 750 3309 
L 1409 3309 
L 1409 2516 
L 750 2516 
L 750 3309 
z
" transform="scale(0.015625)"/>
      <path id="DejaVuSans-6e" d="M 3513 2113 
L 3513 0 
L 2938 0 
L 2938 2094 
Q 2938 2591 2744 2837 
Q 2550 3084 2163 3084 
Q 1697 3084 1428 2787 
Q 1159 2491 1159 1978 
L 1159 0 
L 581 0 
L 581 3500 
L 1159 3500 
L 1159 2956 
Q 1366 3272 1645 3428 
Q 1925 3584 2291 3584 
Q 2894 3584 3203 3211 
Q 3513 2838 3513 2113 
z
" transform="scale(0.015625)"/>
      <path id="DejaVuSans-3d" d="M 678 2906 
L 4684 2906 
L 4684 2381 
L 678 2381 
L 678 2906 
z
M 678 1631 
L 4684 1631 
L 4684 1100 
L 678 1100 
L 678 1631 
z
" transform="scale(0.015625)"/>
      <path id="DejaVuSans-72" d="M 2631 2963 
Q 2534 3019 2420 3045 
Q 2306 3072 2169 3072 
Q 1681 3072 1420 2755 
Q 1159 2438 1159 1844 
L 1159 0 
L 581 0 
L 581 3500 
L 1159 3500 
L 1159 2956 
Q 1341 3275 1631 3429 
Q 1922 3584 2338 3584 
Q 2397 3584 2469 3576 
Q 2541 3569 2628 3553 
L 2631 2963 
z
" transform="scale(0.015625)"/>
      <path id="DejaVuSans-e2" d="M 2194 1759 
Q 1497 1759 1228 1600 
Q 959 1441 959 1056 
Q 959 750 1161 570 
Q 1363 391 1709 391 
Q 2188 391 2477 730 
Q 2766 1069 2766 1631 
L 2766 1759 
L 2194 1759 
z
M 3341 1997 
L 3341 0 
L 2766 0 
L 2766 531 
Q 2569 213 2275 61 
Q 1981 -91 1556 -91 
Q 1019 -91 701 211 
Q 384 513 384 1019 
Q 384 1609 779 1909 
Q 1175 2209 1959 2209 
L 2766 2209 
L 2766 2266 
Q 2766 2663 2505 2880 
Q 2244 3097 1772 3097 
Q 1472 3097 1187 3025 
Q 903 2953 641 2809 
L 641 3341 
Q 956 3463 1253 3523 
Q 1550 3584 1831 3584 
Q 2591 3584 2966 3190 
Q 3341 2797 3341 1997 
z
M 1625 5119 
L 2087 5119 
L 2853 3944 
L 2419 3944 
L 1856 4709 
L 1294 3944 
L 859 3944 
L 1625 5119 
z
" transform="scale(0.015625)"/>
      <path id="DejaVuSans-67" d="M 2906 1791 
Q 2906 2416 2648 2759 
Q 2391 3103 1925 3103 
Q 1463 3103 1205 2759 
Q 947 2416 947 1791 
Q 947 1169 1205 825 
Q 1463 481 1925 481 
Q 2391 481 2648 825 
Q 2906 1169 2906 1791 
z
M 3481 434 
Q 3481 -459 3084 -895 
Q 2688 -1331 1869 -1331 
Q 1566 -1331 1297 -1286 
Q 1028 -1241 775 -1147 
L 775 -588 
Q 1028 -725 1275 -790 
Q 1522 -856 1778 -856 
Q 2344 -856 2625 -561 
Q 2906 -266 2906 331 
L 2906 616 
Q 2728 306 2450 153 
Q 2172 0 1784 0 
Q 1141 0 747 490 
Q 353 981 353 1791 
Q 353 2603 747 3093 
Q 1141 3584 1784 3584 
Q 2172 3584 2450 3431 
Q 2728 3278 2906 2969 
L 2906 3500 
L 3481 3500 
L 3481 434 
z
" transform="scale(0.015625)"/>
      <path id="DejaVuSans-75" d="M 544 1381 
L 544 3500 
L 1119 3500 
L 1119 1403 
Q 1119 906 1312 657 
Q 1506 409 1894 409 
Q 2359 409 2629 706 
Q 2900 1003 2900 1516 
L 2900 3500 
L 3475 3500 
L 3475 0 
L 2900 0 
L 2900 538 
Q 2691 219 2414 64 
Q 2138 -91 1772 -91 
Q 1169 -91 856 284 
Q 544 659 544 1381 
z
M 1991 3584 
L 1991 3584 
z
" transform="scale(0.015625)"/>
      <path id="DejaVuSans-2b" d="M 2944 4013 
L 2944 2272 
L 4684 2272 
L 4684 1741 
L 2944 1741 
L 2944 0 
L 2419 0 
L 2419 1741 
L 678 1741 
L 678 2272 
L 2419 2272 
L 2419 4013 
L 2944 4013 
z
" transform="scale(0.015625)"/>
     </defs>
     <use xlink:href="#DejaVuSans-4d"/>
     <use xlink:href="#DejaVuSans-55" transform="translate(86.279297 0)"/>
     <use xlink:href="#DejaVuSans-56" transform="translate(159.472656 0)"/>
     <use xlink:href="#DejaVuSans-3a" transform="translate(219.755859 0)"/>
     <use xlink:href="#DejaVuSans-20" transform="translate(253.447266 0)"/>
     <use xlink:href="#DejaVuSans-64" transform="translate(285.234375 0)"/>
     <use xlink:href="#DejaVuSans-65" transform="translate(348.710938 0)"/>
     <use xlink:href="#DejaVuSans-73" transform="translate(410.234375 0)"/>
     <use xlink:href="#DejaVuSans-6c" transform="translate(462.333984 0)"/>
     <use xlink:href="#DejaVuSans-6f" transform="translate(490.117188 0)"/>
     <use xlink:href="#DejaVuSans-63" transform="translate(551.298828 0)"/>
     <use xlink:href="#DejaVuSans-61" transform="translate(606.279297 0)"/>
     <use xlink:href="#DejaVuSans-6d" transform="translate(667.558594 0)"/>
     <use xlink:href="#DejaVuSans-65" transform="translate(764.970703 0)"/>
     <use xlink:href="#DejaVuSans-6e" transform="translate(826.494141 0)"/>
     <use xlink:href="#DejaVuSans-74" transform="translate(889.873047 0)"/>
     <use xlink:href="#DejaVuSans-6f" transform="translate(929.082031 0)"/>
     <use xlink:href="#DejaVuSans-20" transform="translate(990.263672 0)"/>
     <use xlink:href="#DejaVuSans-3d" transform="translate(1022.050781 0)"/>
     <use xlink:href="#DejaVuSans-20" transform="translate(1105.839844 0)"/>
     <use xlink:href="#DejaVuSans-72" transform="translate(1137.626953 0)"/>
     <use xlink:href="#DejaVuSans-65" transform="translate(1176.490234 0)"/>
     <use xlink:href="#DejaVuSans-74" transform="translate(1238.013672 0)"/>
     <use xlink:href="#DejaVuSans-e2" transform="translate(1277.222656 0)"/>
     <use xlink:href="#DejaVuSans-6e" transform="translate(1338.501953 0)"/>
     <use xlink:href="#DejaVuSans-67" transform="translate(1401.880859 0)"/>
     <use xlink:href="#DejaVuSans-75" transform="translate(1465.357422 0)"/>
     <use xlink:href="#DejaVuSans-6c" transform="translate(1528.736328 0)"/>
     <use xlink:href="#DejaVuSans-6f" transform="translate(1556.519531 0)"/>
     <use xlink:href="#DejaVuSans-20" transform="translate(1617.701172 0)"/>
     <use xlink:href="#DejaVuSans-2b" transform="translate(1649.488281 0)"/>
     <use xlink:href="#DejaVuSans-20" transform="translate(1733.277344 0)"/>
     <use xlink:href="#DejaVuSans-74" transform="translate(1765.064453 0)"/>
     <use xlink:href="#DejaVuSans-72" transform="translate(1804.273438 0)"/>
     <use xlink:href="#DejaVuSans-69" transform="translate(1845.386719 0)"/>
     <use xlink:href="#DejaVuSans-e2" transform="translate(1873.169922 0)"/>
     <use xlink:href="#DejaVuSans-6e" transform="translate(1934.449219 0)"/>
     <use xlink:href="#DejaVuSans-67" transform="translate(1997.828125 0)"/>
     <use xlink:href="#DejaVuSans-75" transform="translate(2061.304688 0)"/>
     <use xlink:href="#DejaVuSans-6c" transform="translate(2124.683594 0)"/>
     <use xlink:href="#DejaVuSans-6f" transform="translate(2152.466797 0)"/>
    </g>
   </g>
  </g>
 </g>
 <defs>
  <clipPath id="pf9a18757e0">
   <rect x="44.57" y="27.24" width="445.435" height="233.2"/>
  </clipPath>
 </defs>
</svg>
