<?xml version="1.0" encoding="utf-8" standalone="no"?>
<!DOCTYPE svg PUBLIC "-//W3C//DTD SVG 1.1//EN"
  "http://www.w3.org/Graphics/SVG/1.1/DTD/svg11.dtd">
<svg xmlns:xlink="http://www.w3.org/1999/xlink" width="756pt" height="302.4pt" viewBox="0 0 756 302.4" xmlns="http://www.w3.org/2000/svg" version="1.1">
 <metadata>
  <rdf:RDF xmlns:dc="http://purl.org/dc/elements/1.1/" xmlns:cc="http://creativecommons.org/ns#" xmlns:rdf="http://www.w3.org/1999/02/22-rdf-syntax-ns#">
   <cc:Work>
    <dc:type rdf:resource="http://purl.org/dc/dcmitype/StillImage"/>
    <dc:date>2026-03-26T06:56:27.227823</dc:date>
    <dc:format>image/svg+xml</dc:format>
    <dc:creator>
     <cc:Agent>
      <dc:title>Matplotlib v3.7.5, https://matplotlib.org/</dc:title>
     </cc:Agent>
    </dc:creator>
   </cc:Work>
  </rdf:RDF>
 </metadata>
 <defs>
  <style type="text/css">*{stroke-linejoin: round; stroke-linecap: butt}</style>
 </defs>
 <g id="figure_1">
  <g id="patch_1">
   <path d="M 0 302.4 
L 756 302.4 
L 756 0 
L 0 0 
z
" style="fill: #f6f1e6"/>
  </g>
  <g id="axes_1">
   <g id="patch_2">
    <path d="M 11.48 291.390476 
L 744.52 291.390476 
L 744.52 11.009524 
L 11.48 11.009524 
z
" clip-path="url(#pfbf8d86532)" style="fill: #f6f1e6; stroke: #d8c1a2; stroke-width: 1.4; stroke-linejoin: miter"/>
   </g>
   <g id="patch_3">
    <path d="M 40.278 53.417143 
L 251.962 53.417143 
Q 260.19 53.417143 260.19 45.706667 
L 260.19 28.182857 
Q 260.19 20.472381 251.962 20.472381 
L 40.278 20.472381 
Q 32.05 20.472381 32.05 28.182857 
L 32.05 45.706667 
Q 32.05 53.417143 40.278 53.417143 
z
" clip-path="url(#pfbf8d86532)" style="fill: #efe5d2"/>
   </g>
   <g id="patch_4">
    <path d="M 65.838973 249.333333 
Q 377.998401 249.333333 688.592582 249.333333 
" clip-path="url(#pfbf8d86532)" style="fill: none; stroke: #2a2926; stroke-width: 1.4; stroke-linecap: round"/>
    <path d="M 683.792582 246.933333 
L 688.592582 249.333333 
L 683.792582 251.733333 
z
" clip-path="url(#pfbf8d86532)" style="fill: #2a2926; stroke: #2a2926; stroke-width: 1.4; stroke-linecap: round"/>
   </g>
   <g id="patch_5">
    <path d="M 63.84 217.790476 
L 692.16 217.790476 
L 692.16 179.939048 
L 63.84 179.939048 
z
" clip-path="url(#pfbf8d86532)" style="fill: #d7d0c5; stroke: #2a2926; stroke-linejoin: miter"/>
   </g>
   <g id="patch_6">
    <path d="M 108.72 182.742857 
L 131.16 182.742857 
L 131.16 98.628571 
L 108.72 98.628571 
z
" clip-path="url(#pfbf8d86532)" style="fill: #c8c3ba; stroke: #2a2926; stroke-linejoin: miter"/>
   </g>
   <g id="patch_7">
    <path d="M 110.964 165.219048 
L 128.916 165.219048 
L 128.916 162.415238 
L 110.964 162.415238 
z
" clip-path="url(#pfbf8d86532)" style="fill: #2a2926"/>
   </g>
   <g id="patch_8">
    <path d="M 110.964 143.489524 
L 128.916 143.489524 
L 128.916 140.685714 
L 110.964 140.685714 
z
" clip-path="url(#pfbf8d86532)" style="fill: #2a2926"/>
   </g>
   <g id="patch_9">
    <path d="M 110.964 121.76 
L 128.916 121.76 
L 128.916 118.95619 
L 110.964 118.95619 
z
" clip-path="url(#pfbf8d86532)" style="fill: #2a2926"/>
   </g>
   <g id="patch_10">
    <path d="M 110.8518 175.733333 
L 129.0282 175.733333 
L 129.0282 163.11619 
L 110.8518 163.11619 
z
" clip-path="url(#pfbf8d86532)" style="fill: #d6ab73; stroke: #2a2926; stroke-linejoin: miter"/>
   </g>
   <g id="patch_11">
    <path d="M 110.8518 163.11619 
L 119.94 159.331048 
L 129.0282 163.11619 
L 119.94 166.270476 
z
" clip-path="url(#pfbf8d86532)" style="fill: #e6c392; stroke: #2a2926; stroke-width: 0.8; stroke-linejoin: miter"/>
   </g>
   <g id="patch_12">
    <path d="M 110.8518 153.302857 
L 129.0282 153.302857 
L 129.0282 140.685714 
L 110.8518 140.685714 
z
" clip-path="url(#pfbf8d86532)" style="fill: #d6ab73; stroke: #2a2926; stroke-linejoin: miter"/>
   </g>
   <g id="patch_13">
    <path d="M 110.8518 140.685714 
L 119.94 136.900571 
L 129.0282 140.685714 
L 119.94 143.84 
z
" clip-path="url(#pfbf8d86532)" style="fill: #e6c392; stroke: #2a2926; stroke-width: 0.8; stroke-linejoin: miter"/>
   </g>
   <g id="patch_14">
    <path d="M 110.8518 131.573333 
L 129.0282 131.573333 
L 129.0282 118.95619 
L 110.8518 118.95619 
z
" clip-path="url(#pfbf8d86532)" style="fill: #d6ab73; stroke: #2a2926; stroke-linejoin: miter"/>
   </g>
   <g id="patch_15">
    <path d="M 110.8518 118.95619 
L 119.94 115.171048 
L 129.0282 118.95619 
L 119.94 122.110476 
z
" clip-path="url(#pfbf8d86532)" style="fill: #e6c392; stroke: #2a2926; stroke-width: 0.8; stroke-linejoin: miter"/>
   </g>
   <g id="patch_16">
    <path d="M 617.36 182.742857 
L 639.8 182.742857 
L 639.8 98.628571 
L 617.36 98.628571 
z
" clip-path="url(#pfbf8d86532)" style="fill: #c8c3ba; stroke: #2a2926; stroke-linejoin: miter"/>
   </g>
   <g id="patch_17">
    <path d="M 619.604 165.219048 
L 637.556 165.219048 
L 637.556 162.415238 
L 619.604 162.415238 
z
" clip-path="url(#pfbf8d86532)" style="fill: #2a2926"/>
   </g>
   <g id="patch_18">
    <path d="M 619.604 143.489524 
L 637.556 143.489524 
L 637.556 140.685714 
L 619.604 140.685714 
z
" clip-path="url(#pfbf8d86532)" style="fill: #2a2926"/>
   </g>
   <g id="patch_19">
    <path d="M 619.604 121.76 
L 637.556 121.76 
L 637.556 118.95619 
L 619.604 118.95619 
z
" clip-path="url(#pfbf8d86532)" style="fill: #2a2926"/>
   </g>
   <g id="patch_20">
    <path d="M 619.4918 175.733333 
L 637.6682 175.733333 
L 637.6682 163.11619 
L 619.4918 163.11619 
z
" clip-path="url(#pfbf8d86532)" style="fill: #d6ab73; stroke: #2a2926; stroke-linejoin: miter"/>
   </g>
   <g id="patch_21">
    <path d="M 619.4918 163.11619 
L 628.58 159.331048 
L 637.6682 163.11619 
L 628.58 166.270476 
z
" clip-path="url(#pfbf8d86532)" style="fill: #e6c392; stroke: #2a2926; stroke-width: 0.8; stroke-linejoin: miter"/>
   </g>
   <g id="patch_22">
    <path d="M 619.4918 153.302857 
L 637.6682 153.302857 
L 637.6682 140.685714 
L 619.4918 140.685714 
z
" clip-path="url(#pfbf8d86532)" style="fill: #d6ab73; stroke: #2a2926; stroke-linejoin: miter"/>
   </g>
   <g id="patch_23">
    <path d="M 619.4918 140.685714 
L 628.58 136.900571 
L 637.6682 140.685714 
L 628.58 143.84 
z
" clip-path="url(#pfbf8d86532)" style="fill: #e6c392; stroke: #2a2926; stroke-width: 0.8; stroke-linejoin: miter"/>
   </g>
   <g id="patch_24">
    <path d="M 619.4918 131.573333 
L 637.6682 131.573333 
L 637.6682 118.95619 
L 619.4918 118.95619 
z
" clip-path="url(#pfbf8d86532)" style="fill: #d6ab73; stroke: #2a2926; stroke-linejoin: miter"/>
   </g>
   <g id="patch_25">
    <path d="M 619.4918 118.95619 
L 628.58 115.171048 
L 637.6682 118.95619 
L 628.58 122.110476 
z
" clip-path="url(#pfbf8d86532)" style="fill: #e6c392; stroke: #2a2926; stroke-width: 0.8; stroke-linejoin: miter"/>
   </g>
   <g id="patch_26">
    <path d="M 119.37152 200.715276 
L 160.1824 200.715276 
L 160.1824 177.275429 
L 119.37152 177.275429 
z
" clip-path="url(#pfbf8d86532)" style="fill: #d4a544; opacity: 0.55; stroke: #2a2926; stroke-linejoin: miter"/>
   </g>
   <g id="patch_27">
    <path d="M 139.11872 177.275429 
L 158.86592 177.275429 
L 158.86592 155.069257 
L 139.11872 155.069257 
z
" clip-path="url(#pfbf8d86532)" style="fill: #d4a544; opacity: 0.55; stroke: #2a2926; stroke-linejoin: miter"/>
   </g>
   <g id="patch_28">
    <path d="M 160.1824 201.948952 
L 164.13184 201.948952 
L 164.13184 140.265143 
L 160.1824 140.265143 
z
" clip-path="url(#pfbf8d86532)" style="fill: #30363b; opacity: 0.55; stroke: #2a2926; stroke-linejoin: miter"/>
   </g>
   <g id="patch_29">
    <path d="M 166.7648 201.948952 
L 170.71424 201.948952 
L 170.71424 140.265143 
L 166.7648 140.265143 
z
" clip-path="url(#pfbf8d86532)" style="fill: #30363b; opacity: 0.55; stroke: #2a2926; stroke-linejoin: miter"/>
   </g>
   <g id="patch_30">
    <path d="M 166.7648 198.864762 
L 194.41088 198.864762 
L 194.41088 195.780571 
L 166.7648 195.780571 
z
" clip-path="url(#pfbf8d86532)" style="fill: #30363b; opacity: 0.55; stroke: #2a2926; stroke-width: 0.8; stroke-linejoin: miter"/>
   </g>
   <g id="patch_31">
    <path d="M 166.7648 189.61219 
L 186.512 189.61219 
L 186.512 186.528 
L 166.7648 186.528 
z
" clip-path="url(#pfbf8d86532)" style="fill: #30363b; opacity: 0.55; stroke: #2a2926; stroke-width: 0.8; stroke-linejoin: miter"/>
   </g>
   <g id="patch_32">
    <path d="M 133.8528 209.35101 
C 135.947607 209.35101 137.956899 208.571082 139.438152 207.182997 
C 140.919404 205.794912 141.75168 203.912001 141.75168 201.948952 
C 141.75168 199.985904 140.919404 198.102992 139.438152 196.714908 
C 137.956899 195.326823 135.947607 194.546895 133.8528 194.546895 
C 131.757993 194.546895 129.748701 195.326823 128.267448 196.714908 
C 126.786196 198.102992 125.95392 199.985904 125.95392 201.948952 
C 125.95392 203.912001 126.786196 205.794912 128.267448 207.182997 
C 129.748701 208.571082 131.757993 209.35101 133.8528 209.35101 
z
" clip-path="url(#pfbf8d86532)" style="fill: #30363b; opacity: 0.55; stroke: #2a2926; stroke-linejoin: miter"/>
   </g>
   <g id="patch_33">
    <path d="M 154.91648 209.35101 
C 157.011287 209.35101 159.020579 208.571082 160.501832 207.182997 
C 161.983084 205.794912 162.81536 203.912001 162.81536 201.948952 
C 162.81536 199.985904 161.983084 198.102992 160.501832 196.714908 
C 159.020579 195.326823 157.011287 194.546895 154.91648 194.546895 
C 152.821673 194.546895 150.812381 195.326823 149.331128 196.714908 
C 147.849876 198.102992 147.0176 199.985904 147.0176 201.948952 
C 147.0176 203.912001 147.849876 205.794912 149.331128 207.182997 
C 150.812381 208.571082 152.821673 209.35101 154.91648 209.35101 
z
" clip-path="url(#pfbf8d86532)" style="fill: #30363b; opacity: 0.55; stroke: #2a2926; stroke-linejoin: miter"/>
   </g>
   <g id="patch_34">
    <path d="M 179.073888 200.715276 
L 211.064352 200.715276 
L 211.064352 178.509105 
L 179.073888 178.509105 
z
" clip-path="url(#pfbf8d86532)" style="fill: #d6ab73; opacity: 0.55; stroke: #2a2926; stroke-linejoin: miter"/>
   </g>
   <g id="patch_35">
    <path d="M 179.073888 178.509105 
L 195.06912 171.847253 
L 211.064352 178.509105 
L 195.06912 184.060648 
z
" clip-path="url(#pfbf8d86532)" style="fill: #e6c392; opacity: 0.55; stroke: #2a2926; stroke-width: 0.8; stroke-linejoin: miter"/>
   </g>
   <g id="patch_36">
    <path d="M 530.71168 200.098438 
L 573.3776 200.098438 
L 573.3776 175.593143 
L 530.71168 175.593143 
z
" clip-path="url(#pfbf8d86532)" style="fill: #d4a544; stroke: #2a2926; stroke-linejoin: miter"/>
   </g>
   <g id="patch_37">
    <path d="M 551.35648 175.593143 
L 572.00128 175.593143 
L 572.00128 152.3776 
L 551.35648 152.3776 
z
" clip-path="url(#pfbf8d86532)" style="fill: #d4a544; stroke: #2a2926; stroke-linejoin: miter"/>
   </g>
   <g id="patch_38">
    <path d="M 573.3776 201.38819 
L 577.50656 201.38819 
L 577.50656 136.900571 
L 573.3776 136.900571 
z
" clip-path="url(#pfbf8d86532)" style="fill: #30363b; stroke: #2a2926; stroke-linejoin: miter"/>
   </g>
   <g id="patch_39">
    <path d="M 580.2592 201.38819 
L 584.38816 201.38819 
L 584.38816 136.900571 
L 580.2592 136.900571 
z
" clip-path="url(#pfbf8d86532)" style="fill: #30363b; stroke: #2a2926; stroke-linejoin: miter"/>
   </g>
   <g id="patch_40">
    <path d="M 580.2592 198.16381 
L 609.16192 198.16381 
L 609.16192 194.939429 
L 580.2592 194.939429 
z
" clip-path="url(#pfbf8d86532)" style="fill: #30363b; stroke: #2a2926; stroke-width: 0.8; stroke-linejoin: miter"/>
   </g>
   <g id="patch_41">
    <path d="M 580.2592 188.490667 
L 600.904 188.490667 
L 600.904 185.266286 
L 580.2592 185.266286 
z
" clip-path="url(#pfbf8d86532)" style="fill: #30363b; stroke: #2a2926; stroke-width: 0.8; stroke-linejoin: miter"/>
   </g>
   <g id="patch_42">
    <path d="M 545.8512 209.126705 
C 548.041226 209.126705 550.141849 208.311326 551.690431 206.860146 
C 553.239013 205.408967 554.10912 203.440468 554.10912 201.38819 
C 554.10912 199.335912 553.239013 197.367414 551.690431 195.916235 
C 550.141849 194.465055 548.041226 193.649676 545.8512 193.649676 
C 543.661174 193.649676 541.560551 194.465055 540.011969 195.916235 
C 538.463387 197.367414 537.59328 199.335912 537.59328 201.38819 
C 537.59328 203.440468 538.463387 205.408967 540.011969 206.860146 
C 541.560551 208.311326 543.661174 209.126705 545.8512 209.126705 
z
" clip-path="url(#pfbf8d86532)" style="fill: #30363b; stroke: #2a2926; stroke-linejoin: miter"/>
   </g>
   <g id="patch_43">
    <path d="M 567.87232 209.126705 
C 570.062346 209.126705 572.162969 208.311326 573.711551 206.860146 
C 575.260133 205.408967 576.13024 203.440468 576.13024 201.38819 
C 576.13024 199.335912 575.260133 197.367414 573.711551 195.916235 
C 572.162969 194.465055 570.062346 193.649676 567.87232 193.649676 
C 565.682294 193.649676 563.581671 194.465055 562.033089 195.916235 
C 560.484507 197.367414 559.6144 199.335912 559.6144 201.38819 
C 559.6144 203.440468 560.484507 205.408967 562.033089 206.860146 
C 563.581671 208.311326 565.682294 209.126705 567.87232 209.126705 
z
" clip-path="url(#pfbf8d86532)" style="fill: #30363b; stroke: #2a2926; stroke-linejoin: miter"/>
   </g>
   <g id="patch_44">
    <path d="M 593.127792 200.098438 
L 626.572368 200.098438 
L 626.572368 176.882895 
L 593.127792 176.882895 
z
" clip-path="url(#pfbf8d86532)" style="fill: #d6ab73; stroke: #2a2926; stroke-linejoin: miter"/>
   </g>
   <g id="patch_45">
    <path d="M 593.127792 176.882895 
L 609.85008 169.918232 
L 626.572368 176.882895 
L 609.85008 182.686781 
z
" clip-path="url(#pfbf8d86532)" style="fill: #e6c392; stroke: #2a2926; stroke-width: 0.8; stroke-linejoin: miter"/>
   </g>
   <g id="patch_46">
    <path d="M 200.481467 102.133333 
Q 373.138434 102.133333 544.230154 102.133333 
" clip-path="url(#pfbf8d86532)" style="fill: none; stroke: #8b5e34; stroke-width: 1.4; stroke-linecap: round"/>
    <path d="M 539.430154 99.733333 
L 544.230154 102.133333 
L 539.430154 104.533333 
" clip-path="url(#pfbf8d86532)" style="fill: none; stroke: #8b5e34; stroke-width: 1.4; stroke-linecap: round"/>
   </g>
   <g id="patch_47">
    <path d="M 121.062 91.268571 
L 186.138 91.268571 
Q 189.878 91.268571 189.878 87.76381 
L 189.878 74.445714 
Q 189.878 70.940952 186.138 70.940952 
L 121.062 70.940952 
Q 117.322 70.940952 117.322 74.445714 
L 117.322 87.76381 
Q 117.322 91.268571 121.062 91.268571 
z
" clip-path="url(#pfbf8d86532)" style="fill: #efe5d2"/>
   </g>
   <g id="patch_48">
    <path d="M 533.958 91.268571 
L 599.034 91.268571 
Q 602.774 91.268571 602.774 87.76381 
L 602.774 74.445714 
Q 602.774 70.940952 599.034 70.940952 
L 533.958 70.940952 
Q 530.218 70.940952 530.218 74.445714 
L 530.218 87.76381 
Q 530.218 91.268571 533.958 91.268571 
z
" clip-path="url(#pfbf8d86532)" style="fill: #efe5d2"/>
   </g>
   <g id="patch_49">
    <path d="M 616.238 162.765714 
L 681.314 162.765714 
Q 685.054 162.765714 685.054 159.260952 
L 685.054 145.942857 
Q 685.054 142.438095 681.314 142.438095 
L 616.238 142.438095 
Q 612.498 142.438095 612.498 145.942857 
L 612.498 159.260952 
Q 612.498 162.765714 616.238 162.765714 
z
" clip-path="url(#pfbf8d86532)" style="fill: #efe5d2"/>
   </g>
   <g id="line2d_1">
    <path d="M 63.84 257.04381 
L 63.84 241.622857 
" clip-path="url(#pfbf8d86532)" style="fill: none; stroke: #2a2926; stroke-linecap: square"/>
   </g>
   <g id="line2d_2">
    <path d="M 189.504 257.04381 
L 189.504 241.622857 
" clip-path="url(#pfbf8d86532)" style="fill: none; stroke: #2a2926; stroke-linecap: square"/>
   </g>
   <g id="line2d_3">
    <path d="M 315.168 257.04381 
L 315.168 241.622857 
" clip-path="url(#pfbf8d86532)" style="fill: none; stroke: #2a2926; stroke-linecap: square"/>
   </g>
   <g id="line2d_4">
    <path d="M 440.832 257.04381 
L 440.832 241.622857 
" clip-path="url(#pfbf8d86532)" style="fill: none; stroke: #2a2926; stroke-linecap: square"/>
   </g>
   <g id="line2d_5">
    <path d="M 566.496 257.04381 
L 566.496 241.622857 
" clip-path="url(#pfbf8d86532)" style="fill: none; stroke: #2a2926; stroke-linecap: square"/>
   </g>
   <g id="line2d_6">
    <path d="M 692.16 257.04381 
L 692.16 241.622857 
" clip-path="url(#pfbf8d86532)" style="fill: none; stroke: #2a2926; stroke-linecap: square"/>
   </g>
   <g id="line2d_7">
    <path d="M 119.94 175.733333 
L 119.94 163.11619 
" clip-path="url(#pfbf8d86532)" style="fill: none; stroke: #8f6a3d; stroke-width: 0.8; stroke-linecap: square"/>
   </g>
   <g id="line2d_8">
    <path d="M 119.94 153.302857 
L 119.94 140.685714 
" clip-path="url(#pfbf8d86532)" style="fill: none; stroke: #8f6a3d; stroke-width: 0.8; stroke-linecap: square"/>
   </g>
   <g id="line2d_9">
    <path d="M 119.94 131.573333 
L 119.94 118.95619 
" clip-path="url(#pfbf8d86532)" style="fill: none; stroke: #8f6a3d; stroke-width: 0.8; stroke-linecap: square"/>
   </g>
   <g id="line2d_10">
    <path d="M 628.58 175.733333 
L 628.58 163.11619 
" clip-path="url(#pfbf8d86532)" style="fill: none; stroke: #8f6a3d; stroke-width: 0.8; stroke-linecap: square"/>
   </g>
   <g id="line2d_11">
    <path d="M 628.58 153.302857 
L 628.58 140.685714 
" clip-path="url(#pfbf8d86532)" style="fill: none; stroke: #8f6a3d; stroke-width: 0.8; stroke-linecap: square"/>
   </g>
   <g id="line2d_12">
    <path d="M 628.58 131.573333 
L 628.58 118.95619 
" clip-path="url(#pfbf8d86532)" style="fill: none; stroke: #8f6a3d; stroke-width: 0.8; stroke-linecap: square"/>
   </g>
   <g id="line2d_13">
    <path d="M 195.06912 200.715276 
L 195.06912 178.509105 
" clip-path="url(#pfbf8d86532)" style="fill: none; stroke: #8f6a3d; stroke-opacity: 0.55; stroke-width: 0.8; stroke-linecap: square"/>
   </g>
   <g id="line2d_14">
    <path d="M 609.85008 200.098438 
L 609.85008 176.882895 
" clip-path="url(#pfbf8d86532)" style="fill: none; stroke: #8f6a3d; stroke-width: 0.8; stroke-linecap: square"/>
   </g>
   <g id="text_1">
    <!-- Empilhadeira freando -->
    <g style="fill: #2a2926" transform="translate(48.88 41.657917) scale(0.12 -0.12)">
     <defs>
      <path id="DejaVuSans-Bold-45" d="M 588 4666 
L 3834 4666 
L 3834 3756 
L 1791 3756 
L 1791 2888 
L 3713 2888 
L 3713 1978 
L 1791 1978 
L 1791 909 
L 3903 909 
L 3903 0 
L 588 0 
L 588 4666 
z
" transform="scale(0.015625)"/>
      <path id="DejaVuSans-Bold-6d" d="M 3781 2919 
Q 3994 3244 4286 3414 
Q 4578 3584 4928 3584 
Q 5531 3584 5847 3212 
Q 6163 2841 6163 2131 
L 6163 0 
L 5038 0 
L 5038 1825 
Q 5041 1866 5042 1909 
Q 5044 1953 5044 2034 
Q 5044 2406 4934 2573 
Q 4825 2741 4581 2741 
Q 4263 2741 4089 2478 
Q 3916 2216 3909 1719 
L 3909 0 
L 2784 0 
L 2784 1825 
Q 2784 2406 2684 2573 
Q 2584 2741 2328 2741 
Q 2006 2741 1831 2477 
Q 1656 2213 1656 1722 
L 1656 0 
L 531 0 
L 531 3500 
L 1656 3500 
L 1656 2988 
Q 1863 3284 2130 3434 
Q 2397 3584 2719 3584 
Q 3081 3584 3359 3409 
Q 3638 3234 3781 2919 
z
" transform="scale(0.015625)"/>
      <path id="DejaVuSans-Bold-70" d="M 1656 506 
L 1656 -1331 
L 538 -1331 
L 538 3500 
L 1656 3500 
L 1656 2988 
Q 1888 3294 2169 3439 
Q 2450 3584 2816 3584 
Q 3463 3584 3878 3070 
Q 4294 2556 4294 1747 
Q 4294 938 3878 423 
Q 3463 -91 2816 -91 
Q 2450 -91 2169 54 
Q 1888 200 1656 506 
z
M 2400 2772 
Q 2041 2772 1848 2508 
Q 1656 2244 1656 1747 
Q 1656 1250 1848 986 
Q 2041 722 2400 722 
Q 2759 722 2948 984 
Q 3138 1247 3138 1747 
Q 3138 2247 2948 2509 
Q 2759 2772 2400 2772 
z
" transform="scale(0.015625)"/>
      <path id="DejaVuSans-Bold-69" d="M 538 3500 
L 1656 3500 
L 1656 0 
L 538 0 
L 538 3500 
z
M 538 4863 
L 1656 4863 
L 1656 3950 
L 538 3950 
L 538 4863 
z
" transform="scale(0.015625)"/>
      <path id="DejaVuSans-Bold-6c" d="M 538 4863 
L 1656 4863 
L 1656 0 
L 538 0 
L 538 4863 
z
" transform="scale(0.015625)"/>
      <path id="DejaVuSans-Bold-68" d="M 4056 2131 
L 4056 0 
L 2931 0 
L 2931 347 
L 2931 1625 
Q 2931 2084 2911 2256 
Q 2891 2428 2841 2509 
Q 2775 2619 2662 2680 
Q 2550 2741 2406 2741 
Q 2056 2741 1856 2470 
Q 1656 2200 1656 1722 
L 1656 0 
L 538 0 
L 538 4863 
L 1656 4863 
L 1656 2988 
Q 1909 3294 2193 3439 
Q 2478 3584 2822 3584 
Q 3428 3584 3742 3212 
Q 4056 2841 4056 2131 
z
" transform="scale(0.015625)"/>
      <path id="DejaVuSans-Bold-61" d="M 2106 1575 
Q 1756 1575 1579 1456 
Q 1403 1338 1403 1106 
Q 1403 894 1545 773 
Q 1688 653 1941 653 
Q 2256 653 2472 879 
Q 2688 1106 2688 1447 
L 2688 1575 
L 2106 1575 
z
M 3816 1997 
L 3816 0 
L 2688 0 
L 2688 519 
Q 2463 200 2181 54 
Q 1900 -91 1497 -91 
Q 953 -91 614 226 
Q 275 544 275 1050 
Q 275 1666 698 1953 
Q 1122 2241 2028 2241 
L 2688 2241 
L 2688 2328 
Q 2688 2594 2478 2717 
Q 2269 2841 1825 2841 
Q 1466 2841 1156 2769 
Q 847 2697 581 2553 
L 581 3406 
Q 941 3494 1303 3539 
Q 1666 3584 2028 3584 
Q 2975 3584 3395 3211 
Q 3816 2838 3816 1997 
z
" transform="scale(0.015625)"/>
      <path id="DejaVuSans-Bold-64" d="M 2919 2988 
L 2919 4863 
L 4044 4863 
L 4044 0 
L 2919 0 
L 2919 506 
Q 2688 197 2409 53 
Q 2131 -91 1766 -91 
Q 1119 -91 703 423 
Q 288 938 288 1747 
Q 288 2556 703 3070 
Q 1119 3584 1766 3584 
Q 2128 3584 2408 3439 
Q 2688 3294 2919 2988 
z
M 2181 722 
Q 2541 722 2730 984 
Q 2919 1247 2919 1747 
Q 2919 2247 2730 2509 
Q 2541 2772 2181 2772 
Q 1825 2772 1636 2509 
Q 1447 2247 1447 1747 
Q 1447 1247 1636 984 
Q 1825 722 2181 722 
z
" transform="scale(0.015625)"/>
      <path id="DejaVuSans-Bold-65" d="M 4031 1759 
L 4031 1441 
L 1416 1441 
Q 1456 1047 1700 850 
Q 1944 653 2381 653 
Q 2734 653 3104 758 
Q 3475 863 3866 1075 
L 3866 213 
Q 3469 63 3072 -14 
Q 2675 -91 2278 -91 
Q 1328 -91 801 392 
Q 275 875 275 1747 
Q 275 2603 792 3093 
Q 1309 3584 2216 3584 
Q 3041 3584 3536 3087 
Q 4031 2591 4031 1759 
z
M 2881 2131 
Q 2881 2450 2695 2645 
Q 2509 2841 2209 2841 
Q 1884 2841 1681 2658 
Q 1478 2475 1428 2131 
L 2881 2131 
z
" transform="scale(0.015625)"/>
      <path id="DejaVuSans-Bold-72" d="M 3138 2547 
Q 2991 2616 2845 2648 
Q 2700 2681 2553 2681 
Q 2122 2681 1889 2404 
Q 1656 2128 1656 1613 
L 1656 0 
L 538 0 
L 538 3500 
L 1656 3500 
L 1656 2925 
Q 1872 3269 2151 3426 
Q 2431 3584 2822 3584 
Q 2878 3584 2943 3579 
Q 3009 3575 3134 3559 
L 3138 2547 
z
" transform="scale(0.015625)"/>
      <path id="DejaVuSans-Bold-20" transform="scale(0.015625)"/>
      <path id="DejaVuSans-Bold-66" d="M 2841 4863 
L 2841 4128 
L 2222 4128 
Q 1984 4128 1890 4042 
Q 1797 3956 1797 3744 
L 1797 3500 
L 2753 3500 
L 2753 2700 
L 1797 2700 
L 1797 0 
L 678 0 
L 678 2700 
L 122 2700 
L 122 3500 
L 678 3500 
L 678 3744 
Q 678 4316 997 4589 
Q 1316 4863 1984 4863 
L 2841 4863 
z
" transform="scale(0.015625)"/>
      <path id="DejaVuSans-Bold-6e" d="M 4056 2131 
L 4056 0 
L 2931 0 
L 2931 347 
L 2931 1631 
Q 2931 2084 2911 2256 
Q 2891 2428 2841 2509 
Q 2775 2619 2662 2680 
Q 2550 2741 2406 2741 
Q 2056 2741 1856 2470 
Q 1656 2200 1656 1722 
L 1656 0 
L 538 0 
L 538 3500 
L 1656 3500 
L 1656 2988 
Q 1909 3294 2193 3439 
Q 2478 3584 2822 3584 
Q 3428 3584 3742 3212 
Q 4056 2841 4056 2131 
z
" transform="scale(0.015625)"/>
      <path id="DejaVuSans-Bold-6f" d="M 2203 2784 
Q 1831 2784 1636 2517 
Q 1441 2250 1441 1747 
Q 1441 1244 1636 976 
Q 1831 709 2203 709 
Q 2569 709 2762 976 
Q 2956 1244 2956 1747 
Q 2956 2250 2762 2517 
Q 2569 2784 2203 2784 
z
M 2203 3584 
Q 3106 3584 3614 3096 
Q 4122 2609 4122 1747 
Q 4122 884 3614 396 
Q 3106 -91 2203 -91 
Q 1297 -91 786 396 
Q 275 884 275 1747 
Q 275 2609 786 3096 
Q 1297 3584 2203 3584 
z
" transform="scale(0.015625)"/>
     </defs>
     <use xlink:href="#DejaVuSans-Bold-45"/>
     <use xlink:href="#DejaVuSans-Bold-6d" x="68.310547"/>
     <use xlink:href="#DejaVuSans-Bold-70" x="172.509766"/>
     <use xlink:href="#DejaVuSans-Bold-69" x="244.091797"/>
     <use xlink:href="#DejaVuSans-Bold-6c" x="278.369141"/>
     <use xlink:href="#DejaVuSans-Bold-68" x="312.646484"/>
     <use xlink:href="#DejaVuSans-Bold-61" x="383.837891"/>
     <use xlink:href="#DejaVuSans-Bold-64" x="451.318359"/>
     <use xlink:href="#DejaVuSans-Bold-65" x="522.900391"/>
     <use xlink:href="#DejaVuSans-Bold-69" x="590.722656"/>
     <use xlink:href="#DejaVuSans-Bold-72" x="625"/>
     <use xlink:href="#DejaVuSans-Bold-61" x="674.316406"/>
     <use xlink:href="#DejaVuSans-Bold-20" x="741.796875"/>
     <use xlink:href="#DejaVuSans-Bold-66" x="776.611328"/>
     <use xlink:href="#DejaVuSans-Bold-72" x="820.117188"/>
     <use xlink:href="#DejaVuSans-Bold-65" x="869.433594"/>
     <use xlink:href="#DejaVuSans-Bold-61" x="937.255859"/>
     <use xlink:href="#DejaVuSans-Bold-6e" x="1004.736328"/>
     <use xlink:href="#DejaVuSans-Bold-64" x="1075.927734"/>
     <use xlink:href="#DejaVuSans-Bold-6f" x="1147.509766"/>
    </g>
   </g>
   <g id="text_2">
    <!-- 0 -->
    <g style="fill: #665f56" transform="translate(61.295 277.84256) scale(0.08 -0.08)">
     <defs>
      <path id="DejaVuSans-30" d="M 2034 4250 
Q 1547 4250 1301 3770 
Q 1056 3291 1056 2328 
Q 1056 1369 1301 889 
Q 1547 409 2034 409 
Q 2525 409 2770 889 
Q 3016 1369 3016 2328 
Q 3016 3291 2770 3770 
Q 2525 4250 2034 4250 
z
M 2034 4750 
Q 2819 4750 3233 4129 
Q 3647 3509 3647 2328 
Q 3647 1150 3233 529 
Q 2819 -91 2034 -91 
Q 1250 -91 836 529 
Q 422 1150 422 2328 
Q 422 3509 836 4129 
Q 1250 4750 2034 4750 
z
" transform="scale(0.015625)"/>
     </defs>
     <use xlink:href="#DejaVuSans-30"/>
    </g>
   </g>
   <g id="text_3">
    <!-- 3 -->
    <g style="fill: #665f56" transform="translate(186.959 277.84256) scale(0.08 -0.08)">
     <defs>
      <path id="DejaVuSans-33" d="M 2597 2516 
Q 3050 2419 3304 2112 
Q 3559 1806 3559 1356 
Q 3559 666 3084 287 
Q 2609 -91 1734 -91 
Q 1441 -91 1130 -33 
Q 819 25 488 141 
L 488 750 
Q 750 597 1062 519 
Q 1375 441 1716 441 
Q 2309 441 2620 675 
Q 2931 909 2931 1356 
Q 2931 1769 2642 2001 
Q 2353 2234 1838 2234 
L 1294 2234 
L 1294 2753 
L 1863 2753 
Q 2328 2753 2575 2939 
Q 2822 3125 2822 3475 
Q 2822 3834 2567 4026 
Q 2313 4219 1838 4219 
Q 1578 4219 1281 4162 
Q 984 4106 628 3988 
L 628 4550 
Q 988 4650 1302 4700 
Q 1616 4750 1894 4750 
Q 2613 4750 3031 4423 
Q 3450 4097 3450 3541 
Q 3450 3153 3228 2886 
Q 3006 2619 2597 2516 
z
" transform="scale(0.015625)"/>
     </defs>
     <use xlink:href="#DejaVuSans-33"/>
    </g>
   </g>
   <g id="text_4">
    <!-- 6 -->
    <g style="fill: #665f56" transform="translate(312.623 277.84256) scale(0.08 -0.08)">
     <defs>
      <path id="DejaVuSans-36" d="M 2113 2584 
Q 1688 2584 1439 2293 
Q 1191 2003 1191 1497 
Q 1191 994 1439 701 
Q 1688 409 2113 409 
Q 2538 409 2786 701 
Q 3034 994 3034 1497 
Q 3034 2003 2786 2293 
Q 2538 2584 2113 2584 
z
M 3366 4563 
L 3366 3988 
Q 3128 4100 2886 4159 
Q 2644 4219 2406 4219 
Q 1781 4219 1451 3797 
Q 1122 3375 1075 2522 
Q 1259 2794 1537 2939 
Q 1816 3084 2150 3084 
Q 2853 3084 3261 2657 
Q 3669 2231 3669 1497 
Q 3669 778 3244 343 
Q 2819 -91 2113 -91 
Q 1303 -91 875 529 
Q 447 1150 447 2328 
Q 447 3434 972 4092 
Q 1497 4750 2381 4750 
Q 2619 4750 2861 4703 
Q 3103 4656 3366 4563 
z
" transform="scale(0.015625)"/>
     </defs>
     <use xlink:href="#DejaVuSans-36"/>
    </g>
   </g>
   <g id="text_5">
    <!-- 9 -->
    <g style="fill: #665f56" transform="translate(438.287 277.84256) scale(0.08 -0.08)">
     <defs>
      <path id="DejaVuSans-39" d="M 703 97 
L 703 672 
Q 941 559 1184 500 
Q 1428 441 1663 441 
Q 2288 441 2617 861 
Q 2947 1281 2994 2138 
Q 2813 1869 2534 1725 
Q 2256 1581 1919 1581 
Q 1219 1581 811 2004 
Q 403 2428 403 3163 
Q 403 3881 828 4315 
Q 1253 4750 1959 4750 
Q 2769 4750 3195 4129 
Q 3622 3509 3622 2328 
Q 3622 1225 3098 567 
Q 2575 -91 1691 -91 
Q 1453 -91 1209 -44 
Q 966 3 703 97 
z
M 1959 2075 
Q 2384 2075 2632 2365 
Q 2881 2656 2881 3163 
Q 2881 3666 2632 3958 
Q 2384 4250 1959 4250 
Q 1534 4250 1286 3958 
Q 1038 3666 1038 3163 
Q 1038 2656 1286 2365 
Q 1534 2075 1959 2075 
z
" transform="scale(0.015625)"/>
     </defs>
     <use xlink:href="#DejaVuSans-39"/>
    </g>
   </g>
   <g id="text_6">
    <!-- 12 -->
    <g style="fill: #665f56" transform="translate(561.406 277.84256) scale(0.08 -0.08)">
     <defs>
      <path id="DejaVuSans-31" d="M 794 531 
L 1825 531 
L 1825 4091 
L 703 3866 
L 703 4441 
L 1819 4666 
L 2450 4666 
L 2450 531 
L 3481 531 
L 3481 0 
L 794 0 
L 794 531 
z
" transform="scale(0.015625)"/>
      <path id="DejaVuSans-32" d="M 1228 531 
L 3431 531 
L 3431 0 
L 469 0 
L 469 531 
Q 828 903 1448 1529 
Q 2069 2156 2228 2338 
Q 2531 2678 2651 2914 
Q 2772 3150 2772 3378 
Q 2772 3750 2511 3984 
Q 2250 4219 1831 4219 
Q 1534 4219 1204 4116 
Q 875 4013 500 3803 
L 500 4441 
Q 881 4594 1212 4672 
Q 1544 4750 1819 4750 
Q 2544 4750 2975 4387 
Q 3406 4025 3406 3419 
Q 3406 3131 3298 2873 
Q 3191 2616 2906 2266 
Q 2828 2175 2409 1742 
Q 1991 1309 1228 531 
z
" transform="scale(0.015625)"/>
     </defs>
     <use xlink:href="#DejaVuSans-31"/>
     <use xlink:href="#DejaVuSans-32" x="63.623047"/>
    </g>
   </g>
   <g id="text_7">
    <!-- 15 -->
    <g style="fill: #665f56" transform="translate(687.07 277.84256) scale(0.08 -0.08)">
     <defs>
      <path id="DejaVuSans-35" d="M 691 4666 
L 3169 4666 
L 3169 4134 
L 1269 4134 
L 1269 2991 
Q 1406 3038 1543 3061 
Q 1681 3084 1819 3084 
Q 2600 3084 3056 2656 
Q 3513 2228 3513 1497 
Q 3513 744 3044 326 
Q 2575 -91 1722 -91 
Q 1428 -91 1123 -41 
Q 819 9 494 109 
L 494 744 
Q 775 591 1075 516 
Q 1375 441 1709 441 
Q 2250 441 2565 725 
Q 2881 1009 2881 1497 
Q 2881 1984 2565 2268 
Q 2250 2553 1709 2553 
Q 1456 2553 1204 2497 
Q 953 2441 691 2322 
L 691 4666 
z
" transform="scale(0.015625)"/>
     </defs>
     <use xlink:href="#DejaVuSans-31"/>
     <use xlink:href="#DejaVuSans-35" x="63.623047"/>
    </g>
   </g>
   <g id="text_8">
    <!-- S (m) -->
    <g style="fill: #2a2926" transform="translate(701.136 247.931429) scale(0.09 -0.09)">
     <defs>
      <path id="DejaVuSans-Bold-53" d="M 3834 4519 
L 3834 3531 
Q 3450 3703 3084 3790 
Q 2719 3878 2394 3878 
Q 1963 3878 1756 3759 
Q 1550 3641 1550 3391 
Q 1550 3203 1689 3098 
Q 1828 2994 2194 2919 
L 2706 2816 
Q 3484 2659 3812 2340 
Q 4141 2022 4141 1434 
Q 4141 663 3683 286 
Q 3225 -91 2284 -91 
Q 1841 -91 1394 -6 
Q 947 78 500 244 
L 500 1259 
Q 947 1022 1364 901 
Q 1781 781 2169 781 
Q 2563 781 2772 912 
Q 2981 1044 2981 1288 
Q 2981 1506 2839 1625 
Q 2697 1744 2272 1838 
L 1806 1941 
Q 1106 2091 782 2419 
Q 459 2747 459 3303 
Q 459 4000 909 4375 
Q 1359 4750 2203 4750 
Q 2588 4750 2994 4692 
Q 3400 4634 3834 4519 
z
" transform="scale(0.015625)"/>
      <path id="DejaVuSans-Bold-28" d="M 2413 -844 
L 1484 -844 
Q 1006 -72 778 623 
Q 550 1319 550 2003 
Q 550 2688 779 3389 
Q 1009 4091 1484 4856 
L 2413 4856 
Q 2013 4116 1813 3408 
Q 1613 2700 1613 2009 
Q 1613 1319 1811 609 
Q 2009 -100 2413 -844 
z
" transform="scale(0.015625)"/>
      <path id="DejaVuSans-Bold-29" d="M 513 -844 
Q 913 -100 1113 609 
Q 1313 1319 1313 2009 
Q 1313 2700 1113 3408 
Q 913 4116 513 4856 
L 1441 4856 
Q 1916 4091 2145 3389 
Q 2375 2688 2375 2003 
Q 2375 1319 2147 623 
Q 1919 -72 1441 -844 
L 513 -844 
z
" transform="scale(0.015625)"/>
     </defs>
     <use xlink:href="#DejaVuSans-Bold-53"/>
     <use xlink:href="#DejaVuSans-Bold-20" x="72.021484"/>
     <use xlink:href="#DejaVuSans-Bold-28" x="106.835938"/>
     <use xlink:href="#DejaVuSans-Bold-6d" x="152.539062"/>
     <use xlink:href="#DejaVuSans-Bold-29" x="256.738281"/>
    </g>
   </g>
   <g id="text_9">
    <!-- a = -1,5 m/s2 -->
    <g style="fill: #8b5e34" transform="translate(345.84425 93.721905) scale(0.08 -0.08)">
     <defs>
      <path id="DejaVuSans-61" d="M 2194 1759 
Q 1497 1759 1228 1600 
Q 959 1441 959 1056 
Q 959 750 1161 570 
Q 1363 391 1709 391 
Q 2188 391 2477 730 
Q 2766 1069 2766 1631 
L 2766 1759 
L 2194 1759 
z
M 3341 1997 
L 3341 0 
L 2766 0 
L 2766 531 
Q 2569 213 2275 61 
Q 1981 -91 1556 -91 
Q 1019 -91 701 211 
Q 384 513 384 1019 
Q 384 1609 779 1909 
Q 1175 2209 1959 2209 
L 2766 2209 
L 2766 2266 
Q 2766 2663 2505 2880 
Q 2244 3097 1772 3097 
Q 1472 3097 1187 3025 
Q 903 2953 641 2809 
L 641 3341 
Q 956 3463 1253 3523 
Q 1550 3584 1831 3584 
Q 2591 3584 2966 3190 
Q 3341 2797 3341 1997 
z
" transform="scale(0.015625)"/>
      <path id="DejaVuSans-20" transform="scale(0.015625)"/>
      <path id="DejaVuSans-3d" d="M 678 2906 
L 4684 2906 
L 4684 2381 
L 678 2381 
L 678 2906 
z
M 678 1631 
L 4684 1631 
L 4684 1100 
L 678 1100 
L 678 1631 
z
" transform="scale(0.015625)"/>
      <path id="DejaVuSans-2d" d="M 313 2009 
L 1997 2009 
L 1997 1497 
L 313 1497 
L 313 2009 
z
" transform="scale(0.015625)"/>
      <path id="DejaVuSans-2c" d="M 750 794 
L 1409 794 
L 1409 256 
L 897 -744 
L 494 -744 
L 750 256 
L 750 794 
z
" transform="scale(0.015625)"/>
      <path id="DejaVuSans-6d" d="M 3328 2828 
Q 3544 3216 3844 3400 
Q 4144 3584 4550 3584 
Q 5097 3584 5394 3201 
Q 5691 2819 5691 2113 
L 5691 0 
L 5113 0 
L 5113 2094 
Q 5113 2597 4934 2840 
Q 4756 3084 4391 3084 
Q 3944 3084 3684 2787 
Q 3425 2491 3425 1978 
L 3425 0 
L 2847 0 
L 2847 2094 
Q 2847 2600 2669 2842 
Q 2491 3084 2119 3084 
Q 1678 3084 1418 2786 
Q 1159 2488 1159 1978 
L 1159 0 
L 581 0 
L 581 3500 
L 1159 3500 
L 1159 2956 
Q 1356 3278 1631 3431 
Q 1906 3584 2284 3584 
Q 2666 3584 2933 3390 
Q 3200 3197 3328 2828 
z
" transform="scale(0.015625)"/>
      <path id="DejaVuSans-2f" d="M 1625 4666 
L 2156 4666 
L 531 -594 
L 0 -594 
L 1625 4666 
z
" transform="scale(0.015625)"/>
      <path id="DejaVuSans-73" d="M 2834 3397 
L 2834 2853 
Q 2591 2978 2328 3040 
Q 2066 3103 1784 3103 
Q 1356 3103 1142 2972 
Q 928 2841 928 2578 
Q 928 2378 1081 2264 
Q 1234 2150 1697 2047 
L 1894 2003 
Q 2506 1872 2764 1633 
Q 3022 1394 3022 966 
Q 3022 478 2636 193 
Q 2250 -91 1575 -91 
Q 1294 -91 989 -36 
Q 684 19 347 128 
L 347 722 
Q 666 556 975 473 
Q 1284 391 1588 391 
Q 1994 391 2212 530 
Q 2431 669 2431 922 
Q 2431 1156 2273 1281 
Q 2116 1406 1581 1522 
L 1381 1569 
Q 847 1681 609 1914 
Q 372 2147 372 2553 
Q 372 3047 722 3315 
Q 1072 3584 1716 3584 
Q 2034 3584 2315 3537 
Q 2597 3491 2834 3397 
z
" transform="scale(0.015625)"/>
     </defs>
     <use xlink:href="#DejaVuSans-61"/>
     <use xlink:href="#DejaVuSans-20" x="61.279297"/>
     <use xlink:href="#DejaVuSans-3d" x="93.066406"/>
     <use xlink:href="#DejaVuSans-20" x="176.855469"/>
     <use xlink:href="#DejaVuSans-2d" x="208.642578"/>
     <use xlink:href="#DejaVuSans-31" x="244.726562"/>
     <use xlink:href="#DejaVuSans-2c" x="308.349609"/>
     <use xlink:href="#DejaVuSans-35" x="340.136719"/>
     <use xlink:href="#DejaVuSans-20" x="403.759766"/>
     <use xlink:href="#DejaVuSans-6d" x="435.546875"/>
     <use xlink:href="#DejaVuSans-2f" x="532.958984"/>
     <use xlink:href="#DejaVuSans-73" x="566.650391"/>
     <use xlink:href="#DejaVuSans-32" x="618.75"/>
    </g>
   </g>
   <g id="text_10">
    <!-- v0 = 6 m/s -->
    <g style="fill: #2a2926" transform="translate(131.649375 83.312262) scale(0.08 -0.08)">
     <defs>
      <path id="DejaVuSans-76" d="M 191 3500 
L 800 3500 
L 1894 563 
L 2988 3500 
L 3597 3500 
L 2284 0 
L 1503 0 
L 191 3500 
z
" transform="scale(0.015625)"/>
     </defs>
     <use xlink:href="#DejaVuSans-76"/>
     <use xlink:href="#DejaVuSans-30" x="59.179688"/>
     <use xlink:href="#DejaVuSans-20" x="122.802734"/>
     <use xlink:href="#DejaVuSans-3d" x="154.589844"/>
     <use xlink:href="#DejaVuSans-20" x="238.378906"/>
     <use xlink:href="#DejaVuSans-36" x="270.166016"/>
     <use xlink:href="#DejaVuSans-20" x="333.789062"/>
     <use xlink:href="#DejaVuSans-6d" x="365.576172"/>
     <use xlink:href="#DejaVuSans-2f" x="462.988281"/>
     <use xlink:href="#DejaVuSans-73" x="496.679688"/>
    </g>
   </g>
   <g id="text_11">
    <!-- para em 4 s -->
    <g style="fill: #2a2926" transform="translate(542.60975 83.312262) scale(0.08 -0.08)">
     <defs>
      <path id="DejaVuSans-70" d="M 1159 525 
L 1159 -1331 
L 581 -1331 
L 581 3500 
L 1159 3500 
L 1159 2969 
Q 1341 3281 1617 3432 
Q 1894 3584 2278 3584 
Q 2916 3584 3314 3078 
Q 3713 2572 3713 1747 
Q 3713 922 3314 415 
Q 2916 -91 2278 -91 
Q 1894 -91 1617 61 
Q 1341 213 1159 525 
z
M 3116 1747 
Q 3116 2381 2855 2742 
Q 2594 3103 2138 3103 
Q 1681 3103 1420 2742 
Q 1159 2381 1159 1747 
Q 1159 1113 1420 752 
Q 1681 391 2138 391 
Q 2594 391 2855 752 
Q 3116 1113 3116 1747 
z
" transform="scale(0.015625)"/>
      <path id="DejaVuSans-72" d="M 2631 2963 
Q 2534 3019 2420 3045 
Q 2306 3072 2169 3072 
Q 1681 3072 1420 2755 
Q 1159 2438 1159 1844 
L 1159 0 
L 581 0 
L 581 3500 
L 1159 3500 
L 1159 2956 
Q 1341 3275 1631 3429 
Q 1922 3584 2338 3584 
Q 2397 3584 2469 3576 
Q 2541 3569 2628 3553 
L 2631 2963 
z
" transform="scale(0.015625)"/>
      <path id="DejaVuSans-65" d="M 3597 1894 
L 3597 1613 
L 953 1613 
Q 991 1019 1311 708 
Q 1631 397 2203 397 
Q 2534 397 2845 478 
Q 3156 559 3463 722 
L 3463 178 
Q 3153 47 2828 -22 
Q 2503 -91 2169 -91 
Q 1331 -91 842 396 
Q 353 884 353 1716 
Q 353 2575 817 3079 
Q 1281 3584 2069 3584 
Q 2775 3584 3186 3129 
Q 3597 2675 3597 1894 
z
M 3022 2063 
Q 3016 2534 2758 2815 
Q 2500 3097 2075 3097 
Q 1594 3097 1305 2825 
Q 1016 2553 972 2059 
L 3022 2063 
z
" transform="scale(0.015625)"/>
      <path id="DejaVuSans-34" d="M 2419 4116 
L 825 1625 
L 2419 1625 
L 2419 4116 
z
M 2253 4666 
L 3047 4666 
L 3047 1625 
L 3713 1625 
L 3713 1100 
L 3047 1100 
L 3047 0 
L 2419 0 
L 2419 1100 
L 313 1100 
L 313 1709 
L 2253 4666 
z
" transform="scale(0.015625)"/>
     </defs>
     <use xlink:href="#DejaVuSans-70"/>
     <use xlink:href="#DejaVuSans-61" x="63.476562"/>
     <use xlink:href="#DejaVuSans-72" x="124.755859"/>
     <use xlink:href="#DejaVuSans-61" x="165.869141"/>
     <use xlink:href="#DejaVuSans-20" x="227.148438"/>
     <use xlink:href="#DejaVuSans-65" x="258.935547"/>
     <use xlink:href="#DejaVuSans-6d" x="320.458984"/>
     <use xlink:href="#DejaVuSans-20" x="417.871094"/>
     <use xlink:href="#DejaVuSans-34" x="449.658203"/>
     <use xlink:href="#DejaVuSans-20" x="513.28125"/>
     <use xlink:href="#DejaVuSans-73" x="545.068359"/>
    </g>
   </g>
   <g id="text_12">
    <!-- Dx = 12 m -->
    <g style="fill: #2a2926" transform="translate(627.176625 154.809405) scale(0.08 -0.08)">
     <defs>
      <path id="DejaVuSans-44" d="M 1259 4147 
L 1259 519 
L 2022 519 
Q 2988 519 3436 956 
Q 3884 1394 3884 2338 
Q 3884 3275 3436 3711 
Q 2988 4147 2022 4147 
L 1259 4147 
z
M 628 4666 
L 1925 4666 
Q 3281 4666 3915 4102 
Q 4550 3538 4550 2338 
Q 4550 1131 3912 565 
Q 3275 0 1925 0 
L 628 0 
L 628 4666 
z
" transform="scale(0.015625)"/>
      <path id="DejaVuSans-78" d="M 3513 3500 
L 2247 1797 
L 3578 0 
L 2900 0 
L 1881 1375 
L 863 0 
L 184 0 
L 1544 1831 
L 300 3500 
L 978 3500 
L 1906 2253 
L 2834 3500 
L 3513 3500 
z
" transform="scale(0.015625)"/>
     </defs>
     <use xlink:href="#DejaVuSans-44"/>
     <use xlink:href="#DejaVuSans-78" x="77.001953"/>
     <use xlink:href="#DejaVuSans-20" x="136.181641"/>
     <use xlink:href="#DejaVuSans-3d" x="167.96875"/>
     <use xlink:href="#DejaVuSans-20" x="251.757812"/>
     <use xlink:href="#DejaVuSans-31" x="283.544922"/>
     <use xlink:href="#DejaVuSans-32" x="347.167969"/>
     <use xlink:href="#DejaVuSans-20" x="410.791016"/>
     <use xlink:href="#DejaVuSans-6d" x="442.578125"/>
    </g>
   </g>
  </g>
 </g>
 <defs>
  <clipPath id="pfbf8d86532">
   <rect x="4" y="4" width="748" height="294.4"/>
  </clipPath>
 </defs>
</svg>
