<?xml version="1.0" encoding="utf-8" standalone="no"?>
<!DOCTYPE svg PUBLIC "-//W3C//DTD SVG 1.1//EN"
  "http://www.w3.org/Graphics/SVG/1.1/DTD/svg11.dtd">
<svg xmlns:xlink="http://www.w3.org/1999/xlink" width="756pt" height="302.4pt" viewBox="0 0 756 302.4" xmlns="http://www.w3.org/2000/svg" version="1.1">
 <metadata>
  <rdf:RDF xmlns:dc="http://purl.org/dc/elements/1.1/" xmlns:cc="http://creativecommons.org/ns#" xmlns:rdf="http://www.w3.org/1999/02/22-rdf-syntax-ns#">
   <cc:Work>
    <dc:type rdf:resource="http://purl.org/dc/dcmitype/StillImage"/>
    <dc:date>2026-03-26T06:56:27.649376</dc:date>
    <dc:format>image/svg+xml</dc:format>
    <dc:creator>
     <cc:Agent>
      <dc:title>Matplotlib v3.7.5, https://matplotlib.org/</dc:title>
     </cc:Agent>
    </dc:creator>
   </cc:Work>
  </rdf:RDF>
 </metadata>
 <defs>
  <style type="text/css">*{stroke-linejoin: round; stroke-linecap: butt}</style>
 </defs>
 <g id="figure_1">
  <g id="patch_1">
   <path d="M 0 302.4 
L 756 302.4 
L 756 0 
L 0 0 
z
" style="fill: #f6f1e6"/>
  </g>
  <g id="axes_1">
   <g id="patch_2">
    <path d="M 11.48 291.390476 
L 744.52 291.390476 
L 744.52 11.009524 
L 11.48 11.009524 
z
" clip-path="url(#pcab1c7bdf8)" style="fill: #f6f1e6; stroke: #d8c1a2; stroke-width: 1.4; stroke-linejoin: miter"/>
   </g>
   <g id="patch_3">
    <path d="M 40.278 53.417143 
L 251.962 53.417143 
Q 260.19 53.417143 260.19 45.706667 
L 260.19 28.182857 
Q 260.19 20.472381 251.962 20.472381 
L 40.278 20.472381 
Q 32.05 20.472381 32.05 28.182857 
L 32.05 45.706667 
Q 32.05 53.417143 40.278 53.417143 
z
" clip-path="url(#pcab1c7bdf8)" style="fill: #efe5d2"/>
   </g>
   <g id="patch_4">
    <path d="M 65.838973 249.333333 
Q 377.998401 249.333333 688.592582 249.333333 
" clip-path="url(#pcab1c7bdf8)" style="fill: none; stroke: #2a2926; stroke-width: 1.4; stroke-linecap: round"/>
    <path d="M 683.792582 246.933333 
L 688.592582 249.333333 
L 683.792582 251.733333 
z
" clip-path="url(#pcab1c7bdf8)" style="fill: #2a2926; stroke: #2a2926; stroke-width: 1.4; stroke-linecap: round"/>
   </g>
   <g id="patch_5">
    <path d="M 63.84 217.790476 
L 692.16 217.790476 
L 692.16 179.939048 
L 63.84 179.939048 
z
" clip-path="url(#pcab1c7bdf8)" style="fill: #d7d0c5; stroke: #2a2926; stroke-linejoin: miter"/>
   </g>
   <g id="patch_6">
    <path d="M 93.76 180.64 
L 113.956 180.64 
L 113.956 104.937143 
L 93.76 104.937143 
z
" clip-path="url(#pcab1c7bdf8)" style="fill: #c8c3ba; stroke: #2a2926; stroke-linejoin: miter"/>
   </g>
   <g id="patch_7">
    <path d="M 95.7796 164.868571 
L 111.9364 164.868571 
L 111.9364 162.345143 
L 95.7796 162.345143 
z
" clip-path="url(#pcab1c7bdf8)" style="fill: #2a2926"/>
   </g>
   <g id="patch_8">
    <path d="M 95.7796 145.312 
L 111.9364 145.312 
L 111.9364 142.788571 
L 95.7796 142.788571 
z
" clip-path="url(#pcab1c7bdf8)" style="fill: #2a2926"/>
   </g>
   <g id="patch_9">
    <path d="M 95.7796 125.755429 
L 111.9364 125.755429 
L 111.9364 123.232 
L 95.7796 123.232 
z
" clip-path="url(#pcab1c7bdf8)" style="fill: #2a2926"/>
   </g>
   <g id="patch_10">
    <path d="M 95.67862 174.331429 
L 112.03738 174.331429 
L 112.03738 162.976 
L 95.67862 162.976 
z
" clip-path="url(#pcab1c7bdf8)" style="fill: #d6ab73; stroke: #2a2926; stroke-linejoin: miter"/>
   </g>
   <g id="patch_11">
    <path d="M 95.67862 162.976 
L 103.858 159.569371 
L 112.03738 162.976 
L 103.858 165.814857 
z
" clip-path="url(#pcab1c7bdf8)" style="fill: #e6c392; stroke: #2a2926; stroke-width: 0.8; stroke-linejoin: miter"/>
   </g>
   <g id="patch_12">
    <path d="M 95.67862 154.144 
L 112.03738 154.144 
L 112.03738 142.788571 
L 95.67862 142.788571 
z
" clip-path="url(#pcab1c7bdf8)" style="fill: #d6ab73; stroke: #2a2926; stroke-linejoin: miter"/>
   </g>
   <g id="patch_13">
    <path d="M 95.67862 142.788571 
L 103.858 139.381943 
L 112.03738 142.788571 
L 103.858 145.627429 
z
" clip-path="url(#pcab1c7bdf8)" style="fill: #e6c392; stroke: #2a2926; stroke-width: 0.8; stroke-linejoin: miter"/>
   </g>
   <g id="patch_14">
    <path d="M 95.67862 134.587429 
L 112.03738 134.587429 
L 112.03738 123.232 
L 95.67862 123.232 
z
" clip-path="url(#pcab1c7bdf8)" style="fill: #d6ab73; stroke: #2a2926; stroke-linejoin: miter"/>
   </g>
   <g id="patch_15">
    <path d="M 95.67862 123.232 
L 103.858 119.825371 
L 112.03738 123.232 
L 103.858 126.070857 
z
" clip-path="url(#pcab1c7bdf8)" style="fill: #e6c392; stroke: #2a2926; stroke-width: 0.8; stroke-linejoin: miter"/>
   </g>
   <g id="patch_16">
    <path d="M 183.52 180.64 
L 203.716 180.64 
L 203.716 104.937143 
L 183.52 104.937143 
z
" clip-path="url(#pcab1c7bdf8)" style="fill: #c8c3ba; stroke: #2a2926; stroke-linejoin: miter"/>
   </g>
   <g id="patch_17">
    <path d="M 185.5396 164.868571 
L 201.6964 164.868571 
L 201.6964 162.345143 
L 185.5396 162.345143 
z
" clip-path="url(#pcab1c7bdf8)" style="fill: #2a2926"/>
   </g>
   <g id="patch_18">
    <path d="M 185.5396 145.312 
L 201.6964 145.312 
L 201.6964 142.788571 
L 185.5396 142.788571 
z
" clip-path="url(#pcab1c7bdf8)" style="fill: #2a2926"/>
   </g>
   <g id="patch_19">
    <path d="M 185.5396 125.755429 
L 201.6964 125.755429 
L 201.6964 123.232 
L 185.5396 123.232 
z
" clip-path="url(#pcab1c7bdf8)" style="fill: #2a2926"/>
   </g>
   <g id="patch_20">
    <path d="M 185.43862 174.331429 
L 201.79738 174.331429 
L 201.79738 162.976 
L 185.43862 162.976 
z
" clip-path="url(#pcab1c7bdf8)" style="fill: #d6ab73; stroke: #2a2926; stroke-linejoin: miter"/>
   </g>
   <g id="patch_21">
    <path d="M 185.43862 162.976 
L 193.618 159.569371 
L 201.79738 162.976 
L 193.618 165.814857 
z
" clip-path="url(#pcab1c7bdf8)" style="fill: #e6c392; stroke: #2a2926; stroke-width: 0.8; stroke-linejoin: miter"/>
   </g>
   <g id="patch_22">
    <path d="M 185.43862 154.144 
L 201.79738 154.144 
L 201.79738 142.788571 
L 185.43862 142.788571 
z
" clip-path="url(#pcab1c7bdf8)" style="fill: #d6ab73; stroke: #2a2926; stroke-linejoin: miter"/>
   </g>
   <g id="patch_23">
    <path d="M 185.43862 142.788571 
L 193.618 139.381943 
L 201.79738 142.788571 
L 193.618 145.627429 
z
" clip-path="url(#pcab1c7bdf8)" style="fill: #e6c392; stroke: #2a2926; stroke-width: 0.8; stroke-linejoin: miter"/>
   </g>
   <g id="patch_24">
    <path d="M 185.43862 134.587429 
L 201.79738 134.587429 
L 201.79738 123.232 
L 185.43862 123.232 
z
" clip-path="url(#pcab1c7bdf8)" style="fill: #d6ab73; stroke: #2a2926; stroke-linejoin: miter"/>
   </g>
   <g id="patch_25">
    <path d="M 185.43862 123.232 
L 193.618 119.825371 
L 201.79738 123.232 
L 193.618 126.070857 
z
" clip-path="url(#pcab1c7bdf8)" style="fill: #e6c392; stroke: #2a2926; stroke-width: 0.8; stroke-linejoin: miter"/>
   </g>
   <g id="patch_26">
    <path d="M 572.48 180.64 
L 592.676 180.64 
L 592.676 104.937143 
L 572.48 104.937143 
z
" clip-path="url(#pcab1c7bdf8)" style="fill: #c8c3ba; stroke: #2a2926; stroke-linejoin: miter"/>
   </g>
   <g id="patch_27">
    <path d="M 574.4996 164.868571 
L 590.6564 164.868571 
L 590.6564 162.345143 
L 574.4996 162.345143 
z
" clip-path="url(#pcab1c7bdf8)" style="fill: #2a2926"/>
   </g>
   <g id="patch_28">
    <path d="M 574.4996 145.312 
L 590.6564 145.312 
L 590.6564 142.788571 
L 574.4996 142.788571 
z
" clip-path="url(#pcab1c7bdf8)" style="fill: #2a2926"/>
   </g>
   <g id="patch_29">
    <path d="M 574.4996 125.755429 
L 590.6564 125.755429 
L 590.6564 123.232 
L 574.4996 123.232 
z
" clip-path="url(#pcab1c7bdf8)" style="fill: #2a2926"/>
   </g>
   <g id="patch_30">
    <path d="M 574.39862 174.331429 
L 590.75738 174.331429 
L 590.75738 162.976 
L 574.39862 162.976 
z
" clip-path="url(#pcab1c7bdf8)" style="fill: #d6ab73; stroke: #2a2926; stroke-linejoin: miter"/>
   </g>
   <g id="patch_31">
    <path d="M 574.39862 162.976 
L 582.578 159.569371 
L 590.75738 162.976 
L 582.578 165.814857 
z
" clip-path="url(#pcab1c7bdf8)" style="fill: #e6c392; stroke: #2a2926; stroke-width: 0.8; stroke-linejoin: miter"/>
   </g>
   <g id="patch_32">
    <path d="M 574.39862 154.144 
L 590.75738 154.144 
L 590.75738 142.788571 
L 574.39862 142.788571 
z
" clip-path="url(#pcab1c7bdf8)" style="fill: #d6ab73; stroke: #2a2926; stroke-linejoin: miter"/>
   </g>
   <g id="patch_33">
    <path d="M 574.39862 142.788571 
L 582.578 139.381943 
L 590.75738 142.788571 
L 582.578 145.627429 
z
" clip-path="url(#pcab1c7bdf8)" style="fill: #e6c392; stroke: #2a2926; stroke-width: 0.8; stroke-linejoin: miter"/>
   </g>
   <g id="patch_34">
    <path d="M 574.39862 134.587429 
L 590.75738 134.587429 
L 590.75738 123.232 
L 574.39862 123.232 
z
" clip-path="url(#pcab1c7bdf8)" style="fill: #d6ab73; stroke: #2a2926; stroke-linejoin: miter"/>
   </g>
   <g id="patch_35">
    <path d="M 574.39862 123.232 
L 582.578 119.825371 
L 590.75738 123.232 
L 582.578 126.070857 
z
" clip-path="url(#pcab1c7bdf8)" style="fill: #e6c392; stroke: #2a2926; stroke-width: 0.8; stroke-linejoin: miter"/>
   </g>
   <g id="patch_36">
    <path d="M 662.24 180.64 
L 682.436 180.64 
L 682.436 104.937143 
L 662.24 104.937143 
z
" clip-path="url(#pcab1c7bdf8)" style="fill: #c8c3ba; stroke: #2a2926; stroke-linejoin: miter"/>
   </g>
   <g id="patch_37">
    <path d="M 664.2596 164.868571 
L 680.4164 164.868571 
L 680.4164 162.345143 
L 664.2596 162.345143 
z
" clip-path="url(#pcab1c7bdf8)" style="fill: #2a2926"/>
   </g>
   <g id="patch_38">
    <path d="M 664.2596 145.312 
L 680.4164 145.312 
L 680.4164 142.788571 
L 664.2596 142.788571 
z
" clip-path="url(#pcab1c7bdf8)" style="fill: #2a2926"/>
   </g>
   <g id="patch_39">
    <path d="M 664.2596 125.755429 
L 680.4164 125.755429 
L 680.4164 123.232 
L 664.2596 123.232 
z
" clip-path="url(#pcab1c7bdf8)" style="fill: #2a2926"/>
   </g>
   <g id="patch_40">
    <path d="M 664.15862 174.331429 
L 680.51738 174.331429 
L 680.51738 162.976 
L 664.15862 162.976 
z
" clip-path="url(#pcab1c7bdf8)" style="fill: #d6ab73; stroke: #2a2926; stroke-linejoin: miter"/>
   </g>
   <g id="patch_41">
    <path d="M 664.15862 162.976 
L 672.338 159.569371 
L 680.51738 162.976 
L 672.338 165.814857 
z
" clip-path="url(#pcab1c7bdf8)" style="fill: #e6c392; stroke: #2a2926; stroke-width: 0.8; stroke-linejoin: miter"/>
   </g>
   <g id="patch_42">
    <path d="M 664.15862 154.144 
L 680.51738 154.144 
L 680.51738 142.788571 
L 664.15862 142.788571 
z
" clip-path="url(#pcab1c7bdf8)" style="fill: #d6ab73; stroke: #2a2926; stroke-linejoin: miter"/>
   </g>
   <g id="patch_43">
    <path d="M 664.15862 142.788571 
L 672.338 139.381943 
L 680.51738 142.788571 
L 672.338 145.627429 
z
" clip-path="url(#pcab1c7bdf8)" style="fill: #e6c392; stroke: #2a2926; stroke-width: 0.8; stroke-linejoin: miter"/>
   </g>
   <g id="patch_44">
    <path d="M 664.15862 134.587429 
L 680.51738 134.587429 
L 680.51738 123.232 
L 664.15862 123.232 
z
" clip-path="url(#pcab1c7bdf8)" style="fill: #d6ab73; stroke: #2a2926; stroke-linejoin: miter"/>
   </g>
   <g id="patch_45">
    <path d="M 664.15862 123.232 
L 672.338 119.825371 
L 680.51738 123.232 
L 672.338 126.070857 
z
" clip-path="url(#pcab1c7bdf8)" style="fill: #e6c392; stroke: #2a2926; stroke-width: 0.8; stroke-linejoin: miter"/>
   </g>
   <g id="patch_46">
    <path d="M 114.6292 204.472381 
L 162.6508 204.472381 
Q 169.3828 204.472381 169.3828 198.16381 
L 169.3828 186.457905 
Q 169.3828 180.149333 162.6508 180.149333 
L 114.6292 180.149333 
Q 107.8972 180.149333 107.8972 186.457905 
L 107.8972 198.16381 
Q 107.8972 204.472381 114.6292 204.472381 
z
" clip-path="url(#pcab1c7bdf8)" style="fill: #4c78a8; opacity: 0.45; stroke: #2a2926; stroke-linejoin: miter"/>
   </g>
   <g id="patch_47">
    <path d="M 130.6738 182.041905 
L 146.6062 182.041905 
Q 151.8422 182.041905 151.8422 177.135238 
L 151.8422 156.877714 
Q 151.8422 151.971048 146.6062 151.971048 
L 130.6738 151.971048 
Q 125.4378 151.971048 125.4378 156.877714 
L 125.4378 177.135238 
Q 125.4378 182.041905 130.6738 182.041905 
z
" clip-path="url(#pcab1c7bdf8)" style="fill: #8eb6d9; opacity: 0.45; stroke: #2a2926; stroke-linejoin: miter"/>
   </g>
   <g id="patch_48">
    <path d="M 134.3764 169.670095 
C 134.94176 169.670095 135.48404 169.459603 135.88381 169.084978 
C 136.28358 168.710353 136.5082 168.202181 136.5082 167.672381 
C 136.5082 167.142581 136.28358 166.634409 135.88381 166.259784 
C 135.48404 165.885158 134.94176 165.674667 134.3764 165.674667 
C 133.81104 165.674667 133.26876 165.885158 132.86899 166.259784 
C 132.46922 166.634409 132.2446 167.142581 132.2446 167.672381 
C 132.2446 168.202181 132.46922 168.710353 132.86899 169.084978 
C 133.26876 169.459603 133.81104 169.670095 134.3764 169.670095 
z
" clip-path="url(#pcab1c7bdf8)" style="fill: #2a2926; opacity: 0.45"/>
   </g>
   <g id="patch_49">
    <path d="M 142.9036 169.670095 
C 143.46896 169.670095 144.01124 169.459603 144.41101 169.084978 
C 144.81078 168.710353 145.0354 168.202181 145.0354 167.672381 
C 145.0354 167.142581 144.81078 166.634409 144.41101 166.259784 
C 144.01124 165.885158 143.46896 165.674667 142.9036 165.674667 
C 142.33824 165.674667 141.79596 165.885158 141.39619 166.259784 
C 140.99642 166.634409 140.7718 167.142581 140.7718 167.672381 
C 140.7718 168.202181 140.99642 168.710353 141.39619 169.084978 
C 141.79596 169.459603 142.33824 169.670095 142.9036 169.670095 
z
" clip-path="url(#pcab1c7bdf8)" style="fill: #2a2926; opacity: 0.45"/>
   </g>
   <g id="patch_50">
    <path d="M 118.7432 209.291429 
C 120.345053 209.291429 121.881514 208.695035 123.014196 207.633597 
C 124.146877 206.572159 124.7833 205.132338 124.7833 203.631238 
C 124.7833 202.130138 124.146877 200.690317 123.014196 199.628879 
C 121.881514 198.567441 120.345053 197.971048 118.7432 197.971048 
C 117.141347 197.971048 115.604886 198.567441 114.472204 199.628879 
C 113.339523 200.690317 112.7031 202.130138 112.7031 203.631238 
C 112.7031 205.132338 113.339523 206.572159 114.472204 207.633597 
C 115.604886 208.695035 117.141347 209.291429 118.7432 209.291429 
z
" clip-path="url(#pcab1c7bdf8)" style="fill: #30363b; opacity: 0.45; stroke: #2a2926; stroke-width: 0.9; stroke-linejoin: miter"/>
   </g>
   <g id="patch_51">
    <path d="M 158.5368 209.291429 
C 160.138653 209.291429 161.675114 208.695035 162.807796 207.633597 
C 163.940477 206.572159 164.5769 205.132338 164.5769 203.631238 
C 164.5769 202.130138 163.940477 200.690317 162.807796 199.628879 
C 161.675114 198.567441 160.138653 197.971048 158.5368 197.971048 
C 156.934947 197.971048 155.398486 198.567441 154.265804 199.628879 
C 153.133123 200.690317 152.4967 202.130138 152.4967 203.631238 
C 152.4967 205.132338 153.133123 206.572159 154.265804 207.633597 
C 155.398486 208.695035 156.934947 209.291429 158.5368 209.291429 
z
" clip-path="url(#pcab1c7bdf8)" style="fill: #30363b; opacity: 0.45; stroke: #2a2926; stroke-width: 0.9; stroke-linejoin: miter"/>
   </g>
   <g id="patch_52">
    <path d="M 540.9144 203.911619 
L 592.0776 203.911619 
Q 598.8096 203.911619 598.8096 197.603048 
L 598.8096 184.705524 
Q 598.8096 178.396952 592.0776 178.396952 
L 540.9144 178.396952 
Q 534.1824 178.396952 534.1824 184.705524 
L 534.1824 197.603048 
Q 534.1824 203.911619 540.9144 203.911619 
z
" clip-path="url(#pcab1c7bdf8)" style="fill: #4c78a8; stroke: #2a2926; stroke-linejoin: miter"/>
   </g>
   <g id="patch_53">
    <path d="M 557.894 180.289524 
L 575.098 180.289524 
Q 580.334 180.289524 580.334 175.382857 
L 580.334 153.653333 
Q 580.334 148.746667 575.098 148.746667 
L 557.894 148.746667 
Q 552.658 148.746667 552.658 153.653333 
L 552.658 175.382857 
Q 552.658 180.289524 557.894 180.289524 
z
" clip-path="url(#pcab1c7bdf8)" style="fill: #8eb6d9; stroke: #2a2926; stroke-linejoin: miter"/>
   </g>
   <g id="patch_54">
    <path d="M 562.008 167.321905 
C 562.603116 167.321905 563.173937 167.100334 563.594748 166.705992 
C 564.015558 166.31165 564.252 165.776732 564.252 165.219048 
C 564.252 164.661363 564.015558 164.126445 563.594748 163.732103 
C 563.173937 163.337761 562.603116 163.11619 562.008 163.11619 
C 561.412884 163.11619 560.842063 163.337761 560.421252 163.732103 
C 560.000442 164.126445 559.764 164.661363 559.764 165.219048 
C 559.764 165.776732 560.000442 166.31165 560.421252 166.705992 
C 560.842063 167.100334 561.412884 167.321905 562.008 167.321905 
z
" clip-path="url(#pcab1c7bdf8)" style="fill: #2a2926"/>
   </g>
   <g id="patch_55">
    <path d="M 570.984 167.321905 
C 571.579116 167.321905 572.149937 167.100334 572.570748 166.705992 
C 572.991558 166.31165 573.228 165.776732 573.228 165.219048 
C 573.228 164.661363 572.991558 164.126445 572.570748 163.732103 
C 572.149937 163.337761 571.579116 163.11619 570.984 163.11619 
C 570.388884 163.11619 569.818063 163.337761 569.397252 163.732103 
C 568.976442 164.126445 568.74 164.661363 568.74 165.219048 
C 568.74 165.776732 568.976442 166.31165 569.397252 166.705992 
C 569.818063 167.100334 570.388884 167.321905 570.984 167.321905 
z
" clip-path="url(#pcab1c7bdf8)" style="fill: #2a2926"/>
   </g>
   <g id="patch_56">
    <path d="M 545.552 209.028571 
C 547.238161 209.028571 548.855489 208.400789 550.047785 207.283486 
C 551.240081 206.166183 551.91 204.650582 551.91 203.070476 
C 551.91 201.490371 551.240081 199.97477 550.047785 198.857467 
C 548.855489 197.740163 547.238161 197.112381 545.552 197.112381 
C 543.865839 197.112381 542.248511 197.740163 541.056215 198.857467 
C 539.863919 199.97477 539.194 201.490371 539.194 203.070476 
C 539.194 204.650582 539.863919 206.166183 541.056215 207.283486 
C 542.248511 208.400789 543.865839 209.028571 545.552 209.028571 
z
" clip-path="url(#pcab1c7bdf8)" style="fill: #30363b; stroke: #2a2926; stroke-width: 0.9; stroke-linejoin: miter"/>
   </g>
   <g id="patch_57">
    <path d="M 587.44 209.028571 
C 589.126161 209.028571 590.743489 208.400789 591.935785 207.283486 
C 593.128081 206.166183 593.798 204.650582 593.798 203.070476 
C 593.798 201.490371 593.128081 199.97477 591.935785 198.857467 
C 590.743489 197.740163 589.126161 197.112381 587.44 197.112381 
C 585.753839 197.112381 584.136511 197.740163 582.944215 198.857467 
C 581.751919 199.97477 581.082 201.490371 581.082 203.070476 
C 581.082 204.650582 581.751919 206.166183 582.944215 207.283486 
C 584.136511 208.400789 585.753839 209.028571 587.44 209.028571 
z
" clip-path="url(#pcab1c7bdf8)" style="fill: #30363b; stroke: #2a2926; stroke-width: 0.9; stroke-linejoin: miter"/>
   </g>
   <g id="patch_58">
    <path d="M 178.038249 109.142857 
Q 358.177953 109.142857 536.752409 109.142857 
" clip-path="url(#pcab1c7bdf8)" style="fill: none; stroke: #8b5e34; stroke-width: 1.4; stroke-linecap: round"/>
    <path d="M 531.952409 106.742857 
L 536.752409 109.142857 
L 531.952409 111.542857 
" clip-path="url(#pcab1c7bdf8)" style="fill: none; stroke: #8b5e34; stroke-width: 1.4; stroke-linecap: round"/>
   </g>
   <g id="patch_59">
    <path d="M 106.102 95.474286 
L 171.178 95.474286 
Q 174.918 95.474286 174.918 91.969524 
L 174.918 78.651429 
Q 174.918 75.146667 171.178 75.146667 
L 106.102 75.146667 
Q 102.362 75.146667 102.362 78.651429 
L 102.362 91.969524 
Q 102.362 95.474286 106.102 95.474286 
z
" clip-path="url(#pcab1c7bdf8)" style="fill: #efe5d2"/>
   </g>
   <g id="patch_60">
    <path d="M 533.958 95.474286 
L 599.034 95.474286 
Q 602.774 95.474286 602.774 91.969524 
L 602.774 78.651429 
Q 602.774 75.146667 599.034 75.146667 
L 533.958 75.146667 
Q 530.218 75.146667 530.218 78.651429 
L 530.218 91.969524 
Q 530.218 95.474286 533.958 95.474286 
z
" clip-path="url(#pcab1c7bdf8)" style="fill: #efe5d2"/>
   </g>
   <g id="patch_61">
    <path d="M 608.758 165.569524 
L 673.834 165.569524 
Q 677.574 165.569524 677.574 162.064762 
L 677.574 148.746667 
Q 677.574 145.241905 673.834 145.241905 
L 608.758 145.241905 
Q 605.018 145.241905 605.018 148.746667 
L 605.018 162.064762 
Q 605.018 165.569524 608.758 165.569524 
z
" clip-path="url(#pcab1c7bdf8)" style="fill: #efe5d2"/>
   </g>
   <g id="line2d_1">
    <path d="M 63.84 257.04381 
L 63.84 241.622857 
" clip-path="url(#pcab1c7bdf8)" style="fill: none; stroke: #2a2926; stroke-linecap: square"/>
   </g>
   <g id="line2d_2">
    <path d="M 189.504 257.04381 
L 189.504 241.622857 
" clip-path="url(#pcab1c7bdf8)" style="fill: none; stroke: #2a2926; stroke-linecap: square"/>
   </g>
   <g id="line2d_3">
    <path d="M 315.168 257.04381 
L 315.168 241.622857 
" clip-path="url(#pcab1c7bdf8)" style="fill: none; stroke: #2a2926; stroke-linecap: square"/>
   </g>
   <g id="line2d_4">
    <path d="M 440.832 257.04381 
L 440.832 241.622857 
" clip-path="url(#pcab1c7bdf8)" style="fill: none; stroke: #2a2926; stroke-linecap: square"/>
   </g>
   <g id="line2d_5">
    <path d="M 566.496 257.04381 
L 566.496 241.622857 
" clip-path="url(#pcab1c7bdf8)" style="fill: none; stroke: #2a2926; stroke-linecap: square"/>
   </g>
   <g id="line2d_6">
    <path d="M 692.16 257.04381 
L 692.16 241.622857 
" clip-path="url(#pcab1c7bdf8)" style="fill: none; stroke: #2a2926; stroke-linecap: square"/>
   </g>
   <g id="line2d_7">
    <path d="M 103.858 174.331429 
L 103.858 162.976 
" clip-path="url(#pcab1c7bdf8)" style="fill: none; stroke: #8f6a3d; stroke-width: 0.8; stroke-linecap: square"/>
   </g>
   <g id="line2d_8">
    <path d="M 103.858 154.144 
L 103.858 142.788571 
" clip-path="url(#pcab1c7bdf8)" style="fill: none; stroke: #8f6a3d; stroke-width: 0.8; stroke-linecap: square"/>
   </g>
   <g id="line2d_9">
    <path d="M 103.858 134.587429 
L 103.858 123.232 
" clip-path="url(#pcab1c7bdf8)" style="fill: none; stroke: #8f6a3d; stroke-width: 0.8; stroke-linecap: square"/>
   </g>
   <g id="line2d_10">
    <path d="M 193.618 174.331429 
L 193.618 162.976 
" clip-path="url(#pcab1c7bdf8)" style="fill: none; stroke: #8f6a3d; stroke-width: 0.8; stroke-linecap: square"/>
   </g>
   <g id="line2d_11">
    <path d="M 193.618 154.144 
L 193.618 142.788571 
" clip-path="url(#pcab1c7bdf8)" style="fill: none; stroke: #8f6a3d; stroke-width: 0.8; stroke-linecap: square"/>
   </g>
   <g id="line2d_12">
    <path d="M 193.618 134.587429 
L 193.618 123.232 
" clip-path="url(#pcab1c7bdf8)" style="fill: none; stroke: #8f6a3d; stroke-width: 0.8; stroke-linecap: square"/>
   </g>
   <g id="line2d_13">
    <path d="M 582.578 174.331429 
L 582.578 162.976 
" clip-path="url(#pcab1c7bdf8)" style="fill: none; stroke: #8f6a3d; stroke-width: 0.8; stroke-linecap: square"/>
   </g>
   <g id="line2d_14">
    <path d="M 582.578 154.144 
L 582.578 142.788571 
" clip-path="url(#pcab1c7bdf8)" style="fill: none; stroke: #8f6a3d; stroke-width: 0.8; stroke-linecap: square"/>
   </g>
   <g id="line2d_15">
    <path d="M 582.578 134.587429 
L 582.578 123.232 
" clip-path="url(#pcab1c7bdf8)" style="fill: none; stroke: #8f6a3d; stroke-width: 0.8; stroke-linecap: square"/>
   </g>
   <g id="line2d_16">
    <path d="M 672.338 174.331429 
L 672.338 162.976 
" clip-path="url(#pcab1c7bdf8)" style="fill: none; stroke: #8f6a3d; stroke-width: 0.8; stroke-linecap: square"/>
   </g>
   <g id="line2d_17">
    <path d="M 672.338 154.144 
L 672.338 142.788571 
" clip-path="url(#pcab1c7bdf8)" style="fill: none; stroke: #8f6a3d; stroke-width: 0.8; stroke-linecap: square"/>
   </g>
   <g id="line2d_18">
    <path d="M 672.338 134.587429 
L 672.338 123.232 
" clip-path="url(#pcab1c7bdf8)" style="fill: none; stroke: #8f6a3d; stroke-width: 0.8; stroke-linecap: square"/>
   </g>
   <g id="line2d_19">
    <path d="M 132.9552 174.997333 
L 144.3248 174.997333 
" clip-path="url(#pcab1c7bdf8)" style="fill: none; stroke: #2a2926; stroke-opacity: 0.45; stroke-width: 0.8; stroke-linecap: square"/>
   </g>
   <g id="line2d_20">
    <path d="M 560.512 172.929524 
L 572.48 172.929524 
" clip-path="url(#pcab1c7bdf8)" style="fill: none; stroke: #2a2926; stroke-width: 0.8; stroke-linecap: square"/>
   </g>
   <g id="text_1">
    <!-- Robo de armazem freando -->
    <g style="fill: #2a2926" transform="translate(48.88 41.657917) scale(0.12 -0.12)">
     <defs>
      <path id="DejaVuSans-Bold-52" d="M 2297 2597 
Q 2675 2597 2839 2737 
Q 3003 2878 3003 3200 
Q 3003 3519 2839 3656 
Q 2675 3794 2297 3794 
L 1791 3794 
L 1791 2597 
L 2297 2597 
z
M 1791 1766 
L 1791 0 
L 588 0 
L 588 4666 
L 2425 4666 
Q 3347 4666 3776 4356 
Q 4206 4047 4206 3378 
Q 4206 2916 3982 2619 
Q 3759 2322 3309 2181 
Q 3556 2125 3751 1926 
Q 3947 1728 4147 1325 
L 4800 0 
L 3519 0 
L 2950 1159 
Q 2778 1509 2601 1637 
Q 2425 1766 2131 1766 
L 1791 1766 
z
" transform="scale(0.015625)"/>
      <path id="DejaVuSans-Bold-6f" d="M 2203 2784 
Q 1831 2784 1636 2517 
Q 1441 2250 1441 1747 
Q 1441 1244 1636 976 
Q 1831 709 2203 709 
Q 2569 709 2762 976 
Q 2956 1244 2956 1747 
Q 2956 2250 2762 2517 
Q 2569 2784 2203 2784 
z
M 2203 3584 
Q 3106 3584 3614 3096 
Q 4122 2609 4122 1747 
Q 4122 884 3614 396 
Q 3106 -91 2203 -91 
Q 1297 -91 786 396 
Q 275 884 275 1747 
Q 275 2609 786 3096 
Q 1297 3584 2203 3584 
z
" transform="scale(0.015625)"/>
      <path id="DejaVuSans-Bold-62" d="M 2400 722 
Q 2759 722 2948 984 
Q 3138 1247 3138 1747 
Q 3138 2247 2948 2509 
Q 2759 2772 2400 2772 
Q 2041 2772 1848 2508 
Q 1656 2244 1656 1747 
Q 1656 1250 1848 986 
Q 2041 722 2400 722 
z
M 1656 2988 
Q 1888 3294 2169 3439 
Q 2450 3584 2816 3584 
Q 3463 3584 3878 3070 
Q 4294 2556 4294 1747 
Q 4294 938 3878 423 
Q 3463 -91 2816 -91 
Q 2450 -91 2169 54 
Q 1888 200 1656 506 
L 1656 0 
L 538 0 
L 538 4863 
L 1656 4863 
L 1656 2988 
z
" transform="scale(0.015625)"/>
      <path id="DejaVuSans-Bold-20" transform="scale(0.015625)"/>
      <path id="DejaVuSans-Bold-64" d="M 2919 2988 
L 2919 4863 
L 4044 4863 
L 4044 0 
L 2919 0 
L 2919 506 
Q 2688 197 2409 53 
Q 2131 -91 1766 -91 
Q 1119 -91 703 423 
Q 288 938 288 1747 
Q 288 2556 703 3070 
Q 1119 3584 1766 3584 
Q 2128 3584 2408 3439 
Q 2688 3294 2919 2988 
z
M 2181 722 
Q 2541 722 2730 984 
Q 2919 1247 2919 1747 
Q 2919 2247 2730 2509 
Q 2541 2772 2181 2772 
Q 1825 2772 1636 2509 
Q 1447 2247 1447 1747 
Q 1447 1247 1636 984 
Q 1825 722 2181 722 
z
" transform="scale(0.015625)"/>
      <path id="DejaVuSans-Bold-65" d="M 4031 1759 
L 4031 1441 
L 1416 1441 
Q 1456 1047 1700 850 
Q 1944 653 2381 653 
Q 2734 653 3104 758 
Q 3475 863 3866 1075 
L 3866 213 
Q 3469 63 3072 -14 
Q 2675 -91 2278 -91 
Q 1328 -91 801 392 
Q 275 875 275 1747 
Q 275 2603 792 3093 
Q 1309 3584 2216 3584 
Q 3041 3584 3536 3087 
Q 4031 2591 4031 1759 
z
M 2881 2131 
Q 2881 2450 2695 2645 
Q 2509 2841 2209 2841 
Q 1884 2841 1681 2658 
Q 1478 2475 1428 2131 
L 2881 2131 
z
" transform="scale(0.015625)"/>
      <path id="DejaVuSans-Bold-61" d="M 2106 1575 
Q 1756 1575 1579 1456 
Q 1403 1338 1403 1106 
Q 1403 894 1545 773 
Q 1688 653 1941 653 
Q 2256 653 2472 879 
Q 2688 1106 2688 1447 
L 2688 1575 
L 2106 1575 
z
M 3816 1997 
L 3816 0 
L 2688 0 
L 2688 519 
Q 2463 200 2181 54 
Q 1900 -91 1497 -91 
Q 953 -91 614 226 
Q 275 544 275 1050 
Q 275 1666 698 1953 
Q 1122 2241 2028 2241 
L 2688 2241 
L 2688 2328 
Q 2688 2594 2478 2717 
Q 2269 2841 1825 2841 
Q 1466 2841 1156 2769 
Q 847 2697 581 2553 
L 581 3406 
Q 941 3494 1303 3539 
Q 1666 3584 2028 3584 
Q 2975 3584 3395 3211 
Q 3816 2838 3816 1997 
z
" transform="scale(0.015625)"/>
      <path id="DejaVuSans-Bold-72" d="M 3138 2547 
Q 2991 2616 2845 2648 
Q 2700 2681 2553 2681 
Q 2122 2681 1889 2404 
Q 1656 2128 1656 1613 
L 1656 0 
L 538 0 
L 538 3500 
L 1656 3500 
L 1656 2925 
Q 1872 3269 2151 3426 
Q 2431 3584 2822 3584 
Q 2878 3584 2943 3579 
Q 3009 3575 3134 3559 
L 3138 2547 
z
" transform="scale(0.015625)"/>
      <path id="DejaVuSans-Bold-6d" d="M 3781 2919 
Q 3994 3244 4286 3414 
Q 4578 3584 4928 3584 
Q 5531 3584 5847 3212 
Q 6163 2841 6163 2131 
L 6163 0 
L 5038 0 
L 5038 1825 
Q 5041 1866 5042 1909 
Q 5044 1953 5044 2034 
Q 5044 2406 4934 2573 
Q 4825 2741 4581 2741 
Q 4263 2741 4089 2478 
Q 3916 2216 3909 1719 
L 3909 0 
L 2784 0 
L 2784 1825 
Q 2784 2406 2684 2573 
Q 2584 2741 2328 2741 
Q 2006 2741 1831 2477 
Q 1656 2213 1656 1722 
L 1656 0 
L 531 0 
L 531 3500 
L 1656 3500 
L 1656 2988 
Q 1863 3284 2130 3434 
Q 2397 3584 2719 3584 
Q 3081 3584 3359 3409 
Q 3638 3234 3781 2919 
z
" transform="scale(0.015625)"/>
      <path id="DejaVuSans-Bold-7a" d="M 366 3500 
L 3419 3500 
L 3419 2719 
L 1575 800 
L 3419 800 
L 3419 0 
L 288 0 
L 288 781 
L 2131 2700 
L 366 2700 
L 366 3500 
z
" transform="scale(0.015625)"/>
      <path id="DejaVuSans-Bold-66" d="M 2841 4863 
L 2841 4128 
L 2222 4128 
Q 1984 4128 1890 4042 
Q 1797 3956 1797 3744 
L 1797 3500 
L 2753 3500 
L 2753 2700 
L 1797 2700 
L 1797 0 
L 678 0 
L 678 2700 
L 122 2700 
L 122 3500 
L 678 3500 
L 678 3744 
Q 678 4316 997 4589 
Q 1316 4863 1984 4863 
L 2841 4863 
z
" transform="scale(0.015625)"/>
      <path id="DejaVuSans-Bold-6e" d="M 4056 2131 
L 4056 0 
L 2931 0 
L 2931 347 
L 2931 1631 
Q 2931 2084 2911 2256 
Q 2891 2428 2841 2509 
Q 2775 2619 2662 2680 
Q 2550 2741 2406 2741 
Q 2056 2741 1856 2470 
Q 1656 2200 1656 1722 
L 1656 0 
L 538 0 
L 538 3500 
L 1656 3500 
L 1656 2988 
Q 1909 3294 2193 3439 
Q 2478 3584 2822 3584 
Q 3428 3584 3742 3212 
Q 4056 2841 4056 2131 
z
" transform="scale(0.015625)"/>
     </defs>
     <use xlink:href="#DejaVuSans-Bold-52"/>
     <use xlink:href="#DejaVuSans-Bold-6f" x="77.001953"/>
     <use xlink:href="#DejaVuSans-Bold-62" x="145.703125"/>
     <use xlink:href="#DejaVuSans-Bold-6f" x="217.285156"/>
     <use xlink:href="#DejaVuSans-Bold-20" x="285.986328"/>
     <use xlink:href="#DejaVuSans-Bold-64" x="320.800781"/>
     <use xlink:href="#DejaVuSans-Bold-65" x="392.382812"/>
     <use xlink:href="#DejaVuSans-Bold-20" x="460.205078"/>
     <use xlink:href="#DejaVuSans-Bold-61" x="495.019531"/>
     <use xlink:href="#DejaVuSans-Bold-72" x="562.5"/>
     <use xlink:href="#DejaVuSans-Bold-6d" x="611.816406"/>
     <use xlink:href="#DejaVuSans-Bold-61" x="716.015625"/>
     <use xlink:href="#DejaVuSans-Bold-7a" x="783.496094"/>
     <use xlink:href="#DejaVuSans-Bold-65" x="841.699219"/>
     <use xlink:href="#DejaVuSans-Bold-6d" x="909.521484"/>
     <use xlink:href="#DejaVuSans-Bold-20" x="1013.720703"/>
     <use xlink:href="#DejaVuSans-Bold-66" x="1048.535156"/>
     <use xlink:href="#DejaVuSans-Bold-72" x="1092.041016"/>
     <use xlink:href="#DejaVuSans-Bold-65" x="1141.357422"/>
     <use xlink:href="#DejaVuSans-Bold-61" x="1209.179688"/>
     <use xlink:href="#DejaVuSans-Bold-6e" x="1276.660156"/>
     <use xlink:href="#DejaVuSans-Bold-64" x="1347.851562"/>
     <use xlink:href="#DejaVuSans-Bold-6f" x="1419.433594"/>
    </g>
   </g>
   <g id="text_2">
    <!-- 0 -->
    <g style="fill: #665f56" transform="translate(61.295 277.84256) scale(0.08 -0.08)">
     <defs>
      <path id="DejaVuSans-30" d="M 2034 4250 
Q 1547 4250 1301 3770 
Q 1056 3291 1056 2328 
Q 1056 1369 1301 889 
Q 1547 409 2034 409 
Q 2525 409 2770 889 
Q 3016 1369 3016 2328 
Q 3016 3291 2770 3770 
Q 2525 4250 2034 4250 
z
M 2034 4750 
Q 2819 4750 3233 4129 
Q 3647 3509 3647 2328 
Q 3647 1150 3233 529 
Q 2819 -91 2034 -91 
Q 1250 -91 836 529 
Q 422 1150 422 2328 
Q 422 3509 836 4129 
Q 1250 4750 2034 4750 
z
" transform="scale(0.015625)"/>
     </defs>
     <use xlink:href="#DejaVuSans-30"/>
    </g>
   </g>
   <g id="text_3">
    <!-- 4 -->
    <g style="fill: #665f56" transform="translate(186.959 277.84256) scale(0.08 -0.08)">
     <defs>
      <path id="DejaVuSans-34" d="M 2419 4116 
L 825 1625 
L 2419 1625 
L 2419 4116 
z
M 2253 4666 
L 3047 4666 
L 3047 1625 
L 3713 1625 
L 3713 1100 
L 3047 1100 
L 3047 0 
L 2419 0 
L 2419 1100 
L 313 1100 
L 313 1709 
L 2253 4666 
z
" transform="scale(0.015625)"/>
     </defs>
     <use xlink:href="#DejaVuSans-34"/>
    </g>
   </g>
   <g id="text_4">
    <!-- 8 -->
    <g style="fill: #665f56" transform="translate(312.623 277.84256) scale(0.08 -0.08)">
     <defs>
      <path id="DejaVuSans-38" d="M 2034 2216 
Q 1584 2216 1326 1975 
Q 1069 1734 1069 1313 
Q 1069 891 1326 650 
Q 1584 409 2034 409 
Q 2484 409 2743 651 
Q 3003 894 3003 1313 
Q 3003 1734 2745 1975 
Q 2488 2216 2034 2216 
z
M 1403 2484 
Q 997 2584 770 2862 
Q 544 3141 544 3541 
Q 544 4100 942 4425 
Q 1341 4750 2034 4750 
Q 2731 4750 3128 4425 
Q 3525 4100 3525 3541 
Q 3525 3141 3298 2862 
Q 3072 2584 2669 2484 
Q 3125 2378 3379 2068 
Q 3634 1759 3634 1313 
Q 3634 634 3220 271 
Q 2806 -91 2034 -91 
Q 1263 -91 848 271 
Q 434 634 434 1313 
Q 434 1759 690 2068 
Q 947 2378 1403 2484 
z
M 1172 3481 
Q 1172 3119 1398 2916 
Q 1625 2713 2034 2713 
Q 2441 2713 2670 2916 
Q 2900 3119 2900 3481 
Q 2900 3844 2670 4047 
Q 2441 4250 2034 4250 
Q 1625 4250 1398 4047 
Q 1172 3844 1172 3481 
z
" transform="scale(0.015625)"/>
     </defs>
     <use xlink:href="#DejaVuSans-38"/>
    </g>
   </g>
   <g id="text_5">
    <!-- 12 -->
    <g style="fill: #665f56" transform="translate(435.742 277.84256) scale(0.08 -0.08)">
     <defs>
      <path id="DejaVuSans-31" d="M 794 531 
L 1825 531 
L 1825 4091 
L 703 3866 
L 703 4441 
L 1819 4666 
L 2450 4666 
L 2450 531 
L 3481 531 
L 3481 0 
L 794 0 
L 794 531 
z
" transform="scale(0.015625)"/>
      <path id="DejaVuSans-32" d="M 1228 531 
L 3431 531 
L 3431 0 
L 469 0 
L 469 531 
Q 828 903 1448 1529 
Q 2069 2156 2228 2338 
Q 2531 2678 2651 2914 
Q 2772 3150 2772 3378 
Q 2772 3750 2511 3984 
Q 2250 4219 1831 4219 
Q 1534 4219 1204 4116 
Q 875 4013 500 3803 
L 500 4441 
Q 881 4594 1212 4672 
Q 1544 4750 1819 4750 
Q 2544 4750 2975 4387 
Q 3406 4025 3406 3419 
Q 3406 3131 3298 2873 
Q 3191 2616 2906 2266 
Q 2828 2175 2409 1742 
Q 1991 1309 1228 531 
z
" transform="scale(0.015625)"/>
     </defs>
     <use xlink:href="#DejaVuSans-31"/>
     <use xlink:href="#DejaVuSans-32" x="63.623047"/>
    </g>
   </g>
   <g id="text_6">
    <!-- 16 -->
    <g style="fill: #665f56" transform="translate(561.406 277.84256) scale(0.08 -0.08)">
     <defs>
      <path id="DejaVuSans-36" d="M 2113 2584 
Q 1688 2584 1439 2293 
Q 1191 2003 1191 1497 
Q 1191 994 1439 701 
Q 1688 409 2113 409 
Q 2538 409 2786 701 
Q 3034 994 3034 1497 
Q 3034 2003 2786 2293 
Q 2538 2584 2113 2584 
z
M 3366 4563 
L 3366 3988 
Q 3128 4100 2886 4159 
Q 2644 4219 2406 4219 
Q 1781 4219 1451 3797 
Q 1122 3375 1075 2522 
Q 1259 2794 1537 2939 
Q 1816 3084 2150 3084 
Q 2853 3084 3261 2657 
Q 3669 2231 3669 1497 
Q 3669 778 3244 343 
Q 2819 -91 2113 -91 
Q 1303 -91 875 529 
Q 447 1150 447 2328 
Q 447 3434 972 4092 
Q 1497 4750 2381 4750 
Q 2619 4750 2861 4703 
Q 3103 4656 3366 4563 
z
" transform="scale(0.015625)"/>
     </defs>
     <use xlink:href="#DejaVuSans-31"/>
     <use xlink:href="#DejaVuSans-36" x="63.623047"/>
    </g>
   </g>
   <g id="text_7">
    <!-- 20 -->
    <g style="fill: #665f56" transform="translate(687.07 277.84256) scale(0.08 -0.08)">
     <use xlink:href="#DejaVuSans-32"/>
     <use xlink:href="#DejaVuSans-30" x="63.623047"/>
    </g>
   </g>
   <g id="text_8">
    <!-- S (m) -->
    <g style="fill: #2a2926" transform="translate(701.136 247.931429) scale(0.09 -0.09)">
     <defs>
      <path id="DejaVuSans-Bold-53" d="M 3834 4519 
L 3834 3531 
Q 3450 3703 3084 3790 
Q 2719 3878 2394 3878 
Q 1963 3878 1756 3759 
Q 1550 3641 1550 3391 
Q 1550 3203 1689 3098 
Q 1828 2994 2194 2919 
L 2706 2816 
Q 3484 2659 3812 2340 
Q 4141 2022 4141 1434 
Q 4141 663 3683 286 
Q 3225 -91 2284 -91 
Q 1841 -91 1394 -6 
Q 947 78 500 244 
L 500 1259 
Q 947 1022 1364 901 
Q 1781 781 2169 781 
Q 2563 781 2772 912 
Q 2981 1044 2981 1288 
Q 2981 1506 2839 1625 
Q 2697 1744 2272 1838 
L 1806 1941 
Q 1106 2091 782 2419 
Q 459 2747 459 3303 
Q 459 4000 909 4375 
Q 1359 4750 2203 4750 
Q 2588 4750 2994 4692 
Q 3400 4634 3834 4519 
z
" transform="scale(0.015625)"/>
      <path id="DejaVuSans-Bold-28" d="M 2413 -844 
L 1484 -844 
Q 1006 -72 778 623 
Q 550 1319 550 2003 
Q 550 2688 779 3389 
Q 1009 4091 1484 4856 
L 2413 4856 
Q 2013 4116 1813 3408 
Q 1613 2700 1613 2009 
Q 1613 1319 1811 609 
Q 2009 -100 2413 -844 
z
" transform="scale(0.015625)"/>
      <path id="DejaVuSans-Bold-29" d="M 513 -844 
Q 913 -100 1113 609 
Q 1313 1319 1313 2009 
Q 1313 2700 1113 3408 
Q 913 4116 513 4856 
L 1441 4856 
Q 1916 4091 2145 3389 
Q 2375 2688 2375 2003 
Q 2375 1319 2147 623 
Q 1919 -72 1441 -844 
L 513 -844 
z
" transform="scale(0.015625)"/>
     </defs>
     <use xlink:href="#DejaVuSans-Bold-53"/>
     <use xlink:href="#DejaVuSans-Bold-20" x="72.021484"/>
     <use xlink:href="#DejaVuSans-Bold-28" x="106.835938"/>
     <use xlink:href="#DejaVuSans-Bold-6d" x="152.539062"/>
     <use xlink:href="#DejaVuSans-Bold-29" x="256.738281"/>
    </g>
   </g>
   <g id="text_9">
    <!-- a = -2 m/s2 -->
    <g style="fill: #8b5e34" transform="translate(334.7005 100.731429) scale(0.08 -0.08)">
     <defs>
      <path id="DejaVuSans-61" d="M 2194 1759 
Q 1497 1759 1228 1600 
Q 959 1441 959 1056 
Q 959 750 1161 570 
Q 1363 391 1709 391 
Q 2188 391 2477 730 
Q 2766 1069 2766 1631 
L 2766 1759 
L 2194 1759 
z
M 3341 1997 
L 3341 0 
L 2766 0 
L 2766 531 
Q 2569 213 2275 61 
Q 1981 -91 1556 -91 
Q 1019 -91 701 211 
Q 384 513 384 1019 
Q 384 1609 779 1909 
Q 1175 2209 1959 2209 
L 2766 2209 
L 2766 2266 
Q 2766 2663 2505 2880 
Q 2244 3097 1772 3097 
Q 1472 3097 1187 3025 
Q 903 2953 641 2809 
L 641 3341 
Q 956 3463 1253 3523 
Q 1550 3584 1831 3584 
Q 2591 3584 2966 3190 
Q 3341 2797 3341 1997 
z
" transform="scale(0.015625)"/>
      <path id="DejaVuSans-20" transform="scale(0.015625)"/>
      <path id="DejaVuSans-3d" d="M 678 2906 
L 4684 2906 
L 4684 2381 
L 678 2381 
L 678 2906 
z
M 678 1631 
L 4684 1631 
L 4684 1100 
L 678 1100 
L 678 1631 
z
" transform="scale(0.015625)"/>
      <path id="DejaVuSans-2d" d="M 313 2009 
L 1997 2009 
L 1997 1497 
L 313 1497 
L 313 2009 
z
" transform="scale(0.015625)"/>
      <path id="DejaVuSans-6d" d="M 3328 2828 
Q 3544 3216 3844 3400 
Q 4144 3584 4550 3584 
Q 5097 3584 5394 3201 
Q 5691 2819 5691 2113 
L 5691 0 
L 5113 0 
L 5113 2094 
Q 5113 2597 4934 2840 
Q 4756 3084 4391 3084 
Q 3944 3084 3684 2787 
Q 3425 2491 3425 1978 
L 3425 0 
L 2847 0 
L 2847 2094 
Q 2847 2600 2669 2842 
Q 2491 3084 2119 3084 
Q 1678 3084 1418 2786 
Q 1159 2488 1159 1978 
L 1159 0 
L 581 0 
L 581 3500 
L 1159 3500 
L 1159 2956 
Q 1356 3278 1631 3431 
Q 1906 3584 2284 3584 
Q 2666 3584 2933 3390 
Q 3200 3197 3328 2828 
z
" transform="scale(0.015625)"/>
      <path id="DejaVuSans-2f" d="M 1625 4666 
L 2156 4666 
L 531 -594 
L 0 -594 
L 1625 4666 
z
" transform="scale(0.015625)"/>
      <path id="DejaVuSans-73" d="M 2834 3397 
L 2834 2853 
Q 2591 2978 2328 3040 
Q 2066 3103 1784 3103 
Q 1356 3103 1142 2972 
Q 928 2841 928 2578 
Q 928 2378 1081 2264 
Q 1234 2150 1697 2047 
L 1894 2003 
Q 2506 1872 2764 1633 
Q 3022 1394 3022 966 
Q 3022 478 2636 193 
Q 2250 -91 1575 -91 
Q 1294 -91 989 -36 
Q 684 19 347 128 
L 347 722 
Q 666 556 975 473 
Q 1284 391 1588 391 
Q 1994 391 2212 530 
Q 2431 669 2431 922 
Q 2431 1156 2273 1281 
Q 2116 1406 1581 1522 
L 1381 1569 
Q 847 1681 609 1914 
Q 372 2147 372 2553 
Q 372 3047 722 3315 
Q 1072 3584 1716 3584 
Q 2034 3584 2315 3537 
Q 2597 3491 2834 3397 
z
" transform="scale(0.015625)"/>
     </defs>
     <use xlink:href="#DejaVuSans-61"/>
     <use xlink:href="#DejaVuSans-20" x="61.279297"/>
     <use xlink:href="#DejaVuSans-3d" x="93.066406"/>
     <use xlink:href="#DejaVuSans-20" x="176.855469"/>
     <use xlink:href="#DejaVuSans-2d" x="208.642578"/>
     <use xlink:href="#DejaVuSans-32" x="244.726562"/>
     <use xlink:href="#DejaVuSans-20" x="308.349609"/>
     <use xlink:href="#DejaVuSans-6d" x="340.136719"/>
     <use xlink:href="#DejaVuSans-2f" x="437.548828"/>
     <use xlink:href="#DejaVuSans-73" x="471.240234"/>
     <use xlink:href="#DejaVuSans-32" x="523.339844"/>
    </g>
   </g>
   <g id="text_10">
    <!-- v0 = 8 m/s -->
    <g style="fill: #2a2926" transform="translate(116.689375 87.517976) scale(0.08 -0.08)">
     <defs>
      <path id="DejaVuSans-76" d="M 191 3500 
L 800 3500 
L 1894 563 
L 2988 3500 
L 3597 3500 
L 2284 0 
L 1503 0 
L 191 3500 
z
" transform="scale(0.015625)"/>
     </defs>
     <use xlink:href="#DejaVuSans-76"/>
     <use xlink:href="#DejaVuSans-30" x="59.179688"/>
     <use xlink:href="#DejaVuSans-20" x="122.802734"/>
     <use xlink:href="#DejaVuSans-3d" x="154.589844"/>
     <use xlink:href="#DejaVuSans-20" x="238.378906"/>
     <use xlink:href="#DejaVuSans-38" x="270.166016"/>
     <use xlink:href="#DejaVuSans-20" x="333.789062"/>
     <use xlink:href="#DejaVuSans-6d" x="365.576172"/>
     <use xlink:href="#DejaVuSans-2f" x="462.988281"/>
     <use xlink:href="#DejaVuSans-73" x="496.679688"/>
    </g>
   </g>
   <g id="text_11">
    <!-- Dx = 16 m -->
    <g style="fill: #2a2926" transform="translate(544.896625 87.517976) scale(0.08 -0.08)">
     <defs>
      <path id="DejaVuSans-44" d="M 1259 4147 
L 1259 519 
L 2022 519 
Q 2988 519 3436 956 
Q 3884 1394 3884 2338 
Q 3884 3275 3436 3711 
Q 2988 4147 2022 4147 
L 1259 4147 
z
M 628 4666 
L 1925 4666 
Q 3281 4666 3915 4102 
Q 4550 3538 4550 2338 
Q 4550 1131 3912 565 
Q 3275 0 1925 0 
L 628 0 
L 628 4666 
z
" transform="scale(0.015625)"/>
      <path id="DejaVuSans-78" d="M 3513 3500 
L 2247 1797 
L 3578 0 
L 2900 0 
L 1881 1375 
L 863 0 
L 184 0 
L 1544 1831 
L 300 3500 
L 978 3500 
L 1906 2253 
L 2834 3500 
L 3513 3500 
z
" transform="scale(0.015625)"/>
     </defs>
     <use xlink:href="#DejaVuSans-44"/>
     <use xlink:href="#DejaVuSans-78" x="77.001953"/>
     <use xlink:href="#DejaVuSans-20" x="136.181641"/>
     <use xlink:href="#DejaVuSans-3d" x="167.96875"/>
     <use xlink:href="#DejaVuSans-20" x="251.757812"/>
     <use xlink:href="#DejaVuSans-31" x="283.544922"/>
     <use xlink:href="#DejaVuSans-36" x="347.167969"/>
     <use xlink:href="#DejaVuSans-20" x="410.791016"/>
     <use xlink:href="#DejaVuSans-6d" x="442.578125"/>
    </g>
   </g>
   <g id="text_12">
    <!-- para em 4 s -->
    <g style="fill: #2a2926" transform="translate(617.40975 157.613214) scale(0.08 -0.08)">
     <defs>
      <path id="DejaVuSans-70" d="M 1159 525 
L 1159 -1331 
L 581 -1331 
L 581 3500 
L 1159 3500 
L 1159 2969 
Q 1341 3281 1617 3432 
Q 1894 3584 2278 3584 
Q 2916 3584 3314 3078 
Q 3713 2572 3713 1747 
Q 3713 922 3314 415 
Q 2916 -91 2278 -91 
Q 1894 -91 1617 61 
Q 1341 213 1159 525 
z
M 3116 1747 
Q 3116 2381 2855 2742 
Q 2594 3103 2138 3103 
Q 1681 3103 1420 2742 
Q 1159 2381 1159 1747 
Q 1159 1113 1420 752 
Q 1681 391 2138 391 
Q 2594 391 2855 752 
Q 3116 1113 3116 1747 
z
" transform="scale(0.015625)"/>
      <path id="DejaVuSans-72" d="M 2631 2963 
Q 2534 3019 2420 3045 
Q 2306 3072 2169 3072 
Q 1681 3072 1420 2755 
Q 1159 2438 1159 1844 
L 1159 0 
L 581 0 
L 581 3500 
L 1159 3500 
L 1159 2956 
Q 1341 3275 1631 3429 
Q 1922 3584 2338 3584 
Q 2397 3584 2469 3576 
Q 2541 3569 2628 3553 
L 2631 2963 
z
" transform="scale(0.015625)"/>
      <path id="DejaVuSans-65" d="M 3597 1894 
L 3597 1613 
L 953 1613 
Q 991 1019 1311 708 
Q 1631 397 2203 397 
Q 2534 397 2845 478 
Q 3156 559 3463 722 
L 3463 178 
Q 3153 47 2828 -22 
Q 2503 -91 2169 -91 
Q 1331 -91 842 396 
Q 353 884 353 1716 
Q 353 2575 817 3079 
Q 1281 3584 2069 3584 
Q 2775 3584 3186 3129 
Q 3597 2675 3597 1894 
z
M 3022 2063 
Q 3016 2534 2758 2815 
Q 2500 3097 2075 3097 
Q 1594 3097 1305 2825 
Q 1016 2553 972 2059 
L 3022 2063 
z
" transform="scale(0.015625)"/>
     </defs>
     <use xlink:href="#DejaVuSans-70"/>
     <use xlink:href="#DejaVuSans-61" x="63.476562"/>
     <use xlink:href="#DejaVuSans-72" x="124.755859"/>
     <use xlink:href="#DejaVuSans-61" x="165.869141"/>
     <use xlink:href="#DejaVuSans-20" x="227.148438"/>
     <use xlink:href="#DejaVuSans-65" x="258.935547"/>
     <use xlink:href="#DejaVuSans-6d" x="320.458984"/>
     <use xlink:href="#DejaVuSans-20" x="417.871094"/>
     <use xlink:href="#DejaVuSans-34" x="449.658203"/>
     <use xlink:href="#DejaVuSans-20" x="513.28125"/>
     <use xlink:href="#DejaVuSans-73" x="545.068359"/>
    </g>
   </g>
  </g>
 </g>
 <defs>
  <clipPath id="pcab1c7bdf8">
   <rect x="4" y="4" width="748" height="294.4"/>
  </clipPath>
 </defs>
</svg>
